<svg version="1.1" xmlns="http://www.w3.org/2000/svg" xmlns:xlink="http://www.w3.org/1999/xlink" width="1167.92529296875" height="857"><defs/><g><g transform="translate(-46,-93) scale(1,1)"><rect fill="#C0C0C0" stroke="none" x="63" y="271" width="343.90869140625" height="278" opacity="0.2"/></g><g transform="translate(-46,-93) scale(1,1)"><rect fill="#ffffff" stroke="none" x="56" y="264" width="343.90869140625" height="278"/></g><g transform="translate(-46,-93) scale(1,1)"><path fill="none" stroke="#000000" d="M 56 264 L 399.90869140625 264 L 399.90869140625 542 L 56 542 L 56 264 Z Z" stroke-miterlimit="10"/></g><g transform="translate(-46,-93) scale(1,1)"><path fill="none" stroke="#000000" d="M 56 289 L 399.90869140625 289" stroke-miterlimit="10"/></g><g transform="translate(-46,-93) scale(1,1)"><path fill="none" stroke="#000000" d="M 56 357 L 399.90869140625 357" stroke-miterlimit="10"/></g><g transform="translate(-46,-93) scale(1,1)"><g><path fill="none" stroke="none"/><text fill="#000000" stroke="none" font-family="Arial" font-size="13px" font-style="normal" font-weight="bold" text-decoration="none" x="214.230712890625" y="283.5">User</text></g></g><g transform="translate(-46,-93) scale(1,1)"><g><path fill="none" stroke="none"/><text fill="#000000" stroke="none" font-family="Arial" font-size="13px" font-style="normal" font-weight="normal" text-decoration="none" x="61" y="306.5">+registered: boolean</text></g></g><g transform="translate(-46,-93) scale(1,1)"><g><path fill="none" stroke="none"/><text fill="#000000" stroke="none" font-family="Arial" font-size="13px" font-style="normal" font-weight="normal" text-decoration="none" x="61" y="321.5">+loggedIn: boolean</text></g></g><g transform="translate(-46,-93) scale(1,1)"><g><path fill="none" stroke="none"/><text fill="#000000" stroke="none" font-family="Arial" font-size="13px" font-style="normal" font-weight="normal" text-decoration="none" x="61" y="336.5">+banned: boolean</text></g></g><g transform="translate(-46,-93) scale(1,1)"><g><path fill="none" stroke="none"/><text fill="#000000" stroke="none" font-family="Arial" font-size="13px" font-style="normal" font-weight="normal" text-decoration="none" x="61" y="351.5">+position: Position</text></g></g><g transform="translate(-46,-93) scale(1,1)"><g><path fill="none" stroke="none"/><text fill="#000000" stroke="none" font-family="Arial" font-size="13px" font-style="normal" font-weight="normal" text-decoration="none" x="61" y="374.5">+register(): void</text></g></g><g transform="translate(-46,-93) scale(1,1)"><g><path fill="none" stroke="none"/><text fill="#000000" stroke="none" font-family="Arial" font-size="13px" font-style="normal" font-weight="normal" text-decoration="none" x="61" y="389.5">+login(): void</text></g></g><g transform="translate(-46,-93) scale(1,1)"><g><path fill="none" stroke="none"/><text fill="#000000" stroke="none" font-family="Arial" font-size="13px" font-style="normal" font-weight="normal" text-decoration="none" x="61" y="404.5">+reserveCar(c: Car): Reservation</text></g></g><g transform="translate(-46,-93) scale(1,1)"><g><path fill="none" stroke="none"/><text fill="#000000" stroke="none" font-family="Arial" font-size="13px" font-style="normal" font-weight="normal" text-decoration="none" x="61" y="419.5">+startRide(r: Reservation): Ride</text></g></g><g transform="translate(-46,-93) scale(1,1)"><g><path fill="none" stroke="none"/><text fill="#000000" stroke="none" font-family="Arial" font-size="13px" font-style="normal" font-weight="normal" text-decoration="none" x="61" y="434.5">+getReservations(): Collection&lt;Reservation&gt;</text></g></g><g transform="translate(-46,-93) scale(1,1)"><g><path fill="none" stroke="none"/><text fill="#000000" stroke="none" font-family="Arial" font-size="13px" font-style="normal" font-weight="normal" text-decoration="none" x="61" y="449.5">+getCurrentRide(): Ride</text></g></g><g transform="translate(-46,-93) scale(1,1)"><g><path fill="none" stroke="none"/><text fill="#000000" stroke="none" font-family="Arial" font-size="13px" font-style="normal" font-weight="normal" text-decoration="none" x="61" y="464.5">+chargeBill(b: Bill): boolean</text></g></g><g transform="translate(-46,-93) scale(1,1)"><g><path fill="none" stroke="none"/><text fill="#000000" stroke="none" font-family="Arial" font-size="13px" font-style="normal" font-weight="normal" text-decoration="none" x="61" y="479.5">+getPendingBills(): Collection&lt;Bill&gt;</text></g></g><g transform="translate(-46,-93) scale(1,1)"><g><path fill="none" stroke="none"/><text fill="#000000" stroke="none" font-family="Arial" font-size="13px" font-style="normal" font-weight="normal" text-decoration="none" x="61" y="494.5">+searchCars(p: Position, radius: Double): Collection&lt;Car&gt;</text></g></g><g transform="translate(-46,-93) scale(1,1)"><rect fill="#C0C0C0" stroke="none" x="919" y="279" width="198.693359375" height="203" opacity="0.2"/></g><g transform="translate(-46,-93) scale(1,1)"><rect fill="#ffffff" stroke="none" x="912" y="272" width="198.693359375" height="203"/></g><g transform="translate(-46,-93) scale(1,1)"><path fill="none" stroke="#000000" d="M 912 272 L 1110.693359375 272 L 1110.693359375 475 L 912 475 L 912 272 Z Z" stroke-miterlimit="10"/></g><g transform="translate(-46,-93) scale(1,1)"><path fill="none" stroke="#000000" d="M 912 297 L 1110.693359375 297" stroke-miterlimit="10"/></g><g transform="translate(-46,-93) scale(1,1)"><path fill="none" stroke="#000000" d="M 912 350 L 1110.693359375 350" stroke-miterlimit="10"/></g><g transform="translate(-46,-93) scale(1,1)"><g><path fill="none" stroke="none"/><text fill="#000000" stroke="none" font-family="Arial" font-size="13px" font-style="normal" font-weight="bold" text-decoration="none" x="1000.873046875" y="291.5">Car</text></g></g><g transform="translate(-46,-93) scale(1,1)"><g><path fill="none" stroke="none"/><text fill="#000000" stroke="none" font-family="Arial" font-size="13px" font-style="normal" font-weight="normal" text-decoration="none" x="917" y="314.5">+available: boolean</text></g></g><g transform="translate(-46,-93) scale(1,1)"><g><path fill="none" stroke="none"/><text fill="#000000" stroke="none" font-family="Arial" font-size="13px" font-style="normal" font-weight="normal" text-decoration="none" x="917" y="329.5">+becomingAvailable</text></g></g><g transform="translate(-46,-93) scale(1,1)"><g><path fill="none" stroke="none"/><text fill="#000000" stroke="none" font-family="Arial" font-size="13px" font-style="normal" font-weight="normal" text-decoration="none" x="917" y="344.5">+position: Position</text></g></g><g transform="translate(-46,-93) scale(1,1)"><g><path fill="none" stroke="none"/><text fill="#000000" stroke="none" font-family="Arial" font-size="13px" font-style="normal" font-weight="normal" text-decoration="none" x="917" y="367.5">+reserve(u: User): void</text></g></g><g transform="translate(-46,-93) scale(1,1)"><g><path fill="none" stroke="none"/><text fill="#000000" stroke="none" font-family="Arial" font-size="13px" font-style="normal" font-weight="normal" text-decoration="none" x="917" y="382.5">+getBatteryLevel(): float</text></g></g><g transform="translate(-46,-93) scale(1,1)"><g><path fill="none" stroke="none"/><text fill="#000000" stroke="none" font-family="Arial" font-size="13px" font-style="normal" font-weight="normal" text-decoration="none" x="917" y="397.5">+getPassengersCount(): float</text></g></g><g transform="translate(-46,-93) scale(1,1)"><g><path fill="none" stroke="none"/><text fill="#000000" stroke="none" font-family="Arial" font-size="13px" font-style="normal" font-weight="normal" text-decoration="none" x="917" y="412.5">+isPlugged(): boolean</text></g></g><g transform="translate(-46,-93) scale(1,1)"><g><path fill="none" stroke="none"/><text fill="#000000" stroke="none" font-family="Arial" font-size="13px" font-style="normal" font-weight="normal" text-decoration="none" x="917" y="427.5">+startRide(): void</text></g></g><g transform="translate(-46,-93) scale(1,1)"><g><path fill="none" stroke="none"/><text fill="#000000" stroke="none" font-family="Arial" font-size="13px" font-style="normal" font-weight="normal" text-decoration="none" x="917" y="442.5">+endRide(): void</text></g></g><g transform="translate(-46,-93) scale(1,1)"><rect fill="#C0C0C0" stroke="none" x="639" y="175" width="126.41259765625" height="128" opacity="0.2"/></g><g transform="translate(-46,-93) scale(1,1)"><rect fill="#ffffff" stroke="none" x="632" y="168" width="126.41259765625" height="128"/></g><g transform="translate(-46,-93) scale(1,1)"><path fill="none" stroke="#000000" d="M 632 168 L 758.41259765625 168 L 758.41259765625 296 L 632 296 L 632 168 Z Z" stroke-miterlimit="10"/></g><g transform="translate(-46,-93) scale(1,1)"><path fill="none" stroke="#000000" d="M 632 193 L 758.41259765625 193" stroke-miterlimit="10"/></g><g transform="translate(-46,-93) scale(1,1)"><path fill="none" stroke="#000000" d="M 632 246 L 758.41259765625 246" stroke-miterlimit="10"/></g><g transform="translate(-46,-93) scale(1,1)"><g><path fill="none" stroke="none"/><text fill="#000000" stroke="none" font-family="Arial" font-size="13px" font-style="normal" font-weight="bold" text-decoration="none" x="660.522705078125" y="187.5">Reservation</text></g></g><g transform="translate(-46,-93) scale(1,1)"><g><path fill="none" stroke="none"/><text fill="#000000" stroke="none" font-family="Arial" font-size="13px" font-style="normal" font-weight="normal" text-decoration="none" x="637" y="210.5">+user: User</text></g></g><g transform="translate(-46,-93) scale(1,1)"><g><path fill="none" stroke="none"/><text fill="#000000" stroke="none" font-family="Arial" font-size="13px" font-style="normal" font-weight="normal" text-decoration="none" x="637" y="225.5">+car: Car</text></g></g><g transform="translate(-46,-93) scale(1,1)"><g><path fill="none" stroke="none"/><text fill="#000000" stroke="none" font-family="Arial" font-size="13px" font-style="normal" font-weight="normal" text-decoration="none" x="637" y="240.5">+creationTime: Date</text></g></g><g transform="translate(-46,-93) scale(1,1)"><g><path fill="none" stroke="none"/><text fill="#000000" stroke="none" font-family="Arial" font-size="13px" font-style="normal" font-weight="normal" text-decoration="none" x="637" y="263.5">+startRide(): Ride</text></g></g><g transform="translate(-46,-93) scale(1,1)"><g><path fill="none" stroke="none"/><text fill="#000000" stroke="none" font-family="Arial" font-size="13px" font-style="normal" font-weight="normal" text-decoration="none" x="637" y="278.5">+expire(): Bill</text></g></g><g transform="translate(-46,-93) scale(1,1)"><rect fill="#C0C0C0" stroke="none" x="583" y="535" width="157.49072265625" height="143" opacity="0.2"/></g><g transform="translate(-46,-93) scale(1,1)"><rect fill="#ffffff" stroke="none" x="576" y="528" width="157.49072265625" height="143"/></g><g transform="translate(-46,-93) scale(1,1)"><path fill="none" stroke="#000000" d="M 576 528 L 733.49072265625 528 L 733.49072265625 671 L 576 671 L 576 528 Z Z" stroke-miterlimit="10"/></g><g transform="translate(-46,-93) scale(1,1)"><path fill="none" stroke="#000000" d="M 576 553 L 733.49072265625 553" stroke-miterlimit="10"/></g><g transform="translate(-46,-93) scale(1,1)"><path fill="none" stroke="#000000" d="M 576 606 L 733.49072265625 606" stroke-miterlimit="10"/></g><g transform="translate(-46,-93) scale(1,1)"><g><path fill="none" stroke="none"/><text fill="#000000" stroke="none" font-family="Arial" font-size="13px" font-style="normal" font-weight="bold" text-decoration="none" x="641.377197265625" y="547.5">Ride</text></g></g><g transform="translate(-46,-93) scale(1,1)"><g><path fill="none" stroke="none"/><text fill="#000000" stroke="none" font-family="Arial" font-size="13px" font-style="normal" font-weight="normal" text-decoration="none" x="581" y="570.5">+user: User</text></g></g><g transform="translate(-46,-93) scale(1,1)"><g><path fill="none" stroke="none"/><text fill="#000000" stroke="none" font-family="Arial" font-size="13px" font-style="normal" font-weight="normal" text-decoration="none" x="581" y="585.5">+car: Car</text></g></g><g transform="translate(-46,-93) scale(1,1)"><g><path fill="none" stroke="none"/><text fill="#000000" stroke="none" font-family="Arial" font-size="13px" font-style="normal" font-weight="normal" text-decoration="none" x="581" y="600.5">+startTime: Date</text></g></g><g transform="translate(-46,-93) scale(1,1)"><g><path fill="none" stroke="none"/><text fill="#000000" stroke="none" font-family="Arial" font-size="13px" font-style="normal" font-weight="normal" text-decoration="none" x="581" y="623.5">+start(): void</text></g></g><g transform="translate(-46,-93) scale(1,1)"><g><path fill="none" stroke="none"/><text fill="#000000" stroke="none" font-family="Arial" font-size="13px" font-style="normal" font-weight="normal" text-decoration="none" x="581" y="638.5">+end(): void</text></g></g><g transform="translate(-46,-93) scale(1,1)"><g><path fill="none" stroke="none"/><text fill="#000000" stroke="none" font-family="Arial" font-size="13px" font-style="normal" font-weight="normal" text-decoration="none" x="581" y="653.5">+computeBill(): Bill</text></g></g><g transform="translate(-46,-93) scale(1,1)"><rect fill="#C0C0C0" stroke="none" x="391" y="743" width="120" height="72" opacity="0.2"/></g><g transform="translate(-46,-93) scale(1,1)"><rect fill="#ffffff" stroke="none" x="384" y="736" width="120" height="72"/></g><g transform="translate(-46,-93) scale(1,1)"><path fill="none" stroke="#000000" d="M 384 736 L 504 736 L 504 808 L 384 808 L 384 736 Z Z" stroke-miterlimit="10"/></g><g transform="translate(-46,-93) scale(1,1)"><path fill="none" stroke="#000000" d="M 384 761 L 504 761" stroke-miterlimit="10"/></g><g transform="translate(-46,-93) scale(1,1)"><path fill="none" stroke="#000000" d="M 384 799 L 504 799" stroke-miterlimit="10"/></g><g transform="translate(-46,-93) scale(1,1)"><g><path fill="none" stroke="none"/><text fill="#000000" stroke="none" font-family="Arial" font-size="13px" font-style="normal" font-weight="bold" text-decoration="none" x="420.87548828125" y="755.5">Position</text></g></g><g transform="translate(-46,-93) scale(1,1)"><g><path fill="none" stroke="none"/><text fill="#000000" stroke="none" font-family="Arial" font-size="13px" font-style="normal" font-weight="normal" text-decoration="none" x="389" y="778.5">+latitute: Double</text></g></g><g transform="translate(-46,-93) scale(1,1)"><g><path fill="none" stroke="none"/><text fill="#000000" stroke="none" font-family="Arial" font-size="13px" font-style="normal" font-weight="normal" text-decoration="none" x="389" y="793.5">+longitude: Double</text></g></g><g transform="translate(-46,-93) scale(1,1)"><rect fill="#C0C0C0" stroke="none" x="663" y="391" width="72.2353515625" height="72" opacity="0.2"/></g><g transform="translate(-46,-93) scale(1,1)"><rect fill="#ffffff" stroke="none" x="656" y="384" width="72.2353515625" height="72"/></g><g transform="translate(-46,-93) scale(1,1)"><path fill="none" stroke="#000000" d="M 656 384 L 728.2353515625 384 L 728.2353515625 456 L 656 456 L 656 384 Z Z" stroke-miterlimit="10"/></g><g transform="translate(-46,-93) scale(1,1)"><path fill="none" stroke="#000000" d="M 656 409 L 728.2353515625 409" stroke-miterlimit="10"/></g><g transform="translate(-46,-93) scale(1,1)"><path fill="none" stroke="#000000" d="M 656 447 L 728.2353515625 447" stroke-miterlimit="10"/></g><g transform="translate(-46,-93) scale(1,1)"><g><path fill="none" stroke="none"/><text fill="#000000" stroke="none" font-family="Arial" font-size="13px" font-style="normal" font-weight="bold" text-decoration="none" x="683.449951171875" y="403.5">Bill</text></g></g><g transform="translate(-46,-93) scale(1,1)"><g><path fill="none" stroke="none"/><text fill="#000000" stroke="none" font-family="Arial" font-size="13px" font-style="normal" font-weight="normal" text-decoration="none" x="661" y="426.5">+amount</text></g></g><g transform="translate(-46,-93) scale(1,1)"><g><path fill="none" stroke="none"/><text fill="#000000" stroke="none" font-family="Arial" font-size="13px" font-style="normal" font-weight="normal" text-decoration="none" x="661" y="441.5">+isPaid</text></g></g><g transform="translate(-46,-93) scale(1,1)"><rect fill="#C0C0C0" stroke="none" x="911" y="615" width="210" height="85" opacity="0.2"/></g><g transform="translate(-46,-93) scale(1,1)"><rect fill="#ffffff" stroke="none" x="904" y="608" width="210" height="85"/></g><g transform="translate(-46,-93) scale(1,1)"><path fill="none" stroke="#000000" d="M 904 608 L 1114 608 L 1114 693 L 904 693 L 904 608 Z Z" stroke-miterlimit="10"/></g><g transform="translate(-46,-93) scale(1,1)"><path fill="none" stroke="#000000" d="M 904 633 L 1114 633" stroke-miterlimit="10"/></g><g transform="translate(-46,-93) scale(1,1)"><path fill="none" stroke="#000000" d="M 904 656 L 1114 656" stroke-miterlimit="10"/></g><g transform="translate(-46,-93) scale(1,1)"><g><path fill="none" stroke="none"/><text fill="#000000" stroke="none" font-family="Arial" font-size="13px" font-style="normal" font-weight="bold" text-decoration="none" x="981.898681640625" y="627.5">SafeArea</text></g></g><g transform="translate(-46,-93) scale(1,1)"><g><path fill="none" stroke="none"/><text fill="#000000" stroke="none" font-family="Arial" font-size="13px" font-style="normal" font-weight="normal" text-decoration="none" x="909" y="650.5">+boundaries: Collection&lt;Position&gt;</text></g></g><g transform="translate(-46,-93) scale(1,1)"><g><path fill="none" stroke="none"/><text fill="#000000" stroke="none" font-family="Arial" font-size="13px" font-style="normal" font-weight="normal" text-decoration="none" x="909" y="673.5">+getCars(): Collection&lt;Car&gt;</text></g></g><g transform="translate(-46,-93) scale(1,1)"><g><path fill="none" stroke="none"/><text fill="#000000" stroke="none" font-family="Arial" font-size="13px" font-style="normal" font-weight="normal" text-decoration="none" x="909" y="688.5">+isIn(c: Car): boolean</text></g></g><g transform="translate(-46,-93) scale(1,1)"><rect fill="#C0C0C0" stroke="none" x="847" y="767" width="113.05078125" height="44" opacity="0.2"/></g><g transform="translate(-46,-93) scale(1,1)"><rect fill="#ffffff" stroke="none" x="840" y="760" width="113.05078125" height="44"/></g><g transform="translate(-46,-93) scale(1,1)"><path fill="none" stroke="#000000" d="M 840 760 L 953.05078125 760 L 953.05078125 804 L 840 804 L 840 760 Z Z" stroke-miterlimit="10"/></g><g transform="translate(-46,-93) scale(1,1)"><path fill="none" stroke="#000000" d="M 840 785 L 953.05078125 785" stroke-miterlimit="10"/></g><g transform="translate(-46,-93) scale(1,1)"><path fill="none" stroke="#000000" d="M 840 795 L 953.05078125 795" stroke-miterlimit="10"/></g><g transform="translate(-46,-93) scale(1,1)"><g><path fill="none" stroke="none"/><text fill="#000000" stroke="none" font-family="Arial" font-size="13px" font-style="normal" font-weight="bold" text-decoration="none" x="847.385009765625" y="779.5">SafeParkingArea</text></g></g><g transform="translate(-46,-93) scale(1,1)"><rect fill="#C0C0C0" stroke="none" x="1039" y="767" width="171.92529296875" height="70" opacity="0.2"/></g><g transform="translate(-46,-93) scale(1,1)"><rect fill="#ffffff" stroke="none" x="1032" y="760" width="171.92529296875" height="70"/></g><g transform="translate(-46,-93) scale(1,1)"><path fill="none" stroke="#000000" d="M 1032 760 L 1203.92529296875 760 L 1203.92529296875 830 L 1032 830 L 1032 760 Z Z" stroke-miterlimit="10"/></g><g transform="translate(-46,-93) scale(1,1)"><path fill="none" stroke="#000000" d="M 1032 785 L 1203.92529296875 785" stroke-miterlimit="10"/></g><g transform="translate(-46,-93) scale(1,1)"><path fill="none" stroke="#000000" d="M 1032 808 L 1203.92529296875 808" stroke-miterlimit="10"/></g><g transform="translate(-46,-93) scale(1,1)"><g><path fill="none" stroke="none"/><text fill="#000000" stroke="none" font-family="Arial" font-size="13px" font-style="normal" font-weight="bold" text-decoration="none" x="1064.483642578125" y="779.5">RechargingStation</text></g></g><g transform="translate(-46,-93) scale(1,1)"><g><path fill="none" stroke="none"/><text fill="#000000" stroke="none" font-family="Arial" font-size="13px" font-style="normal" font-weight="normal" text-decoration="none" x="1037" y="802.5">+plugs: Collection&lt;Plug&gt;</text></g></g><g transform="translate(-46,-93) scale(1,1)"><g><path fill="none" stroke="none"/><text fill="#000000" stroke="none" font-family="Arial" font-size="13px" font-style="normal" font-weight="normal" text-decoration="none" x="1037" y="825.5">+getPlugOfCar(c: Car): Plug</text></g></g><g transform="translate(-46,-93) scale(1,1)"><rect fill="#C0C0C0" stroke="none" x="1127" y="903" width="50.919921875" height="44" opacity="0.2"/></g><g transform="translate(-46,-93) scale(1,1)"><rect fill="#ffffff" stroke="none" x="1120" y="896" width="50.919921875" height="44"/></g><g transform="translate(-46,-93) scale(1,1)"><path fill="none" stroke="#000000" d="M 1120 896 L 1170.919921875 896 L 1170.919921875 940 L 1120 940 L 1120 896 Z Z" stroke-miterlimit="10"/></g><g transform="translate(-46,-93) scale(1,1)"><path fill="none" stroke="#000000" d="M 1120 921 L 1170.919921875 921" stroke-miterlimit="10"/></g><g transform="translate(-46,-93) scale(1,1)"><path fill="none" stroke="#000000" d="M 1120 931 L 1170.919921875 931" stroke-miterlimit="10"/></g><g transform="translate(-46,-93) scale(1,1)"><g><path fill="none" stroke="none"/><text fill="#000000" stroke="none" font-family="Arial" font-size="13px" font-style="normal" font-weight="bold" text-decoration="none" x="1132.450439453125" y="915.5">Plug</text></g></g><g transform="translate(-46,-93) scale(1,1)"><path fill="none" stroke="#000000" d="M 896 760 L 896 740 L 1000 740 L 1000 693" stroke-miterlimit="10"/></g><g transform="translate(-46,-93) scale(1,1)"><path fill="#FFFFFF" stroke="none" d="M 1008.419035512032 713.3253497152483 L 1000 693 L 991.580964487968 713.3253497152483"/></g><g transform="translate(-46,-93) scale(1,1)"><path fill="none" stroke="#000000" d="M 1008.419035512032 713.3253497152483 L 1000 693 L 991.580964487968 713.3253497152483 L 1008.419035512032 713.3253497152483" stroke-miterlimit="10"/></g><g transform="translate(-46,-93) scale(1,1)"><path fill="none" stroke="#000000" d="M 1117 760 L 1117 740 L 1000 740 L 1000 693" stroke-miterlimit="10"/></g><g transform="translate(-46,-93) scale(1,1)"><path fill="#FFFFFF" stroke="none" d="M 1008.419035512032 713.3253497152483 L 1000 693 L 991.580964487968 713.3253497152483"/></g><g transform="translate(-46,-93) scale(1,1)"><path fill="none" stroke="#000000" d="M 1008.419035512032 713.3253497152483 L 1000 693 L 991.580964487968 713.3253497152483 L 1008.419035512032 713.3253497152483" stroke-miterlimit="10"/></g><g transform="translate(-46,-93) scale(1,1)"><path fill="none" stroke="#000000" d="M 631 255 L 401 339" stroke-miterlimit="10"/></g><g transform="translate(-46,-93) scale(1,1)"><g><path fill="none" stroke="none"/><text fill="#000000" stroke="none" font-family="Arial" font-size="13px" font-style="normal" font-weight="normal" text-decoration="none" x="493" y="318">+requests</text></g></g><g transform="translate(-46,-93) scale(1,1)"><path fill="none" stroke="#000000" d="M 759 261 L 911 328" stroke-miterlimit="10"/></g><g transform="translate(-46,-93) scale(1,1)"><g><path fill="none" stroke="none"/><text fill="#000000" stroke="none" font-family="Arial" font-size="13px" font-style="normal" font-weight="normal" text-decoration="none" x="814" y="287">+includes</text></g></g><g transform="translate(-46,-93) scale(1,1)"><path fill="none" stroke="#000000" d="M 401 483 L 575 563" stroke-miterlimit="10"/></g><g transform="translate(-46,-93) scale(1,1)"><g><path fill="none" stroke="none"/><text fill="#000000" stroke="none" font-family="Arial" font-size="13px" font-style="normal" font-weight="normal" text-decoration="none" x="465" y="516">+performs</text></g></g><g transform="translate(-46,-93) scale(1,1)"><path fill="none" stroke="#000000" d="M 911 436 L 734 548" stroke-miterlimit="10"/></g><g transform="translate(-46,-93) scale(1,1)"><g><path fill="none" stroke="none"/><text fill="#000000" stroke="none" font-family="Arial" font-size="13px" font-style="normal" font-weight="normal" text-decoration="none" x="813" y="511">+uses</text></g></g><g transform="translate(-46,-93) scale(1,1)"><path fill="none" stroke="#000000" d="M 1008 608 L 1008 475" stroke-miterlimit="10"/></g><g transform="translate(-46,-93) scale(1,1)"><g><path fill="none" stroke="none"/><text fill="#000000" stroke="none" font-family="Arial" font-size="13px" font-style="normal" font-weight="normal" text-decoration="none" x="1016" y="549">+parks in</text></g></g><g transform="translate(-46,-93) scale(1,1)"><path fill="none" stroke="#000000" d="M 1144 896 L 1144 830" stroke-miterlimit="10"/></g><g transform="translate(-46,-93) scale(1,1)"><g><path fill="none" stroke="none"/><text fill="#000000" stroke="none" font-family="Arial" font-size="13px" font-style="normal" font-weight="normal" text-decoration="none" x="1151" y="861">+has</text></g></g><g transform="translate(-46,-93) scale(1,1)"><path fill="none" stroke="#000000" d="M 656 424 L 400 424" stroke-miterlimit="10"/></g><g transform="translate(-46,-93) scale(1,1)"><g><path fill="none" stroke="none"/><text fill="#000000" stroke="none" font-family="Arial" font-size="13px" font-style="normal" font-weight="normal" text-decoration="none" x="480" y="445">+pays</text></g></g><g transform="translate(-46,-93) scale(1,1)"><path fill="none" stroke="#000000" d="M 696 528 L 696 456" stroke-miterlimit="10"/></g><g transform="translate(-46,-93) scale(1,1)"><g><path fill="none" stroke="none"/><text fill="#000000" stroke="none" font-family="Arial" font-size="13px" font-style="normal" font-weight="normal" text-decoration="none" x="702" y="488">+generate</text></g></g><g transform="translate(-46,-93) scale(1,1)"><path fill="none" stroke="#000000" d="M 688 384 L 688 296" stroke-miterlimit="10"/></g><g transform="translate(-46,-93) scale(1,1)"><g><path fill="none" stroke="none"/><text fill="#000000" stroke="none" font-family="Arial" font-size="13px" font-style="normal" font-weight="normal" text-decoration="none" x="688" y="341">+expiresWith</text></g></g><g transform="translate(-46,-93) scale(1,1)"><path fill="none" stroke="#000000" d="M 422 735 L 309 543" stroke-miterlimit="10"/></g><g transform="translate(-46,-93) scale(1,1)"><g><path fill="none" stroke="none"/><text fill="#000000" stroke="none" font-family="Arial" font-size="13px" font-style="normal" font-weight="normal" text-decoration="none" x="371" y="634">+has</text></g></g><g transform="translate(-46,-93) scale(1,1)"><path fill="none" stroke="#000000" d="M 505 738 L 544 716 L 728 720 L 927 476" stroke-miterlimit="10"/></g><g transform="translate(-46,-93) scale(1,1)"><g><path fill="none" stroke="none"/><text fill="#000000" stroke="none" font-family="Arial" font-size="13px" font-style="normal" font-weight="normal" text-decoration="none" x="624" y="715">+has</text></g></g><g transform="translate(-46,-93) scale(1,1)"><path fill="none" stroke="#000000" d="M 903 683 L 632 768 L 505 771" stroke-miterlimit="10"/></g><g transform="translate(-46,-93) scale(1,1)"><g><path fill="none" stroke="none"/><text fill="#000000" stroke="none" font-family="Arial" font-size="13px" font-style="normal" font-weight="normal" text-decoration="none" x="687" y="765">+isDelimitedBy</text></g></g><g transform="translate(-46,-93) scale(1,1)"><path fill="none" stroke="#000000" d="M 192 264 L 192 120 L 1008 120 L 1008 272" stroke-miterlimit="10"/></g><g transform="translate(-46,-93) scale(1,1)"><g><path fill="none" stroke="none"/><text fill="#000000" stroke="none" font-family="Arial" font-size="13px" font-style="normal" font-weight="normal" text-decoration="none" x="542" y="116">+search</text></g></g></g></svg>