<svg version="1.1" xmlns="http://www.w3.org/2000/svg" xmlns:xlink="http://www.w3.org/1999/xlink" width="580" height="1268"><defs/><g><g transform="translate(-30,-6) scale(1,1)"><rect fill="#ffffff" stroke="none" x="40" y="16" width="184" height="21"/></g><g transform="translate(-30,-6) scale(1,1)"><path fill="none" stroke="#000000" d="M 40 16 L 224 16 L 224 37 L 40 37 L 40 16 Z Z" stroke-miterlimit="10" stroke-width="2"/></g><g transform="translate(-30,-6) scale(1,1)"><path fill="none" stroke="#000000" d="M 40 1256 L 40 16 L 224 16 L 224 1256" stroke-miterlimit="10" stroke-width="2"/></g><g transform="translate(-30,-6) scale(1,1)"><g><path fill="none" stroke="none"/><text fill="#000000" stroke="none" font-family="Arial" font-size="13px" font-style="normal" font-weight="normal" text-decoration="none" x="118.2763671875" y="33">User</text></g></g><g transform="translate(-30,-6) scale(1,1)"><rect fill="#ffffff" stroke="none" x="224" y="16" width="376" height="21"/></g><g transform="translate(-30,-6) scale(1,1)"><path fill="none" stroke="#000000" d="M 224 16 L 600 16 L 600 37 L 224 37 L 224 16 Z Z" stroke-miterlimit="10" stroke-width="2"/></g><g transform="translate(-30,-6) scale(1,1)"><path fill="none" stroke="#000000" d="M 224 1264 L 224 16 L 600 16 L 600 1264" stroke-miterlimit="10" stroke-width="2"/></g><g transform="translate(-30,-6) scale(1,1)"><g><path fill="none" stroke="none"/><text fill="#000000" stroke="none" font-family="Arial" font-size="13px" font-style="normal" font-weight="normal" text-decoration="none" x="385.273193359375" y="33">SYSTEM</text></g></g><g transform="translate(-30,-6) scale(1,1)"><path fill="#000000" stroke="none" d="M 112 65.5 C 112 60.2532944 116.2532944 56 121.5 56 C 126.7467056 56 131 60.2532944 131 65.5 C 131 70.7467056 126.7467056 75 121.5 75 C 116.2532944 75 112 70.7467056 112 65.5 Z"/></g><g transform="translate(-30,-6) scale(1,1)"><path fill="#C0C0C0" stroke="none" d="M 81 127 L 173 127 Q 183 127 183 137 L 183 170 Q 183 180 173 180 L 81 180 Q 71 180 71 170 L 71 137 Q 71 127 81 127 Z" opacity="0.2"/></g><g transform="translate(-30,-6) scale(1,1)"><path fill="#ffffff" stroke="none" d="M 74 120 L 166 120 Q 176 120 176 130 L 176 163 Q 176 173 166 173 L 74 173 Q 64 173 64 163 L 64 130 Q 64 120 74 120 Z"/></g><g transform="translate(-30,-6) scale(1,1)"><path fill="none" stroke="#000000" d="M 74 120 L 166 120 Q 176 120 176 130 L 176 163 Q 176 173 166 173 L 74 173 Q 64 173 64 163 L 64 130 Q 64 120 74 120 Z" stroke-miterlimit="10"/></g><g transform="translate(-30,-6) scale(1,1)"><g><path fill="none" stroke="none"/><text fill="#000000" stroke="none" font-family="Arial" font-size="13px" font-style="normal" font-weight="bold" text-decoration="none" x="72.671875" y="139.5">Park the car in a</text><text fill="#000000" stroke="none" font-family="Arial" font-size="13px" font-style="normal" font-weight="bold" text-decoration="none" x="92.898681640625" y="152.5">safe area</text></g></g><g transform="translate(-30,-6) scale(1,1)"><path fill="none" stroke="#000000" d="M 121 75 L 121 120" stroke-miterlimit="10"/></g><g transform="translate(-30,-6) scale(1,1)"><path fill="none" stroke="#000000" d="M 116.79048224398402 109.83732514237585 L 121 120 L 125.20951775601598 109.83732514237585" stroke-miterlimit="10"/></g><g transform="translate(-30,-6) scale(1,1)"><path fill="#C0C0C0" stroke="none" d="M 81 223 L 177.6181640625 223 Q 187.6181640625 223 187.6181640625 233 L 187.6181640625 266 Q 187.6181640625 276 177.6181640625 276 L 81 276 Q 71 276 71 266 L 71 233 Q 71 223 81 223 Z" opacity="0.2"/></g><g transform="translate(-30,-6) scale(1,1)"><path fill="#ffffff" stroke="none" d="M 74 216 L 170.6181640625 216 Q 180.6181640625 216 180.6181640625 226 L 180.6181640625 259 Q 180.6181640625 269 170.6181640625 269 L 74 269 Q 64 269 64 259 L 64 226 Q 64 216 74 216 Z"/></g><g transform="translate(-30,-6) scale(1,1)"><path fill="none" stroke="#000000" d="M 74 216 L 170.6181640625 216 Q 180.6181640625 216 180.6181640625 226 L 180.6181640625 259 Q 180.6181640625 269 170.6181640625 269 L 74 269 Q 64 269 64 259 L 64 226 Q 64 216 74 216 Z" stroke-miterlimit="10"/></g><g transform="translate(-30,-6) scale(1,1)"><g><path fill="none" stroke="none"/><text fill="#000000" stroke="none" font-family="Arial" font-size="13px" font-style="normal" font-weight="bold" text-decoration="none" x="82.921875" y="235.5">Get out of the</text><text fill="#000000" stroke="none" font-family="Arial" font-size="13px" font-style="normal" font-weight="bold" text-decoration="none" x="113.279541015625" y="248.5">car</text></g></g><g transform="translate(-30,-6) scale(1,1)"><path fill="none" stroke="#000000" d="M 121 174 L 121 215" stroke-miterlimit="10"/></g><g transform="translate(-30,-6) scale(1,1)"><path fill="none" stroke="#000000" d="M 116.79048224398402 204.83732514237585 L 121 215 L 125.20951775601598 204.83732514237585" stroke-miterlimit="10"/></g><g transform="translate(-30,-6) scale(1,1)"><path fill="#C0C0C0" stroke="none" d="M 409 295 L 474.58447265625 295 Q 484.58447265625 295 484.58447265625 305 L 484.58447265625 338 Q 484.58447265625 348 474.58447265625 348 L 409 348 Q 399 348 399 338 L 399 305 Q 399 295 409 295 Z" opacity="0.2"/></g><g transform="translate(-30,-6) scale(1,1)"><path fill="#ffffff" stroke="none" d="M 402 288 L 467.58447265625 288 Q 477.58447265625 288 477.58447265625 298 L 477.58447265625 331 Q 477.58447265625 341 467.58447265625 341 L 402 341 Q 392 341 392 331 L 392 298 Q 392 288 402 288 Z"/></g><g transform="translate(-30,-6) scale(1,1)"><path fill="none" stroke="#000000" d="M 402 288 L 467.58447265625 288 Q 477.58447265625 288 477.58447265625 298 L 477.58447265625 331 Q 477.58447265625 341 467.58447265625 341 L 402 341 Q 392 341 392 331 L 392 298 Q 392 288 402 288 Z" stroke-miterlimit="10"/></g><g transform="translate(-30,-6) scale(1,1)"><g><path fill="none" stroke="none"/><text fill="#000000" stroke="none" font-family="Arial" font-size="13px" font-style="normal" font-weight="bold" text-decoration="none" x="410.220458984375" y="307.5">Lock the</text><text fill="#000000" stroke="none" font-family="Arial" font-size="13px" font-style="normal" font-weight="bold" text-decoration="none" x="425.7626953125" y="320.5">car</text></g></g><g transform="translate(-30,-6) scale(1,1)"><path fill="none" stroke="#000000" d="M 181 232 L 440 232 L 440 288" stroke-miterlimit="10"/></g><g transform="translate(-30,-6) scale(1,1)"><path fill="none" stroke="#000000" d="M 435.790482243984 277.83732514237585 L 440 288 L 444.209517756016 277.83732514237585" stroke-miterlimit="10"/></g><g transform="translate(-30,-6) scale(1,1)"><path fill="#C0C0C0" stroke="none" d="M 393 375 L 493 375 Q 503 375 503 385 L 503 431 Q 503 441 493 441 L 393 441 Q 383 441 383 431 L 383 385 Q 383 375 393 375 Z" opacity="0.2"/></g><g transform="translate(-30,-6) scale(1,1)"><path fill="#ffffff" stroke="none" d="M 386 368 L 486 368 Q 496 368 496 378 L 496 424 Q 496 434 486 434 L 386 434 Q 376 434 376 424 L 376 378 Q 376 368 386 368 Z"/></g><g transform="translate(-30,-6) scale(1,1)"><path fill="none" stroke="#000000" d="M 386 368 L 486 368 Q 496 368 496 378 L 496 424 Q 496 434 486 434 L 386 434 Q 376 434 376 424 L 376 378 Q 376 368 386 368 Z" stroke-miterlimit="10"/></g><g transform="translate(-30,-6) scale(1,1)"><g><path fill="none" stroke="none"/><text fill="#000000" stroke="none" font-family="Arial" font-size="13px" font-style="normal" font-weight="bold" text-decoration="none" x="399.872314453125" y="387.5">Compute bill</text><text fill="#000000" stroke="none" font-family="Arial" font-size="13px" font-style="normal" font-weight="bold" text-decoration="none" x="386.8564453125" y="400.5">associated to the</text><text fill="#000000" stroke="none" font-family="Arial" font-size="13px" font-style="normal" font-weight="bold" text-decoration="none" x="425.161376953125" y="413.5">ride</text></g></g><g transform="translate(-30,-6) scale(1,1)"><path fill="none" stroke="#000000" d="M 435 342 L 435 367" stroke-miterlimit="10"/></g><g transform="translate(-30,-6) scale(1,1)"><path fill="none" stroke="#000000" d="M 430.790482243984 356.83732514237585 L 435 367 L 439.209517756016 356.83732514237585" stroke-miterlimit="10"/></g><g transform="translate(-30,-6) scale(1,1)"><path fill="#C0C0C0" stroke="none" d="M 409 471 L 477 471 Q 487 471 487 481 L 487 527 Q 487 537 477 537 L 409 537 Q 399 537 399 527 L 399 481 Q 399 471 409 471 Z" opacity="0.2"/></g><g transform="translate(-30,-6) scale(1,1)"><path fill="#ffffff" stroke="none" d="M 402 464 L 470 464 Q 480 464 480 474 L 480 520 Q 480 530 470 530 L 402 530 Q 392 530 392 520 L 392 474 Q 392 464 402 464 Z"/></g><g transform="translate(-30,-6) scale(1,1)"><path fill="none" stroke="#000000" d="M 402 464 L 470 464 Q 480 464 480 474 L 480 520 Q 480 530 470 530 L 402 530 Q 392 530 392 520 L 392 474 Q 392 464 402 464 Z" stroke-miterlimit="10"/></g><g transform="translate(-30,-6) scale(1,1)"><g><path fill="none" stroke="none"/><text fill="#000000" stroke="none" font-family="Arial" font-size="13px" font-style="normal" font-weight="bold" text-decoration="none" x="409.62548828125" y="483.5">Compute</text><text fill="#000000" stroke="none" font-family="Arial" font-size="13px" font-style="normal" font-weight="bold" text-decoration="none" x="408.5400390625" y="496.5">discounts</text><text fill="#000000" stroke="none" font-family="Arial" font-size="13px" font-style="normal" font-weight="bold" text-decoration="none" x="411.063232421875" y="509.5">and fees</text></g></g><g transform="translate(-30,-6) scale(1,1)"><path fill="none" stroke="#000000" d="M 436 435 L 436 463" stroke-miterlimit="10"/></g><g transform="translate(-30,-6) scale(1,1)"><path fill="none" stroke="#000000" d="M 431.790482243984 452.83732514237585 L 436 463 L 440.209517756016 452.83732514237585" stroke-miterlimit="10"/></g><g transform="translate(-30,-6) scale(1,1)"><path fill="#C0C0C0" stroke="none" d="M 401 567 L 485 567 Q 495 567 495 577 L 495 623 Q 495 633 485 633 L 401 633 Q 391 633 391 623 L 391 577 Q 391 567 401 567 Z" opacity="0.2"/></g><g transform="translate(-30,-6) scale(1,1)"><path fill="#ffffff" stroke="none" d="M 394 560 L 478 560 Q 488 560 488 570 L 488 616 Q 488 626 478 626 L 394 626 Q 384 626 384 616 L 384 570 Q 384 560 394 560 Z"/></g><g transform="translate(-30,-6) scale(1,1)"><path fill="none" stroke="#000000" d="M 394 560 L 478 560 Q 488 560 488 570 L 488 616 Q 488 626 478 626 L 394 626 Q 384 626 384 616 L 384 570 Q 384 560 394 560 Z" stroke-miterlimit="10"/></g><g transform="translate(-30,-6) scale(1,1)"><g><path fill="none" stroke="none"/><text fill="#000000" stroke="none" font-family="Arial" font-size="13px" font-style="normal" font-weight="bold" text-decoration="none" x="398.78369140625" y="579.5">Add discouts</text><text fill="#000000" stroke="none" font-family="Arial" font-size="13px" font-style="normal" font-weight="bold" text-decoration="none" x="394.083251953125" y="592.5">and fees to bill</text><text fill="#000000" stroke="none" font-family="Arial" font-size="13px" font-style="normal" font-weight="bold" text-decoration="none" x="414.319580078125" y="605.5">amount</text></g></g><g transform="translate(-30,-6) scale(1,1)"><path fill="none" stroke="#000000" d="M 436 531 L 436 559" stroke-miterlimit="10"/></g><g transform="translate(-30,-6) scale(1,1)"><path fill="none" stroke="#000000" d="M 431.790482243984 548.8373251423759 L 436 559 L 440.209517756016 548.8373251423759" stroke-miterlimit="10"/></g><g transform="translate(-30,-6) scale(1,1)"><path fill="#C0C0C0" stroke="none" d="M 401 663 L 485 663 Q 495 663 495 673 L 495 706 Q 495 716 485 716 L 401 716 Q 391 716 391 706 L 391 673 Q 391 663 401 663 Z" opacity="0.2"/></g><g transform="translate(-30,-6) scale(1,1)"><path fill="#ffffff" stroke="none" d="M 394 656 L 478 656 Q 488 656 488 666 L 488 699 Q 488 709 478 709 L 394 709 Q 384 709 384 699 L 384 666 Q 384 656 394 656 Z"/></g><g transform="translate(-30,-6) scale(1,1)"><path fill="none" stroke="#000000" d="M 394 656 L 478 656 Q 488 656 488 666 L 488 699 Q 488 709 478 709 L 394 709 Q 384 709 384 699 L 384 666 Q 384 656 394 656 Z" stroke-miterlimit="10"/></g><g transform="translate(-30,-6) scale(1,1)"><g><path fill="none" stroke="none"/><text fill="#000000" stroke="none" font-family="Arial" font-size="13px" font-style="normal" font-weight="bold" text-decoration="none" x="398.42822265625" y="675.5">Make the car</text><text fill="#000000" stroke="none" font-family="Arial" font-size="13px" font-style="normal" font-weight="bold" text-decoration="none" x="410.3427734375" y="688.5">available</text></g></g><g transform="translate(-30,-6) scale(1,1)"><path fill="none" stroke="#000000" d="M 436 627 L 436 655" stroke-miterlimit="10"/></g><g transform="translate(-30,-6) scale(1,1)"><path fill="none" stroke="#000000" d="M 431.790482243984 644.8373251423759 L 436 655 L 440.209517756016 644.8373251423759" stroke-miterlimit="10"/></g><g transform="translate(-30,-6) scale(1,1)"><path fill="#C0C0C0" stroke="none" d="M 417 751 L 469 751 Q 479 751 479 761 L 479 807 Q 479 817 469 817 L 417 817 Q 407 817 407 807 L 407 761 Q 407 751 417 751 Z" opacity="0.2"/></g><g transform="translate(-30,-6) scale(1,1)"><path fill="#ffffff" stroke="none" d="M 410 744 L 462 744 Q 472 744 472 754 L 472 800 Q 472 810 462 810 L 410 810 Q 400 810 400 800 L 400 754 Q 400 744 410 744 Z"/></g><g transform="translate(-30,-6) scale(1,1)"><path fill="none" stroke="#000000" d="M 410 744 L 462 744 Q 472 744 472 754 L 472 800 Q 472 810 462 810 L 410 810 Q 400 810 400 800 L 400 754 Q 400 744 410 744 Z" stroke-miterlimit="10"/></g><g transform="translate(-30,-6) scale(1,1)"><g><path fill="none" stroke="none"/><text fill="#000000" stroke="none" font-family="Arial" font-size="13px" font-style="normal" font-weight="bold" text-decoration="none" x="414.681396484375" y="763.5">Charge</text><text fill="#000000" stroke="none" font-family="Arial" font-size="13px" font-style="normal" font-weight="bold" text-decoration="none" x="409.990478515625" y="776.5">user with</text><text fill="#000000" stroke="none" font-family="Arial" font-size="13px" font-style="normal" font-weight="bold" text-decoration="none" x="428.052734375" y="789.5">bill</text></g></g><g transform="translate(-30,-6) scale(1,1)"><path fill="none" stroke="#000000" d="M 436 710 L 436 743" stroke-miterlimit="10"/></g><g transform="translate(-30,-6) scale(1,1)"><path fill="none" stroke="#000000" d="M 431.790482243984 732.8373251423759 L 436 743 L 440.209517756016 732.8373251423759" stroke-miterlimit="10"/></g><g transform="translate(-30,-6) scale(1,1)"><path fill="#C0C0C0" stroke="none" d="M 367 855 L 367 908 L 512.76806640625 908 L 526.26806640625 882 L 512.76806640625 855" opacity="0.2"/></g><g transform="translate(-30,-6) scale(1,1)"><path fill="#ffffff" stroke="none" d="M 360 848 L 360 901 L 505.76806640625 901 L 519.26806640625 875 L 505.76806640625 848"/></g><g transform="translate(-30,-6) scale(1,1)"><path fill="none" stroke="#000000" d="M 360 848 L 360 901 L 505.76806640625 901 L 519.26806640625 875 L 505.76806640625 848 L 360 848" stroke-miterlimit="10"/></g><g transform="translate(-30,-6) scale(1,1)"><g><path fill="none" stroke="none"/><text fill="#000000" stroke="none" font-family="Arial" font-size="13px" font-style="normal" font-weight="bold" text-decoration="none" x="384.35546875" y="867.5">Invoke payment for</text><text fill="#000000" stroke="none" font-family="Arial" font-size="13px" font-style="normal" font-weight="bold" text-decoration="none" x="426.989501953125" y="880.5">user</text></g></g><g transform="translate(-30,-6) scale(1,1)"><path fill="none" stroke="#000000" d="M 436 810 L 436 848" stroke-miterlimit="10"/></g><g transform="translate(-30,-6) scale(1,1)"><path fill="none" stroke="#000000" d="M 431.790482243984 837.8373251423759 L 436 848 L 440.209517756016 837.8373251423759" stroke-miterlimit="10"/></g><g transform="translate(-30,-6) scale(1,1)"><path fill="#ffffff" stroke="none" d="M 424 993 L 435 984 L 446 993 L 435 1002 L 424 993"/></g><g transform="translate(-30,-6) scale(1,1)"><path fill="none" stroke="#000000" d="M 424 993 L 435 984 L 446 993 L 435 1002 L 424 993 L 424 993" stroke-miterlimit="10"/></g><g transform="translate(-30,-6) scale(1,1)"><path fill="none" stroke="#000000" d="M 432 901 L 432 984" stroke-miterlimit="10"/></g><g transform="translate(-30,-6) scale(1,1)"><path fill="none" stroke="#000000" d="M 427.790482243984 973.8373251423759 L 432 984 L 436.209517756016 973.8373251423759" stroke-miterlimit="10"/></g><g transform="translate(-30,-6) scale(1,1)"><path fill="#C0C0C0" stroke="none" d="M 337 1047 L 381.630859375 1047 Q 391.630859375 1047 391.630859375 1057 L 391.630859375 1077 Q 391.630859375 1087 381.630859375 1087 L 337 1087 Q 327 1087 327 1077 L 327 1057 Q 327 1047 337 1047 Z" opacity="0.2"/></g><g transform="translate(-30,-6) scale(1,1)"><path fill="#ffffff" stroke="none" d="M 330 1040 L 374.630859375 1040 Q 384.630859375 1040 384.630859375 1050 L 384.630859375 1070 Q 384.630859375 1080 374.630859375 1080 L 330 1080 Q 320 1080 320 1070 L 320 1050 Q 320 1040 330 1040 Z"/></g><g transform="translate(-30,-6) scale(1,1)"><path fill="none" stroke="#000000" d="M 330 1040 L 374.630859375 1040 Q 384.630859375 1040 384.630859375 1050 L 384.630859375 1070 Q 384.630859375 1080 374.630859375 1080 L 330 1080 Q 320 1080 320 1070 L 320 1050 Q 320 1040 330 1040 Z" stroke-miterlimit="10"/></g><g transform="translate(-30,-6) scale(1,1)"><g><path fill="none" stroke="none"/><text fill="#000000" stroke="none" font-family="Arial" font-size="13px" font-style="normal" font-weight="bold" text-decoration="none" x="326.299560546875" y="1059.5">Ban user</text></g></g><g transform="translate(-30,-6) scale(1,1)"><path fill="none" stroke="#000000" d="M 423 1003 L 378 1039" stroke-miterlimit="10"/></g><g transform="translate(-30,-6) scale(1,1)"><path fill="none" stroke="#000000" d="M 383.306050922054 1029.3643462280668 L 378 1039 L 388.5653807116052 1035.9385084650057" stroke-miterlimit="10"/></g><g transform="translate(-30,-6) scale(1,1)"><g><path fill="none" stroke="none"/><text fill="#000000" stroke="none" font-family="Arial" font-size="13px" font-style="normal" font-weight="normal" text-decoration="none" x="239" y="1012">[Payment not successful]</text></g></g><g transform="translate(-30,-6) scale(1,1)"><path fill="#C0C0C0" stroke="none" d="M 431 1136.5 L 442.5 1127 L 453 1136.5 L 442.5 1145 L 431 1136.5" opacity="0.2"/></g><g transform="translate(-30,-6) scale(1,1)"><path fill="#ffffff" stroke="none" d="M 424 1129 L 435 1120 L 446 1129 L 435 1138 L 424 1129"/></g><g transform="translate(-30,-6) scale(1,1)"><path fill="none" stroke="#000000" d="M 424 1129 L 435 1120 L 446 1129 L 435 1138 L 424 1129 L 424 1129" stroke-miterlimit="10"/></g><g transform="translate(-30,-6) scale(1,1)"><path fill="none" stroke="#000000" d="M 377 1081 L 423 1119" stroke-miterlimit="10"/></g><g transform="translate(-30,-6) scale(1,1)"><path fill="none" stroke="#000000" d="M 412.48400263094146 1115.772958114007 L 423 1119 L 417.8459301501575 1109.28220374864" stroke-miterlimit="10"/></g><g transform="translate(-30,-6) scale(1,1)"><path fill="none" stroke="#000000" d="M 447 1003 L 480 1032 L 480 1072 L 443 1119" stroke-miterlimit="10"/></g><g transform="translate(-30,-6) scale(1,1)"><path fill="none" stroke="#000000" d="M 445.97864260887303 1108.410963773383 L 443 1119 L 452.59379770953615 1113.6186390653945" stroke-miterlimit="10"/></g><g transform="translate(-30,-6) scale(1,1)"><path fill="#C0C0C0" stroke="none" d="M 423 1207 C 423 1198.1634432 430.1634432 1191 439 1191 C 447.8365568 1191 455 1198.1634432 455 1207 C 455 1215.8365568 447.8365568 1223 439 1223 C 430.1634432 1223 423 1215.8365568 423 1207 Z" opacity="0.2"/></g><g transform="translate(-30,-6) scale(1,1)"><path fill="none" stroke="#000000" d="M 416 1200 C 416 1191.1634432 423.1634432 1184 432 1184 C 440.8365568 1184 448 1191.1634432 448 1200 C 448 1208.8365568 440.8365568 1216 432 1216 C 423.1634432 1216 416 1208.8365568 416 1200 Z" stroke-miterlimit="10"/></g><g transform="translate(-30,-6) scale(1,1)"><path fill="#000000" stroke="none" d="M 421 1200 C 421 1193.9248672 425.9248672 1189 432 1189 C 438.0751328 1189 443 1193.9248672 443 1200 C 443 1206.0751328 438.0751328 1211 432 1211 C 425.9248672 1211 421 1206.0751328 421 1200 Z"/></g><g transform="translate(-30,-6) scale(1,1)"><path fill="none" stroke="#000000" d="M 432 1138 L 432 1184" stroke-miterlimit="10"/></g><g transform="translate(-30,-6) scale(1,1)"><path fill="none" stroke="#000000" d="M 427.790482243984 1173.837325142376 L 432 1184 L 436.209517756016 1173.837325142376" stroke-miterlimit="10"/></g></g></svg>