<svg version="1.1" xmlns="http://www.w3.org/2000/svg" xmlns:xlink="http://www.w3.org/1999/xlink" width="866.865234375" height="220"><defs/><g><g transform="translate(-142,-173) scale(1,1)"><path fill="#C0C0C0" stroke="none" d="M 233 207 L 362.88623046875 207 Q 372.88623046875 207 372.88623046875 217 L 372.88623046875 236 Q 372.88623046875 246 362.88623046875 246 L 233 246 Q 223 246 223 236 L 223 217 Q 223 207 233 207 Z" opacity="0.2"/></g><g transform="translate(-142,-173) scale(1,1)"><path fill="#ffffff" stroke="none" d="M 226 200 L 355.88623046875 200 Q 365.88623046875 200 365.88623046875 210 L 365.88623046875 229 Q 365.88623046875 239 355.88623046875 239 L 226 239 Q 216 239 216 229 L 216 210 Q 216 200 226 200 Z"/></g><g transform="translate(-142,-173) scale(1,1)"><path fill="none" stroke="#000000" d="M 226 200 L 355.88623046875 200 Q 365.88623046875 200 365.88623046875 210 L 365.88623046875 229 Q 365.88623046875 239 355.88623046875 239 L 226 239 Q 216 239 216 229 L 216 210 Q 216 200 226 200 Z" stroke-miterlimit="10"/></g><g transform="translate(-142,-173) scale(1,1)"><g><path fill="none" stroke="none"/><text fill="#000000" stroke="none" font-family="Arial" font-size="13px" font-style="normal" font-weight="bold" text-decoration="none" x="224.8291015625" y="219.5">UnregisteredUserState</text></g></g><g transform="translate(-142,-173) scale(1,1)"><path fill="#C0C0C0" stroke="none" d="M 159 224.5 C 159 219.2532944 163.2532944 215 168.5 215 C 173.7467056 215 178 219.2532944 178 224.5 C 178 229.7467056 173.7467056 234 168.5 234 C 163.2532944 234 159 229.7467056 159 224.5 Z" opacity="0.2"/></g><g transform="translate(-142,-173) scale(1,1)"><path fill="#000000" stroke="none" d="M 152 217.5 C 152 212.2532944 156.2532944 208 161.5 208 C 166.7467056 208 171 212.2532944 171 217.5 C 171 222.7467056 166.7467056 227 161.5 227 C 156.2532944 227 152 222.7467056 152 217.5 Z"/></g><g transform="translate(-142,-173) scale(1,1)"><path fill="#C0C0C0" stroke="none" d="M 473 207 L 589.88623046875 207 Q 599.88623046875 207 599.88623046875 217 L 599.88623046875 236 Q 599.88623046875 246 589.88623046875 246 L 473 246 Q 463 246 463 236 L 463 217 Q 463 207 473 207 Z" opacity="0.2"/></g><g transform="translate(-142,-173) scale(1,1)"><path fill="#ffffff" stroke="none" d="M 466 200 L 582.88623046875 200 Q 592.88623046875 200 592.88623046875 210 L 592.88623046875 229 Q 592.88623046875 239 582.88623046875 239 L 466 239 Q 456 239 456 229 L 456 210 Q 456 200 466 200 Z"/></g><g transform="translate(-142,-173) scale(1,1)"><path fill="none" stroke="#000000" d="M 466 200 L 582.88623046875 200 Q 592.88623046875 200 592.88623046875 210 L 592.88623046875 229 Q 592.88623046875 239 582.88623046875 239 L 466 239 Q 456 239 456 229 L 456 210 Q 456 200 466 200 Z" stroke-miterlimit="10"/></g><g transform="translate(-142,-173) scale(1,1)"><g><path fill="none" stroke="none"/><text fill="#000000" stroke="none" font-family="Arial" font-size="13px" font-style="normal" font-weight="bold" text-decoration="none" x="464.108642578125" y="219.5">RegisteredUserState</text></g></g><g transform="translate(-142,-173) scale(1,1)"><path fill="#C0C0C0" stroke="none" d="M 825 207 L 921.630859375 207 Q 931.630859375 207 931.630859375 217 L 931.630859375 236 Q 931.630859375 246 921.630859375 246 L 825 246 Q 815 246 815 236 L 815 217 Q 815 207 825 207 Z" opacity="0.2"/></g><g transform="translate(-142,-173) scale(1,1)"><path fill="#ffffff" stroke="none" d="M 818 200 L 914.630859375 200 Q 924.630859375 200 924.630859375 210 L 924.630859375 229 Q 924.630859375 239 914.630859375 239 L 818 239 Q 808 239 808 229 L 808 210 Q 808 200 818 200 Z"/></g><g transform="translate(-142,-173) scale(1,1)"><path fill="none" stroke="#000000" d="M 818 200 L 914.630859375 200 Q 924.630859375 200 924.630859375 210 L 924.630859375 229 Q 924.630859375 239 914.630859375 239 L 818 239 Q 808 239 808 229 L 808 210 Q 808 200 818 200 Z" stroke-miterlimit="10"/></g><g transform="translate(-142,-173) scale(1,1)"><g><path fill="none" stroke="none"/><text fill="#000000" stroke="none" font-family="Arial" font-size="13px" font-style="normal" font-weight="bold" text-decoration="none" x="815.724609375" y="219.5">LoggedUserState</text></g></g><g transform="translate(-142,-173) scale(1,1)"><path fill="none" stroke="#000000" d="M 172 217 L 215 218" stroke-miterlimit="10"/></g><g transform="translate(-142,-173) scale(1,1)"><path fill="none" stroke="#000000" d="M 204.7422028826507 221.97210250362454 L 215 218 L 204.9379414824055 213.55534271416747" stroke-miterlimit="10"/></g><g transform="translate(-142,-173) scale(1,1)"><path fill="none" stroke="#000000" d="M 367 219 L 455 219" stroke-miterlimit="10"/></g><g transform="translate(-142,-173) scale(1,1)"><path fill="none" stroke="#000000" d="M 444.83732514237585 223.209517756016 L 455 219 L 444.83732514237585 214.790482243984" stroke-miterlimit="10"/></g><g transform="translate(-142,-173) scale(1,1)"><g><path fill="none" stroke="none"/><text fill="#000000" stroke="none" font-family="Arial" font-size="13px" font-style="normal" font-weight="normal" text-decoration="none" x="389" y="211">Sign up</text></g></g><g transform="translate(-142,-173) scale(1,1)"><path fill="none" stroke="#000000" d="M 594 208 Q 696 192 807 210" stroke-miterlimit="10"/></g><g transform="translate(-142,-173) scale(1,1)"><path fill="none" stroke="#000000" d="M 796.2945455953138 212.52848689717504 L 807 210 L 797.6421903636292 204.2180108258968" stroke-miterlimit="10"/></g><g transform="translate(-142,-173) scale(1,1)"><g><path fill="none" stroke="none"/><text fill="#000000" stroke="none" font-family="Arial" font-size="13px" font-style="normal" font-weight="normal" text-decoration="none" x="664" y="196">Log in</text></g></g><g transform="translate(-142,-173) scale(1,1)"><path fill="none" stroke="#000000" d="M 807 229 Q 688 248 594 231" stroke-miterlimit="10"/></g><g transform="translate(-142,-173) scale(1,1)"><path fill="none" stroke="#000000" d="M 604.7495910000775 228.6662705103094 L 594 231 L 603.251304638752 236.95091274352149" stroke-miterlimit="10"/></g><g transform="translate(-142,-173) scale(1,1)"><g><path fill="none" stroke="none"/><text fill="#000000" stroke="none" font-family="Arial" font-size="13px" font-style="normal" font-weight="normal" text-decoration="none" x="664" y="252">Log out</text></g></g><g transform="translate(-142,-173) scale(1,1)"><path fill="#C0C0C0" stroke="none" d="M 649 351 L 746.3671875 351 Q 756.3671875 351 756.3671875 361 L 756.3671875 380 Q 756.3671875 390 746.3671875 390 L 649 390 Q 639 390 639 380 L 639 361 Q 639 351 649 351 Z" opacity="0.2"/></g><g transform="translate(-142,-173) scale(1,1)"><path fill="#ffffff" stroke="none" d="M 642 344 L 739.3671875 344 Q 749.3671875 344 749.3671875 354 L 749.3671875 373 Q 749.3671875 383 739.3671875 383 L 642 383 Q 632 383 632 373 L 632 354 Q 632 344 642 344 Z"/></g><g transform="translate(-142,-173) scale(1,1)"><path fill="none" stroke="#000000" d="M 642 344 L 739.3671875 344 Q 749.3671875 344 749.3671875 354 L 749.3671875 373 Q 749.3671875 383 739.3671875 383 L 642 383 Q 632 383 632 373 L 632 354 Q 632 344 642 344 Z" stroke-miterlimit="10"/></g><g transform="translate(-142,-173) scale(1,1)"><g><path fill="none" stroke="none"/><text fill="#000000" stroke="none" font-family="Arial" font-size="13px" font-style="normal" font-weight="bold" text-decoration="none" x="639.372314453125" y="363.5">BannedUserState</text></g></g><g transform="translate(-142,-173) scale(1,1)"><path fill="none" stroke="#000000" d="M 526 240 Q 536 328 631 350" stroke-miterlimit="10"/></g><g transform="translate(-142,-173) scale(1,1)"><path fill="none" stroke="#000000" d="M 620.1496359464941 351.8082035024812 L 631 350 L 622.0490410410534 343.6062269577929" stroke-miterlimit="10"/></g><g transform="translate(-142,-173) scale(1,1)"><g><path fill="none" stroke="none"/><text fill="#000000" stroke="none" font-family="Arial" font-size="13px" font-style="normal" font-weight="normal" text-decoration="none" x="551" y="301">Cannot pay</text></g></g><g transform="translate(-142,-173) scale(1,1)"><path fill="none" stroke="#000000" d="M 855 240 Q 816 312 739 343" stroke-miterlimit="10"/></g><g transform="translate(-142,-173) scale(1,1)"><path fill="none" stroke="#000000" d="M 746.8552240324216 335.29964576136484 L 739 343 L 749.9994548807423 343.10950948138736" stroke-miterlimit="10"/></g><g transform="translate(-142,-173) scale(1,1)"><g><path fill="none" stroke="none"/><text fill="#000000" stroke="none" font-family="Arial" font-size="13px" font-style="normal" font-weight="normal" text-decoration="none" x="743" y="300">Cannot pay</text></g></g><g transform="translate(-142,-173) scale(1,1)"><path fill="none" stroke="#000000" d="M 750 362 Q 904 360 872 240" stroke-miterlimit="10"/></g><g transform="translate(-142,-173) scale(1,1)"><path fill="none" stroke="#000000" d="M 878.6859248753327 248.73489602464772 L 872 240 L 870.5511586058639 250.90416702983944" stroke-miterlimit="10"/></g><g transform="translate(-142,-173) scale(1,1)"><g><path fill="none" stroke="none"/><text fill="#000000" stroke="none" font-family="Arial" font-size="13px" font-style="normal" font-weight="normal" text-decoration="none" x="864" y="341">Estinguish pending bills</text></g></g></g></svg>