<svg version="1.1" xmlns="http://www.w3.org/2000/svg" xmlns:xlink="http://www.w3.org/1999/xlink" width="748.36083984375" height="685"><defs/><g><g transform="translate(10,-78) scale(1,1)"><path fill="#C0C0C0" stroke="none" d="M 7 152.5 C 7 147.2532944 11.2532944 143 16.5 143 C 21.7467056 143 26 147.2532944 26 152.5 C 26 157.7467056 21.7467056 162 16.5 162 C 11.2532944 162 7 157.7467056 7 152.5 Z" opacity="0.2"/></g><g transform="translate(10,-78) scale(1,1)"><path fill="#000000" stroke="none" d="M 0 145.5 C 0 140.2532944 4.2532944 136 9.5 136 C 14.7467056 136 19 140.2532944 19 145.5 C 19 150.7467056 14.7467056 155 9.5 155 C 4.2532944 155 0 150.7467056 0 145.5 Z"/></g><g transform="translate(10,-78) scale(1,1)"><path fill="#C0C0C0" stroke="none" d="M 161 135 L 241.74267578125 135 Q 251.74267578125 135 251.74267578125 145 L 251.74267578125 164 Q 251.74267578125 174 241.74267578125 174 L 161 174 Q 151 174 151 164 L 151 145 Q 151 135 161 135 Z" opacity="0.2"/></g><g transform="translate(10,-78) scale(1,1)"><path fill="#ffffff" stroke="none" d="M 154 128 L 234.74267578125 128 Q 244.74267578125 128 244.74267578125 138 L 244.74267578125 157 Q 244.74267578125 167 234.74267578125 167 L 154 167 Q 144 167 144 157 L 144 138 Q 144 128 154 128 Z"/></g><g transform="translate(10,-78) scale(1,1)"><path fill="none" stroke="#000000" d="M 154 128 L 234.74267578125 128 Q 244.74267578125 128 244.74267578125 138 L 244.74267578125 157 Q 244.74267578125 167 234.74267578125 167 L 154 167 Q 144 167 144 157 L 144 138 Q 144 128 154 128 Z" stroke-miterlimit="10"/></g><g transform="translate(10,-78) scale(1,1)"><g><path fill="none" stroke="none"/><text fill="#000000" stroke="none" font-family="Arial" font-size="13px" font-style="normal" font-weight="bold" text-decoration="none" x="166.197265625" y="147.5">Empty bill</text></g></g><g transform="translate(10,-78) scale(1,1)"><path fill="#C0C0C0" stroke="none" d="M 401 135 L 524.3544921875 135 Q 534.3544921875 135 534.3544921875 145 L 534.3544921875 164 Q 534.3544921875 174 524.3544921875 174 L 401 174 Q 391 174 391 164 L 391 145 Q 391 135 401 135 Z" opacity="0.2"/></g><g transform="translate(10,-78) scale(1,1)"><path fill="#ffffff" stroke="none" d="M 394 128 L 517.3544921875 128 Q 527.3544921875 128 527.3544921875 138 L 527.3544921875 157 Q 527.3544921875 167 517.3544921875 167 L 394 167 Q 384 167 384 157 L 384 138 Q 384 128 394 128 Z"/></g><g transform="translate(10,-78) scale(1,1)"><path fill="none" stroke="#000000" d="M 394 128 L 517.3544921875 128 Q 527.3544921875 128 527.3544921875 138 L 527.3544921875 157 Q 527.3544921875 167 517.3544921875 167 L 394 167 Q 384 167 384 157 L 384 138 Q 384 128 394 128 Z" stroke-miterlimit="10"/></g><g transform="translate(10,-78) scale(1,1)"><g><path fill="none" stroke="none"/><text fill="#000000" stroke="none" font-family="Arial" font-size="13px" font-style="normal" font-weight="bold" text-decoration="none" x="394.615966796875" y="147.5">Bill updates only cost</text></g></g><g transform="translate(10,-78) scale(1,1)"><path fill="#C0C0C0" stroke="none" d="M 393 479 L 577.78076171875 479 Q 587.78076171875 479 587.78076171875 489 L 587.78076171875 508 Q 587.78076171875 518 577.78076171875 518 L 393 518 Q 383 518 383 508 L 383 489 Q 383 479 393 479 Z" opacity="0.2"/></g><g transform="translate(10,-78) scale(1,1)"><path fill="#ffffff" stroke="none" d="M 386 472 L 570.78076171875 472 Q 580.78076171875 472 580.78076171875 482 L 580.78076171875 501 Q 580.78076171875 511 570.78076171875 511 L 386 511 Q 376 511 376 501 L 376 482 Q 376 472 386 472 Z"/></g><g transform="translate(10,-78) scale(1,1)"><path fill="none" stroke="#000000" d="M 386 472 L 570.78076171875 472 Q 580.78076171875 472 580.78076171875 482 L 580.78076171875 501 Q 580.78076171875 511 570.78076171875 511 L 386 511 Q 376 511 376 501 L 376 482 Q 376 472 386 472 Z" stroke-miterlimit="10"/></g><g transform="translate(10,-78) scale(1,1)"><g><path fill="none" stroke="none"/><text fill="#000000" stroke="none" font-family="Arial" font-size="13px" font-style="normal" font-weight="bold" text-decoration="none" x="386.241455078125" y="491.5">Ready to add percentage deltas</text></g></g><g transform="translate(10,-78) scale(1,1)"><path fill="#C0C0C0" stroke="none" d="M 513 687 L 608.20263671875 687 Q 618.20263671875 687 618.20263671875 697 L 618.20263671875 716 Q 618.20263671875 726 608.20263671875 726 L 513 726 Q 503 726 503 716 L 503 697 Q 503 687 513 687 Z" opacity="0.2"/></g><g transform="translate(10,-78) scale(1,1)"><path fill="#ffffff" stroke="none" d="M 506 680 L 601.20263671875 680 Q 611.20263671875 680 611.20263671875 690 L 611.20263671875 709 Q 611.20263671875 719 601.20263671875 719 L 506 719 Q 496 719 496 709 L 496 690 Q 496 680 506 680 Z"/></g><g transform="translate(10,-78) scale(1,1)"><path fill="none" stroke="#000000" d="M 506 680 L 601.20263671875 680 Q 611.20263671875 680 611.20263671875 690 L 611.20263671875 709 Q 611.20263671875 719 601.20263671875 719 L 506 719 Q 496 719 496 709 L 496 690 Q 496 680 506 680 Z" stroke-miterlimit="10"/></g><g transform="translate(10,-78) scale(1,1)"><g><path fill="none" stroke="none"/><text fill="#000000" stroke="none" font-family="Arial" font-size="13px" font-style="normal" font-weight="bold" text-decoration="none" x="513.503173828125" y="699.5">Bill is rejected</text></g></g><g transform="translate(10,-78) scale(1,1)"><path fill="#C0C0C0" stroke="none" d="M 225 687 L 293.46630859375 687 Q 303.46630859375 687 303.46630859375 697 L 303.46630859375 716 Q 303.46630859375 726 293.46630859375 726 L 225 726 Q 215 726 215 716 L 215 697 Q 215 687 225 687 Z" opacity="0.2"/></g><g transform="translate(10,-78) scale(1,1)"><path fill="#ffffff" stroke="none" d="M 218 680 L 286.46630859375 680 Q 296.46630859375 680 296.46630859375 690 L 296.46630859375 709 Q 296.46630859375 719 286.46630859375 719 L 218 719 Q 208 719 208 709 L 208 690 Q 208 680 218 680 Z"/></g><g transform="translate(10,-78) scale(1,1)"><path fill="none" stroke="#000000" d="M 218 680 L 286.46630859375 680 Q 296.46630859375 680 296.46630859375 690 L 296.46630859375 709 Q 296.46630859375 719 286.46630859375 719 L 218 719 Q 208 719 208 709 L 208 690 Q 208 680 218 680 Z" stroke-miterlimit="10"/></g><g transform="translate(10,-78) scale(1,1)"><g><path fill="none" stroke="none"/><text fill="#000000" stroke="none" font-family="Arial" font-size="13px" font-style="normal" font-weight="bold" text-decoration="none" x="222.970458984375" y="699.5">Bill is paid</text></g></g><g transform="translate(10,-78) scale(1,1)"><path fill="none" stroke="#000000" d="M 20 145 L 143 146" stroke-miterlimit="10"/></g><g transform="translate(10,-78) scale(1,1)"><path fill="none" stroke="#000000" d="M 132.80343840250967 150.1267579997603 L 143 146 L 132.87188358368192 141.7080007155746" stroke-miterlimit="10"/></g><g transform="translate(10,-78) scale(1,1)"><g><path fill="none" stroke="none"/><text fill="#000000" stroke="none" font-family="Arial" font-size="13px" font-style="normal" font-weight="normal" text-decoration="none" x="31" y="140">User starts a ride</text></g></g><g transform="translate(10,-78) scale(1,1)"><path fill="none" stroke="#000000" d="M 246 147 L 383 147" stroke-miterlimit="10"/></g><g transform="translate(10,-78) scale(1,1)"><path fill="none" stroke="#000000" d="M 372.83732514237585 151.209517756016 L 383 147 L 372.83732514237585 142.790482243984" stroke-miterlimit="10"/></g><g transform="translate(10,-78) scale(1,1)"><g><path fill="none" stroke="none"/><text fill="#000000" stroke="none" font-family="Arial" font-size="13px" font-style="normal" font-weight="normal" text-decoration="none" x="254" y="139">A minute has passed</text></g></g><g transform="translate(10,-78) scale(1,1)"><path fill="none" stroke="#000000" d="M 400 128 L 400 104 L 488 104 L 488 128" stroke-miterlimit="10"/></g><g transform="translate(10,-78) scale(1,1)"><path fill="none" stroke="#000000" d="M 483.790482243984 117.83732514237585 L 488 128 L 492.209517756016 117.83732514237585" stroke-miterlimit="10"/></g><g transform="translate(10,-78) scale(1,1)"><g><path fill="none" stroke="none"/><text fill="#000000" stroke="none" font-family="Arial" font-size="13px" font-style="normal" font-weight="normal" text-decoration="none" x="387" y="101">A minute has passed</text></g></g><g transform="translate(10,-78) scale(1,1)"><path fill="#C0C0C0" stroke="none" d="M 386 223 L 522.33544921875 223 Q 532.33544921875 223 532.33544921875 233 L 532.33544921875 252 Q 532.33544921875 262 522.33544921875 262 L 386 262 Q 376 262 376 252 L 376 233 Q 376 223 386 223 Z" opacity="0.2"/></g><g transform="translate(10,-78) scale(1,1)"><path fill="#ffffff" stroke="none" d="M 379 216 L 515.33544921875 216 Q 525.33544921875 216 525.33544921875 226 L 525.33544921875 245 Q 525.33544921875 255 515.33544921875 255 L 379 255 Q 369 255 369 245 L 369 226 Q 369 216 379 216 Z"/></g><g transform="translate(10,-78) scale(1,1)"><path fill="none" stroke="#000000" d="M 379 216 L 515.33544921875 216 Q 525.33544921875 216 525.33544921875 226 L 525.33544921875 245 Q 525.33544921875 255 515.33544921875 255 L 379 255 Q 369 255 369 245 L 369 226 Q 369 216 379 216 Z" stroke-miterlimit="10"/></g><g transform="translate(10,-78) scale(1,1)"><g><path fill="none" stroke="none"/><text fill="#000000" stroke="none" font-family="Arial" font-size="13px" font-style="normal" font-weight="bold" text-decoration="none" x="380.685546875" y="235.5">Bill stops updating cost</text></g></g><g transform="translate(10,-78) scale(1,1)"><path fill="none" stroke="#000000" d="M 453 168 L 449 215" stroke-miterlimit="10"/></g><g transform="translate(10,-78) scale(1,1)"><path fill="none" stroke="#000000" d="M 445.6674380009495 204.5169646322029 L 449 215 L 454.05614820773457 205.23089741575907" stroke-miterlimit="10"/></g><g transform="translate(10,-78) scale(1,1)"><g><path fill="none" stroke="none"/><text fill="#000000" stroke="none" font-family="Arial" font-size="13px" font-style="normal" font-weight="normal" text-decoration="none" x="456" y="204">The car is becoming available</text></g></g><g transform="translate(10,-78) scale(1,1)"><path fill="#C0C0C0" stroke="none" d="M 313 327 L 429.11181640625 327 Q 439.11181640625 327 439.11181640625 337 L 439.11181640625 356 Q 439.11181640625 366 429.11181640625 366 L 313 366 Q 303 366 303 356 L 303 337 Q 303 327 313 327 Z" opacity="0.2"/></g><g transform="translate(10,-78) scale(1,1)"><path fill="#ffffff" stroke="none" d="M 306 320 L 422.11181640625 320 Q 432.11181640625 320 432.11181640625 330 L 432.11181640625 349 Q 432.11181640625 359 422.11181640625 359 L 306 359 Q 296 359 296 349 L 296 330 Q 296 320 306 320 Z"/></g><g transform="translate(10,-78) scale(1,1)"><path fill="none" stroke="#000000" d="M 306 320 L 422.11181640625 320 Q 432.11181640625 320 432.11181640625 330 L 432.11181640625 349 Q 432.11181640625 359 422.11181640625 359 L 306 359 Q 296 359 296 349 L 296 330 Q 296 320 306 320 Z" stroke-miterlimit="10"/></g><g transform="translate(10,-78) scale(1,1)"><g><path fill="none" stroke="none"/><text fill="#000000" stroke="none" font-family="Arial" font-size="13px" font-style="normal" font-weight="bold" text-decoration="none" x="318.8955078125" y="339.5">Waiting for plug</text></g></g><g transform="translate(10,-78) scale(1,1)"><path fill="none" stroke="#000000" d="M 430 256 L 380 319" stroke-miterlimit="10"/></g><g transform="translate(10,-78) scale(1,1)"><path fill="none" stroke="#000000" d="M 383.0204381539536 308.4228097607095 L 380 319 L 389.6149752449176 313.65656935671274" stroke-miterlimit="10"/></g><g transform="translate(10,-78) scale(1,1)"><g><path fill="none" stroke="none"/><text fill="#000000" stroke="none" font-family="Arial" font-size="13px" font-style="normal" font-weight="normal" text-decoration="none" x="147" y="279">The car is parked in a recharging station area</text></g></g><g transform="translate(10,-78) scale(1,1)"><path fill="none" stroke="#000000" d="M 450 256 L 476 471" stroke-miterlimit="10"/></g><g transform="translate(10,-78) scale(1,1)"><path fill="none" stroke="#000000" d="M 470.60084328058565 461.41620603731474 L 476 471 L 478.95898537152266 460.40545397050374" stroke-miterlimit="10"/></g><g transform="translate(10,-78) scale(1,1)"><g><path fill="none" stroke="none"/><text fill="#000000" stroke="none" font-family="Arial" font-size="13px" font-style="normal" font-weight="normal" text-decoration="none" x="466" y="421">The car is parked in a safe parking area</text></g></g><g transform="translate(10,-78) scale(1,1)"><path fill="none" stroke="#000000" d="M 380 360 L 463 471" stroke-miterlimit="10"/></g><g transform="translate(10,-78) scale(1,1)"><path fill="none" stroke="#000000" d="M 453.54287792613843 465.38191829179385 L 463 471 L 460.2853885241962 460.34022117793086" stroke-miterlimit="10"/></g><g transform="translate(10,-78) scale(1,1)"><g><path fill="none" stroke="none"/><text fill="#000000" stroke="none" font-family="Arial" font-size="13px" font-style="normal" font-weight="normal" text-decoration="none" x="167" y="405">5 minutes are expired, or car is plugged</text></g></g><g transform="translate(10,-78) scale(1,1)"><path fill="#C0C0C0" stroke="none" d="M 417 583 L 509.2890625 583 Q 519.2890625 583 519.2890625 593 L 519.2890625 612 Q 519.2890625 622 509.2890625 622 L 417 622 Q 407 622 407 612 L 407 593 Q 407 583 417 583 Z" opacity="0.2"/></g><g transform="translate(10,-78) scale(1,1)"><path fill="#ffffff" stroke="none" d="M 410 576 L 502.2890625 576 Q 512.2890625 576 512.2890625 586 L 512.2890625 605 Q 512.2890625 615 502.2890625 615 L 410 615 Q 400 615 400 605 L 400 586 Q 400 576 410 576 Z"/></g><g transform="translate(10,-78) scale(1,1)"><path fill="none" stroke="#000000" d="M 410 576 L 502.2890625 576 Q 512.2890625 576 512.2890625 586 L 512.2890625 605 Q 512.2890625 615 502.2890625 615 L 410 615 Q 400 615 400 605 L 400 586 Q 400 576 410 576 Z" stroke-miterlimit="10"/></g><g transform="translate(10,-78) scale(1,1)"><g><path fill="none" stroke="none"/><text fill="#000000" stroke="none" font-family="Arial" font-size="13px" font-style="normal" font-weight="bold" text-decoration="none" x="416.036865234375" y="595.5">Bill is pending</text></g></g><g transform="translate(10,-78) scale(1,1)"><path fill="none" stroke="#000000" d="M 474 512 L 460 575" stroke-miterlimit="10"/></g><g transform="translate(10,-78) scale(1,1)"><path fill="none" stroke="#000000" d="M 458.09531694648916 564.1661556931222 L 460 575 L 466.31387047256396 565.9925009211388" stroke-miterlimit="10"/></g><g transform="translate(10,-78) scale(1,1)"><g><path fill="none" stroke="none"/><text fill="#000000" stroke="none" font-family="Arial" font-size="13px" font-style="normal" font-weight="normal" text-decoration="none" x="287" y="548">Percentage deltas are added</text></g></g><g transform="translate(10,-78) scale(1,1)"><path fill="none" stroke="#000000" d="M 415 616 L 291 679" stroke-miterlimit="10"/></g><g transform="translate(10,-78) scale(1,1)"><path fill="none" stroke="#000000" d="M 298.1536307607794 670.6438306061671 L 291 679 L 301.9670848641746 678.149676777929" stroke-miterlimit="10"/></g><g transform="translate(10,-78) scale(1,1)"><g><path fill="none" stroke="none"/><text fill="#000000" stroke="none" font-family="Arial" font-size="13px" font-style="normal" font-weight="normal" text-decoration="none" x="248" y="644">Payment success</text></g></g><g transform="translate(10,-78) scale(1,1)"><path fill="none" stroke="#000000" d="M 476 616 L 534 679" stroke-miterlimit="10"/></g><g transform="translate(10,-78) scale(1,1)"><path fill="none" stroke="#000000" d="M 524.019789295561 674.3744844292769 L 534 679 L 530.2136587597629 668.6721919066783" stroke-miterlimit="10"/></g><g transform="translate(10,-78) scale(1,1)"><g><path fill="none" stroke="none"/><text fill="#000000" stroke="none" font-family="Arial" font-size="13px" font-style="normal" font-weight="normal" text-decoration="none" x="495" y="637">Payment error</text></g></g><g transform="translate(10,-78) scale(1,1)"><path fill="#C0C0C0" stroke="none" d="M 151 707.5 C 151 700.59644 156.59644 695 163.5 695 C 170.40356 695 176 700.59644 176 707.5 C 176 714.40356 170.40356 720 163.5 720 C 156.59644 720 151 714.40356 151 707.5 Z" opacity="0.2"/></g><g transform="translate(10,-78) scale(1,1)"><path fill="none" stroke="#000000" d="M 144 700.5 C 144 693.59644 149.59644 688 156.5 688 C 163.40356 688 169 693.59644 169 700.5 C 169 707.40356 163.40356 713 156.5 713 C 149.59644 713 144 707.40356 144 700.5 Z" stroke-miterlimit="10"/></g><g transform="translate(10,-78) scale(1,1)"><path fill="#000000" stroke="none" d="M 149 700.5 C 149 696.357864 152.357864 693 156.5 693 C 160.642136 693 164 696.357864 164 700.5 C 164 704.642136 160.642136 708 156.5 708 C 152.357864 708 149 704.642136 149 700.5 Z"/></g><g transform="translate(10,-78) scale(1,1)"><path fill="none" stroke="#000000" d="M 592 680 L 592 660 L 640 660 L 640 752 L 592 752 L 592 719" stroke-miterlimit="10"/></g><g transform="translate(10,-78) scale(1,1)"><path fill="none" stroke="#000000" d="M 596.209517756016 729.1626748576241 L 592 719 L 587.790482243984 729.1626748576241" stroke-miterlimit="10"/></g><g transform="translate(10,-78) scale(1,1)"><g><path fill="none" stroke="none"/><text fill="#000000" stroke="none" font-family="Arial" font-size="13px" font-style="normal" font-weight="normal" text-decoration="none" x="647" y="693">Payment error</text></g></g><g transform="translate(10,-78) scale(1,1)"><path fill="none" stroke="#000000" d="M 207 699 L 170 700" stroke-miterlimit="10"/></g><g transform="translate(10,-78) scale(1,1)"><path fill="none" stroke="#000000" d="M 180.04523595471753 695.5174522184309 L 170 700 L 180.27269439553993 703.9334145288594" stroke-miterlimit="10"/></g><g transform="translate(10,-78) scale(1,1)"><path fill="none" stroke="#000000" d="M 495 699 L 297 699" stroke-miterlimit="10"/></g><g transform="translate(10,-78) scale(1,1)"><path fill="none" stroke="#000000" d="M 307.16267485762415 694.790482243984 L 297 699 L 307.16267485762415 703.209517756016" stroke-miterlimit="10"/></g><g transform="translate(10,-78) scale(1,1)"><g><path fill="none" stroke="none"/><text fill="#000000" stroke="none" font-family="Arial" font-size="13px" font-style="normal" font-weight="normal" text-decoration="none" x="345" y="721">Payment success</text></g></g></g></svg>