<svg version="1.1" xmlns="http://www.w3.org/2000/svg" xmlns:xlink="http://www.w3.org/1999/xlink" width="724" height="2124"><defs/><g><g transform="translate(-22,-6) scale(1,1)"><rect fill="#ffffff" stroke="none" x="32" y="16" width="296" height="21"/></g><g transform="translate(-22,-6) scale(1,1)"><path fill="none" stroke="#000000" d="M 32 16 L 328 16 L 328 37 L 32 37 L 32 16 Z Z" stroke-miterlimit="10" stroke-width="2"/></g><g transform="translate(-22,-6) scale(1,1)"><path fill="none" stroke="#000000" d="M 32 2104 L 32 16 L 328 16 L 328 2104" stroke-miterlimit="10" stroke-width="2"/></g><g transform="translate(-22,-6) scale(1,1)"><g><path fill="none" stroke="none"/><text fill="#000000" stroke="none" font-family="Arial" font-size="13px" font-style="normal" font-weight="normal" text-decoration="none" x="166.2763671875" y="33">User</text></g></g><g transform="translate(-22,-6) scale(1,1)"><rect fill="#ffffff" stroke="none" x="328" y="16" width="408" height="21"/></g><g transform="translate(-22,-6) scale(1,1)"><path fill="none" stroke="#000000" d="M 328 16 L 736 16 L 736 37 L 328 37 L 328 16 Z Z" stroke-miterlimit="10" stroke-width="2"/></g><g transform="translate(-22,-6) scale(1,1)"><path fill="none" stroke="#000000" d="M 328 2120 L 328 16 L 736 16 L 736 2120" stroke-miterlimit="10" stroke-width="2"/></g><g transform="translate(-22,-6) scale(1,1)"><g><path fill="none" stroke="none"/><text fill="#000000" stroke="none" font-family="Arial" font-size="13px" font-style="normal" font-weight="normal" text-decoration="none" x="505.273193359375" y="33">SYSTEM</text></g></g><g transform="translate(-22,-6) scale(1,1)"><path fill="#000000" stroke="none" d="M 120 57.5 C 120 52.2532944 124.2532944 48 129.5 48 C 134.7467056 48 139 52.2532944 139 57.5 C 139 62.7467056 134.7467056 67 129.5 67 C 124.2532944 67 120 62.7467056 120 57.5 Z"/></g><g transform="translate(-22,-6) scale(1,1)"><path fill="#C0C0C0" stroke="none" d="M 97 127 L 173 127 Q 183 127 183 137 L 183 183 Q 183 193 173 193 L 97 193 Q 87 193 87 183 L 87 137 Q 87 127 97 127 Z" opacity="0.2"/></g><g transform="translate(-22,-6) scale(1,1)"><path fill="#ffffff" stroke="none" d="M 90 120 L 166 120 Q 176 120 176 130 L 176 176 Q 176 186 166 186 L 90 186 Q 80 186 80 176 L 80 130 Q 80 120 90 120 Z"/></g><g transform="translate(-22,-6) scale(1,1)"><path fill="none" stroke="#000000" d="M 90 120 L 166 120 Q 176 120 176 130 L 176 176 Q 176 186 166 186 L 90 186 Q 80 186 80 176 L 80 130 Q 80 120 90 120 Z" stroke-miterlimit="10"/></g><g transform="translate(-22,-6) scale(1,1)"><g><path fill="none" stroke="none"/><text fill="#000000" stroke="none" font-family="Arial" font-size="13px" font-style="normal" font-weight="bold" text-decoration="none" x="104.878662109375" y="139.5">Activate</text><text fill="#000000" stroke="none" font-family="Arial" font-size="13px" font-style="normal" font-weight="bold" text-decoration="none" x="100.76220703125" y="152.5">"search a</text><text fill="#000000" stroke="none" font-family="Arial" font-size="13px" font-style="normal" font-weight="bold" text-decoration="none" x="92.09130859375" y="165.5">car" function</text></g></g><g transform="translate(-22,-6) scale(1,1)"><path fill="none" stroke="#000000" d="M 128 67 L 128 120" stroke-miterlimit="10"/></g><g transform="translate(-22,-6) scale(1,1)"><path fill="none" stroke="#000000" d="M 123.79048224398402 109.83732514237585 L 128 120 L 132.209517756016 109.83732514237585" stroke-miterlimit="10"/></g><g transform="translate(-22,-6) scale(1,1)"><path fill="#C0C0C0" stroke="none" d="M 425 231 L 538.2744140625 231 Q 548.2744140625 231 548.2744140625 241 L 548.2744140625 274 Q 548.2744140625 284 538.2744140625 284 L 425 284 Q 415 284 415 274 L 415 241 Q 415 231 425 231 Z" opacity="0.2"/></g><g transform="translate(-22,-6) scale(1,1)"><path fill="#ffffff" stroke="none" d="M 418 224 L 531.2744140625 224 Q 541.2744140625 224 541.2744140625 234 L 541.2744140625 267 Q 541.2744140625 277 531.2744140625 277 L 418 277 Q 408 277 408 267 L 408 234 Q 408 224 418 224 Z"/></g><g transform="translate(-22,-6) scale(1,1)"><path fill="none" stroke="#000000" d="M 418 224 L 531.2744140625 224 Q 541.2744140625 224 541.2744140625 234 L 541.2744140625 267 Q 541.2744140625 277 531.2744140625 277 L 418 277 Q 408 277 408 267 L 408 234 Q 408 224 418 224 Z" stroke-miterlimit="10"/></g><g transform="translate(-22,-6) scale(1,1)"><g><path fill="none" stroke="none"/><text fill="#000000" stroke="none" font-family="Arial" font-size="13px" font-style="normal" font-weight="bold" text-decoration="none" x="432.009521484375" y="243.5">Display search</text><text fill="#000000" stroke="none" font-family="Arial" font-size="13px" font-style="normal" font-weight="bold" text-decoration="none" x="461.63720703125" y="256.5">form</text></g></g><g transform="translate(-22,-6) scale(1,1)"><path fill="none" stroke="#000000" d="M 128 186 L 128 242 L 408 242" stroke-miterlimit="10"/></g><g transform="translate(-22,-6) scale(1,1)"><path fill="none" stroke="#000000" d="M 397.83732514237585 246.209517756016 L 408 242 L 397.83732514237585 237.790482243984" stroke-miterlimit="10"/></g><g transform="translate(-22,-6) scale(1,1)"><path fill="#C0C0C0" stroke="none" d="M 135 336.5 L 146.5 327 L 157 336.5 L 146.5 345 L 135 336.5" opacity="0.2"/></g><g transform="translate(-22,-6) scale(1,1)"><path fill="#ffffff" stroke="none" d="M 128 329 L 139 320 L 150 329 L 139 338 L 128 329"/></g><g transform="translate(-22,-6) scale(1,1)"><path fill="none" stroke="#000000" d="M 128 329 L 139 320 L 150 329 L 139 338 L 128 329 L 128 329" stroke-miterlimit="10"/></g><g transform="translate(-22,-6) scale(1,1)"><path fill="none" stroke="#000000" d="M 474 277 L 474 296 L 136 296 L 136 320" stroke-miterlimit="10"/></g><g transform="translate(-22,-6) scale(1,1)"><path fill="none" stroke="#000000" d="M 131.790482243984 309.83732514237585 L 136 320 L 140.209517756016 309.83732514237585" stroke-miterlimit="10"/></g><g transform="translate(-22,-6) scale(1,1)"><path fill="#C0C0C0" stroke="none" d="M 65 391 L 117 391 Q 127 391 127 401 L 127 447 Q 127 457 117 457 L 65 457 Q 55 457 55 447 L 55 401 Q 55 391 65 391 Z" opacity="0.2"/></g><g transform="translate(-22,-6) scale(1,1)"><path fill="#ffffff" stroke="none" d="M 58 384 L 110 384 Q 120 384 120 394 L 120 440 Q 120 450 110 450 L 58 450 Q 48 450 48 440 L 48 394 Q 48 384 58 384 Z"/></g><g transform="translate(-22,-6) scale(1,1)"><path fill="none" stroke="#000000" d="M 58 384 L 110 384 Q 120 384 120 394 L 120 440 Q 120 450 110 450 L 58 450 Q 48 450 48 440 L 48 394 Q 48 384 58 384 Z" stroke-miterlimit="10"/></g><g transform="translate(-22,-6) scale(1,1)"><g><path fill="none" stroke="none"/><text fill="#000000" stroke="none" font-family="Arial" font-size="13px" font-style="normal" font-weight="bold" text-decoration="none" x="65.214111328125" y="403.5">Detect</text><text fill="#000000" stroke="none" font-family="Arial" font-size="13px" font-style="normal" font-weight="bold" text-decoration="none" x="63.77001953125" y="416.5">current</text><text fill="#000000" stroke="none" font-family="Arial" font-size="13px" font-style="normal" font-weight="bold" text-decoration="none" x="61.595947265625" y="429.5">position</text></g></g><g transform="translate(-22,-6) scale(1,1)"><path fill="none" stroke="#000000" d="M 133 339 L 105 383" stroke-miterlimit="10"/></g><g transform="translate(-22,-6) scale(1,1)"><path fill="none" stroke="#000000" d="M 106.90468305351084 372.1661556931222 L 105 383 L 114.00749907886119 376.68612952743604" stroke-miterlimit="10"/></g><g transform="translate(-22,-6) scale(1,1)"><path fill="#C0C0C0" stroke="none" d="M 167 391 L 244.87353515625 391 Q 254.87353515625 391 254.87353515625 401 L 254.87353515625 445 Q 254.87353515625 455 244.87353515625 455 L 167 455 Q 157 455 157 445 L 157 401 Q 157 391 167 391 Z" opacity="0.2"/></g><g transform="translate(-22,-6) scale(1,1)"><path fill="#ffffff" stroke="none" d="M 160 384 L 237.87353515625 384 Q 247.87353515625 384 247.87353515625 394 L 247.87353515625 438 Q 247.87353515625 448 237.87353515625 448 L 160 448 Q 150 448 150 438 L 150 394 Q 150 384 160 384 Z"/></g><g transform="translate(-22,-6) scale(1,1)"><path fill="none" stroke="#000000" d="M 160 384 L 237.87353515625 384 Q 247.87353515625 384 247.87353515625 394 L 247.87353515625 438 Q 247.87353515625 448 237.87353515625 448 L 160 448 Q 150 448 150 438 L 150 394 Q 150 384 160 384 Z" stroke-miterlimit="10"/></g><g transform="translate(-22,-6) scale(1,1)"><g><path fill="none" stroke="none"/><text fill="#000000" stroke="none" font-family="Arial" font-size="13px" font-style="normal" font-weight="bold" text-decoration="none" x="182.680419921875" y="403.5">Insert</text><text fill="#000000" stroke="none" font-family="Arial" font-size="13px" font-style="normal" font-weight="bold" text-decoration="none" x="175.812255859375" y="416.5">address</text></g></g><g transform="translate(-22,-6) scale(1,1)"><path fill="none" stroke="#000000" d="M 146 339 L 176 383" stroke-miterlimit="10"/></g><g transform="translate(-22,-6) scale(1,1)"><path fill="none" stroke="#000000" d="M 166.79697234578762 376.97469652251425 L 176 383 L 173.7530096858962 372.23194379062204" stroke-miterlimit="10"/></g><g transform="translate(-22,-6) scale(1,1)"><path fill="none" stroke="#000000" d="M 105 451 L 141 511" stroke-miterlimit="10"/></g><g transform="translate(-22,-6) scale(1,1)"><path fill="none" stroke="#000000" d="M 132.16171522551727 504.4513572211376 L 141 511 L 139.3809786184074 500.1197991854035" stroke-miterlimit="10"/></g><g transform="translate(-22,-6) scale(1,1)"><path fill="#C0C0C0" stroke="none" d="M 143 528.5 L 154.5 519 L 165 528.5 L 154.5 537 L 143 528.5" opacity="0.2"/></g><g transform="translate(-22,-6) scale(1,1)"><path fill="#ffffff" stroke="none" d="M 136 521 L 147 512 L 158 521 L 147 530 L 136 521"/></g><g transform="translate(-22,-6) scale(1,1)"><path fill="none" stroke="#000000" d="M 136 521 L 147 512 L 158 521 L 147 530 L 136 521 L 136 521" stroke-miterlimit="10"/></g><g transform="translate(-22,-6) scale(1,1)"><path fill="none" stroke="#000000" d="M 182 449 L 152 511" stroke-miterlimit="10"/></g><g transform="translate(-22,-6) scale(1,1)"><path fill="none" stroke="#000000" d="M 152.63722774093316 500.0184727471 L 152 511 L 160.21570044508448 503.68547566846354" stroke-miterlimit="10"/></g><g transform="translate(-22,-6) scale(1,1)"><path fill="#C0C0C0" stroke="none" d="M 121 575 L 189 575 Q 199 575 199 585 L 199 631 Q 199 641 189 641 L 121 641 Q 111 641 111 631 L 111 585 Q 111 575 121 575 Z" opacity="0.2"/></g><g transform="translate(-22,-6) scale(1,1)"><path fill="#ffffff" stroke="none" d="M 114 568 L 182 568 Q 192 568 192 578 L 192 624 Q 192 634 182 634 L 114 634 Q 104 634 104 624 L 104 578 Q 104 568 114 568 Z"/></g><g transform="translate(-22,-6) scale(1,1)"><path fill="none" stroke="#000000" d="M 114 568 L 182 568 Q 192 568 192 578 L 192 624 Q 192 634 182 634 L 114 634 Q 104 634 104 624 L 104 578 Q 104 568 114 568 Z" stroke-miterlimit="10"/></g><g transform="translate(-22,-6) scale(1,1)"><g><path fill="none" stroke="none"/><text fill="#000000" stroke="none" font-family="Arial" font-size="13px" font-style="normal" font-weight="bold" text-decoration="none" x="131.74365234375" y="587.5">Insert</text><text fill="#000000" stroke="none" font-family="Arial" font-size="13px" font-style="normal" font-weight="bold" text-decoration="none" x="128.490478515625" y="600.5">search</text><text fill="#000000" stroke="none" font-family="Arial" font-size="13px" font-style="normal" font-weight="bold" text-decoration="none" x="130.29638671875" y="613.5">radius</text></g></g><g transform="translate(-22,-6) scale(1,1)"><path fill="none" stroke="#000000" d="M 144 530 L 144 568" stroke-miterlimit="10"/></g><g transform="translate(-22,-6) scale(1,1)"><path fill="none" stroke="#000000" d="M 139.790482243984 557.8373251423759 L 144 568 L 148.209517756016 557.8373251423759" stroke-miterlimit="10"/></g><g transform="translate(-22,-6) scale(1,1)"><path fill="#C0C0C0" stroke="none" d="M 121 679 L 186.552734375 679 Q 196.552734375 679 196.552734375 689 L 196.552734375 722 Q 196.552734375 732 186.552734375 732 L 121 732 Q 111 732 111 722 L 111 689 Q 111 679 121 679 Z" opacity="0.2"/></g><g transform="translate(-22,-6) scale(1,1)"><path fill="#ffffff" stroke="none" d="M 114 672 L 179.552734375 672 Q 189.552734375 672 189.552734375 682 L 189.552734375 715 Q 189.552734375 725 179.552734375 725 L 114 725 Q 104 725 104 715 L 104 682 Q 104 672 114 672 Z"/></g><g transform="translate(-22,-6) scale(1,1)"><path fill="none" stroke="#000000" d="M 114 672 L 179.552734375 672 Q 189.552734375 672 189.552734375 682 L 189.552734375 715 Q 189.552734375 725 179.552734375 725 L 114 725 Q 104 725 104 715 L 104 682 Q 104 672 114 672 Z" stroke-miterlimit="10"/></g><g transform="translate(-22,-6) scale(1,1)"><g><path fill="none" stroke="none"/><text fill="#000000" stroke="none" font-family="Arial" font-size="13px" font-style="normal" font-weight="bold" text-decoration="none" x="126.54638671875" y="691.5">Submit</text><text fill="#000000" stroke="none" font-family="Arial" font-size="13px" font-style="normal" font-weight="bold" text-decoration="none" x="133.7763671875" y="704.5">form</text></g></g><g transform="translate(-22,-6) scale(1,1)"><path fill="none" stroke="#000000" d="M 147 635 L 147 671" stroke-miterlimit="10"/></g><g transform="translate(-22,-6) scale(1,1)"><path fill="none" stroke="#000000" d="M 142.790482243984 660.8373251423759 L 147 671 L 151.209517756016 660.8373251423759" stroke-miterlimit="10"/></g><g transform="translate(-22,-6) scale(1,1)"><path fill="#C0C0C0" stroke="none" d="M 471 760.5 L 482.5 751 L 493 760.5 L 482.5 769 L 471 760.5" opacity="0.2"/></g><g transform="translate(-22,-6) scale(1,1)"><path fill="#ffffff" stroke="none" d="M 464 753 L 475 744 L 486 753 L 475 762 L 464 753"/></g><g transform="translate(-22,-6) scale(1,1)"><path fill="none" stroke="#000000" d="M 464 753 L 475 744 L 486 753 L 475 762 L 464 753 L 464 753" stroke-miterlimit="10"/></g><g transform="translate(-22,-6) scale(1,1)"><path fill="none" stroke="#000000" d="M 190 688 L 472 688 L 472 744" stroke-miterlimit="10"/></g><g transform="translate(-22,-6) scale(1,1)"><path fill="none" stroke="#000000" d="M 467.790482243984 733.8373251423759 L 472 744 L 476.209517756016 733.8373251423759" stroke-miterlimit="10"/></g><g transform="translate(-22,-6) scale(1,1)"><path fill="#C0C0C0" stroke="none" d="M 385 809 L 457.09716796875 809 Q 467.09716796875 809 467.09716796875 819 L 467.09716796875 839 Q 467.09716796875 849 457.09716796875 849 L 385 849 Q 375 849 375 839 L 375 819 Q 375 809 385 809 Z" opacity="0.2"/></g><g transform="translate(-22,-6) scale(1,1)"><path fill="#ffffff" stroke="none" d="M 378 802 L 450.09716796875 802 Q 460.09716796875 802 460.09716796875 812 L 460.09716796875 832 Q 460.09716796875 842 450.09716796875 842 L 378 842 Q 368 842 368 832 L 368 812 Q 368 802 378 802 Z"/></g><g transform="translate(-22,-6) scale(1,1)"><path fill="none" stroke="#000000" d="M 378 802 L 450.09716796875 802 Q 460.09716796875 802 460.09716796875 812 L 460.09716796875 832 Q 460.09716796875 842 450.09716796875 842 L 378 842 Q 368 842 368 832 L 368 812 Q 368 802 378 802 Z" stroke-miterlimit="10"/></g><g transform="translate(-22,-6) scale(1,1)"><g><path fill="none" stroke="none"/><text fill="#000000" stroke="none" font-family="Arial" font-size="13px" font-style="normal" font-weight="bold" text-decoration="none" x="382.976806640625" y="821.5">[No action]</text></g></g><g transform="translate(-22,-6) scale(1,1)"><path fill="none" stroke="#000000" d="M 466 763 L 433 801" stroke-miterlimit="10"/></g><g transform="translate(-22,-6) scale(1,1)"><path fill="none" stroke="#000000" d="M 436.48520496952926 790.5667192925538 L 433 801 L 442.84185560603714 796.0869685295212" stroke-miterlimit="10"/></g><g transform="translate(-22,-6) scale(1,1)"><path fill="none" stroke="#000000" d="M 486 763 L 526 799" stroke-miterlimit="10"/></g><g transform="translate(-22,-6) scale(1,1)"><path fill="none" stroke="#000000" d="M 515.6301243522015 795.3304388478734 L 526 799 L 521.2621621840279 789.0726190347331" stroke-miterlimit="10"/></g><g transform="translate(-22,-6) scale(1,1)"><path fill="#C0C0C0" stroke="none" d="M 471 928.5 L 482.5 919 L 493 928.5 L 482.5 937 L 471 928.5" opacity="0.2"/></g><g transform="translate(-22,-6) scale(1,1)"><path fill="#ffffff" stroke="none" d="M 464 921 L 475 912 L 486 921 L 475 930 L 464 921"/></g><g transform="translate(-22,-6) scale(1,1)"><path fill="none" stroke="#000000" d="M 464 921 L 475 912 L 486 921 L 475 930 L 464 921 L 464 921" stroke-miterlimit="10"/></g><g transform="translate(-22,-6) scale(1,1)"><path fill="none" stroke="#000000" d="M 427 843 L 469 911" stroke-miterlimit="10"/></g><g transform="translate(-22,-6) scale(1,1)"><path fill="none" stroke="#000000" d="M 460.0781374365601 904.5656881953786 L 469 911 L 467.2410359898937 900.1415449712608" stroke-miterlimit="10"/></g><g transform="translate(-22,-6) scale(1,1)"><path fill="none" stroke="#000000" d="M 530 867 L 485 911" stroke-miterlimit="10"/></g><g transform="translate(-22,-6) scale(1,1)"><path fill="none" stroke="#000000" d="M 489.3234322130852 900.8852615506452 L 485 911 L 495.20932838334 906.9049280884058" stroke-miterlimit="10"/></g><g transform="translate(-22,-6) scale(1,1)"><path fill="#C0C0C0" stroke="none" d="M 449 983 L 521.09716796875 983 Q 531.09716796875 983 531.09716796875 993 L 531.09716796875 1026 Q 531.09716796875 1036 521.09716796875 1036 L 449 1036 Q 439 1036 439 1026 L 439 993 Q 439 983 449 983 Z" opacity="0.2"/></g><g transform="translate(-22,-6) scale(1,1)"><path fill="#ffffff" stroke="none" d="M 442 976 L 514.09716796875 976 Q 524.09716796875 976 524.09716796875 986 L 524.09716796875 1019 Q 524.09716796875 1029 514.09716796875 1029 L 442 1029 Q 432 1029 432 1019 L 432 986 Q 432 976 442 976 Z"/></g><g transform="translate(-22,-6) scale(1,1)"><path fill="none" stroke="#000000" d="M 442 976 L 514.09716796875 976 Q 524.09716796875 976 524.09716796875 986 L 524.09716796875 1019 Q 524.09716796875 1029 514.09716796875 1029 L 442 1029 Q 432 1029 432 1019 L 432 986 Q 432 976 442 976 Z" stroke-miterlimit="10"/></g><g transform="translate(-22,-6) scale(1,1)"><g><path fill="none" stroke="none"/><text fill="#000000" stroke="none" font-family="Arial" font-size="13px" font-style="normal" font-weight="bold" text-decoration="none" x="449.5126953125" y="995.5">Query car</text><text fill="#000000" stroke="none" font-family="Arial" font-size="13px" font-style="normal" font-weight="bold" text-decoration="none" x="470.1044921875" y="1008.5">list</text></g></g><g transform="translate(-22,-6) scale(1,1)"><path fill="none" stroke="#000000" d="M 472 930 L 472 976" stroke-miterlimit="10"/></g><g transform="translate(-22,-6) scale(1,1)"><path fill="none" stroke="#000000" d="M 467.790482243984 965.8373251423759 L 472 976 L 476.209517756016 965.8373251423759" stroke-miterlimit="10"/></g><g transform="translate(-22,-6) scale(1,1)"><path fill="#C0C0C0" stroke="none" d="M 425 1071 L 538.998046875 1071 Q 548.998046875 1071 548.998046875 1081 L 548.998046875 1114 Q 548.998046875 1124 538.998046875 1124 L 425 1124 Q 415 1124 415 1114 L 415 1081 Q 415 1071 425 1071 Z" opacity="0.2"/></g><g transform="translate(-22,-6) scale(1,1)"><path fill="#ffffff" stroke="none" d="M 418 1064 L 531.998046875 1064 Q 541.998046875 1064 541.998046875 1074 L 541.998046875 1107 Q 541.998046875 1117 531.998046875 1117 L 418 1117 Q 408 1117 408 1107 L 408 1074 Q 408 1064 418 1064 Z"/></g><g transform="translate(-22,-6) scale(1,1)"><path fill="none" stroke="#000000" d="M 418 1064 L 531.998046875 1064 Q 541.998046875 1064 541.998046875 1074 L 541.998046875 1107 Q 541.998046875 1117 531.998046875 1117 L 418 1117 Q 408 1117 408 1107 L 408 1074 Q 408 1064 418 1064 Z" stroke-miterlimit="10"/></g><g transform="translate(-22,-6) scale(1,1)"><g><path fill="none" stroke="none"/><text fill="#000000" stroke="none" font-family="Arial" font-size="13px" font-style="normal" font-weight="bold" text-decoration="none" x="426.947265625" y="1083.5">Generate results</text><text fill="#000000" stroke="none" font-family="Arial" font-size="13px" font-style="normal" font-weight="bold" text-decoration="none" x="467.054931640625" y="1096.5">list</text></g></g><g transform="translate(-22,-6) scale(1,1)"><path fill="none" stroke="#000000" d="M 477 1030 L 475 1063" stroke-miterlimit="10"/></g><g transform="translate(-22,-6) scale(1,1)"><path fill="none" stroke="#000000" d="M 471.41298361929194 1052.6012830847008 L 475 1063 L 479.81659963942155 1053.1105931465268" stroke-miterlimit="10"/></g><g transform="translate(-22,-6) scale(1,1)"><path fill="#C0C0C0" stroke="none" d="M 457 1159 L 508.83544921875 1159 Q 518.83544921875 1159 518.83544921875 1169 L 518.83544921875 1202 Q 518.83544921875 1212 508.83544921875 1212 L 457 1212 Q 447 1212 447 1202 L 447 1169 Q 447 1159 457 1159 Z" opacity="0.2"/></g><g transform="translate(-22,-6) scale(1,1)"><path fill="#ffffff" stroke="none" d="M 450 1152 L 501.83544921875 1152 Q 511.83544921875 1152 511.83544921875 1162 L 511.83544921875 1195 Q 511.83544921875 1205 501.83544921875 1205 L 450 1205 Q 440 1205 440 1195 L 440 1162 Q 440 1152 450 1152 Z"/></g><g transform="translate(-22,-6) scale(1,1)"><path fill="none" stroke="#000000" d="M 450 1152 L 501.83544921875 1152 Q 511.83544921875 1152 511.83544921875 1162 L 511.83544921875 1195 Q 511.83544921875 1205 501.83544921875 1205 L 450 1205 Q 440 1205 440 1195 L 440 1162 Q 440 1152 450 1152 Z" stroke-miterlimit="10"/></g><g transform="translate(-22,-6) scale(1,1)"><g><path fill="none" stroke="none"/><text fill="#000000" stroke="none" font-family="Arial" font-size="13px" font-style="normal" font-weight="bold" text-decoration="none" x="461.464111328125" y="1171.5">Build</text><text fill="#000000" stroke="none" font-family="Arial" font-size="13px" font-style="normal" font-weight="bold" text-decoration="none" x="463.273193359375" y="1184.5">map</text></g></g><g transform="translate(-22,-6) scale(1,1)"><path fill="none" stroke="#000000" d="M 474 1117 L 474 1152" stroke-miterlimit="10"/></g><g transform="translate(-22,-6) scale(1,1)"><path fill="none" stroke="#000000" d="M 469.790482243984 1141.837325142376 L 474 1152 L 478.209517756016 1141.837325142376" stroke-miterlimit="10"/></g><g transform="translate(-22,-6) scale(1,1)"><path fill="#C0C0C0" stroke="none" d="M 121 1207 L 173 1207 Q 183 1207 183 1217 L 183 1250 Q 183 1260 173 1260 L 121 1260 Q 111 1260 111 1250 L 111 1217 Q 111 1207 121 1207 Z" opacity="0.2"/></g><g transform="translate(-22,-6) scale(1,1)"><path fill="#ffffff" stroke="none" d="M 114 1200 L 166 1200 Q 176 1200 176 1210 L 176 1243 Q 176 1253 166 1253 L 114 1253 Q 104 1253 104 1243 L 104 1210 Q 104 1200 114 1200 Z"/></g><g transform="translate(-22,-6) scale(1,1)"><path fill="none" stroke="#000000" d="M 114 1200 L 166 1200 Q 176 1200 176 1210 L 176 1243 Q 176 1253 166 1253 L 114 1253 Q 104 1253 104 1243 L 104 1210 Q 104 1200 114 1200 Z" stroke-miterlimit="10"/></g><g transform="translate(-22,-6) scale(1,1)"><g><path fill="none" stroke="none"/><text fill="#000000" stroke="none" font-family="Arial" font-size="13px" font-style="normal" font-weight="bold" text-decoration="none" x="111.09912109375" y="1219.5">Select car</text></g></g><g transform="translate(-22,-6) scale(1,1)"><path fill="none" stroke="#000000" d="M 440 1168 L 136 1168 L 136 1200" stroke-miterlimit="10"/></g><g transform="translate(-22,-6) scale(1,1)"><path fill="none" stroke="#000000" d="M 131.790482243984 1189.837325142376 L 136 1200 L 140.209517756016 1189.837325142376" stroke-miterlimit="10"/></g><g transform="translate(-22,-6) scale(1,1)"><path fill="#C0C0C0" stroke="none" d="M 89 1319 L 197 1319 Q 207 1319 207 1329 L 207 1362 Q 207 1372 197 1372 L 89 1372 Q 79 1372 79 1362 L 79 1329 Q 79 1319 89 1319 Z" opacity="0.2"/></g><g transform="translate(-22,-6) scale(1,1)"><path fill="#ffffff" stroke="none" d="M 82 1312 L 190 1312 Q 200 1312 200 1322 L 200 1355 Q 200 1365 190 1365 L 82 1365 Q 72 1365 72 1355 L 72 1322 Q 72 1312 82 1312 Z"/></g><g transform="translate(-22,-6) scale(1,1)"><path fill="none" stroke="#000000" d="M 82 1312 L 190 1312 Q 200 1312 200 1322 L 200 1355 Q 200 1365 190 1365 L 82 1365 Q 72 1365 72 1355 L 72 1322 Q 72 1312 82 1312 Z" stroke-miterlimit="10"/></g><g transform="translate(-22,-6) scale(1,1)"><g><path fill="none" stroke="none"/><text fill="#000000" stroke="none" font-family="Arial" font-size="13px" font-style="normal" font-weight="bold" text-decoration="none" x="87.09130859375" y="1331.5">Activate "reserve</text><text fill="#000000" stroke="none" font-family="Arial" font-size="13px" font-style="normal" font-weight="bold" text-decoration="none" x="100.09130859375" y="1344.5">car" function</text></g></g><g transform="translate(-22,-6) scale(1,1)"><path fill="none" stroke="#000000" d="M 139 1254 L 137 1311" stroke-miterlimit="10"/></g><g transform="translate(-22,-6) scale(1,1)"><path fill="none" stroke="#000000" d="M 133.14943690422166 1300.6959637109805 L 137 1311 L 141.5632946571464 1300.9911867900305" stroke-miterlimit="10"/></g><g transform="translate(-22,-6) scale(1,1)"><path fill="#C0C0C0" stroke="none" d="M 545 1527 L 665.50439453125 1527 Q 675.50439453125 1527 675.50439453125 1537 L 675.50439453125 1581 Q 675.50439453125 1591 665.50439453125 1591 L 545 1591 Q 535 1591 535 1581 L 535 1537 Q 535 1527 545 1527 Z" opacity="0.2"/></g><g transform="translate(-22,-6) scale(1,1)"><path fill="#ffffff" stroke="none" d="M 538 1520 L 658.50439453125 1520 Q 668.50439453125 1520 668.50439453125 1530 L 668.50439453125 1574 Q 668.50439453125 1584 658.50439453125 1584 L 538 1584 Q 528 1584 528 1574 L 528 1530 Q 528 1520 538 1520 Z"/></g><g transform="translate(-22,-6) scale(1,1)"><path fill="none" stroke="#000000" d="M 538 1520 L 658.50439453125 1520 Q 668.50439453125 1520 668.50439453125 1530 L 668.50439453125 1574 Q 668.50439453125 1584 658.50439453125 1584 L 538 1584 Q 528 1584 528 1574 L 528 1530 Q 528 1520 538 1520 Z" stroke-miterlimit="10"/></g><g transform="translate(-22,-6) scale(1,1)"><g><path fill="none" stroke="none"/><text fill="#000000" stroke="none" font-family="Arial" font-size="13px" font-style="normal" font-weight="bold" text-decoration="none" x="549.844970703125" y="1539.5">Check that car is</text><text fill="#000000" stroke="none" font-family="Arial" font-size="13px" font-style="normal" font-weight="bold" text-decoration="none" x="587.0517578125" y="1552.5">free</text></g></g><g transform="translate(-22,-6) scale(1,1)"><path fill="#C0C0C0" stroke="none" d="M 369 1527 L 509 1527 Q 519 1527 519 1537 L 519 1583 Q 519 1593 509 1593 L 369 1593 Q 359 1593 359 1583 L 359 1537 Q 359 1527 369 1527 Z" opacity="0.2"/></g><g transform="translate(-22,-6) scale(1,1)"><path fill="#ffffff" stroke="none" d="M 362 1520 L 502 1520 Q 512 1520 512 1530 L 512 1576 Q 512 1586 502 1586 L 362 1586 Q 352 1586 352 1576 L 352 1530 Q 352 1520 362 1520 Z"/></g><g transform="translate(-22,-6) scale(1,1)"><path fill="none" stroke="#000000" d="M 362 1520 L 502 1520 Q 512 1520 512 1530 L 512 1576 Q 512 1586 502 1586 L 362 1586 Q 352 1586 352 1576 L 352 1530 Q 352 1520 362 1520 Z" stroke-miterlimit="10"/></g><g transform="translate(-22,-6) scale(1,1)"><g><path fill="none" stroke="none"/><text fill="#000000" stroke="none" font-family="Arial" font-size="13px" font-style="normal" font-weight="bold" text-decoration="none" x="387.563232421875" y="1539.5">Check for other</text><text fill="#000000" stroke="none" font-family="Arial" font-size="13px" font-style="normal" font-weight="bold" text-decoration="none" x="375.280517578125" y="1552.5">reservation in same</text><text fill="#000000" stroke="none" font-family="Arial" font-size="13px" font-style="normal" font-weight="bold" text-decoration="none" x="379.9619140625" y="1565.5">geographical area</text></g></g><g transform="translate(-22,-6) scale(1,1)"><path fill="#C0C0C0" stroke="none" d="M 498 1383 L 561 1383 Q 564 1383 564 1386 L 564 1385 Q 564 1388 561 1388 L 498 1388 Q 495 1388 495 1385 L 495 1386 Q 495 1383 498 1383 Z" opacity="0.2"/></g><g transform="translate(-22,-6) scale(1,1)"><path fill="#000000" stroke="none" d="M 491 1376 L 554 1376 Q 557 1376 557 1379 L 557 1379 Q 557 1382 554 1382 L 491 1382 Q 488 1382 488 1379 L 488 1379 Q 488 1376 491 1376 Z"/></g><g transform="translate(-22,-6) scale(1,1)"><path fill="none" stroke="#000000" d="M 522 1381 L 522 1464 L 600 1464 L 600 1520" stroke-miterlimit="10"/></g><g transform="translate(-22,-6) scale(1,1)"><path fill="none" stroke="#000000" d="M 595.790482243984 1509.837325142376 L 600 1520 L 604.209517756016 1509.837325142376" stroke-miterlimit="10"/></g><g transform="translate(-22,-6) scale(1,1)"><path fill="none" stroke="#000000" d="M 522 1381 L 522 1464 L 440 1464 L 440 1520" stroke-miterlimit="10"/></g><g transform="translate(-22,-6) scale(1,1)"><path fill="none" stroke="#000000" d="M 435.790482243984 1509.837325142376 L 440 1520 L 444.209517756016 1509.837325142376" stroke-miterlimit="10"/></g><g transform="translate(-22,-6) scale(1,1)"><path fill="none" stroke="#000000" d="M 200 1328 L 520 1328 L 520 1376" stroke-miterlimit="10"/></g><g transform="translate(-22,-6) scale(1,1)"><path fill="none" stroke="#000000" d="M 515.790482243984 1365.837325142376 L 520 1376 L 524.209517756016 1365.837325142376" stroke-miterlimit="10"/></g><g transform="translate(-22,-6) scale(1,1)"><path fill="#C0C0C0" stroke="none" d="M 506 1727 L 569 1727 Q 572 1727 572 1730 L 572 1729 Q 572 1732 569 1732 L 506 1732 Q 503 1732 503 1729 L 503 1730 Q 503 1727 506 1727 Z" opacity="0.2"/></g><g transform="translate(-22,-6) scale(1,1)"><path fill="#000000" stroke="none" d="M 499 1720 L 562 1720 Q 565 1720 565 1723 L 565 1723 Q 565 1726 562 1726 L 499 1726 Q 496 1726 496 1723 L 496 1723 Q 496 1720 499 1720 Z"/></g><g transform="translate(-22,-6) scale(1,1)"><path fill="none" stroke="#000000" d="M 598 1584 L 598 1656 L 528 1656 L 528 1720" stroke-miterlimit="10"/></g><g transform="translate(-22,-6) scale(1,1)"><path fill="none" stroke="#000000" d="M 523.790482243984 1709.837325142376 L 528 1720 L 532.209517756016 1709.837325142376" stroke-miterlimit="10"/></g><g transform="translate(-22,-6) scale(1,1)"><path fill="none" stroke="#000000" d="M 432 1586 L 432 1656 L 528 1656 L 528 1720" stroke-miterlimit="10"/></g><g transform="translate(-22,-6) scale(1,1)"><path fill="none" stroke="#000000" d="M 523.790482243984 1709.837325142376 L 528 1720 L 532.209517756016 1709.837325142376" stroke-miterlimit="10"/></g><g transform="translate(-22,-6) scale(1,1)"><path fill="none" stroke="#000000" d="M 528 1725 L 528 1808" stroke-miterlimit="10"/></g><g transform="translate(-22,-6) scale(1,1)"><path fill="none" stroke="#000000" d="M 523.790482243984 1797.837325142376 L 528 1808 L 532.209517756016 1797.837325142376" stroke-miterlimit="10"/></g><g transform="translate(-22,-6) scale(1,1)"><path fill="#C0C0C0" stroke="none" d="M 465 1815 L 599.96435546875 1815 Q 609.96435546875 1815 609.96435546875 1825 L 609.96435546875 1858 Q 609.96435546875 1868 599.96435546875 1868 L 465 1868 Q 455 1868 455 1858 L 455 1825 Q 455 1815 465 1815 Z" opacity="0.2"/></g><g transform="translate(-22,-6) scale(1,1)"><path fill="#ffffff" stroke="none" d="M 458 1808 L 592.96435546875 1808 Q 602.96435546875 1808 602.96435546875 1818 L 602.96435546875 1851 Q 602.96435546875 1861 592.96435546875 1861 L 458 1861 Q 448 1861 448 1851 L 448 1818 Q 448 1808 458 1808 Z"/></g><g transform="translate(-22,-6) scale(1,1)"><path fill="none" stroke="#000000" d="M 458 1808 L 592.96435546875 1808 Q 602.96435546875 1808 602.96435546875 1818 L 602.96435546875 1851 Q 602.96435546875 1861 592.96435546875 1861 L 458 1861 Q 448 1861 448 1851 L 448 1818 Q 448 1808 458 1808 Z" stroke-miterlimit="10"/></g><g transform="translate(-22,-6) scale(1,1)"><g><path fill="none" stroke="none"/><text fill="#000000" stroke="none" font-family="Arial" font-size="13px" font-style="normal" font-weight="bold" text-decoration="none" x="472.022216796875" y="1827.5">Car is reserved for</text><text fill="#000000" stroke="none" font-family="Arial" font-size="13px" font-style="normal" font-weight="bold" text-decoration="none" x="512.837646484375" y="1840.5">user</text></g></g><g transform="translate(-22,-6) scale(1,1)"><path fill="#C0C0C0" stroke="none" d="M 503 807 L 503 873 L 622.25 873 L 639 840.5 L 622.25 807" opacity="0.2"/></g><g transform="translate(-22,-6) scale(1,1)"><path fill="#ffffff" stroke="none" d="M 496 800 L 496 866 L 615.25 866 L 632 833.5 L 615.25 800"/></g><g transform="translate(-22,-6) scale(1,1)"><path fill="none" stroke="#000000" d="M 496 800 L 496 866 L 615.25 866 L 632 833.5 L 615.25 800 L 496 800" stroke-miterlimit="10"/></g><g transform="translate(-22,-6) scale(1,1)"><g><path fill="none" stroke="none"/><text fill="#000000" stroke="none" font-family="Arial" font-size="13px" font-style="normal" font-weight="bold" text-decoration="none" x="511.974609375" y="819.5">Translate address</text><text fill="#000000" stroke="none" font-family="Arial" font-size="13px" font-style="normal" font-weight="bold" text-decoration="none" x="514.491455078125" y="832.5">into geographical</text><text fill="#000000" stroke="none" font-family="Arial" font-size="13px" font-style="normal" font-weight="bold" text-decoration="none" x="530.3955078125" y="845.5">coordinates</text></g></g><g transform="translate(-22,-6) scale(1,1)"><path fill="none" stroke="#000000" d="M 448 1824 L 170 1824 L 170 1904" stroke-miterlimit="10"/></g><g transform="translate(-22,-6) scale(1,1)"><path fill="none" stroke="#000000" d="M 165.790482243984 1893.837325142376 L 170 1904 L 174.209517756016 1893.837325142376" stroke-miterlimit="10"/></g><g transform="translate(-22,-6) scale(1,1)"><path fill="#C0C0C0" stroke="none" d="M 129 1911 L 225.62451171875 1911 Q 235.62451171875 1911 235.62451171875 1921 L 235.62451171875 1941 Q 235.62451171875 1951 225.62451171875 1951 L 129 1951 Q 119 1951 119 1941 L 119 1921 Q 119 1911 129 1911 Z" opacity="0.2"/></g><g transform="translate(-22,-6) scale(1,1)"><path fill="#ffffff" stroke="none" d="M 122 1904 L 218.62451171875 1904 Q 228.62451171875 1904 228.62451171875 1914 L 228.62451171875 1934 Q 228.62451171875 1944 218.62451171875 1944 L 122 1944 Q 112 1944 112 1934 L 112 1914 Q 112 1904 122 1904 Z"/></g><g transform="translate(-22,-6) scale(1,1)"><path fill="none" stroke="#000000" d="M 122 1904 L 218.62451171875 1904 Q 228.62451171875 1904 228.62451171875 1914 L 228.62451171875 1934 Q 228.62451171875 1944 218.62451171875 1944 L 122 1944 Q 112 1944 112 1934 L 112 1914 Q 112 1904 122 1904 Z" stroke-miterlimit="10"/></g><g transform="translate(-22,-6) scale(1,1)"><g><path fill="none" stroke="none"/><text fill="#000000" stroke="none" font-family="Arial" font-size="13px" font-style="normal" font-weight="bold" text-decoration="none" x="120.813232421875" y="1923.5">Acknowledgment</text></g></g><g transform="translate(-22,-6) scale(1,1)"><path fill="#C0C0C0" stroke="none" d="M 159 2019.5 C 159 2012.59644 164.59644 2007 171.5 2007 C 178.40356 2007 184 2012.59644 184 2019.5 C 184 2026.40356 178.40356 2032 171.5 2032 C 164.59644 2032 159 2026.40356 159 2019.5 Z" opacity="0.2"/></g><g transform="translate(-22,-6) scale(1,1)"><path fill="none" stroke="#000000" d="M 152 2012.5 C 152 2005.59644 157.59644 2000 164.5 2000 C 171.40356 2000 177 2005.59644 177 2012.5 C 177 2019.40356 171.40356 2025 164.5 2025 C 157.59644 2025 152 2019.40356 152 2012.5 Z" stroke-miterlimit="10"/></g><g transform="translate(-22,-6) scale(1,1)"><path fill="#000000" stroke="none" d="M 157 2012.5 C 157 2008.357864 160.357864 2005 164.5 2005 C 168.642136 2005 172 2008.357864 172 2012.5 C 172 2016.642136 168.642136 2020 164.5 2020 C 160.357864 2020 157 2016.642136 157 2012.5 Z"/></g><g transform="translate(-22,-6) scale(1,1)"><path fill="none" stroke="#000000" d="M 169 1945 L 165 1999" stroke-miterlimit="10"/></g><g transform="translate(-22,-6) scale(1,1)"><path fill="none" stroke="#000000" d="M 161.55271760118907 1988.55412789362 L 165 1999 L 169.9487502409645 1989.176056237307" stroke-miterlimit="10"/></g></g></svg>