<svg version="1.1" xmlns="http://www.w3.org/2000/svg" xmlns:xlink="http://www.w3.org/1999/xlink" width="512.36083984375" height="176"><defs/><g><g transform="translate(-78,-130) scale(1,1)"><path fill="#C0C0C0" stroke="none" d="M 103 168.5 C 103 163.2532944 107.2532944 159 112.5 159 C 117.7467056 159 122 163.2532944 122 168.5 C 122 173.7467056 117.7467056 178 112.5 178 C 107.2532944 178 103 173.7467056 103 168.5 Z" opacity="0.2"/></g><g transform="translate(-78,-130) scale(1,1)"><path fill="#000000" stroke="none" d="M 96 161.5 C 96 156.2532944 100.2532944 152 105.5 152 C 110.7467056 152 115 156.2532944 115 161.5 C 115 166.7467056 110.7467056 171 105.5 171 C 100.2532944 171 96 166.7467056 96 161.5 Z"/></g><g transform="translate(-78,-130) scale(1,1)"><path fill="#C0C0C0" stroke="none" d="M 289 151 L 381.2890625 151 Q 391.2890625 151 391.2890625 161 L 391.2890625 180 Q 391.2890625 190 381.2890625 190 L 289 190 Q 279 190 279 180 L 279 161 Q 279 151 289 151 Z" opacity="0.2"/></g><g transform="translate(-78,-130) scale(1,1)"><path fill="#ffffff" stroke="none" d="M 282 144 L 374.2890625 144 Q 384.2890625 144 384.2890625 154 L 384.2890625 173 Q 384.2890625 183 374.2890625 183 L 282 183 Q 272 183 272 173 L 272 154 Q 272 144 282 144 Z"/></g><g transform="translate(-78,-130) scale(1,1)"><path fill="none" stroke="#000000" d="M 282 144 L 374.2890625 144 Q 384.2890625 144 384.2890625 154 L 384.2890625 173 Q 384.2890625 183 374.2890625 183 L 282 183 Q 272 183 272 173 L 272 154 Q 272 144 282 144 Z" stroke-miterlimit="10"/></g><g transform="translate(-78,-130) scale(1,1)"><g><path fill="none" stroke="none"/><text fill="#000000" stroke="none" font-family="Arial" font-size="13px" font-style="normal" font-weight="bold" text-decoration="none" x="288.036865234375" y="163.5">Bill is pending</text></g></g><g transform="translate(-78,-130) scale(1,1)"><path fill="#C0C0C0" stroke="none" d="M 161 263 L 256.20263671875 263 Q 266.20263671875 263 266.20263671875 273 L 266.20263671875 292 Q 266.20263671875 302 256.20263671875 302 L 161 302 Q 151 302 151 292 L 151 273 Q 151 263 161 263 Z" opacity="0.2"/></g><g transform="translate(-78,-130) scale(1,1)"><path fill="#ffffff" stroke="none" d="M 154 256 L 249.20263671875 256 Q 259.20263671875 256 259.20263671875 266 L 259.20263671875 285 Q 259.20263671875 295 249.20263671875 295 L 154 295 Q 144 295 144 285 L 144 266 Q 144 256 154 256 Z"/></g><g transform="translate(-78,-130) scale(1,1)"><path fill="none" stroke="#000000" d="M 154 256 L 249.20263671875 256 Q 259.20263671875 256 259.20263671875 266 L 259.20263671875 285 Q 259.20263671875 295 249.20263671875 295 L 154 295 Q 144 295 144 285 L 144 266 Q 144 256 154 256 Z" stroke-miterlimit="10"/></g><g transform="translate(-78,-130) scale(1,1)"><g><path fill="none" stroke="none"/><text fill="#000000" stroke="none" font-family="Arial" font-size="13px" font-style="normal" font-weight="bold" text-decoration="none" x="172.338623046875" y="275.5">Bill is paid</text></g></g><g transform="translate(-78,-130) scale(1,1)"><path fill="#C0C0C0" stroke="none" d="M 417 263 L 494.14990234375 263 Q 504.14990234375 263 504.14990234375 273 L 504.14990234375 292 Q 504.14990234375 302 494.14990234375 302 L 417 302 Q 407 302 407 292 L 407 273 Q 407 263 417 263 Z" opacity="0.2"/></g><g transform="translate(-78,-130) scale(1,1)"><path fill="#ffffff" stroke="none" d="M 410 256 L 487.14990234375 256 Q 497.14990234375 256 497.14990234375 266 L 497.14990234375 285 Q 497.14990234375 295 487.14990234375 295 L 410 295 Q 400 295 400 285 L 400 266 Q 400 256 410 256 Z"/></g><g transform="translate(-78,-130) scale(1,1)"><path fill="none" stroke="#000000" d="M 410 256 L 487.14990234375 256 Q 497.14990234375 256 497.14990234375 266 L 497.14990234375 285 Q 497.14990234375 295 487.14990234375 295 L 410 295 Q 400 295 400 285 L 400 266 Q 400 256 410 256 Z" stroke-miterlimit="10"/></g><g transform="translate(-78,-130) scale(1,1)"><g><path fill="none" stroke="none"/><text fill="#000000" stroke="none" font-family="Arial" font-size="13px" font-style="normal" font-weight="bold" text-decoration="none" x="408.476806640625" y="275.5">Bill is rejected</text></g></g><g transform="translate(-78,-130) scale(1,1)"><path fill="none" stroke="#000000" d="M 304 184 L 224 255" stroke-miterlimit="10"/></g><g transform="translate(-78,-130) scale(1,1)"><path fill="none" stroke="#000000" d="M 228.80670980766067 245.10578245514387 L 224 255 L 234.39512542069542 251.40258877969006" stroke-miterlimit="10"/></g><g transform="translate(-78,-130) scale(1,1)"><g><path fill="none" stroke="none"/><text fill="#000000" stroke="none" font-family="Arial" font-size="13px" font-style="normal" font-weight="normal" text-decoration="none" x="168" y="211">Payment success</text></g></g><g transform="translate(-78,-130) scale(1,1)"><path fill="none" stroke="#000000" d="M 351 184 L 427 255" stroke-miterlimit="10"/></g><g transform="translate(-78,-130) scale(1,1)"><path fill="none" stroke="#000000" d="M 416.7001006514017 251.13838461149422 L 427 255 L 422.447445752614 244.9862968975205" stroke-miterlimit="10"/></g><g transform="translate(-78,-130) scale(1,1)"><g><path fill="none" stroke="none"/><text fill="#000000" stroke="none" font-family="Arial" font-size="13px" font-style="normal" font-weight="normal" text-decoration="none" x="386" y="216">Payment error</text></g></g><g transform="translate(-78,-130) scale(1,1)"><path fill="none" stroke="#000000" d="M 116 161 L 271 162" stroke-miterlimit="10"/></g><g transform="translate(-78,-130) scale(1,1)"><path fill="none" stroke="#000000" d="M 260.81037902396963 166.14386587196572 L 271 162 L 260.8646942517338 157.7250055685227" stroke-miterlimit="10"/></g><g transform="translate(-78,-130) scale(1,1)"><g><path fill="none" stroke="none"/><text fill="#000000" stroke="none" font-family="Arial" font-size="13px" font-style="normal" font-weight="normal" text-decoration="none" x="132" y="153">A reservation expires</text></g></g><g transform="translate(-78,-130) scale(1,1)"><path fill="none" stroke="#000000" d="M 399 275 L 260 275" stroke-miterlimit="10"/></g><g transform="translate(-78,-130) scale(1,1)"><path fill="none" stroke="#000000" d="M 270.16267485762415 270.790482243984 L 260 275 L 270.16267485762415 279.209517756016" stroke-miterlimit="10"/></g><g transform="translate(-78,-130) scale(1,1)"><g><path fill="none" stroke="none"/><text fill="#000000" stroke="none" font-family="Arial" font-size="13px" font-style="normal" font-weight="normal" text-decoration="none" x="278" y="297">Payment success</text></g></g><g transform="translate(-78,-130) scale(1,1)"><path fill="#C0C0C0" stroke="none" d="M 95 283.5 C 95 276.59644 100.59644 271 107.5 271 C 114.40356 271 120 276.59644 120 283.5 C 120 290.40356 114.40356 296 107.5 296 C 100.59644 296 95 290.40356 95 283.5 Z" opacity="0.2"/></g><g transform="translate(-78,-130) scale(1,1)"><path fill="none" stroke="#000000" d="M 88 276.5 C 88 269.59644 93.59644 264 100.5 264 C 107.40356 264 113 269.59644 113 276.5 C 113 283.40356 107.40356 289 100.5 289 C 93.59644 289 88 283.40356 88 276.5 Z" stroke-miterlimit="10"/></g><g transform="translate(-78,-130) scale(1,1)"><path fill="#000000" stroke="none" d="M 93 276.5 C 93 272.357864 96.357864 269 100.5 269 C 104.642136 269 108 272.357864 108 276.5 C 108 280.642136 104.642136 284 100.5 284 C 96.357864 284 93 280.642136 93 276.5 Z"/></g><g transform="translate(-78,-130) scale(1,1)"><path fill="none" stroke="#000000" d="M 143 276 L 114 276" stroke-miterlimit="10"/></g><g transform="translate(-78,-130) scale(1,1)"><path fill="none" stroke="#000000" d="M 124.16267485762415 271.790482243984 L 114 276 L 124.16267485762415 280.209517756016" stroke-miterlimit="10"/></g><g transform="translate(-78,-130) scale(1,1)"><path fill="none" stroke="#000000" d="M 497 295 L 497 295" stroke-miterlimit="10"/></g><g transform="translate(-78,-130) scale(1,1)"><path fill="none" stroke="#000000" d="M NaN NaN L 497 295 L NaN NaN" stroke-miterlimit="10"/></g><g transform="translate(-78,-130) scale(1,1)"><g><path fill="none" stroke="none"/><text fill="#000000" stroke="none" font-family="Arial" font-size="13px" font-style="normal" font-weight="normal" text-decoration="none" x="499" y="242">Payment error</text></g></g></g></svg>