<svg version="1.1" xmlns="http://www.w3.org/2000/svg" xmlns:xlink="http://www.w3.org/1999/xlink" width="761.6943359375" height="315"><defs/><g><g transform="translate(-6,-54) scale(1,1)"><path fill="#C0C0C0" stroke="none" d="M 193 167 L 292.55078125 167 Q 302.55078125 167 302.55078125 177 L 302.55078125 196 Q 302.55078125 206 292.55078125 206 L 193 206 Q 183 206 183 196 L 183 177 Q 183 167 193 167 Z" opacity="0.2"/></g><g transform="translate(-6,-54) scale(1,1)"><path fill="#ffffff" stroke="none" d="M 186 160 L 285.55078125 160 Q 295.55078125 160 295.55078125 170 L 295.55078125 189 Q 295.55078125 199 285.55078125 199 L 186 199 Q 176 199 176 189 L 176 170 Q 176 160 186 160 Z"/></g><g transform="translate(-6,-54) scale(1,1)"><path fill="none" stroke="#000000" d="M 186 160 L 285.55078125 160 Q 295.55078125 160 295.55078125 170 L 295.55078125 189 Q 295.55078125 199 285.55078125 199 L 186 199 Q 176 199 176 189 L 176 170 Q 176 160 186 160 Z" stroke-miterlimit="10"/></g><g transform="translate(-6,-54) scale(1,1)"><g><path fill="none" stroke="none"/><text fill="#000000" stroke="none" font-family="Arial" font-size="13px" font-style="normal" font-weight="bold" text-decoration="none" x="198.562255859375" y="179.5">Available car</text></g></g><g transform="translate(-6,-54) scale(1,1)"><path fill="#C0C0C0" stroke="none" d="M 617 167 L 694.8671875 167 Q 704.8671875 167 704.8671875 177 L 704.8671875 196 Q 704.8671875 206 694.8671875 206 L 617 206 Q 607 206 607 196 L 607 177 Q 607 167 617 167 Z" opacity="0.2"/></g><g transform="translate(-6,-54) scale(1,1)"><path fill="#ffffff" stroke="none" d="M 610 160 L 687.8671875 160 Q 697.8671875 160 697.8671875 170 L 697.8671875 189 Q 697.8671875 199 687.8671875 199 L 610 199 Q 600 199 600 189 L 600 170 Q 600 160 610 160 Z"/></g><g transform="translate(-6,-54) scale(1,1)"><path fill="none" stroke="#000000" d="M 610 160 L 687.8671875 160 Q 697.8671875 160 697.8671875 170 L 697.8671875 189 Q 697.8671875 199 687.8671875 199 L 610 199 Q 600 199 600 189 L 600 170 Q 600 160 610 160 Z" stroke-miterlimit="10"/></g><g transform="translate(-6,-54) scale(1,1)"><g><path fill="none" stroke="none"/><text fill="#000000" stroke="none" font-family="Arial" font-size="13px" font-style="normal" font-weight="bold" text-decoration="none" x="612.80908203125" y="179.5">Car is in use</text></g></g><g transform="translate(-6,-54) scale(1,1)"><path fill="#C0C0C0" stroke="none" d="M 409 71 L 510.00439453125 71 Q 520.00439453125 71 520.00439453125 81 L 520.00439453125 100 Q 520.00439453125 110 510.00439453125 110 L 409 110 Q 399 110 399 100 L 399 81 Q 399 71 409 71 Z" opacity="0.2"/></g><g transform="translate(-6,-54) scale(1,1)"><path fill="#ffffff" stroke="none" d="M 402 64 L 503.00439453125 64 Q 513.00439453125 64 513.00439453125 74 L 513.00439453125 93 Q 513.00439453125 103 503.00439453125 103 L 402 103 Q 392 103 392 93 L 392 74 Q 392 64 402 64 Z"/></g><g transform="translate(-6,-54) scale(1,1)"><path fill="none" stroke="#000000" d="M 402 64 L 503.00439453125 64 Q 513.00439453125 64 513.00439453125 74 L 513.00439453125 93 Q 513.00439453125 103 503.00439453125 103 L 402 103 Q 392 103 392 93 L 392 74 Q 392 64 402 64 Z" stroke-miterlimit="10"/></g><g transform="translate(-6,-54) scale(1,1)"><g><path fill="none" stroke="none"/><text fill="#000000" stroke="none" font-family="Arial" font-size="13px" font-style="normal" font-weight="bold" text-decoration="none" x="413.84814453125" y="83.5">Reserved car</text></g></g><g transform="translate(-6,-54) scale(1,1)"><path fill="#C0C0C0" stroke="none" d="M 393 271 L 541.67529296875 271 Q 551.67529296875 271 551.67529296875 281 L 551.67529296875 300 Q 551.67529296875 310 541.67529296875 310 L 393 310 Q 383 310 383 300 L 383 281 Q 383 271 393 271 Z" opacity="0.2"/></g><g transform="translate(-6,-54) scale(1,1)"><path fill="#ffffff" stroke="none" d="M 386 264 L 534.67529296875 264 Q 544.67529296875 264 544.67529296875 274 L 544.67529296875 293 Q 544.67529296875 303 534.67529296875 303 L 386 303 Q 376 303 376 293 L 376 274 Q 376 264 386 264 Z"/></g><g transform="translate(-6,-54) scale(1,1)"><path fill="none" stroke="#000000" d="M 386 264 L 534.67529296875 264 Q 544.67529296875 264 544.67529296875 274 L 544.67529296875 293 Q 544.67529296875 303 534.67529296875 303 L 386 303 Q 376 303 376 293 L 376 274 Q 376 264 386 264 Z" stroke-miterlimit="10"/></g><g transform="translate(-6,-54) scale(1,1)"><g><path fill="none" stroke="none"/><text fill="#000000" stroke="none" font-family="Arial" font-size="13px" font-style="normal" font-weight="bold" text-decoration="none" x="385.911376953125" y="283.5">Car is becoming available</text></g></g><g transform="translate(-6,-54) scale(1,1)"><path fill="#C0C0C0" stroke="none" d="M 103 184.5 C 103 179.2532944 107.2532944 175 112.5 175 C 117.7467056 175 122 179.2532944 122 184.5 C 122 189.7467056 117.7467056 194 112.5 194 C 107.2532944 194 103 189.7467056 103 184.5 Z" opacity="0.2"/></g><g transform="translate(-6,-54) scale(1,1)"><path fill="#000000" stroke="none" d="M 96 177.5 C 96 172.2532944 100.2532944 168 105.5 168 C 110.7467056 168 115 172.2532944 115 177.5 C 115 182.7467056 110.7467056 187 105.5 187 C 100.2532944 187 96 182.7467056 96 177.5 Z"/></g><g transform="translate(-6,-54) scale(1,1)"><path fill="none" stroke="#000000" d="M 116 177 L 175 178" stroke-miterlimit="10"/></g><g transform="translate(-6,-54) scale(1,1)"><path fill="none" stroke="#000000" d="M 164.76744705029876 182.0366892537772 L 175 178 L 164.9101220755271 173.61886276530458" stroke-miterlimit="10"/></g><g transform="translate(-6,-54) scale(1,1)"><path fill="none" stroke="#000000" d="M 297 167 Q 368 152 426 104" stroke-miterlimit="10"/></g><g transform="translate(-6,-54) scale(1,1)"><path fill="none" stroke="#000000" d="M 420.8545856151393 113.7223819513568 L 426 104 L 415.48688038936007 107.23640480354027" stroke-miterlimit="10"/></g><g transform="translate(-6,-54) scale(1,1)"><g><path fill="none" stroke="none"/><text fill="#000000" stroke="none" font-family="Arial" font-size="13px" font-style="normal" font-weight="normal" text-decoration="none" x="327" y="172">Reservation is made</text></g></g><g transform="translate(-6,-54) scale(1,1)"><path fill="none" stroke="#000000" d="M 514 89 Q 592 96 635 159" stroke-miterlimit="10"/></g><g transform="translate(-6,-54) scale(1,1)"><path fill="none" stroke="#000000" d="M 625.7940067932972 152.97922853131413 L 635 159 L 632.7477081094654 148.23305144250088" stroke-miterlimit="10"/></g><g transform="translate(-6,-54) scale(1,1)"><g><path fill="none" stroke="none"/><text fill="#000000" stroke="none" font-family="Arial" font-size="13px" font-style="normal" font-weight="normal" text-decoration="none" x="599" y="117">User ignites the car</text></g></g><g transform="translate(-6,-54) scale(1,1)"><path fill="none" stroke="#000000" d="M 637 200 Q 600 272 546 276" stroke-miterlimit="10"/></g><g transform="translate(-6,-54) scale(1,1)"><path fill="none" stroke="#000000" d="M 555.8239437626929 271.0512497590355 L 546 276 L 556.4458721063801 279.44728239881096" stroke-miterlimit="10"/></g><g transform="translate(-6,-54) scale(1,1)"><g><path fill="none" stroke="none"/><text fill="#000000" stroke="none" font-family="Arial" font-size="13px" font-style="normal" font-weight="normal" text-decoration="none" x="599" y="260">Car is parked in a safe area</text></g></g><g transform="translate(-6,-54) scale(1,1)"><path fill="none" stroke="#000000" d="M 375 263 Q 312 248 258 200" stroke-miterlimit="10"/></g><g transform="translate(-6,-54) scale(1,1)"><path fill="none" stroke="#000000" d="M 268.3923292673499 203.6054808831808 L 258 200 L 262.7990265153309 209.89794647920218" stroke-miterlimit="10"/></g><g transform="translate(-6,-54) scale(1,1)"><g><path fill="none" stroke="none"/><text fill="#000000" stroke="none" font-family="Arial" font-size="13px" font-style="normal" font-weight="normal" text-decoration="none" x="311" y="236">Bill is processed</text></g></g><g transform="translate(-6,-54) scale(1,1)"><path fill="none" stroke="#000000" d="M 391 87 Q 256 96 240 159" stroke-miterlimit="10"/></g><g transform="translate(-6,-54) scale(1,1)"><path fill="none" stroke="#000000" d="M 238.42158737066123 148.1138338442065 L 240 159 L 246.58157563616913 150.18621181639898" stroke-miterlimit="10"/></g><g transform="translate(-6,-54) scale(1,1)"><g><path fill="none" stroke="none"/><text fill="#000000" stroke="none" font-family="Arial" font-size="13px" font-style="normal" font-weight="normal" text-decoration="none" x="231" y="85">Reservation expires</text></g></g><g transform="translate(-6,-54) scale(1,1)"><path fill="#C0C0C0" stroke="none" d="M 81 327 L 213.76171875 327 Q 223.76171875 327 223.76171875 337 L 223.76171875 356 Q 223.76171875 366 213.76171875 366 L 81 366 Q 71 366 71 356 L 71 337 Q 71 327 81 327 Z" opacity="0.2"/></g><g transform="translate(-6,-54) scale(1,1)"><path fill="#ffffff" stroke="none" d="M 74 320 L 206.76171875 320 Q 216.76171875 320 216.76171875 330 L 216.76171875 349 Q 216.76171875 359 206.76171875 359 L 74 359 Q 64 359 64 349 L 64 330 Q 64 320 74 320 Z"/></g><g transform="translate(-6,-54) scale(1,1)"><path fill="none" stroke="#000000" d="M 74 320 L 206.76171875 320 Q 216.76171875 320 216.76171875 330 L 216.76171875 349 Q 216.76171875 359 206.76171875 359 L 74 359 Q 64 359 64 349 L 64 330 Q 64 320 74 320 Z" stroke-miterlimit="10"/></g><g transform="translate(-6,-54) scale(1,1)"><g><path fill="none" stroke="none"/><text fill="#000000" stroke="none" font-family="Arial" font-size="13px" font-style="normal" font-weight="bold" text-decoration="none" x="77.516845703125" y="339.5">Car is in maintenance</text></g></g><g transform="translate(-6,-54) scale(1,1)"><path fill="none" stroke="#000000" d="M 191 200 Q 88 249 128 319" stroke-miterlimit="10"/></g><g transform="translate(-6,-54) scale(1,1)"><path fill="none" stroke="#000000" d="M 119.30301636196064 312.2648329196912 L 128 319 L 126.6127862085847 308.08782157876317" stroke-miterlimit="10"/></g><g transform="translate(-6,-54) scale(1,1)"><g><path fill="none" stroke="none"/><text fill="#000000" stroke="none" font-family="Arial" font-size="13px" font-style="normal" font-weight="normal" text-decoration="none" x="16" y="284">Battery level is below 20%</text></g></g><g transform="translate(-6,-54) scale(1,1)"><path fill="none" stroke="#000000" d="M 218 342 Q 256 344 264 307.5 Q 272 271 243 200" stroke-miterlimit="10"/></g><g transform="translate(-6,-54) scale(1,1)"><path fill="none" stroke="#000000" d="M 250.73974234523638 207.816417877094 L 243 200 L 242.94578221147236 210.99986638243425" stroke-miterlimit="10"/></g><g transform="translate(-6,-54) scale(1,1)"><g><path fill="none" stroke="none"/><text fill="#000000" stroke="none" font-family="Arial" font-size="13px" font-style="normal" font-weight="normal" text-decoration="none" x="182" y="316">Battery level is above or equal to 20%</text></g></g></g></svg>