<svg version="1.1" xmlns="http://www.w3.org/2000/svg" xmlns:xlink="http://www.w3.org/1999/xlink" width="448.44091796875" height="97"><defs/><g><g transform="translate(-22,-14) scale(1,1)"><rect fill="#C0C0C0" stroke="none" x="49" y="31" width="102.7890625" height="44" opacity="0.2"/></g><g transform="translate(-22,-14) scale(1,1)"><rect fill="#cccccc" stroke="none" x="42" y="24" width="102.7890625" height="44"/></g><g transform="translate(-22,-14) scale(1,1)"><path fill="none" stroke="#000000" d="M 42 24 L 144.7890625 24 L 144.7890625 68 L 42 68 L 42 24 Z Z" stroke-miterlimit="10"/></g><g transform="translate(-22,-14) scale(1,1)"><rect fill="#cccccc" stroke="none" x="32" y="31" width="20" height="10"/></g><g transform="translate(-22,-14) scale(1,1)"><path fill="none" stroke="#000000" d="M 32 31 L 52 31 L 52 41 L 32 41 L 32 31 Z Z" stroke-miterlimit="10"/></g><g transform="translate(-22,-14) scale(1,1)"><rect fill="#cccccc" stroke="none" x="32" y="51" width="20" height="10"/></g><g transform="translate(-22,-14) scale(1,1)"><path fill="none" stroke="#000000" d="M 32 51 L 52 51 L 52 61 L 32 61 L 32 51 Z Z" stroke-miterlimit="10"/></g><g transform="translate(-22,-14) scale(1,1)"><g><path fill="none" stroke="none"/><text fill="#000000" stroke="none" font-family="Arial" font-size="13px" font-style="normal" font-weight="bold" text-decoration="none" x="61.187744140625" y="43.5">Bill controller</text></g></g><g transform="translate(-22,-14) scale(1,1)"><rect fill="#C0C0C0" stroke="none" x="369" y="31" width="98.44091796875" height="44" opacity="0.2"/></g><g transform="translate(-22,-14) scale(1,1)"><rect fill="#ffffff" stroke="none" x="362" y="24" width="98.44091796875" height="44"/></g><g transform="translate(-22,-14) scale(1,1)"><path fill="none" stroke="#000000" d="M 362 24 L 460.44091796875 24 L 460.44091796875 68 L 362 68 L 362 24 Z Z" stroke-miterlimit="10"/></g><g transform="translate(-22,-14) scale(1,1)"><rect fill="#ffffff" stroke="none" x="352" y="31" width="20" height="10"/></g><g transform="translate(-22,-14) scale(1,1)"><path fill="none" stroke="#000000" d="M 352 31 L 372 31 L 372 41 L 352 41 L 352 31 Z Z" stroke-miterlimit="10"/></g><g transform="translate(-22,-14) scale(1,1)"><rect fill="#ffffff" stroke="none" x="352" y="51" width="20" height="10"/></g><g transform="translate(-22,-14) scale(1,1)"><path fill="none" stroke="#000000" d="M 352 51 L 372 51 L 372 61 L 352 61 L 352 51 Z Z" stroke-miterlimit="10"/></g><g transform="translate(-22,-14) scale(1,1)"><g><path fill="none" stroke="none"/><text fill="#000000" stroke="none" font-family="Arial" font-size="13px" font-style="normal" font-weight="bold" text-decoration="none" x="397.44091796875" y="43.5">DBMS</text></g></g><g transform="translate(-22,-14) scale(1,1)"><path fill="#C0C0C0" stroke="none" d="M 266.2626953125 58.5 C 266.2626953125 52.1487248 271.4114201125 47 277.7626953125 47 C 284.1139705125 47 289.2626953125 52.1487248 289.2626953125 58.5 C 289.2626953125 64.8512752 284.1139705125 70 277.7626953125 70 C 271.4114201125 70 266.2626953125 64.8512752 266.2626953125 58.5 Z" opacity="0.2"/></g><g transform="translate(-22,-14) scale(1,1)"><path fill="none" stroke="#000000" d="M 273.06573962719153 62.08382788292327 A 11.5 11.5 0 0 1 266.93426037280847 39.91617211707673" stroke-miterlimit="10"/></g><g transform="translate(-22,-14) scale(1,1)"><path fill="#ffffff" stroke="none" d="M 262.2626953125 51.5 C 262.2626953125 46.8055792 266.0682745125 43 270.7626953125 43 C 275.4571161125 43 279.2626953125 46.8055792 279.2626953125 51.5 C 279.2626953125 56.1944208 275.4571161125 60 270.7626953125 60 C 266.0682745125 60 262.2626953125 56.1944208 262.2626953125 51.5 Z"/></g><g transform="translate(-22,-14) scale(1,1)"><path fill="none" stroke="#000000" d="M 262.2626953125 51.5 C 262.2626953125 46.8055792 266.0682745125 43 270.7626953125 43 C 275.4571161125 43 279.2626953125 46.8055792 279.2626953125 51.5 C 279.2626953125 56.1944208 275.4571161125 60 270.7626953125 60 C 266.0682745125 60 262.2626953125 56.1944208 262.2626953125 51.5 Z" stroke-miterlimit="10"/></g><g transform="translate(-22,-14) scale(1,1)"><g><path fill="none" stroke="none"/><text fill="#000000" stroke="none" font-family="Arial" font-size="13px" font-style="normal" font-weight="bold" text-decoration="none" x="257.75634765625" y="82.5">SQL</text><text fill="#000000" stroke="none" font-family="Arial" font-size="13px" font-style="normal" font-weight="bold" text-decoration="none" x="245.832275390625" y="95.5">interface</text></g></g><g transform="translate(-22,-14) scale(1,1)"><path fill="none" stroke="#000000" d="M 351 56 L 282.2626953125 53.50259088010204" stroke-miterlimit="10"/></g><g transform="translate(-22,-14) scale(1,1)"><path fill="none" stroke="#000000" d="M 146 54 L 259.2626953125 53.96989278590426" stroke-miterlimit="10"/></g></g></svg>