<svg version="1.1" xmlns="http://www.w3.org/2000/svg" xmlns:xlink="http://www.w3.org/1999/xlink" width="660" height="350"><defs/><g><g transform="translate(-6,-6) scale(1,1)"><rect fill="#C0C0C0" stroke="none" x="81" y="175" width="198" height="44" opacity="0.2"/></g><g transform="translate(-6,-6) scale(1,1)"><rect fill="#cccccc" stroke="none" x="74" y="168" width="198" height="44"/></g><g transform="translate(-6,-6) scale(1,1)"><path fill="none" stroke="#000000" d="M 74 168 L 272 168 L 272 212 L 74 212 L 74 168 Z Z" stroke-miterlimit="10"/></g><g transform="translate(-6,-6) scale(1,1)"><rect fill="#cccccc" stroke="none" x="64" y="175" width="20" height="10"/></g><g transform="translate(-6,-6) scale(1,1)"><path fill="none" stroke="#000000" d="M 64 175 L 84 175 L 84 185 L 64 185 L 64 175 Z Z" stroke-miterlimit="10"/></g><g transform="translate(-6,-6) scale(1,1)"><rect fill="#cccccc" stroke="none" x="64" y="195" width="20" height="10"/></g><g transform="translate(-6,-6) scale(1,1)"><path fill="none" stroke="#000000" d="M 64 195 L 84 195 L 84 205 L 64 205 L 64 195 Z Z" stroke-miterlimit="10"/></g><g transform="translate(-6,-6) scale(1,1)"><g><path fill="none" stroke="none"/><text fill="#000000" stroke="none" font-family="Arial" font-size="13px" font-style="normal" font-weight="bold" text-decoration="none" x="114.77734375" y="187.5">Reservation controller</text></g></g><g transform="translate(-6,-6) scale(1,1)"><rect fill="#C0C0C0" stroke="none" x="185" y="303" width="111.47265625" height="44" opacity="0.2"/></g><g transform="translate(-6,-6) scale(1,1)"><rect fill="#ffffff" stroke="none" x="178" y="296" width="111.47265625" height="44"/></g><g transform="translate(-6,-6) scale(1,1)"><path fill="none" stroke="#000000" d="M 178 296 L 289.47265625 296 L 289.47265625 340 L 178 340 L 178 296 Z Z" stroke-miterlimit="10"/></g><g transform="translate(-6,-6) scale(1,1)"><rect fill="#ffffff" stroke="none" x="168" y="303" width="20" height="10"/></g><g transform="translate(-6,-6) scale(1,1)"><path fill="none" stroke="#000000" d="M 168 303 L 188 303 L 188 313 L 168 313 L 168 303 Z Z" stroke-miterlimit="10"/></g><g transform="translate(-6,-6) scale(1,1)"><rect fill="#ffffff" stroke="none" x="168" y="323" width="20" height="10"/></g><g transform="translate(-6,-6) scale(1,1)"><path fill="none" stroke="#000000" d="M 168 323 L 188 323 L 188 333 L 168 333 L 168 323 Z Z" stroke-miterlimit="10"/></g><g transform="translate(-6,-6) scale(1,1)"><g><path fill="none" stroke="none"/><text fill="#000000" stroke="none" font-family="Arial" font-size="13px" font-style="normal" font-weight="bold" text-decoration="none" x="225.0126953125" y="315.5">User</text><text fill="#000000" stroke="none" font-family="Arial" font-size="13px" font-style="normal" font-weight="bold" text-decoration="none" x="212.003173828125" y="328.5">controller</text></g></g><g transform="translate(-6,-6) scale(1,1)"><rect fill="#C0C0C0" stroke="none" x="41" y="39" width="110.736328125" height="44" opacity="0.2"/></g><g transform="translate(-6,-6) scale(1,1)"><rect fill="#ffffff" stroke="none" x="34" y="32" width="110.736328125" height="44"/></g><g transform="translate(-6,-6) scale(1,1)"><path fill="none" stroke="#000000" d="M 34 32 L 144.736328125 32 L 144.736328125 76 L 34 76 L 34 32 Z Z" stroke-miterlimit="10"/></g><g transform="translate(-6,-6) scale(1,1)"><rect fill="#ffffff" stroke="none" x="24" y="39" width="20" height="10"/></g><g transform="translate(-6,-6) scale(1,1)"><path fill="none" stroke="#000000" d="M 24 39 L 44 39 L 44 49 L 24 49 L 24 39 Z Z" stroke-miterlimit="10"/></g><g transform="translate(-6,-6) scale(1,1)"><rect fill="#ffffff" stroke="none" x="24" y="59" width="20" height="10"/></g><g transform="translate(-6,-6) scale(1,1)"><path fill="none" stroke="#000000" d="M 24 59 L 44 59 L 44 69 L 24 69 L 24 59 Z Z" stroke-miterlimit="10"/></g><g transform="translate(-6,-6) scale(1,1)"><g><path fill="none" stroke="none"/><text fill="#000000" stroke="none" font-family="Arial" font-size="13px" font-style="normal" font-weight="bold" text-decoration="none" x="52.4609375" y="51.5">Ride controller</text></g></g><g transform="translate(-6,-6) scale(1,1)"><rect fill="#C0C0C0" stroke="none" x="33" y="303" width="110" height="50" opacity="0.2"/></g><g transform="translate(-6,-6) scale(1,1)"><rect fill="#ffffff" stroke="none" x="26" y="296" width="110" height="50"/></g><g transform="translate(-6,-6) scale(1,1)"><path fill="none" stroke="#000000" d="M 26 296 L 136 296 L 136 346 L 26 346 L 26 296 Z Z" stroke-miterlimit="10"/></g><g transform="translate(-6,-6) scale(1,1)"><rect fill="#ffffff" stroke="none" x="16" y="303" width="20" height="10"/></g><g transform="translate(-6,-6) scale(1,1)"><path fill="none" stroke="#000000" d="M 16 303 L 36 303 L 36 313 L 16 313 L 16 303 Z Z" stroke-miterlimit="10"/></g><g transform="translate(-6,-6) scale(1,1)"><rect fill="#ffffff" stroke="none" x="16" y="323" width="20" height="10"/></g><g transform="translate(-6,-6) scale(1,1)"><path fill="none" stroke="#000000" d="M 16 323 L 36 323 L 36 333 L 16 333 L 16 323 Z Z" stroke-miterlimit="10"/></g><g transform="translate(-6,-6) scale(1,1)"><g><path fill="none" stroke="none"/><text fill="#000000" stroke="none" font-family="Arial" font-size="13px" font-style="normal" font-weight="bold" text-decoration="none" x="47.33642578125" y="315.5">Geographical</text><text fill="#000000" stroke="none" font-family="Arial" font-size="13px" font-style="normal" font-weight="bold" text-decoration="none" x="69.740478515625" y="328.5">areas</text><text fill="#000000" stroke="none" font-family="Arial" font-size="13px" font-style="normal" font-weight="bold" text-decoration="none" x="59.266845703125" y="341.5">controller</text></g></g><g transform="translate(-6,-6) scale(1,1)"><rect fill="#C0C0C0" stroke="none" x="489" y="23" width="102.7890625" height="44" opacity="0.2"/></g><g transform="translate(-6,-6) scale(1,1)"><rect fill="#ffffff" stroke="none" x="482" y="16" width="102.7890625" height="44"/></g><g transform="translate(-6,-6) scale(1,1)"><path fill="none" stroke="#000000" d="M 482 16 L 584.7890625 16 L 584.7890625 60 L 482 60 L 482 16 Z Z" stroke-miterlimit="10"/></g><g transform="translate(-6,-6) scale(1,1)"><rect fill="#ffffff" stroke="none" x="472" y="23" width="20" height="10"/></g><g transform="translate(-6,-6) scale(1,1)"><path fill="none" stroke="#000000" d="M 472 23 L 492 23 L 492 33 L 472 33 L 472 23 Z Z" stroke-miterlimit="10"/></g><g transform="translate(-6,-6) scale(1,1)"><rect fill="#ffffff" stroke="none" x="472" y="43" width="20" height="10"/></g><g transform="translate(-6,-6) scale(1,1)"><path fill="none" stroke="#000000" d="M 472 43 L 492 43 L 492 53 L 472 53 L 472 43 Z Z" stroke-miterlimit="10"/></g><g transform="translate(-6,-6) scale(1,1)"><g><path fill="none" stroke="none"/><text fill="#000000" stroke="none" font-family="Arial" font-size="13px" font-style="normal" font-weight="bold" text-decoration="none" x="501.187744140625" y="35.5">Bill controller</text></g></g><g transform="translate(-6,-6) scale(1,1)"><rect fill="#C0C0C0" stroke="none" x="193" y="39" width="102" height="44" opacity="0.2"/></g><g transform="translate(-6,-6) scale(1,1)"><rect fill="#ffffff" stroke="none" x="186" y="32" width="102" height="44"/></g><g transform="translate(-6,-6) scale(1,1)"><path fill="none" stroke="#000000" d="M 186 32 L 288 32 L 288 76 L 186 76 L 186 32 Z Z" stroke-miterlimit="10"/></g><g transform="translate(-6,-6) scale(1,1)"><rect fill="#ffffff" stroke="none" x="176" y="39" width="20" height="10"/></g><g transform="translate(-6,-6) scale(1,1)"><path fill="none" stroke="#000000" d="M 176 39 L 196 39 L 196 49 L 176 49 L 176 39 Z Z" stroke-miterlimit="10"/></g><g transform="translate(-6,-6) scale(1,1)"><rect fill="#ffffff" stroke="none" x="176" y="59" width="20" height="10"/></g><g transform="translate(-6,-6) scale(1,1)"><path fill="none" stroke="#000000" d="M 176 59 L 196 59 L 196 69 L 176 69 L 176 59 Z Z" stroke-miterlimit="10"/></g><g transform="translate(-6,-6) scale(1,1)"><g><path fill="none" stroke="none"/><text fill="#000000" stroke="none" font-family="Arial" font-size="13px" font-style="normal" font-weight="bold" text-decoration="none" x="231.5263671875" y="51.5">Car</text><text fill="#000000" stroke="none" font-family="Arial" font-size="13px" font-style="normal" font-weight="bold" text-decoration="none" x="215.266845703125" y="64.5">controller</text></g></g><g transform="translate(-6,-6) scale(1,1)"><path fill="#C0C0C0" stroke="none" d="M 375.0126953125 58.5 C 375.0126953125 52.1487248 380.1614201125 47 386.5126953125 47 C 392.8639705125 47 398.0126953125 52.1487248 398.0126953125 58.5 C 398.0126953125 64.8512752 392.8639705125 70 386.5126953125 70 C 380.1614201125 70 375.0126953125 64.8512752 375.0126953125 58.5 Z" opacity="0.2"/></g><g transform="translate(-6,-6) scale(1,1)"><path fill="none" stroke="#000000" d="M 386.71550322564497 59.527661459923365 A 11.5 11.5 0 0 1 371.28449677435503 42.472338540076635" stroke-miterlimit="10"/></g><g transform="translate(-6,-6) scale(1,1)"><path fill="#ffffff" stroke="none" d="M 371.0126953125 51.5 C 371.0126953125 46.8055792 374.8182745125 43 379.5126953125 43 C 384.2071161125 43 388.0126953125 46.8055792 388.0126953125 51.5 C 388.0126953125 56.1944208 384.2071161125 60 379.5126953125 60 C 374.8182745125 60 371.0126953125 56.1944208 371.0126953125 51.5 Z"/></g><g transform="translate(-6,-6) scale(1,1)"><path fill="none" stroke="#000000" d="M 371.0126953125 51.5 C 371.0126953125 46.8055792 374.8182745125 43 379.5126953125 43 C 384.2071161125 43 388.0126953125 46.8055792 388.0126953125 51.5 C 388.0126953125 56.1944208 384.2071161125 60 379.5126953125 60 C 374.8182745125 60 371.0126953125 56.1944208 371.0126953125 51.5 Z" stroke-miterlimit="10"/></g><g transform="translate(-6,-6) scale(1,1)"><g><path fill="none" stroke="none"/><text fill="#000000" stroke="none" font-family="Arial" font-size="13px" font-style="normal" font-weight="bold" text-decoration="none" x="343.385009765625" y="82.5">Bill manager</text></g></g><g transform="translate(-6,-6) scale(1,1)"><path fill="none" stroke="#000000" d="M 471 48 L 391.0126953125 52.334743923611114" stroke-miterlimit="10"/></g><g transform="translate(-6,-6) scale(1,1)"><path fill="none" stroke="#000000" d="M 207 167 L 368.0126953125 60.940894717261905" stroke-miterlimit="10"/></g><g transform="translate(-6,-6) scale(1,1)"><path fill="none" stroke="#000000" d="M 96 212 L 96 296" stroke-miterlimit="10" stroke-dasharray="3"/></g><g transform="translate(-6,-6) scale(1,1)"><path fill="none" stroke="#000000" d="M 91.79048224398402 285.83732514237585 L 96 296 L 100.20951775601598 285.83732514237585" stroke-miterlimit="10"/></g><g transform="translate(-6,-6) scale(1,1)"><path fill="none" stroke="#000000" d="M 208 212 L 208 296" stroke-miterlimit="10" stroke-dasharray="3"/></g><g transform="translate(-6,-6) scale(1,1)"><path fill="none" stroke="#000000" d="M 203.790482243984 285.83732514237585 L 208 296 L 212.209517756016 285.83732514237585" stroke-miterlimit="10"/></g><g transform="translate(-6,-6) scale(1,1)"><path fill="none" stroke="#000000" d="M 208 168 L 208 76" stroke-miterlimit="10" stroke-dasharray="3"/></g><g transform="translate(-6,-6) scale(1,1)"><path fill="none" stroke="#000000" d="M 212.209517756016 86.16267485762415 L 208 76 L 203.790482243984 86.16267485762415" stroke-miterlimit="10"/></g><g transform="translate(-6,-6) scale(1,1)"><rect fill="#C0C0C0" stroke="none" x="521" y="271" width="98.44091796875" height="44" opacity="0.2"/></g><g transform="translate(-6,-6) scale(1,1)"><rect fill="#ffffff" stroke="none" x="514" y="264" width="98.44091796875" height="44"/></g><g transform="translate(-6,-6) scale(1,1)"><path fill="none" stroke="#000000" d="M 514 264 L 612.44091796875 264 L 612.44091796875 308 L 514 308 L 514 264 Z Z" stroke-miterlimit="10"/></g><g transform="translate(-6,-6) scale(1,1)"><rect fill="#ffffff" stroke="none" x="504" y="271" width="20" height="10"/></g><g transform="translate(-6,-6) scale(1,1)"><path fill="none" stroke="#000000" d="M 504 271 L 524 271 L 524 281 L 504 281 L 504 271 Z Z" stroke-miterlimit="10"/></g><g transform="translate(-6,-6) scale(1,1)"><rect fill="#ffffff" stroke="none" x="504" y="291" width="20" height="10"/></g><g transform="translate(-6,-6) scale(1,1)"><path fill="none" stroke="#000000" d="M 504 291 L 524 291 L 524 301 L 504 301 L 504 291 Z Z" stroke-miterlimit="10"/></g><g transform="translate(-6,-6) scale(1,1)"><g><path fill="none" stroke="none"/><text fill="#000000" stroke="none" font-family="Arial" font-size="13px" font-style="normal" font-weight="bold" text-decoration="none" x="549.44091796875" y="283.5">DBMS</text></g></g><g transform="translate(-6,-6) scale(1,1)"><path fill="#C0C0C0" stroke="none" d="M 362.2626953125 282.5 C 362.2626953125 276.1487248 367.4114201125 271 373.7626953125 271 C 380.1139705125 271 385.2626953125 276.1487248 385.2626953125 282.5 C 385.2626953125 288.8512752 380.1139705125 294 373.7626953125 294 C 367.4114201125 294 362.2626953125 288.8512752 362.2626953125 282.5 Z" opacity="0.2"/></g><g transform="translate(-6,-6) scale(1,1)"><path fill="none" stroke="#000000" d="M 364.54373330228367 286.40742246544426 A 11.5 11.5 0 0 1 367.45626669771633 263.59257753455574" stroke-miterlimit="10"/></g><g transform="translate(-6,-6) scale(1,1)"><path fill="#ffffff" stroke="none" d="M 358.2626953125 275.5 C 358.2626953125 270.8055792 362.0682745125 267 366.7626953125 267 C 371.4571161125 267 375.2626953125 270.8055792 375.2626953125 275.5 C 375.2626953125 280.1944208 371.4571161125 284 366.7626953125 284 C 362.0682745125 284 358.2626953125 280.1944208 358.2626953125 275.5 Z"/></g><g transform="translate(-6,-6) scale(1,1)"><path fill="none" stroke="#000000" d="M 358.2626953125 275.5 C 358.2626953125 270.8055792 362.0682745125 267 366.7626953125 267 C 371.4571161125 267 375.2626953125 270.8055792 375.2626953125 275.5 C 375.2626953125 280.1944208 371.4571161125 284 366.7626953125 284 C 362.0682745125 284 358.2626953125 280.1944208 358.2626953125 275.5 Z" stroke-miterlimit="10"/></g><g transform="translate(-6,-6) scale(1,1)"><g><path fill="none" stroke="none"/><text fill="#000000" stroke="none" font-family="Arial" font-size="13px" font-style="normal" font-weight="bold" text-decoration="none" x="353.75634765625" y="306.5">SQL</text><text fill="#000000" stroke="none" font-family="Arial" font-size="13px" font-style="normal" font-weight="bold" text-decoration="none" x="341.832275390625" y="319.5">interface</text></g></g><g transform="translate(-6,-6) scale(1,1)"><path fill="none" stroke="#000000" d="M 503 288 L 378.2626953125 279.2544044961735" stroke-miterlimit="10"/></g><g transform="translate(-6,-6) scale(1,1)"><path fill="none" stroke="#000000" d="M 212 213 L 355.2626953125 273.62928025265956" stroke-miterlimit="10"/></g><g transform="translate(-6,-6) scale(1,1)"><path fill="none" stroke="#000000" d="M 96 168 L 96 76" stroke-miterlimit="10" stroke-dasharray="3"/></g><g transform="translate(-6,-6) scale(1,1)"><path fill="none" stroke="#000000" d="M 100.20951775601598 86.16267485762415 L 96 76 L 91.79048224398402 86.16267485762415" stroke-miterlimit="10"/></g><g transform="translate(-6,-6) scale(1,1)"><rect fill="#C0C0C0" stroke="none" x="521" y="159" width="142" height="44" opacity="0.2"/></g><g transform="translate(-6,-6) scale(1,1)"><rect fill="#fafa83" stroke="none" x="514" y="152" width="142" height="44"/></g><g transform="translate(-6,-6) scale(1,1)"><path fill="none" stroke="#000000" d="M 514 152 L 656 152 L 656 196 L 514 196 L 514 152 Z Z" stroke-miterlimit="10"/></g><g transform="translate(-6,-6) scale(1,1)"><rect fill="#fafa83" stroke="none" x="504" y="159" width="20" height="10"/></g><g transform="translate(-6,-6) scale(1,1)"><path fill="none" stroke="#000000" d="M 504 159 L 524 159 L 524 169 L 504 169 L 504 159 Z Z" stroke-miterlimit="10"/></g><g transform="translate(-6,-6) scale(1,1)"><rect fill="#fafa83" stroke="none" x="504" y="179" width="20" height="10"/></g><g transform="translate(-6,-6) scale(1,1)"><path fill="none" stroke="#000000" d="M 504 179 L 524 179 L 524 189 L 504 189 L 504 179 Z Z" stroke-miterlimit="10"/></g><g transform="translate(-6,-6) scale(1,1)"><g><path fill="none" stroke="none"/><text fill="#000000" stroke="none" font-family="Arial" font-size="13px" font-style="normal" font-weight="bold" text-decoration="none" x="534.372314453125" y="171.5">External system for</text><text fill="#000000" stroke="none" font-family="Arial" font-size="13px" font-style="normal" font-weight="bold" text-decoration="none" x="535.080078125" y="184.5">address translation</text></g></g><g transform="translate(-6,-6) scale(1,1)"><path fill="#C0C0C0" stroke="none" d="M 385.943115234375 186.5 C 385.943115234375 180.1487248 391.091840034375 175 397.443115234375 175 C 403.794390434375 175 408.943115234375 180.1487248 408.943115234375 186.5 C 408.943115234375 192.8512752 403.794390434375 198 397.443115234375 198 C 391.091840034375 198 385.943115234375 192.8512752 385.943115234375 186.5 Z" opacity="0.2"/></g><g transform="translate(-6,-6) scale(1,1)"><path fill="none" stroke="#000000" d="M 391.9099431329893 190.34028735212414 A 11.5 11.5 0 0 1 388.0900568670107 167.65971264787586" stroke-miterlimit="10"/></g><g transform="translate(-6,-6) scale(1,1)"><path fill="#ffffff" stroke="none" d="M 381.943115234375 179.5 C 381.943115234375 174.8055792 385.748694434375 171 390.443115234375 171 C 395.137536034375 171 398.943115234375 174.8055792 398.943115234375 179.5 C 398.943115234375 184.1944208 395.137536034375 188 390.443115234375 188 C 385.748694434375 188 381.943115234375 184.1944208 381.943115234375 179.5 Z"/></g><g transform="translate(-6,-6) scale(1,1)"><path fill="none" stroke="#000000" d="M 381.943115234375 179.5 C 381.943115234375 174.8055792 385.748694434375 171 390.443115234375 171 C 395.137536034375 171 398.943115234375 174.8055792 398.943115234375 179.5 C 398.943115234375 184.1944208 395.137536034375 188 390.443115234375 188 C 385.748694434375 188 381.943115234375 184.1944208 381.943115234375 179.5 Z" stroke-miterlimit="10"/></g><g transform="translate(-6,-6) scale(1,1)"><g><path fill="none" stroke="none"/><text fill="#000000" stroke="none" font-family="Arial" font-size="13px" font-style="normal" font-weight="bold" text-decoration="none" x="334.802734375" y="210.5">Address translation</text><text fill="#000000" stroke="none" font-family="Arial" font-size="13px" font-style="normal" font-weight="bold" text-decoration="none" x="365.5126953125" y="223.5">interface</text></g></g><g transform="translate(-6,-6) scale(1,1)"><path fill="none" stroke="#000000" d="M 503 184 L 401.943115234375 179.8708521525065" stroke-miterlimit="10"/></g><g transform="translate(-6,-6) scale(1,1)"><path fill="none" stroke="#000000" d="M 273 194 L 378.943115234375 180.86221217105262" stroke-miterlimit="10"/></g></g></svg>