<svg version="1.1" xmlns="http://www.w3.org/2000/svg" xmlns:xlink="http://www.w3.org/1999/xlink" width="568" height="337"><defs/><g><g transform="translate(-50,-22) scale(1,1)"><rect fill="#C0C0C0" stroke="none" x="77" y="207" width="98.44091796875" height="44" opacity="0.2"/></g><g transform="translate(-50,-22) scale(1,1)"><rect fill="#cccccc" stroke="none" x="70" y="200" width="98.44091796875" height="44"/></g><g transform="translate(-50,-22) scale(1,1)"><path fill="none" stroke="#000000" d="M 70 200 L 168.44091796875 200 L 168.44091796875 244 L 70 244 L 70 200 Z Z" stroke-miterlimit="10"/></g><g transform="translate(-50,-22) scale(1,1)"><rect fill="#cccccc" stroke="none" x="60" y="207" width="20" height="10"/></g><g transform="translate(-50,-22) scale(1,1)"><path fill="none" stroke="#000000" d="M 60 207 L 80 207 L 80 217 L 60 217 L 60 207 Z Z" stroke-miterlimit="10"/></g><g transform="translate(-50,-22) scale(1,1)"><rect fill="#cccccc" stroke="none" x="60" y="227" width="20" height="10"/></g><g transform="translate(-50,-22) scale(1,1)"><path fill="none" stroke="#000000" d="M 60 227 L 80 227 L 80 237 L 60 237 L 60 227 Z Z" stroke-miterlimit="10"/></g><g transform="translate(-50,-22) scale(1,1)"><g><path fill="none" stroke="none"/><text fill="#000000" stroke="none" font-family="Arial" font-size="13px" font-style="normal" font-weight="bold" text-decoration="none" x="104.7109375" y="219.5">Router</text></g></g><g transform="translate(-50,-22) scale(1,1)"><rect fill="#C0C0C0" stroke="none" x="497" y="39" width="110" height="44" opacity="0.2"/></g><g transform="translate(-50,-22) scale(1,1)"><rect fill="#ffffff" stroke="none" x="490" y="32" width="110" height="44"/></g><g transform="translate(-50,-22) scale(1,1)"><path fill="none" stroke="#000000" d="M 490 32 L 600 32 L 600 76 L 490 76 L 490 32 Z Z" stroke-miterlimit="10"/></g><g transform="translate(-50,-22) scale(1,1)"><rect fill="#ffffff" stroke="none" x="480" y="39" width="20" height="10"/></g><g transform="translate(-50,-22) scale(1,1)"><path fill="none" stroke="#000000" d="M 480 39 L 500 39 L 500 49 L 480 49 L 480 39 Z Z" stroke-miterlimit="10"/></g><g transform="translate(-50,-22) scale(1,1)"><rect fill="#ffffff" stroke="none" x="480" y="59" width="20" height="10"/></g><g transform="translate(-50,-22) scale(1,1)"><path fill="none" stroke="#000000" d="M 480 59 L 500 59 L 500 69 L 480 69 L 480 59 Z Z" stroke-miterlimit="10"/></g><g transform="translate(-50,-22) scale(1,1)"><g><path fill="none" stroke="none"/><text fill="#000000" stroke="none" font-family="Arial" font-size="13px" font-style="normal" font-weight="bold" text-decoration="none" x="515.31640625" y="51.5">Reservation</text><text fill="#000000" stroke="none" font-family="Arial" font-size="13px" font-style="normal" font-weight="bold" text-decoration="none" x="523.266845703125" y="64.5">controller</text></g></g><g transform="translate(-50,-22) scale(1,1)"><rect fill="#C0C0C0" stroke="none" x="497" y="199" width="111.47265625" height="44" opacity="0.2"/></g><g transform="translate(-50,-22) scale(1,1)"><rect fill="#ffffff" stroke="none" x="490" y="192" width="111.47265625" height="44"/></g><g transform="translate(-50,-22) scale(1,1)"><path fill="none" stroke="#000000" d="M 490 192 L 601.47265625 192 L 601.47265625 236 L 490 236 L 490 192 Z Z" stroke-miterlimit="10"/></g><g transform="translate(-50,-22) scale(1,1)"><rect fill="#ffffff" stroke="none" x="480" y="199" width="20" height="10"/></g><g transform="translate(-50,-22) scale(1,1)"><path fill="none" stroke="#000000" d="M 480 199 L 500 199 L 500 209 L 480 209 L 480 199 Z Z" stroke-miterlimit="10"/></g><g transform="translate(-50,-22) scale(1,1)"><rect fill="#ffffff" stroke="none" x="480" y="219" width="20" height="10"/></g><g transform="translate(-50,-22) scale(1,1)"><path fill="none" stroke="#000000" d="M 480 219 L 500 219 L 500 229 L 480 229 L 480 219 Z Z" stroke-miterlimit="10"/></g><g transform="translate(-50,-22) scale(1,1)"><g><path fill="none" stroke="none"/><text fill="#000000" stroke="none" font-family="Arial" font-size="13px" font-style="normal" font-weight="bold" text-decoration="none" x="537.0126953125" y="211.5">User</text><text fill="#000000" stroke="none" font-family="Arial" font-size="13px" font-style="normal" font-weight="bold" text-decoration="none" x="524.003173828125" y="224.5">controller</text></g></g><g transform="translate(-50,-22) scale(1,1)"><rect fill="#C0C0C0" stroke="none" x="493" y="119" width="110" height="50" opacity="0.2"/></g><g transform="translate(-50,-22) scale(1,1)"><rect fill="#ffffff" stroke="none" x="486" y="112" width="110" height="50"/></g><g transform="translate(-50,-22) scale(1,1)"><path fill="none" stroke="#000000" d="M 486 112 L 596 112 L 596 162 L 486 162 L 486 112 Z Z" stroke-miterlimit="10"/></g><g transform="translate(-50,-22) scale(1,1)"><rect fill="#ffffff" stroke="none" x="476" y="119" width="20" height="10"/></g><g transform="translate(-50,-22) scale(1,1)"><path fill="none" stroke="#000000" d="M 476 119 L 496 119 L 496 129 L 476 129 L 476 119 Z Z" stroke-miterlimit="10"/></g><g transform="translate(-50,-22) scale(1,1)"><rect fill="#ffffff" stroke="none" x="476" y="139" width="20" height="10"/></g><g transform="translate(-50,-22) scale(1,1)"><path fill="none" stroke="#000000" d="M 476 139 L 496 139 L 496 149 L 476 149 L 476 139 Z Z" stroke-miterlimit="10"/></g><g transform="translate(-50,-22) scale(1,1)"><g><path fill="none" stroke="none"/><text fill="#000000" stroke="none" font-family="Arial" font-size="13px" font-style="normal" font-weight="bold" text-decoration="none" x="507.33642578125" y="131.5">Geographical</text><text fill="#000000" stroke="none" font-family="Arial" font-size="13px" font-style="normal" font-weight="bold" text-decoration="none" x="529.740478515625" y="144.5">areas</text><text fill="#000000" stroke="none" font-family="Arial" font-size="13px" font-style="normal" font-weight="bold" text-decoration="none" x="519.266845703125" y="157.5">controller</text></g></g><g transform="translate(-50,-22) scale(1,1)"><rect fill="#C0C0C0" stroke="none" x="505" y="287" width="110" height="44" opacity="0.2"/></g><g transform="translate(-50,-22) scale(1,1)"><rect fill="#ffffff" stroke="none" x="498" y="280" width="110" height="44"/></g><g transform="translate(-50,-22) scale(1,1)"><path fill="none" stroke="#000000" d="M 498 280 L 608 280 L 608 324 L 498 324 L 498 280 Z Z" stroke-miterlimit="10"/></g><g transform="translate(-50,-22) scale(1,1)"><rect fill="#ffffff" stroke="none" x="488" y="287" width="20" height="10"/></g><g transform="translate(-50,-22) scale(1,1)"><path fill="none" stroke="#000000" d="M 488 287 L 508 287 L 508 297 L 488 297 L 488 287 Z Z" stroke-miterlimit="10"/></g><g transform="translate(-50,-22) scale(1,1)"><rect fill="#ffffff" stroke="none" x="488" y="307" width="20" height="10"/></g><g transform="translate(-50,-22) scale(1,1)"><path fill="none" stroke="#000000" d="M 488 307 L 508 307 L 508 317 L 488 317 L 488 307 Z Z" stroke-miterlimit="10"/></g><g transform="translate(-50,-22) scale(1,1)"><g><path fill="none" stroke="none"/><text fill="#000000" stroke="none" font-family="Arial" font-size="13px" font-style="normal" font-weight="bold" text-decoration="none" x="526.563232421875" y="299.5">Safe areas</text><text fill="#000000" stroke="none" font-family="Arial" font-size="13px" font-style="normal" font-weight="bold" text-decoration="none" x="531.266845703125" y="312.5">controller</text></g></g><g transform="translate(-50,-22) scale(1,1)"><path fill="#C0C0C0" stroke="none" d="M 371.5 66.5 C 371.5 60.1487248 376.6487248 55 383 55 C 389.3512752 55 394.5 60.1487248 394.5 66.5 C 394.5 72.8512752 389.3512752 78 383 78 C 376.6487248 78 371.5 72.8512752 371.5 66.5 Z" opacity="0.2"/></g><g transform="translate(-50,-22) scale(1,1)"><path fill="none" stroke="#000000" d="M 383.8710129467878 67.38433987810005 A 11.5 11.5 0 0 1 368.1289870532122 50.61566012189995" stroke-miterlimit="10"/></g><g transform="translate(-50,-22) scale(1,1)"><path fill="#ffffff" stroke="none" d="M 367.5 59.5 C 367.5 54.8055792 371.3055792 51 376 51 C 380.6944208 51 384.5 54.8055792 384.5 59.5 C 384.5 64.1944208 380.6944208 68 376 68 C 371.3055792 68 367.5 64.1944208 367.5 59.5 Z"/></g><g transform="translate(-50,-22) scale(1,1)"><path fill="none" stroke="#000000" d="M 367.5 59.5 C 367.5 54.8055792 371.3055792 51 376 51 C 380.6944208 51 384.5 54.8055792 384.5 59.5 C 384.5 64.1944208 380.6944208 68 376 68 C 371.3055792 68 367.5 64.1944208 367.5 59.5 Z" stroke-miterlimit="10"/></g><g transform="translate(-50,-22) scale(1,1)"><g><path fill="none" stroke="none"/><text fill="#000000" stroke="none" font-family="Arial" font-size="13px" font-style="normal" font-weight="bold" text-decoration="none" x="341.31640625" y="90.5">Reservation</text><text fill="#000000" stroke="none" font-family="Arial" font-size="13px" font-style="normal" font-weight="bold" text-decoration="none" x="350.345947265625" y="103.5">manager</text></g></g><g transform="translate(-50,-22) scale(1,1)"><path fill="none" stroke="#000000" d="M 479 63 L 387.5 61.816326530612244" stroke-miterlimit="10"/></g><g transform="translate(-50,-22) scale(1,1)"><path fill="#C0C0C0" stroke="none" d="M 391.3544921875 234.5 C 391.3544921875 228.1487248 396.5032169875 223 402.8544921875 223 C 409.2057673875 223 414.3544921875 228.1487248 414.3544921875 234.5 C 414.3544921875 240.8512752 409.2057673875 246 402.8544921875 246 C 396.5032169875 246 391.3544921875 240.8512752 391.3544921875 234.5 Z" opacity="0.2"/></g><g transform="translate(-50,-22) scale(1,1)"><path fill="none" stroke="#000000" d="M 398.4301624210634 237.97651974740285 A 11.5 11.5 0 1 1 391.56983757893664 216.02348025259715" stroke-miterlimit="10"/></g><g transform="translate(-50,-22) scale(1,1)"><path fill="#ffffff" stroke="none" d="M 387.3544921875 227.5 C 387.3544921875 222.8055792 391.1600713875 219 395.8544921875 219 C 400.5489129875 219 404.3544921875 222.8055792 404.3544921875 227.5 C 404.3544921875 232.1944208 400.5489129875 236 395.8544921875 236 C 391.1600713875 236 387.3544921875 232.1944208 387.3544921875 227.5 Z"/></g><g transform="translate(-50,-22) scale(1,1)"><path fill="none" stroke="#000000" d="M 387.3544921875 227.5 C 387.3544921875 222.8055792 391.1600713875 219 395.8544921875 219 C 400.5489129875 219 404.3544921875 222.8055792 404.3544921875 227.5 C 404.3544921875 232.1944208 400.5489129875 236 395.8544921875 236 C 391.1600713875 236 387.3544921875 232.1944208 387.3544921875 227.5 Z" stroke-miterlimit="10"/></g><g transform="translate(-50,-22) scale(1,1)"><g><path fill="none" stroke="none"/><text fill="#000000" stroke="none" font-family="Arial" font-size="13px" font-style="normal" font-weight="bold" text-decoration="none" x="382.130859375" y="258.5">User</text><text fill="#000000" stroke="none" font-family="Arial" font-size="13px" font-style="normal" font-weight="bold" text-decoration="none" x="370.200439453125" y="271.5">manager</text></g></g><g transform="translate(-50,-22) scale(1,1)"><path fill="none" stroke="#000000" d="M 479 227 L 407.3544921875 228.97671875" stroke-miterlimit="10"/></g><g transform="translate(-50,-22) scale(1,1)"><path fill="#C0C0C0" stroke="none" d="M 377.2353515625 154.5 C 377.2353515625 148.1487248 382.3840763625 143 388.7353515625 143 C 395.0866267625 143 400.2353515625 148.1487248 400.2353515625 154.5 C 400.2353515625 160.8512752 395.0866267625 166 388.7353515625 166 C 382.3840763625 166 377.2353515625 160.8512752 377.2353515625 154.5 Z" opacity="0.2"/></g><g transform="translate(-50,-22) scale(1,1)"><path fill="none" stroke="#000000" d="M 385.4731784259642 157.59436995623093 A 11.5 11.5 0 0 1 376.5268215740358 136.40563004376907" stroke-miterlimit="10"/></g><g transform="translate(-50,-22) scale(1,1)"><path fill="#ffffff" stroke="none" d="M 373.2353515625 147.5 C 373.2353515625 142.8055792 377.0409307625 139 381.7353515625 139 C 386.4297723625 139 390.2353515625 142.8055792 390.2353515625 147.5 C 390.2353515625 152.1944208 386.4297723625 156 381.7353515625 156 C 377.0409307625 156 373.2353515625 152.1944208 373.2353515625 147.5 Z"/></g><g transform="translate(-50,-22) scale(1,1)"><path fill="none" stroke="#000000" d="M 373.2353515625 147.5 C 373.2353515625 142.8055792 377.0409307625 139 381.7353515625 139 C 386.4297723625 139 390.2353515625 142.8055792 390.2353515625 147.5 C 390.2353515625 152.1944208 386.4297723625 156 381.7353515625 156 C 377.0409307625 156 373.2353515625 152.1944208 373.2353515625 147.5 Z" stroke-miterlimit="10"/></g><g transform="translate(-50,-22) scale(1,1)"><g><path fill="none" stroke="none"/><text fill="#000000" stroke="none" font-family="Arial" font-size="13px" font-style="normal" font-weight="bold" text-decoration="none" x="325.00634765625" y="178.5">Geographical areas</text><text fill="#000000" stroke="none" font-family="Arial" font-size="13px" font-style="normal" font-weight="bold" text-decoration="none" x="356.081298828125" y="191.5">manager</text></g></g><g transform="translate(-50,-22) scale(1,1)"><path fill="none" stroke="#000000" d="M 475 148 L 393.2353515625 147.26890882554946" stroke-miterlimit="10"/></g><g transform="translate(-50,-22) scale(1,1)"><path fill="#C0C0C0" stroke="none" d="M 389.42626953125 306.5 C 389.42626953125 300.1487248 394.57499433125 295 400.92626953125 295 C 407.27754473125 295 412.42626953125 300.1487248 412.42626953125 306.5 C 412.42626953125 312.8512752 407.27754473125 318 400.92626953125 318 C 394.57499433125 318 389.42626953125 312.8512752 389.42626953125 306.5 Z" opacity="0.2"/></g><g transform="translate(-50,-22) scale(1,1)"><path fill="none" stroke="#000000" d="M 392.80175360161525 310.49829110631345 A 11.5 11.5 0 0 1 393.19824639838475 287.50170889368655" stroke-miterlimit="10"/></g><g transform="translate(-50,-22) scale(1,1)"><path fill="#ffffff" stroke="none" d="M 385.42626953125 299.5 C 385.42626953125 294.8055792 389.23184873125 291 393.92626953125 291 C 398.62069033125 291 402.42626953125 294.8055792 402.42626953125 299.5 C 402.42626953125 304.1944208 398.62069033125 308 393.92626953125 308 C 389.23184873125 308 385.42626953125 304.1944208 385.42626953125 299.5 Z"/></g><g transform="translate(-50,-22) scale(1,1)"><path fill="none" stroke="#000000" d="M 385.42626953125 299.5 C 385.42626953125 294.8055792 389.23184873125 291 393.92626953125 291 C 398.62069033125 291 402.42626953125 294.8055792 402.42626953125 299.5 C 402.42626953125 304.1944208 398.62069033125 308 393.92626953125 308 C 389.23184873125 308 385.42626953125 304.1944208 385.42626953125 299.5 Z" stroke-miterlimit="10"/></g><g transform="translate(-50,-22) scale(1,1)"><g><path fill="none" stroke="none"/><text fill="#000000" stroke="none" font-family="Arial" font-size="13px" font-style="normal" font-weight="bold" text-decoration="none" x="362.489501953125" y="330.5">Safe areas</text><text fill="#000000" stroke="none" font-family="Arial" font-size="13px" font-style="normal" font-weight="bold" text-decoration="none" x="368.272216796875" y="343.5">manager</text></g></g><g transform="translate(-50,-22) scale(1,1)"><path fill="none" stroke="#000000" d="M 487 308 L 405.42626953125 301.6923583984375" stroke-miterlimit="10"/></g><g transform="translate(-50,-22) scale(1,1)"><path fill="none" stroke="#000000" d="M 156 199 L 364.5 69.79591836734694" stroke-miterlimit="10"/></g><g transform="translate(-50,-22) scale(1,1)"><path fill="none" stroke="#000000" d="M 169 227 L 384.3544921875 230.32672119140625" stroke-miterlimit="10"/></g><g transform="translate(-50,-22) scale(1,1)"><path fill="none" stroke="#000000" d="M 169 210 L 370.2353515625 151.54507378472223" stroke-miterlimit="10"/></g><g transform="translate(-50,-22) scale(1,1)"><path fill="none" stroke="#000000" d="M 169 241 L 382.42626953125 298.8176943022629" stroke-miterlimit="10"/></g></g></svg>