<svg version="1.1" xmlns="http://www.w3.org/2000/svg" xmlns:xlink="http://www.w3.org/1999/xlink" width="468" height="209"><defs/><g><g transform="translate(-22,-14) scale(1,1)"><rect fill="#C0C0C0" stroke="none" x="49" y="31" width="102.7890625" height="44" opacity="0.2"/></g><g transform="translate(-22,-14) scale(1,1)"><rect fill="#cccccc" stroke="none" x="42" y="24" width="102.7890625" height="44"/></g><g transform="translate(-22,-14) scale(1,1)"><path fill="none" stroke="#000000" d="M 42 24 L 144.7890625 24 L 144.7890625 68 L 42 68 L 42 24 Z Z" stroke-miterlimit="10"/></g><g transform="translate(-22,-14) scale(1,1)"><rect fill="#cccccc" stroke="none" x="32" y="31" width="20" height="10"/></g><g transform="translate(-22,-14) scale(1,1)"><path fill="none" stroke="#000000" d="M 32 31 L 52 31 L 52 41 L 32 41 L 32 31 Z Z" stroke-miterlimit="10"/></g><g transform="translate(-22,-14) scale(1,1)"><rect fill="#cccccc" stroke="none" x="32" y="51" width="20" height="10"/></g><g transform="translate(-22,-14) scale(1,1)"><path fill="none" stroke="#000000" d="M 32 51 L 52 51 L 52 61 L 32 61 L 32 51 Z Z" stroke-miterlimit="10"/></g><g transform="translate(-22,-14) scale(1,1)"><g><path fill="none" stroke="none"/><text fill="#000000" stroke="none" font-family="Arial" font-size="13px" font-style="normal" font-weight="bold" text-decoration="none" x="61.187744140625" y="43.5">Bill controller</text></g></g><g transform="translate(-22,-14) scale(1,1)"><rect fill="#C0C0C0" stroke="none" x="369" y="31" width="98.44091796875" height="44" opacity="0.2"/></g><g transform="translate(-22,-14) scale(1,1)"><rect fill="#ffffff" stroke="none" x="362" y="24" width="98.44091796875" height="44"/></g><g transform="translate(-22,-14) scale(1,1)"><path fill="none" stroke="#000000" d="M 362 24 L 460.44091796875 24 L 460.44091796875 68 L 362 68 L 362 24 Z Z" stroke-miterlimit="10"/></g><g transform="translate(-22,-14) scale(1,1)"><rect fill="#ffffff" stroke="none" x="352" y="31" width="20" height="10"/></g><g transform="translate(-22,-14) scale(1,1)"><path fill="none" stroke="#000000" d="M 352 31 L 372 31 L 372 41 L 352 41 L 352 31 Z Z" stroke-miterlimit="10"/></g><g transform="translate(-22,-14) scale(1,1)"><rect fill="#ffffff" stroke="none" x="352" y="51" width="20" height="10"/></g><g transform="translate(-22,-14) scale(1,1)"><path fill="none" stroke="#000000" d="M 352 51 L 372 51 L 372 61 L 352 61 L 352 51 Z Z" stroke-miterlimit="10"/></g><g transform="translate(-22,-14) scale(1,1)"><g><path fill="none" stroke="none"/><text fill="#000000" stroke="none" font-family="Arial" font-size="13px" font-style="normal" font-weight="bold" text-decoration="none" x="397.44091796875" y="43.5">DBMS</text></g></g><g transform="translate(-22,-14) scale(1,1)"><path fill="#C0C0C0" stroke="none" d="M 266.2626953125 58.5 C 266.2626953125 52.1487248 271.4114201125 47 277.7626953125 47 C 284.1139705125 47 289.2626953125 52.1487248 289.2626953125 58.5 C 289.2626953125 64.8512752 284.1139705125 70 277.7626953125 70 C 271.4114201125 70 266.2626953125 64.8512752 266.2626953125 58.5 Z" opacity="0.2"/></g><g transform="translate(-22,-14) scale(1,1)"><path fill="none" stroke="#000000" d="M 273.06573962719153 62.08382788292327 A 11.5 11.5 0 0 1 266.93426037280847 39.91617211707673" stroke-miterlimit="10"/></g><g transform="translate(-22,-14) scale(1,1)"><path fill="#ffffff" stroke="none" d="M 262.2626953125 51.5 C 262.2626953125 46.8055792 266.0682745125 43 270.7626953125 43 C 275.4571161125 43 279.2626953125 46.8055792 279.2626953125 51.5 C 279.2626953125 56.1944208 275.4571161125 60 270.7626953125 60 C 266.0682745125 60 262.2626953125 56.1944208 262.2626953125 51.5 Z"/></g><g transform="translate(-22,-14) scale(1,1)"><path fill="none" stroke="#000000" d="M 262.2626953125 51.5 C 262.2626953125 46.8055792 266.0682745125 43 270.7626953125 43 C 275.4571161125 43 279.2626953125 46.8055792 279.2626953125 51.5 C 279.2626953125 56.1944208 275.4571161125 60 270.7626953125 60 C 266.0682745125 60 262.2626953125 56.1944208 262.2626953125 51.5 Z" stroke-miterlimit="10"/></g><g transform="translate(-22,-14) scale(1,1)"><g><path fill="none" stroke="none"/><text fill="#000000" stroke="none" font-family="Arial" font-size="13px" font-style="normal" font-weight="bold" text-decoration="none" x="257.75634765625" y="82.5">SQL</text><text fill="#000000" stroke="none" font-family="Arial" font-size="13px" font-style="normal" font-weight="bold" text-decoration="none" x="245.832275390625" y="95.5">interface</text></g></g><g transform="translate(-22,-14) scale(1,1)"><path fill="none" stroke="#000000" d="M 351 56 L 282.2626953125 53.50259088010204" stroke-miterlimit="10"/></g><g transform="translate(-22,-14) scale(1,1)"><path fill="none" stroke="#000000" d="M 146 54 L 259.2626953125 53.96989278590426" stroke-miterlimit="10"/></g><g transform="translate(-22,-14) scale(1,1)"><rect fill="#C0C0C0" stroke="none" x="337" y="135" width="150" height="50" opacity="0.2"/></g><g transform="translate(-22,-14) scale(1,1)"><rect fill="#fafa83" stroke="none" x="330" y="128" width="150" height="50"/></g><g transform="translate(-22,-14) scale(1,1)"><path fill="none" stroke="#000000" d="M 330 128 L 480 128 L 480 178 L 330 178 L 330 128 Z Z" stroke-miterlimit="10"/></g><g transform="translate(-22,-14) scale(1,1)"><rect fill="#fafa83" stroke="none" x="320" y="135" width="20" height="10"/></g><g transform="translate(-22,-14) scale(1,1)"><path fill="none" stroke="#000000" d="M 320 135 L 340 135 L 340 145 L 320 145 L 320 135 Z Z" stroke-miterlimit="10"/></g><g transform="translate(-22,-14) scale(1,1)"><rect fill="#fafa83" stroke="none" x="320" y="155" width="20" height="10"/></g><g transform="translate(-22,-14) scale(1,1)"><path fill="none" stroke="#000000" d="M 320 155 L 340 155 L 340 165 L 320 165 L 320 155 Z Z" stroke-miterlimit="10"/></g><g transform="translate(-22,-14) scale(1,1)"><g><path fill="none" stroke="none"/><text fill="#000000" stroke="none" font-family="Arial" font-size="13px" font-style="normal" font-weight="bold" text-decoration="none" x="354.372314453125" y="147.5">External system for</text><text fill="#000000" stroke="none" font-family="Arial" font-size="13px" font-style="normal" font-weight="bold" text-decoration="none" x="351.830078125" y="160.5">payment processing</text></g></g><g transform="translate(-22,-14) scale(1,1)"><path fill="#C0C0C0" stroke="none" d="M 180.47900390625 170.5 C 180.47900390625 164.1487248 185.62772870625 159 191.97900390625 159 C 198.33027910625 159 203.47900390625 164.1487248 203.47900390625 170.5 C 203.47900390625 176.8512752 198.33027910625 182 191.97900390625 182 C 185.62772870625 182 180.47900390625 176.8512752 180.47900390625 170.5 Z" opacity="0.2"/></g><g transform="translate(-22,-14) scale(1,1)"><path fill="none" stroke="#000000" d="M 178.4932004971734 173.0957990885154 A 11.5 11.5 0 0 1 189.5067995028266 152.9042009114846" stroke-miterlimit="10"/></g><g transform="translate(-22,-14) scale(1,1)"><path fill="#ffffff" stroke="none" d="M 176.47900390625 163.5 C 176.47900390625 158.8055792 180.28458310625 155 184.97900390625 155 C 189.67342470625 155 193.47900390625 158.8055792 193.47900390625 163.5 C 193.47900390625 168.1944208 189.67342470625 172 184.97900390625 172 C 180.28458310625 172 176.47900390625 168.1944208 176.47900390625 163.5 Z"/></g><g transform="translate(-22,-14) scale(1,1)"><path fill="none" stroke="#000000" d="M 176.47900390625 163.5 C 176.47900390625 158.8055792 180.28458310625 155 184.97900390625 155 C 189.67342470625 155 193.47900390625 158.8055792 193.47900390625 163.5 C 193.47900390625 168.1944208 189.67342470625 172 184.97900390625 172 C 180.28458310625 172 176.47900390625 168.1944208 176.47900390625 163.5 Z" stroke-miterlimit="10"/></g><g transform="translate(-22,-14) scale(1,1)"><g><path fill="none" stroke="none"/><text fill="#000000" stroke="none" font-family="Arial" font-size="13px" font-style="normal" font-weight="bold" text-decoration="none" x="126.088623046875" y="194.5">Payment processing</text><text fill="#000000" stroke="none" font-family="Arial" font-size="13px" font-style="normal" font-weight="bold" text-decoration="none" x="160.048583984375" y="207.5">interface</text></g></g><g transform="translate(-22,-14) scale(1,1)"><path fill="none" stroke="#000000" d="M 319 164 L 196.47900390625 163.75630326704547" stroke-miterlimit="10"/></g><g transform="translate(-22,-14) scale(1,1)"><path fill="none" stroke="#000000" d="M 104 69 L 173.47900390625 157.26127485795453" stroke-miterlimit="10"/></g></g></svg>