<svg version="1.1" xmlns="http://www.w3.org/2000/svg" xmlns:xlink="http://www.w3.org/1999/xlink" width="464.44091796875" height="212"><defs/><g><g transform="translate(-22,-54) scale(1,1)"><rect fill="#C0C0C0" stroke="none" x="49" y="130" width="111.47265625" height="44" opacity="0.2"/></g><g transform="translate(-22,-54) scale(1,1)"><rect fill="#cccccc" stroke="none" x="42" y="123" width="111.47265625" height="44"/></g><g transform="translate(-22,-54) scale(1,1)"><path fill="none" stroke="#000000" d="M 42 123 L 153.47265625 123 L 153.47265625 167 L 42 167 L 42 123 Z Z" stroke-miterlimit="10"/></g><g transform="translate(-22,-54) scale(1,1)"><rect fill="#cccccc" stroke="none" x="32" y="130" width="20" height="10"/></g><g transform="translate(-22,-54) scale(1,1)"><path fill="none" stroke="#000000" d="M 32 130 L 52 130 L 52 140 L 32 140 L 32 130 Z Z" stroke-miterlimit="10"/></g><g transform="translate(-22,-54) scale(1,1)"><rect fill="#cccccc" stroke="none" x="32" y="150" width="20" height="10"/></g><g transform="translate(-22,-54) scale(1,1)"><path fill="none" stroke="#000000" d="M 32 150 L 52 150 L 52 160 L 32 160 L 32 150 Z Z" stroke-miterlimit="10"/></g><g transform="translate(-22,-54) scale(1,1)"><g><path fill="none" stroke="none"/><text fill="#000000" stroke="none" font-family="Arial" font-size="13px" font-style="normal" font-weight="bold" text-decoration="none" x="89.0126953125" y="142.5">User</text><text fill="#000000" stroke="none" font-family="Arial" font-size="13px" font-style="normal" font-weight="bold" text-decoration="none" x="76.003173828125" y="155.5">controller</text></g></g><g transform="translate(-22,-54) scale(1,1)"><rect fill="#C0C0C0" stroke="none" x="369" y="199" width="102.7890625" height="44" opacity="0.2"/></g><g transform="translate(-22,-54) scale(1,1)"><rect fill="#ffffff" stroke="none" x="362" y="192" width="102.7890625" height="44"/></g><g transform="translate(-22,-54) scale(1,1)"><path fill="none" stroke="#000000" d="M 362 192 L 464.7890625 192 L 464.7890625 236 L 362 236 L 362 192 Z Z" stroke-miterlimit="10"/></g><g transform="translate(-22,-54) scale(1,1)"><rect fill="#ffffff" stroke="none" x="352" y="199" width="20" height="10"/></g><g transform="translate(-22,-54) scale(1,1)"><path fill="none" stroke="#000000" d="M 352 199 L 372 199 L 372 209 L 352 209 L 352 199 Z Z" stroke-miterlimit="10"/></g><g transform="translate(-22,-54) scale(1,1)"><rect fill="#ffffff" stroke="none" x="352" y="219" width="20" height="10"/></g><g transform="translate(-22,-54) scale(1,1)"><path fill="none" stroke="#000000" d="M 352 219 L 372 219 L 372 229 L 352 229 L 352 219 Z Z" stroke-miterlimit="10"/></g><g transform="translate(-22,-54) scale(1,1)"><g><path fill="none" stroke="none"/><text fill="#000000" stroke="none" font-family="Arial" font-size="13px" font-style="normal" font-weight="bold" text-decoration="none" x="381.187744140625" y="211.5">Bill controller</text></g></g><g transform="translate(-22,-54) scale(1,1)"><path fill="#C0C0C0" stroke="none" d="M 255.0126953125 226.5 C 255.0126953125 220.1487248 260.1614201125 215 266.5126953125 215 C 272.8639705125 215 278.0126953125 220.1487248 278.0126953125 226.5 C 278.0126953125 232.8512752 272.8639705125 238 266.5126953125 238 C 260.1614201125 238 255.0126953125 232.8512752 255.0126953125 226.5 Z" opacity="0.2"/></g><g transform="translate(-22,-54) scale(1,1)"><path fill="none" stroke="#000000" d="M 256.45135730872687 230.2140278416018 A 11.5 11.5 0 0 1 261.54864269127313 207.7859721583982" stroke-miterlimit="10"/></g><g transform="translate(-22,-54) scale(1,1)"><path fill="#ffffff" stroke="none" d="M 251.0126953125 219.5 C 251.0126953125 214.8055792 254.8182745125 211 259.5126953125 211 C 264.2071161125 211 268.0126953125 214.8055792 268.0126953125 219.5 C 268.0126953125 224.1944208 264.2071161125 228 259.5126953125 228 C 254.8182745125 228 251.0126953125 224.1944208 251.0126953125 219.5 Z"/></g><g transform="translate(-22,-54) scale(1,1)"><path fill="none" stroke="#000000" d="M 251.0126953125 219.5 C 251.0126953125 214.8055792 254.8182745125 211 259.5126953125 211 C 264.2071161125 211 268.0126953125 214.8055792 268.0126953125 219.5 C 268.0126953125 224.1944208 264.2071161125 228 259.5126953125 228 C 254.8182745125 228 251.0126953125 224.1944208 251.0126953125 219.5 Z" stroke-miterlimit="10"/></g><g transform="translate(-22,-54) scale(1,1)"><g><path fill="none" stroke="none"/><text fill="#000000" stroke="none" font-family="Arial" font-size="13px" font-style="normal" font-weight="bold" text-decoration="none" x="223.385009765625" y="250.5">Bill manager</text></g></g><g transform="translate(-22,-54) scale(1,1)"><path fill="none" stroke="#000000" d="M 351 221 L 271.0126953125 221.13559027777777" stroke-miterlimit="10"/></g><g transform="translate(-22,-54) scale(1,1)"><path fill="none" stroke="#000000" d="M 136 168 L 248.0126953125 216.50288529829547" stroke-miterlimit="10"/></g><g transform="translate(-22,-54) scale(1,1)"><rect fill="#C0C0C0" stroke="none" x="385" y="71" width="98.44091796875" height="44" opacity="0.2"/></g><g transform="translate(-22,-54) scale(1,1)"><rect fill="#ffffff" stroke="none" x="378" y="64" width="98.44091796875" height="44"/></g><g transform="translate(-22,-54) scale(1,1)"><path fill="none" stroke="#000000" d="M 378 64 L 476.44091796875 64 L 476.44091796875 108 L 378 108 L 378 64 Z Z" stroke-miterlimit="10"/></g><g transform="translate(-22,-54) scale(1,1)"><rect fill="#ffffff" stroke="none" x="368" y="71" width="20" height="10"/></g><g transform="translate(-22,-54) scale(1,1)"><path fill="none" stroke="#000000" d="M 368 71 L 388 71 L 388 81 L 368 81 L 368 71 Z Z" stroke-miterlimit="10"/></g><g transform="translate(-22,-54) scale(1,1)"><rect fill="#ffffff" stroke="none" x="368" y="91" width="20" height="10"/></g><g transform="translate(-22,-54) scale(1,1)"><path fill="none" stroke="#000000" d="M 368 91 L 388 91 L 388 101 L 368 101 L 368 91 Z Z" stroke-miterlimit="10"/></g><g transform="translate(-22,-54) scale(1,1)"><g><path fill="none" stroke="none"/><text fill="#000000" stroke="none" font-family="Arial" font-size="13px" font-style="normal" font-weight="bold" text-decoration="none" x="413.44091796875" y="83.5">DBMS</text></g></g><g transform="translate(-22,-54) scale(1,1)"><path fill="#C0C0C0" stroke="none" d="M 242.2626953125 90.5 C 242.2626953125 84.1487248 247.4114201125 79 253.7626953125 79 C 260.1139705125 79 265.2626953125 84.1487248 265.2626953125 90.5 C 265.2626953125 96.8512752 260.1139705125 102 253.7626953125 102 C 247.4114201125 102 242.2626953125 96.8512752 242.2626953125 90.5 Z" opacity="0.2"/></g><g transform="translate(-22,-54) scale(1,1)"><path fill="none" stroke="#000000" d="M 252.47209623644324 92.50589134727602 A 11.5 11.5 0 0 1 239.52790376355674 73.49410865272398" stroke-miterlimit="10"/></g><g transform="translate(-22,-54) scale(1,1)"><path fill="#ffffff" stroke="none" d="M 238.2626953125 83.5 C 238.2626953125 78.8055792 242.0682745125 75 246.7626953125 75 C 251.4571161125 75 255.2626953125 78.8055792 255.2626953125 83.5 C 255.2626953125 88.1944208 251.4571161125 92 246.7626953125 92 C 242.0682745125 92 238.2626953125 88.1944208 238.2626953125 83.5 Z"/></g><g transform="translate(-22,-54) scale(1,1)"><path fill="none" stroke="#000000" d="M 238.2626953125 83.5 C 238.2626953125 78.8055792 242.0682745125 75 246.7626953125 75 C 251.4571161125 75 255.2626953125 78.8055792 255.2626953125 83.5 C 255.2626953125 88.1944208 251.4571161125 92 246.7626953125 92 C 242.0682745125 92 238.2626953125 88.1944208 238.2626953125 83.5 Z" stroke-miterlimit="10"/></g><g transform="translate(-22,-54) scale(1,1)"><g><path fill="none" stroke="none"/><text fill="#000000" stroke="none" font-family="Arial" font-size="13px" font-style="normal" font-weight="bold" text-decoration="none" x="233.75634765625" y="114.5">SQL</text><text fill="#000000" stroke="none" font-family="Arial" font-size="13px" font-style="normal" font-weight="bold" text-decoration="none" x="221.832275390625" y="127.5">interface</text></g></g><g transform="translate(-22,-54) scale(1,1)"><path fill="none" stroke="#000000" d="M 367 91 L 258.2626953125 86.75388632015306" stroke-miterlimit="10"/></g><g transform="translate(-22,-54) scale(1,1)"><path fill="none" stroke="#000000" d="M 154 128 L 235.2626953125 90.31050531914893" stroke-miterlimit="10"/></g></g></svg>