<svg version="1.1" xmlns="http://www.w3.org/2000/svg" xmlns:xlink="http://www.w3.org/1999/xlink" width="340" height="64"><defs/><g><g transform="translate(-44,-24) scale(1,1)"><rect fill="#C0C0C0" stroke="none" x="71" y="41" width="110" height="44" opacity="0.2"/></g><g transform="translate(-44,-24) scale(1,1)"><rect fill="#ffffff" stroke="none" x="64" y="34" width="110" height="44"/></g><g transform="translate(-44,-24) scale(1,1)"><path fill="none" stroke="#000000" d="M 64 34 L 174 34 L 174 78 L 64 78 L 64 34 Z Z" stroke-miterlimit="10"/></g><g transform="translate(-44,-24) scale(1,1)"><rect fill="#ffffff" stroke="none" x="54" y="41" width="20" height="10"/></g><g transform="translate(-44,-24) scale(1,1)"><path fill="none" stroke="#000000" d="M 54 41 L 74 41 L 74 51 L 54 51 L 54 41 Z Z" stroke-miterlimit="10"/></g><g transform="translate(-44,-24) scale(1,1)"><rect fill="#ffffff" stroke="none" x="54" y="61" width="20" height="10"/></g><g transform="translate(-44,-24) scale(1,1)"><path fill="none" stroke="#000000" d="M 54 61 L 74 61 L 74 71 L 54 71 L 54 61 Z Z" stroke-miterlimit="10"/></g><g transform="translate(-44,-24) scale(1,1)"><g><path fill="none" stroke="none"/><text fill="#000000" stroke="none" font-family="Arial" font-size="13px" font-style="normal" font-weight="bold" text-decoration="none" x="93.65185546875" y="53.5">Monitoring</text><text fill="#000000" stroke="none" font-family="Arial" font-size="13px" font-style="normal" font-weight="bold" text-decoration="none" x="97.266845703125" y="66.5">controller</text></g></g><g transform="translate(-44,-24) scale(1,1)"><rect fill="#C0C0C0" stroke="none" x="279" y="41" width="102" height="44" opacity="0.2"/></g><g transform="translate(-44,-24) scale(1,1)"><rect fill="#cccccc" stroke="none" x="272" y="34" width="102" height="44"/></g><g transform="translate(-44,-24) scale(1,1)"><path fill="none" stroke="#000000" d="M 272 34 L 374 34 L 374 78 L 272 78 L 272 34 Z Z" stroke-miterlimit="10"/></g><g transform="translate(-44,-24) scale(1,1)"><rect fill="#cccccc" stroke="none" x="262" y="41" width="20" height="10"/></g><g transform="translate(-44,-24) scale(1,1)"><path fill="none" stroke="#000000" d="M 262 41 L 282 41 L 282 51 L 262 51 L 262 41 Z Z" stroke-miterlimit="10"/></g><g transform="translate(-44,-24) scale(1,1)"><rect fill="#cccccc" stroke="none" x="262" y="61" width="20" height="10"/></g><g transform="translate(-44,-24) scale(1,1)"><path fill="none" stroke="#000000" d="M 262 61 L 282 61 L 282 71 L 262 71 L 262 61 Z Z" stroke-miterlimit="10"/></g><g transform="translate(-44,-24) scale(1,1)"><g><path fill="none" stroke="none"/><text fill="#000000" stroke="none" font-family="Arial" font-size="13px" font-style="normal" font-weight="bold" text-decoration="none" x="317.5263671875" y="53.5">Car</text><text fill="#000000" stroke="none" font-family="Arial" font-size="13px" font-style="normal" font-weight="bold" text-decoration="none" x="301.266845703125" y="66.5">controller</text></g></g><g transform="translate(-44,-24) scale(1,1)"><path fill="none" stroke="#000000" d="M 262 50 L 174 50" stroke-miterlimit="10" stroke-dasharray="3"/></g><g transform="translate(-44,-24) scale(1,1)"><path fill="none" stroke="#000000" d="M 184.16267485762415 45.790482243984016 L 174 50 L 184.16267485762415 54.209517756015984" stroke-miterlimit="10"/></g></g></svg>