<svg version="1.1" xmlns="http://www.w3.org/2000/svg" xmlns:xlink="http://www.w3.org/1999/xlink" width="610.44091796875" height="256"><defs/><g><g transform="translate(-44,-14) scale(1,1)"><rect fill="#C0C0C0" stroke="none" x="71" y="41" width="110" height="44" opacity="0.2"/></g><g transform="translate(-44,-14) scale(1,1)"><rect fill="#ffffff" stroke="none" x="64" y="34" width="110" height="44"/></g><g transform="translate(-44,-14) scale(1,1)"><path fill="none" stroke="#000000" d="M 64 34 L 174 34 L 174 78 L 64 78 L 64 34 Z Z" stroke-miterlimit="10"/></g><g transform="translate(-44,-14) scale(1,1)"><rect fill="#ffffff" stroke="none" x="54" y="41" width="20" height="10"/></g><g transform="translate(-44,-14) scale(1,1)"><path fill="none" stroke="#000000" d="M 54 41 L 74 41 L 74 51 L 54 51 L 54 41 Z Z" stroke-miterlimit="10"/></g><g transform="translate(-44,-14) scale(1,1)"><rect fill="#ffffff" stroke="none" x="54" y="61" width="20" height="10"/></g><g transform="translate(-44,-14) scale(1,1)"><path fill="none" stroke="#000000" d="M 54 61 L 74 61 L 74 71 L 54 71 L 54 61 Z Z" stroke-miterlimit="10"/></g><g transform="translate(-44,-14) scale(1,1)"><g><path fill="none" stroke="none"/><text fill="#000000" stroke="none" font-family="Arial" font-size="13px" font-style="normal" font-weight="bold" text-decoration="none" x="93.65185546875" y="53.5">Monitoring</text><text fill="#000000" stroke="none" font-family="Arial" font-size="13px" font-style="normal" font-weight="bold" text-decoration="none" x="97.266845703125" y="66.5">controller</text></g></g><g transform="translate(-44,-14) scale(1,1)"><rect fill="#C0C0C0" stroke="none" x="279" y="41" width="102" height="44" opacity="0.2"/></g><g transform="translate(-44,-14) scale(1,1)"><rect fill="#cccccc" stroke="none" x="272" y="34" width="102" height="44"/></g><g transform="translate(-44,-14) scale(1,1)"><path fill="none" stroke="#000000" d="M 272 34 L 374 34 L 374 78 L 272 78 L 272 34 Z Z" stroke-miterlimit="10"/></g><g transform="translate(-44,-14) scale(1,1)"><rect fill="#cccccc" stroke="none" x="262" y="41" width="20" height="10"/></g><g transform="translate(-44,-14) scale(1,1)"><path fill="none" stroke="#000000" d="M 262 41 L 282 41 L 282 51 L 262 51 L 262 41 Z Z" stroke-miterlimit="10"/></g><g transform="translate(-44,-14) scale(1,1)"><rect fill="#cccccc" stroke="none" x="262" y="61" width="20" height="10"/></g><g transform="translate(-44,-14) scale(1,1)"><path fill="none" stroke="#000000" d="M 262 61 L 282 61 L 282 71 L 262 71 L 262 61 Z Z" stroke-miterlimit="10"/></g><g transform="translate(-44,-14) scale(1,1)"><g><path fill="none" stroke="none"/><text fill="#000000" stroke="none" font-family="Arial" font-size="13px" font-style="normal" font-weight="bold" text-decoration="none" x="317.5263671875" y="53.5">Car</text><text fill="#000000" stroke="none" font-family="Arial" font-size="13px" font-style="normal" font-weight="bold" text-decoration="none" x="301.266845703125" y="66.5">controller</text></g></g><g transform="translate(-44,-14) scale(1,1)"><path fill="none" stroke="#000000" d="M 262 50 L 174 50" stroke-miterlimit="10" stroke-dasharray="3"/></g><g transform="translate(-44,-14) scale(1,1)"><path fill="none" stroke="#000000" d="M 184.16267485762415 45.790482243984016 L 174 50 L 184.16267485762415 54.209517756015984" stroke-miterlimit="10"/></g><g transform="translate(-44,-14) scale(1,1)"><rect fill="#C0C0C0" stroke="none" x="553" y="31" width="98.44091796875" height="44" opacity="0.2"/></g><g transform="translate(-44,-14) scale(1,1)"><rect fill="#ffffff" stroke="none" x="546" y="24" width="98.44091796875" height="44"/></g><g transform="translate(-44,-14) scale(1,1)"><path fill="none" stroke="#000000" d="M 546 24 L 644.44091796875 24 L 644.44091796875 68 L 546 68 L 546 24 Z Z" stroke-miterlimit="10"/></g><g transform="translate(-44,-14) scale(1,1)"><rect fill="#ffffff" stroke="none" x="536" y="31" width="20" height="10"/></g><g transform="translate(-44,-14) scale(1,1)"><path fill="none" stroke="#000000" d="M 536 31 L 556 31 L 556 41 L 536 41 L 536 31 Z Z" stroke-miterlimit="10"/></g><g transform="translate(-44,-14) scale(1,1)"><rect fill="#ffffff" stroke="none" x="536" y="51" width="20" height="10"/></g><g transform="translate(-44,-14) scale(1,1)"><path fill="none" stroke="#000000" d="M 536 51 L 556 51 L 556 61 L 536 61 L 536 51 Z Z" stroke-miterlimit="10"/></g><g transform="translate(-44,-14) scale(1,1)"><g><path fill="none" stroke="none"/><text fill="#000000" stroke="none" font-family="Arial" font-size="13px" font-style="normal" font-weight="bold" text-decoration="none" x="581.44091796875" y="43.5">DBMS</text></g></g><g transform="translate(-44,-14) scale(1,1)"><path fill="#C0C0C0" stroke="none" d="M 466.2626953125 66.5 C 466.2626953125 60.1487248 471.4114201125 55 477.7626953125 55 C 484.1139705125 55 489.2626953125 60.1487248 489.2626953125 66.5 C 489.2626953125 72.8512752 484.1139705125 78 477.7626953125 78 C 471.4114201125 78 466.2626953125 72.8512752 466.2626953125 66.5 Z" opacity="0.2"/></g><g transform="translate(-44,-14) scale(1,1)"><path fill="none" stroke="#000000" d="M 472.84490732055696 70.14255367218132 A 11.5 11.5 0 0 1 467.15509267944304 47.85744632781867" stroke-miterlimit="10"/></g><g transform="translate(-44,-14) scale(1,1)"><path fill="#ffffff" stroke="none" d="M 462.2626953125 59.5 C 462.2626953125 54.8055792 466.0682745125 51 470.7626953125 51 C 475.4571161125 51 479.2626953125 54.8055792 479.2626953125 59.5 C 479.2626953125 64.1944208 475.4571161125 68 470.7626953125 68 C 466.0682745125 68 462.2626953125 64.1944208 462.2626953125 59.5 Z"/></g><g transform="translate(-44,-14) scale(1,1)"><path fill="none" stroke="#000000" d="M 462.2626953125 59.5 C 462.2626953125 54.8055792 466.0682745125 51 470.7626953125 51 C 475.4571161125 51 479.2626953125 54.8055792 479.2626953125 59.5 C 479.2626953125 64.1944208 475.4571161125 68 470.7626953125 68 C 466.0682745125 68 462.2626953125 64.1944208 462.2626953125 59.5 Z" stroke-miterlimit="10"/></g><g transform="translate(-44,-14) scale(1,1)"><g><path fill="none" stroke="none"/><text fill="#000000" stroke="none" font-family="Arial" font-size="13px" font-style="normal" font-weight="bold" text-decoration="none" x="457.75634765625" y="90.5">SQL</text><text fill="#000000" stroke="none" font-family="Arial" font-size="13px" font-style="normal" font-weight="bold" text-decoration="none" x="445.832275390625" y="103.5">interface</text></g></g><g transform="translate(-44,-14) scale(1,1)"><path fill="none" stroke="#000000" d="M 535 61 L 482.2626953125 60.50155452806123" stroke-miterlimit="10"/></g><g transform="translate(-44,-14) scale(1,1)"><path fill="none" stroke="#000000" d="M 375 64 L 459.2626953125 61.74143949468085" stroke-miterlimit="10"/></g><g transform="translate(-44,-14) scale(1,1)"><rect fill="#C0C0C0" stroke="none" x="113" y="215" width="110" height="50" opacity="0.2"/></g><g transform="translate(-44,-14) scale(1,1)"><rect fill="#ffffff" stroke="none" x="106" y="208" width="110" height="50"/></g><g transform="translate(-44,-14) scale(1,1)"><path fill="none" stroke="#000000" d="M 106 208 L 216 208 L 216 258 L 106 258 L 106 208 Z Z" stroke-miterlimit="10"/></g><g transform="translate(-44,-14) scale(1,1)"><rect fill="#ffffff" stroke="none" x="96" y="215" width="20" height="10"/></g><g transform="translate(-44,-14) scale(1,1)"><path fill="none" stroke="#000000" d="M 96 215 L 116 215 L 116 225 L 96 225 L 96 215 Z Z" stroke-miterlimit="10"/></g><g transform="translate(-44,-14) scale(1,1)"><rect fill="#ffffff" stroke="none" x="96" y="235" width="20" height="10"/></g><g transform="translate(-44,-14) scale(1,1)"><path fill="none" stroke="#000000" d="M 96 235 L 116 235 L 116 245 L 96 245 L 96 235 Z Z" stroke-miterlimit="10"/></g><g transform="translate(-44,-14) scale(1,1)"><g><path fill="none" stroke="none"/><text fill="#000000" stroke="none" font-family="Arial" font-size="13px" font-style="normal" font-weight="bold" text-decoration="none" x="127.33642578125" y="227.5">Geographical</text><text fill="#000000" stroke="none" font-family="Arial" font-size="13px" font-style="normal" font-weight="bold" text-decoration="none" x="149.740478515625" y="240.5">areas</text><text fill="#000000" stroke="none" font-family="Arial" font-size="13px" font-style="normal" font-weight="bold" text-decoration="none" x="139.266845703125" y="253.5">controller</text></g></g><g transform="translate(-44,-14) scale(1,1)"><rect fill="#C0C0C0" stroke="none" x="353" y="223" width="110" height="44" opacity="0.2"/></g><g transform="translate(-44,-14) scale(1,1)"><rect fill="#ffffff" stroke="none" x="346" y="216" width="110" height="44"/></g><g transform="translate(-44,-14) scale(1,1)"><path fill="none" stroke="#000000" d="M 346 216 L 456 216 L 456 260 L 346 260 L 346 216 Z Z" stroke-miterlimit="10"/></g><g transform="translate(-44,-14) scale(1,1)"><rect fill="#ffffff" stroke="none" x="336" y="223" width="20" height="10"/></g><g transform="translate(-44,-14) scale(1,1)"><path fill="none" stroke="#000000" d="M 336 223 L 356 223 L 356 233 L 336 233 L 336 223 Z Z" stroke-miterlimit="10"/></g><g transform="translate(-44,-14) scale(1,1)"><rect fill="#ffffff" stroke="none" x="336" y="243" width="20" height="10"/></g><g transform="translate(-44,-14) scale(1,1)"><path fill="none" stroke="#000000" d="M 336 243 L 356 243 L 356 253 L 336 253 L 336 243 Z Z" stroke-miterlimit="10"/></g><g transform="translate(-44,-14) scale(1,1)"><g><path fill="none" stroke="none"/><text fill="#000000" stroke="none" font-family="Arial" font-size="13px" font-style="normal" font-weight="bold" text-decoration="none" x="374.563232421875" y="235.5">Safe areas</text><text fill="#000000" stroke="none" font-family="Arial" font-size="13px" font-style="normal" font-weight="bold" text-decoration="none" x="379.266845703125" y="248.5">controller</text></g></g><g transform="translate(-44,-14) scale(1,1)"><path fill="none" stroke="#000000" d="M 328 79 L 386 215" stroke-miterlimit="10" stroke-dasharray="3"/></g><g transform="translate(-44,-14) scale(1,1)"><path fill="none" stroke="#000000" d="M 378.14122743425537 207.30326733217922 L 386 215 L 385.8854204893553 204.00059676456306" stroke-miterlimit="10"/></g><g transform="translate(-44,-14) scale(1,1)"><path fill="none" stroke="#000000" d="M 297 79 L 180 207" stroke-miterlimit="10" stroke-dasharray="3"/></g><g transform="translate(-44,-14) scale(1,1)"><path fill="none" stroke="#000000" d="M 183.7494571696517 196.658744228434 L 180 207 L 189.9636386724881 202.33889450837037" stroke-miterlimit="10"/></g></g></svg>