<svg version="1.1" xmlns="http://www.w3.org/2000/svg" xmlns:xlink="http://www.w3.org/1999/xlink" width="580" height="201"><defs/><g><g transform="translate(-22,-14) scale(1,1)"><rect fill="#C0C0C0" stroke="none" x="49" y="130" width="111.47265625" height="44" opacity="0.2"/></g><g transform="translate(-22,-14) scale(1,1)"><rect fill="#cccccc" stroke="none" x="42" y="123" width="111.47265625" height="44"/></g><g transform="translate(-22,-14) scale(1,1)"><path fill="none" stroke="#000000" d="M 42 123 L 153.47265625 123 L 153.47265625 167 L 42 167 L 42 123 Z Z" stroke-miterlimit="10"/></g><g transform="translate(-22,-14) scale(1,1)"><rect fill="#cccccc" stroke="none" x="32" y="130" width="20" height="10"/></g><g transform="translate(-22,-14) scale(1,1)"><path fill="none" stroke="#000000" d="M 32 130 L 52 130 L 52 140 L 32 140 L 32 130 Z Z" stroke-miterlimit="10"/></g><g transform="translate(-22,-14) scale(1,1)"><rect fill="#cccccc" stroke="none" x="32" y="150" width="20" height="10"/></g><g transform="translate(-22,-14) scale(1,1)"><path fill="none" stroke="#000000" d="M 32 150 L 52 150 L 52 160 L 32 160 L 32 150 Z Z" stroke-miterlimit="10"/></g><g transform="translate(-22,-14) scale(1,1)"><g><path fill="none" stroke="none"/><text fill="#000000" stroke="none" font-family="Arial" font-size="13px" font-style="normal" font-weight="bold" text-decoration="none" x="89.0126953125" y="142.5">User</text><text fill="#000000" stroke="none" font-family="Arial" font-size="13px" font-style="normal" font-weight="bold" text-decoration="none" x="76.003173828125" y="155.5">controller</text></g></g><g transform="translate(-22,-14) scale(1,1)"><rect fill="#C0C0C0" stroke="none" x="369" y="31" width="98.44091796875" height="44" opacity="0.2"/></g><g transform="translate(-22,-14) scale(1,1)"><rect fill="#ffffff" stroke="none" x="362" y="24" width="98.44091796875" height="44"/></g><g transform="translate(-22,-14) scale(1,1)"><path fill="none" stroke="#000000" d="M 362 24 L 460.44091796875 24 L 460.44091796875 68 L 362 68 L 362 24 Z Z" stroke-miterlimit="10"/></g><g transform="translate(-22,-14) scale(1,1)"><rect fill="#ffffff" stroke="none" x="352" y="31" width="20" height="10"/></g><g transform="translate(-22,-14) scale(1,1)"><path fill="none" stroke="#000000" d="M 352 31 L 372 31 L 372 41 L 352 41 L 352 31 Z Z" stroke-miterlimit="10"/></g><g transform="translate(-22,-14) scale(1,1)"><rect fill="#ffffff" stroke="none" x="352" y="51" width="20" height="10"/></g><g transform="translate(-22,-14) scale(1,1)"><path fill="none" stroke="#000000" d="M 352 51 L 372 51 L 372 61 L 352 61 L 352 51 Z Z" stroke-miterlimit="10"/></g><g transform="translate(-22,-14) scale(1,1)"><g><path fill="none" stroke="none"/><text fill="#000000" stroke="none" font-family="Arial" font-size="13px" font-style="normal" font-weight="bold" text-decoration="none" x="397.44091796875" y="43.5">DBMS</text></g></g><g transform="translate(-22,-14) scale(1,1)"><path fill="#C0C0C0" stroke="none" d="M 242.2626953125 58.5 C 242.2626953125 52.1487248 247.4114201125 47 253.7626953125 47 C 260.1139705125 47 265.2626953125 52.1487248 265.2626953125 58.5 C 265.2626953125 64.8512752 260.1139705125 70 253.7626953125 70 C 247.4114201125 70 242.2626953125 64.8512752 242.2626953125 58.5 Z" opacity="0.2"/></g><g transform="translate(-22,-14) scale(1,1)"><path fill="none" stroke="#000000" d="M 253.6628063105978 59.57504515709756 A 11.5 11.5 0 0 1 238.33719368940217 42.424954842902444" stroke-miterlimit="10"/></g><g transform="translate(-22,-14) scale(1,1)"><path fill="#ffffff" stroke="none" d="M 238.2626953125 51.5 C 238.2626953125 46.8055792 242.0682745125 43 246.7626953125 43 C 251.4571161125 43 255.2626953125 46.8055792 255.2626953125 51.5 C 255.2626953125 56.1944208 251.4571161125 60 246.7626953125 60 C 242.0682745125 60 238.2626953125 56.1944208 238.2626953125 51.5 Z"/></g><g transform="translate(-22,-14) scale(1,1)"><path fill="none" stroke="#000000" d="M 238.2626953125 51.5 C 238.2626953125 46.8055792 242.0682745125 43 246.7626953125 43 C 251.4571161125 43 255.2626953125 46.8055792 255.2626953125 51.5 C 255.2626953125 56.1944208 251.4571161125 60 246.7626953125 60 C 242.0682745125 60 238.2626953125 56.1944208 238.2626953125 51.5 Z" stroke-miterlimit="10"/></g><g transform="translate(-22,-14) scale(1,1)"><g><path fill="none" stroke="none"/><text fill="#000000" stroke="none" font-family="Arial" font-size="13px" font-style="normal" font-weight="bold" text-decoration="none" x="233.75634765625" y="82.5">SQL</text><text fill="#000000" stroke="none" font-family="Arial" font-size="13px" font-style="normal" font-weight="bold" text-decoration="none" x="221.832275390625" y="95.5">interface</text></g></g><g transform="translate(-22,-14) scale(1,1)"><path fill="none" stroke="#000000" d="M 351 54 L 258.2626953125 54.00310905612245" stroke-miterlimit="10"/></g><g transform="translate(-22,-14) scale(1,1)"><path fill="none" stroke="#000000" d="M 139 122 L 235.2626953125 60.59503823138298" stroke-miterlimit="10"/></g><g transform="translate(-22,-14) scale(1,1)"><rect fill="#C0C0C0" stroke="none" x="417" y="127" width="182" height="48" opacity="0.2"/></g><g transform="translate(-22,-14) scale(1,1)"><rect fill="#fafa83" stroke="none" x="410" y="120" width="182" height="48"/></g><g transform="translate(-22,-14) scale(1,1)"><path fill="none" stroke="#000000" d="M 410 120 L 592 120 L 592 168 L 410 168 L 410 120 Z Z" stroke-miterlimit="10"/></g><g transform="translate(-22,-14) scale(1,1)"><rect fill="#fafa83" stroke="none" x="400" y="127" width="20" height="10"/></g><g transform="translate(-22,-14) scale(1,1)"><path fill="none" stroke="#000000" d="M 400 127 L 420 127 L 420 137 L 400 137 L 400 127 Z Z" stroke-miterlimit="10"/></g><g transform="translate(-22,-14) scale(1,1)"><rect fill="#fafa83" stroke="none" x="400" y="147" width="20" height="10"/></g><g transform="translate(-22,-14) scale(1,1)"><path fill="none" stroke="#000000" d="M 400 147 L 420 147 L 420 157 L 400 157 L 400 147 Z Z" stroke-miterlimit="10"/></g><g transform="translate(-22,-14) scale(1,1)"><g><path fill="none" stroke="none"/><text fill="#000000" stroke="none" font-family="Arial" font-size="13px" font-style="normal" font-weight="bold" text-decoration="none" x="450.372314453125" y="139.5">External system for</text><text fill="#000000" stroke="none" font-family="Arial" font-size="13px" font-style="normal" font-weight="bold" text-decoration="none" x="435.544189453125" y="152.5">driving licence validation</text></g></g><g transform="translate(-22,-14) scale(1,1)"><path fill="#C0C0C0" stroke="none" d="M 267.284912109375 162.5 C 267.284912109375 156.1487248 272.433636909375 151 278.784912109375 151 C 285.136187309375 151 290.284912109375 156.1487248 290.284912109375 162.5 C 290.284912109375 168.8512752 285.136187309375 174 278.784912109375 174 C 272.433636909375 174 267.284912109375 168.8512752 267.284912109375 162.5 Z" opacity="0.2"/></g><g transform="translate(-22,-14) scale(1,1)"><path fill="none" stroke="#000000" d="M 271.1026744789368 166.49954164092532 A 11.5 11.5 0 1 1 270.8973255210632 143.50045835907468" stroke-miterlimit="10"/></g><g transform="translate(-22,-14) scale(1,1)"><path fill="#ffffff" stroke="none" d="M 263.284912109375 155.5 C 263.284912109375 150.8055792 267.090491309375 147 271.784912109375 147 C 276.479332909375 147 280.284912109375 150.8055792 280.284912109375 155.5 C 280.284912109375 160.1944208 276.479332909375 164 271.784912109375 164 C 267.090491309375 164 263.284912109375 160.1944208 263.284912109375 155.5 Z"/></g><g transform="translate(-22,-14) scale(1,1)"><path fill="none" stroke="#000000" d="M 263.284912109375 155.5 C 263.284912109375 150.8055792 267.090491309375 147 271.784912109375 147 C 276.479332909375 147 280.284912109375 150.8055792 280.284912109375 155.5 C 280.284912109375 160.1944208 276.479332909375 164 271.784912109375 164 C 267.090491309375 164 263.284912109375 160.1944208 263.284912109375 155.5 Z" stroke-miterlimit="10"/></g><g transform="translate(-22,-14) scale(1,1)"><g><path fill="none" stroke="none"/><text fill="#000000" stroke="none" font-family="Arial" font-size="13px" font-style="normal" font-weight="bold" text-decoration="none" x="200.25" y="186.5">Driving licence validation</text><text fill="#000000" stroke="none" font-family="Arial" font-size="13px" font-style="normal" font-weight="bold" text-decoration="none" x="246.8544921875" y="199.5">interface</text></g></g><g transform="translate(-22,-14) scale(1,1)"><path fill="none" stroke="#000000" d="M 399 157 L 283.284912109375 155.43104954769737" stroke-miterlimit="10"/></g><g transform="translate(-22,-14) scale(1,1)"><path fill="none" stroke="#000000" d="M 154 155 L 260.284912109375 155.09567042759485" stroke-miterlimit="10"/></g></g></svg>