<svg version="1.1" xmlns="http://www.w3.org/2000/svg" xmlns:xlink="http://www.w3.org/1999/xlink" width="480.44091796875" height="152"><defs/><g><g transform="translate(-62,-54) scale(1,1)"><rect fill="#C0C0C0" stroke="none" x="89" y="159" width="111.47265625" height="44" opacity="0.2"/></g><g transform="translate(-62,-54) scale(1,1)"><rect fill="#ffffff" stroke="none" x="82" y="152" width="111.47265625" height="44"/></g><g transform="translate(-62,-54) scale(1,1)"><path fill="none" stroke="#000000" d="M 82 152 L 193.47265625 152 L 193.47265625 196 L 82 196 L 82 152 Z Z" stroke-miterlimit="10"/></g><g transform="translate(-62,-54) scale(1,1)"><rect fill="#ffffff" stroke="none" x="72" y="159" width="20" height="10"/></g><g transform="translate(-62,-54) scale(1,1)"><path fill="none" stroke="#000000" d="M 72 159 L 92 159 L 92 169 L 72 169 L 72 159 Z Z" stroke-miterlimit="10"/></g><g transform="translate(-62,-54) scale(1,1)"><rect fill="#ffffff" stroke="none" x="72" y="179" width="20" height="10"/></g><g transform="translate(-62,-54) scale(1,1)"><path fill="none" stroke="#000000" d="M 72 179 L 92 179 L 92 189 L 72 189 L 72 179 Z Z" stroke-miterlimit="10"/></g><g transform="translate(-62,-54) scale(1,1)"><g><path fill="none" stroke="none"/><text fill="#000000" stroke="none" font-family="Arial" font-size="13px" font-style="normal" font-weight="bold" text-decoration="none" x="129.0126953125" y="171.5">User</text><text fill="#000000" stroke="none" font-family="Arial" font-size="13px" font-style="normal" font-weight="bold" text-decoration="none" x="116.003173828125" y="184.5">controller</text></g></g><g transform="translate(-62,-54) scale(1,1)"><rect fill="#C0C0C0" stroke="none" x="93" y="71" width="110" height="50" opacity="0.2"/></g><g transform="translate(-62,-54) scale(1,1)"><rect fill="#cccccc" stroke="none" x="86" y="64" width="110" height="50"/></g><g transform="translate(-62,-54) scale(1,1)"><path fill="none" stroke="#000000" d="M 86 64 L 196 64 L 196 114 L 86 114 L 86 64 Z Z" stroke-miterlimit="10"/></g><g transform="translate(-62,-54) scale(1,1)"><rect fill="#cccccc" stroke="none" x="76" y="71" width="20" height="10"/></g><g transform="translate(-62,-54) scale(1,1)"><path fill="none" stroke="#000000" d="M 76 71 L 96 71 L 96 81 L 76 81 L 76 71 Z Z" stroke-miterlimit="10"/></g><g transform="translate(-62,-54) scale(1,1)"><rect fill="#cccccc" stroke="none" x="76" y="91" width="20" height="10"/></g><g transform="translate(-62,-54) scale(1,1)"><path fill="none" stroke="#000000" d="M 76 91 L 96 91 L 96 101 L 76 101 L 76 91 Z Z" stroke-miterlimit="10"/></g><g transform="translate(-62,-54) scale(1,1)"><g><path fill="none" stroke="none"/><text fill="#000000" stroke="none" font-family="Arial" font-size="13px" font-style="normal" font-weight="bold" text-decoration="none" x="107.33642578125" y="83.5">Geographical</text><text fill="#000000" stroke="none" font-family="Arial" font-size="13px" font-style="normal" font-weight="bold" text-decoration="none" x="129.740478515625" y="96.5">areas</text><text fill="#000000" stroke="none" font-family="Arial" font-size="13px" font-style="normal" font-weight="bold" text-decoration="none" x="119.266845703125" y="109.5">controller</text></g></g><g transform="translate(-62,-54) scale(1,1)"><path fill="none" stroke="#000000" d="M 148 114 L 148 152" stroke-miterlimit="10" stroke-dasharray="3"/></g><g transform="translate(-62,-54) scale(1,1)"><path fill="none" stroke="#000000" d="M 143.790482243984 141.83732514237585 L 148 152 L 152.209517756016 141.83732514237585" stroke-miterlimit="10"/></g><g transform="translate(-62,-54) scale(1,1)"><rect fill="#C0C0C0" stroke="none" x="441" y="79" width="98.44091796875" height="44" opacity="0.2"/></g><g transform="translate(-62,-54) scale(1,1)"><rect fill="#ffffff" stroke="none" x="434" y="72" width="98.44091796875" height="44"/></g><g transform="translate(-62,-54) scale(1,1)"><path fill="none" stroke="#000000" d="M 434 72 L 532.44091796875 72 L 532.44091796875 116 L 434 116 L 434 72 Z Z" stroke-miterlimit="10"/></g><g transform="translate(-62,-54) scale(1,1)"><rect fill="#ffffff" stroke="none" x="424" y="79" width="20" height="10"/></g><g transform="translate(-62,-54) scale(1,1)"><path fill="none" stroke="#000000" d="M 424 79 L 444 79 L 444 89 L 424 89 L 424 79 Z Z" stroke-miterlimit="10"/></g><g transform="translate(-62,-54) scale(1,1)"><rect fill="#ffffff" stroke="none" x="424" y="99" width="20" height="10"/></g><g transform="translate(-62,-54) scale(1,1)"><path fill="none" stroke="#000000" d="M 424 99 L 444 99 L 444 109 L 424 109 L 424 99 Z Z" stroke-miterlimit="10"/></g><g transform="translate(-62,-54) scale(1,1)"><g><path fill="none" stroke="none"/><text fill="#000000" stroke="none" font-family="Arial" font-size="13px" font-style="normal" font-weight="bold" text-decoration="none" x="469.44091796875" y="91.5">DBMS</text></g></g><g transform="translate(-62,-54) scale(1,1)"><path fill="#C0C0C0" stroke="none" d="M 330.2626953125 106.5 C 330.2626953125 100.1487248 335.4114201125 95 341.7626953125 95 C 348.1139705125 95 353.2626953125 100.1487248 353.2626953125 106.5 C 353.2626953125 112.8512752 348.1139705125 118 341.7626953125 118 C 335.4114201125 118 330.2626953125 112.8512752 330.2626953125 106.5 Z" opacity="0.2"/></g><g transform="translate(-62,-54) scale(1,1)"><path fill="none" stroke="#000000" d="M 336.84490732055696 110.14255367218132 A 11.5 11.5 0 0 1 331.15509267944304 87.85744632781868" stroke-miterlimit="10"/></g><g transform="translate(-62,-54) scale(1,1)"><path fill="#ffffff" stroke="none" d="M 326.2626953125 99.5 C 326.2626953125 94.8055792 330.0682745125 91 334.7626953125 91 C 339.4571161125 91 343.2626953125 94.8055792 343.2626953125 99.5 C 343.2626953125 104.1944208 339.4571161125 108 334.7626953125 108 C 330.0682745125 108 326.2626953125 104.1944208 326.2626953125 99.5 Z"/></g><g transform="translate(-62,-54) scale(1,1)"><path fill="none" stroke="#000000" d="M 326.2626953125 99.5 C 326.2626953125 94.8055792 330.0682745125 91 334.7626953125 91 C 339.4571161125 91 343.2626953125 94.8055792 343.2626953125 99.5 C 343.2626953125 104.1944208 339.4571161125 108 334.7626953125 108 C 330.0682745125 108 326.2626953125 104.1944208 326.2626953125 99.5 Z" stroke-miterlimit="10"/></g><g transform="translate(-62,-54) scale(1,1)"><g><path fill="none" stroke="none"/><text fill="#000000" stroke="none" font-family="Arial" font-size="13px" font-style="normal" font-weight="bold" text-decoration="none" x="321.75634765625" y="130.5">SQL</text><text fill="#000000" stroke="none" font-family="Arial" font-size="13px" font-style="normal" font-weight="bold" text-decoration="none" x="309.832275390625" y="143.5">interface</text></g></g><g transform="translate(-62,-54) scale(1,1)"><path fill="none" stroke="#000000" d="M 423 103 L 346.2626953125 101.75284996811224" stroke-miterlimit="10"/></g><g transform="translate(-62,-54) scale(1,1)"><path fill="none" stroke="#000000" d="M 197 98 L 323.2626953125 101.74143949468085" stroke-miterlimit="10"/></g></g></svg>