<svg version="1.1" xmlns="http://www.w3.org/2000/svg" xmlns:xlink="http://www.w3.org/1999/xlink" width="500.44091796875" height="249"><defs/><g><g transform="translate(-26,-14) scale(1,1)"><rect fill="#C0C0C0" stroke="none" x="53" y="31" width="111.47265625" height="44" opacity="0.2"/></g><g transform="translate(-26,-14) scale(1,1)"><rect fill="#ffffff" stroke="none" x="46" y="24" width="111.47265625" height="44"/></g><g transform="translate(-26,-14) scale(1,1)"><path fill="none" stroke="#000000" d="M 46 24 L 157.47265625 24 L 157.47265625 68 L 46 68 L 46 24 Z Z" stroke-miterlimit="10"/></g><g transform="translate(-26,-14) scale(1,1)"><rect fill="#ffffff" stroke="none" x="36" y="31" width="20" height="10"/></g><g transform="translate(-26,-14) scale(1,1)"><path fill="none" stroke="#000000" d="M 36 31 L 56 31 L 56 41 L 36 41 L 36 31 Z Z" stroke-miterlimit="10"/></g><g transform="translate(-26,-14) scale(1,1)"><rect fill="#ffffff" stroke="none" x="36" y="51" width="20" height="10"/></g><g transform="translate(-26,-14) scale(1,1)"><path fill="none" stroke="#000000" d="M 36 51 L 56 51 L 56 61 L 36 61 L 36 51 Z Z" stroke-miterlimit="10"/></g><g transform="translate(-26,-14) scale(1,1)"><g><path fill="none" stroke="none"/><text fill="#000000" stroke="none" font-family="Arial" font-size="13px" font-style="normal" font-weight="bold" text-decoration="none" x="93.0126953125" y="43.5">User</text><text fill="#000000" stroke="none" font-family="Arial" font-size="13px" font-style="normal" font-weight="bold" text-decoration="none" x="80.003173828125" y="56.5">controller</text></g></g><g transform="translate(-26,-14) scale(1,1)"><rect fill="#C0C0C0" stroke="none" x="53" y="183" width="110" height="44" opacity="0.2"/></g><g transform="translate(-26,-14) scale(1,1)"><rect fill="#cccccc" stroke="none" x="46" y="176" width="110" height="44"/></g><g transform="translate(-26,-14) scale(1,1)"><path fill="none" stroke="#000000" d="M 46 176 L 156 176 L 156 220 L 46 220 L 46 176 Z Z" stroke-miterlimit="10"/></g><g transform="translate(-26,-14) scale(1,1)"><rect fill="#cccccc" stroke="none" x="36" y="183" width="20" height="10"/></g><g transform="translate(-26,-14) scale(1,1)"><path fill="none" stroke="#000000" d="M 36 183 L 56 183 L 56 193 L 36 193 L 36 183 Z Z" stroke-miterlimit="10"/></g><g transform="translate(-26,-14) scale(1,1)"><rect fill="#cccccc" stroke="none" x="36" y="203" width="20" height="10"/></g><g transform="translate(-26,-14) scale(1,1)"><path fill="none" stroke="#000000" d="M 36 203 L 56 203 L 56 213 L 36 213 L 36 203 Z Z" stroke-miterlimit="10"/></g><g transform="translate(-26,-14) scale(1,1)"><g><path fill="none" stroke="none"/><text fill="#000000" stroke="none" font-family="Arial" font-size="13px" font-style="normal" font-weight="bold" text-decoration="none" x="74.563232421875" y="195.5">Safe areas</text><text fill="#000000" stroke="none" font-family="Arial" font-size="13px" font-style="normal" font-weight="bold" text-decoration="none" x="79.266845703125" y="208.5">controller</text></g></g><g transform="translate(-26,-14) scale(1,1)"><path fill="none" stroke="#000000" d="M 104 176 L 104 68" stroke-miterlimit="10" stroke-dasharray="3"/></g><g transform="translate(-26,-14) scale(1,1)"><path fill="none" stroke="#000000" d="M 108.20951775601598 78.16267485762415 L 104 68 L 99.79048224398402 78.16267485762415" stroke-miterlimit="10"/></g><g transform="translate(-26,-14) scale(1,1)"><rect fill="#C0C0C0" stroke="none" x="425" y="183" width="98.44091796875" height="44" opacity="0.2"/></g><g transform="translate(-26,-14) scale(1,1)"><rect fill="#ffffff" stroke="none" x="418" y="176" width="98.44091796875" height="44"/></g><g transform="translate(-26,-14) scale(1,1)"><path fill="none" stroke="#000000" d="M 418 176 L 516.44091796875 176 L 516.44091796875 220 L 418 220 L 418 176 Z Z" stroke-miterlimit="10"/></g><g transform="translate(-26,-14) scale(1,1)"><rect fill="#ffffff" stroke="none" x="408" y="183" width="20" height="10"/></g><g transform="translate(-26,-14) scale(1,1)"><path fill="none" stroke="#000000" d="M 408 183 L 428 183 L 428 193 L 408 193 L 408 183 Z Z" stroke-miterlimit="10"/></g><g transform="translate(-26,-14) scale(1,1)"><rect fill="#ffffff" stroke="none" x="408" y="203" width="20" height="10"/></g><g transform="translate(-26,-14) scale(1,1)"><path fill="none" stroke="#000000" d="M 408 203 L 428 203 L 428 213 L 408 213 L 408 203 Z Z" stroke-miterlimit="10"/></g><g transform="translate(-26,-14) scale(1,1)"><g><path fill="none" stroke="none"/><text fill="#000000" stroke="none" font-family="Arial" font-size="13px" font-style="normal" font-weight="bold" text-decoration="none" x="453.44091796875" y="195.5">DBMS</text></g></g><g transform="translate(-26,-14) scale(1,1)"><path fill="#C0C0C0" stroke="none" d="M 298.2626953125 210.5 C 298.2626953125 204.1487248 303.4114201125 199 309.7626953125 199 C 316.1139705125 199 321.2626953125 204.1487248 321.2626953125 210.5 C 321.2626953125 216.8512752 316.1139705125 222 309.7626953125 222 C 303.4114201125 222 298.2626953125 216.8512752 298.2626953125 210.5 Z" opacity="0.2"/></g><g transform="translate(-26,-14) scale(1,1)"><path fill="none" stroke="#000000" d="M 305.2829807459019 214.02143536124208 A 11.5 11.5 0 0 1 298.7170192540981 191.97856463875792" stroke-miterlimit="10"/></g><g transform="translate(-26,-14) scale(1,1)"><path fill="#ffffff" stroke="none" d="M 294.2626953125 203.5 C 294.2626953125 198.8055792 298.0682745125 195 302.7626953125 195 C 307.4571161125 195 311.2626953125 198.8055792 311.2626953125 203.5 C 311.2626953125 208.1944208 307.4571161125 212 302.7626953125 212 C 298.0682745125 212 294.2626953125 208.1944208 294.2626953125 203.5 Z"/></g><g transform="translate(-26,-14) scale(1,1)"><path fill="none" stroke="#000000" d="M 294.2626953125 203.5 C 294.2626953125 198.8055792 298.0682745125 195 302.7626953125 195 C 307.4571161125 195 311.2626953125 198.8055792 311.2626953125 203.5 C 311.2626953125 208.1944208 307.4571161125 212 302.7626953125 212 C 298.0682745125 212 294.2626953125 208.1944208 294.2626953125 203.5 Z" stroke-miterlimit="10"/></g><g transform="translate(-26,-14) scale(1,1)"><g><path fill="none" stroke="none"/><text fill="#000000" stroke="none" font-family="Arial" font-size="13px" font-style="normal" font-weight="bold" text-decoration="none" x="289.75634765625" y="234.5">SQL</text><text fill="#000000" stroke="none" font-family="Arial" font-size="13px" font-style="normal" font-weight="bold" text-decoration="none" x="277.832275390625" y="247.5">interface</text></g></g><g transform="translate(-26,-14) scale(1,1)"><path fill="none" stroke="#000000" d="M 407 206 L 314.2626953125 206.00310905612244" stroke-miterlimit="10"/></g><g transform="translate(-26,-14) scale(1,1)"><path fill="none" stroke="#000000" d="M 157 205 L 291.2626953125 206.19834607712767" stroke-miterlimit="10"/></g></g></svg>