<svg version="1.1" xmlns="http://www.w3.org/2000/svg" xmlns:xlink="http://www.w3.org/1999/xlink" width="544.44091796875" height="312"><defs/><g><g transform="translate(-38,-22) scale(1,1)"><rect fill="#C0C0C0" stroke="none" x="89" y="198" width="198" height="44" opacity="0.2"/></g><g transform="translate(-38,-22) scale(1,1)"><rect fill="#cccccc" stroke="none" x="82" y="191" width="198" height="44"/></g><g transform="translate(-38,-22) scale(1,1)"><path fill="none" stroke="#000000" d="M 82 191 L 280 191 L 280 235 L 82 235 L 82 191 Z Z" stroke-miterlimit="10"/></g><g transform="translate(-38,-22) scale(1,1)"><rect fill="#cccccc" stroke="none" x="72" y="198" width="20" height="10"/></g><g transform="translate(-38,-22) scale(1,1)"><path fill="none" stroke="#000000" d="M 72 198 L 92 198 L 92 208 L 72 208 L 72 198 Z Z" stroke-miterlimit="10"/></g><g transform="translate(-38,-22) scale(1,1)"><rect fill="#cccccc" stroke="none" x="72" y="218" width="20" height="10"/></g><g transform="translate(-38,-22) scale(1,1)"><path fill="none" stroke="#000000" d="M 72 218 L 92 218 L 92 228 L 72 228 L 72 218 Z Z" stroke-miterlimit="10"/></g><g transform="translate(-38,-22) scale(1,1)"><g><path fill="none" stroke="none"/><text fill="#000000" stroke="none" font-family="Arial" font-size="13px" font-style="normal" font-weight="bold" text-decoration="none" x="144.0927734375" y="210.5">Ride controller</text></g></g><g transform="translate(-38,-22) scale(1,1)"><rect fill="#C0C0C0" stroke="none" x="65" y="39" width="110" height="44" opacity="0.2"/></g><g transform="translate(-38,-22) scale(1,1)"><rect fill="#ffffff" stroke="none" x="58" y="32" width="110" height="44"/></g><g transform="translate(-38,-22) scale(1,1)"><path fill="none" stroke="#000000" d="M 58 32 L 168 32 L 168 76 L 58 76 L 58 32 Z Z" stroke-miterlimit="10"/></g><g transform="translate(-38,-22) scale(1,1)"><rect fill="#ffffff" stroke="none" x="48" y="39" width="20" height="10"/></g><g transform="translate(-38,-22) scale(1,1)"><path fill="none" stroke="#000000" d="M 48 39 L 68 39 L 68 49 L 48 49 L 48 39 Z Z" stroke-miterlimit="10"/></g><g transform="translate(-38,-22) scale(1,1)"><rect fill="#ffffff" stroke="none" x="48" y="59" width="20" height="10"/></g><g transform="translate(-38,-22) scale(1,1)"><path fill="none" stroke="#000000" d="M 48 59 L 68 59 L 68 69 L 48 69 L 48 59 Z Z" stroke-miterlimit="10"/></g><g transform="translate(-38,-22) scale(1,1)"><g><path fill="none" stroke="none"/><text fill="#000000" stroke="none" font-family="Arial" font-size="13px" font-style="normal" font-weight="bold" text-decoration="none" x="87.65185546875" y="51.5">Monitoring</text><text fill="#000000" stroke="none" font-family="Arial" font-size="13px" font-style="normal" font-weight="bold" text-decoration="none" x="91.266845703125" y="64.5">controller</text></g></g><g transform="translate(-38,-22) scale(1,1)"><rect fill="#C0C0C0" stroke="none" x="209" y="39" width="111.47265625" height="44" opacity="0.2"/></g><g transform="translate(-38,-22) scale(1,1)"><rect fill="#ffffff" stroke="none" x="202" y="32" width="111.47265625" height="44"/></g><g transform="translate(-38,-22) scale(1,1)"><path fill="none" stroke="#000000" d="M 202 32 L 313.47265625 32 L 313.47265625 76 L 202 76 L 202 32 Z Z" stroke-miterlimit="10"/></g><g transform="translate(-38,-22) scale(1,1)"><rect fill="#ffffff" stroke="none" x="192" y="39" width="20" height="10"/></g><g transform="translate(-38,-22) scale(1,1)"><path fill="none" stroke="#000000" d="M 192 39 L 212 39 L 212 49 L 192 49 L 192 39 Z Z" stroke-miterlimit="10"/></g><g transform="translate(-38,-22) scale(1,1)"><rect fill="#ffffff" stroke="none" x="192" y="59" width="20" height="10"/></g><g transform="translate(-38,-22) scale(1,1)"><path fill="none" stroke="#000000" d="M 192 59 L 212 59 L 212 69 L 192 69 L 192 59 Z Z" stroke-miterlimit="10"/></g><g transform="translate(-38,-22) scale(1,1)"><g><path fill="none" stroke="none"/><text fill="#000000" stroke="none" font-family="Arial" font-size="13px" font-style="normal" font-weight="bold" text-decoration="none" x="249.0126953125" y="51.5">User</text><text fill="#000000" stroke="none" font-family="Arial" font-size="13px" font-style="normal" font-weight="bold" text-decoration="none" x="236.003173828125" y="64.5">controller</text></g></g><g transform="translate(-38,-22) scale(1,1)"><rect fill="#C0C0C0" stroke="none" x="65" y="287" width="110" height="44" opacity="0.2"/></g><g transform="translate(-38,-22) scale(1,1)"><rect fill="#ffffff" stroke="none" x="58" y="280" width="110" height="44"/></g><g transform="translate(-38,-22) scale(1,1)"><path fill="none" stroke="#000000" d="M 58 280 L 168 280 L 168 324 L 58 324 L 58 280 Z Z" stroke-miterlimit="10"/></g><g transform="translate(-38,-22) scale(1,1)"><rect fill="#ffffff" stroke="none" x="48" y="287" width="20" height="10"/></g><g transform="translate(-38,-22) scale(1,1)"><path fill="none" stroke="#000000" d="M 48 287 L 68 287 L 68 297 L 48 297 L 48 287 Z Z" stroke-miterlimit="10"/></g><g transform="translate(-38,-22) scale(1,1)"><rect fill="#ffffff" stroke="none" x="48" y="307" width="20" height="10"/></g><g transform="translate(-38,-22) scale(1,1)"><path fill="none" stroke="#000000" d="M 48 307 L 68 307 L 68 317 L 48 317 L 48 307 Z Z" stroke-miterlimit="10"/></g><g transform="translate(-38,-22) scale(1,1)"><g><path fill="none" stroke="none"/><text fill="#000000" stroke="none" font-family="Arial" font-size="13px" font-style="normal" font-weight="bold" text-decoration="none" x="86.563232421875" y="299.5">Safe areas</text><text fill="#000000" stroke="none" font-family="Arial" font-size="13px" font-style="normal" font-weight="bold" text-decoration="none" x="91.266845703125" y="312.5">controller</text></g></g><g transform="translate(-38,-22) scale(1,1)"><rect fill="#C0C0C0" stroke="none" x="473" y="79" width="102.7890625" height="44" opacity="0.2"/></g><g transform="translate(-38,-22) scale(1,1)"><rect fill="#ffffff" stroke="none" x="466" y="72" width="102.7890625" height="44"/></g><g transform="translate(-38,-22) scale(1,1)"><path fill="none" stroke="#000000" d="M 466 72 L 568.7890625 72 L 568.7890625 116 L 466 116 L 466 72 Z Z" stroke-miterlimit="10"/></g><g transform="translate(-38,-22) scale(1,1)"><rect fill="#ffffff" stroke="none" x="456" y="79" width="20" height="10"/></g><g transform="translate(-38,-22) scale(1,1)"><path fill="none" stroke="#000000" d="M 456 79 L 476 79 L 476 89 L 456 89 L 456 79 Z Z" stroke-miterlimit="10"/></g><g transform="translate(-38,-22) scale(1,1)"><rect fill="#ffffff" stroke="none" x="456" y="99" width="20" height="10"/></g><g transform="translate(-38,-22) scale(1,1)"><path fill="none" stroke="#000000" d="M 456 99 L 476 99 L 476 109 L 456 109 L 456 99 Z Z" stroke-miterlimit="10"/></g><g transform="translate(-38,-22) scale(1,1)"><g><path fill="none" stroke="none"/><text fill="#000000" stroke="none" font-family="Arial" font-size="13px" font-style="normal" font-weight="bold" text-decoration="none" x="485.187744140625" y="91.5">Bill controller</text></g></g><g transform="translate(-38,-22) scale(1,1)"><path fill="#C0C0C0" stroke="none" d="M 375.0126953125 162.5 C 375.0126953125 156.1487248 380.1614201125 151 386.5126953125 151 C 392.8639705125 151 398.0126953125 156.1487248 398.0126953125 162.5 C 398.0126953125 168.8512752 392.8639705125 174 386.5126953125 174 C 380.1614201125 174 375.0126953125 168.8512752 375.0126953125 162.5 Z" opacity="0.2"/></g><g transform="translate(-38,-22) scale(1,1)"><path fill="none" stroke="#000000" d="M 384.3274234074524 165.1915926055611 A 11.5 11.5 0 0 1 373.67257659254756 144.8084073944389" stroke-miterlimit="10"/></g><g transform="translate(-38,-22) scale(1,1)"><path fill="#ffffff" stroke="none" d="M 371.0126953125 155.5 C 371.0126953125 150.8055792 374.8182745125 147 379.5126953125 147 C 384.2071161125 147 388.0126953125 150.8055792 388.0126953125 155.5 C 388.0126953125 160.1944208 384.2071161125 164 379.5126953125 164 C 374.8182745125 164 371.0126953125 160.1944208 371.0126953125 155.5 Z"/></g><g transform="translate(-38,-22) scale(1,1)"><path fill="none" stroke="#000000" d="M 371.0126953125 155.5 C 371.0126953125 150.8055792 374.8182745125 147 379.5126953125 147 C 384.2071161125 147 388.0126953125 150.8055792 388.0126953125 155.5 C 388.0126953125 160.1944208 384.2071161125 164 379.5126953125 164 C 374.8182745125 164 371.0126953125 160.1944208 371.0126953125 155.5 Z" stroke-miterlimit="10"/></g><g transform="translate(-38,-22) scale(1,1)"><g><path fill="none" stroke="none"/><text fill="#000000" stroke="none" font-family="Arial" font-size="13px" font-style="normal" font-weight="bold" text-decoration="none" x="343.385009765625" y="186.5">Bill manager</text></g></g><g transform="translate(-38,-22) scale(1,1)"><path fill="none" stroke="#000000" d="M 471 117 L 391.0126953125 151.79661458333334" stroke-miterlimit="10"/></g><g transform="translate(-38,-22) scale(1,1)"><path fill="none" stroke="#000000" d="M 280 190 L 368.0126953125 160.74336381392047" stroke-miterlimit="10"/></g><g transform="translate(-38,-22) scale(1,1)"><path fill="none" stroke="#000000" d="M 116 235 L 116 280" stroke-miterlimit="10" stroke-dasharray="3"/></g><g transform="translate(-38,-22) scale(1,1)"><path fill="none" stroke="#000000" d="M 111.79048224398402 269.83732514237585 L 116 280 L 120.20951775601598 269.83732514237585" stroke-miterlimit="10"/></g><g transform="translate(-38,-22) scale(1,1)"><path fill="none" stroke="#000000" d="M 248 191 L 248 76" stroke-miterlimit="10" stroke-dasharray="3"/></g><g transform="translate(-38,-22) scale(1,1)"><path fill="none" stroke="#000000" d="M 252.209517756016 86.16267485762415 L 248 76 L 243.790482243984 86.16267485762415" stroke-miterlimit="10"/></g><g transform="translate(-38,-22) scale(1,1)"><path fill="none" stroke="#000000" d="M 112 191 L 112 76" stroke-miterlimit="10" stroke-dasharray="3"/></g><g transform="translate(-38,-22) scale(1,1)"><path fill="none" stroke="#000000" d="M 116.20951775601598 86.16267485762415 L 112 76 L 107.79048224398402 86.16267485762415" stroke-miterlimit="10"/></g><g transform="translate(-38,-22) scale(1,1)"><rect fill="#C0C0C0" stroke="none" x="481" y="279" width="98.44091796875" height="44" opacity="0.2"/></g><g transform="translate(-38,-22) scale(1,1)"><rect fill="#ffffff" stroke="none" x="474" y="272" width="98.44091796875" height="44"/></g><g transform="translate(-38,-22) scale(1,1)"><path fill="none" stroke="#000000" d="M 474 272 L 572.44091796875 272 L 572.44091796875 316 L 474 316 L 474 272 Z Z" stroke-miterlimit="10"/></g><g transform="translate(-38,-22) scale(1,1)"><rect fill="#ffffff" stroke="none" x="464" y="279" width="20" height="10"/></g><g transform="translate(-38,-22) scale(1,1)"><path fill="none" stroke="#000000" d="M 464 279 L 484 279 L 484 289 L 464 289 L 464 279 Z Z" stroke-miterlimit="10"/></g><g transform="translate(-38,-22) scale(1,1)"><rect fill="#ffffff" stroke="none" x="464" y="299" width="20" height="10"/></g><g transform="translate(-38,-22) scale(1,1)"><path fill="none" stroke="#000000" d="M 464 299 L 484 299 L 484 309 L 464 309 L 464 299 Z Z" stroke-miterlimit="10"/></g><g transform="translate(-38,-22) scale(1,1)"><g><path fill="none" stroke="none"/><text fill="#000000" stroke="none" font-family="Arial" font-size="13px" font-style="normal" font-weight="bold" text-decoration="none" x="509.44091796875" y="291.5">DBMS</text></g></g><g transform="translate(-38,-22) scale(1,1)"><path fill="#C0C0C0" stroke="none" d="M 378.2626953125 274.5 C 378.2626953125 268.1487248 383.4114201125 263 389.7626953125 263 C 396.1139705125 263 401.2626953125 268.1487248 401.2626953125 274.5 C 401.2626953125 280.8512752 396.1139705125 286 389.7626953125 286 C 383.4114201125 286 378.2626953125 280.8512752 378.2626953125 274.5 Z" opacity="0.2"/></g><g transform="translate(-38,-22) scale(1,1)"><path fill="none" stroke="#000000" d="M 382.4889192411854 278.4896021678559 A 11.5 11.5 0 0 1 381.5110807588146 255.51039783214412" stroke-miterlimit="10"/></g><g transform="translate(-38,-22) scale(1,1)"><path fill="#ffffff" stroke="none" d="M 374.2626953125 267.5 C 374.2626953125 262.8055792 378.0682745125 259 382.7626953125 259 C 387.4571161125 259 391.2626953125 262.8055792 391.2626953125 267.5 C 391.2626953125 272.1944208 387.4571161125 276 382.7626953125 276 C 378.0682745125 276 374.2626953125 272.1944208 374.2626953125 267.5 Z"/></g><g transform="translate(-38,-22) scale(1,1)"><path fill="none" stroke="#000000" d="M 374.2626953125 267.5 C 374.2626953125 262.8055792 378.0682745125 259 382.7626953125 259 C 387.4571161125 259 391.2626953125 262.8055792 391.2626953125 267.5 C 391.2626953125 272.1944208 387.4571161125 276 382.7626953125 276 C 378.0682745125 276 374.2626953125 272.1944208 374.2626953125 267.5 Z" stroke-miterlimit="10"/></g><g transform="translate(-38,-22) scale(1,1)"><g><path fill="none" stroke="none"/><text fill="#000000" stroke="none" font-family="Arial" font-size="13px" font-style="normal" font-weight="bold" text-decoration="none" x="369.75634765625" y="298.5">SQL</text><text fill="#000000" stroke="none" font-family="Arial" font-size="13px" font-style="normal" font-weight="bold" text-decoration="none" x="357.832275390625" y="311.5">interface</text></g></g><g transform="translate(-38,-22) scale(1,1)"><path fill="none" stroke="#000000" d="M 463 291 L 394.2626953125 272.5056999362245" stroke-miterlimit="10"/></g><g transform="translate(-38,-22) scale(1,1)"><path fill="none" stroke="#000000" d="M 241 236 L 371.2626953125 267.45690658244683" stroke-miterlimit="10"/></g></g></svg>