<svg version="1.1" xmlns="http://www.w3.org/2000/svg" xmlns:xlink="http://www.w3.org/1999/xlink" width="462" height="107"><defs/><g><g transform="translate(-76,-20) scale(1,1)"><rect fill="#C0C0C0" stroke="none" x="425" y="39" width="110" height="44" opacity="0.2"/></g><g transform="translate(-76,-20) scale(1,1)"><rect fill="#cccccc" stroke="none" x="418" y="32" width="110" height="44"/></g><g transform="translate(-76,-20) scale(1,1)"><path fill="none" stroke="#000000" d="M 418 32 L 528 32 L 528 76 L 418 76 L 418 32 Z Z" stroke-miterlimit="10"/></g><g transform="translate(-76,-20) scale(1,1)"><rect fill="#cccccc" stroke="none" x="408" y="39" width="20" height="10"/></g><g transform="translate(-76,-20) scale(1,1)"><path fill="none" stroke="#000000" d="M 408 39 L 428 39 L 428 49 L 408 49 L 408 39 Z Z" stroke-miterlimit="10"/></g><g transform="translate(-76,-20) scale(1,1)"><rect fill="#cccccc" stroke="none" x="408" y="59" width="20" height="10"/></g><g transform="translate(-76,-20) scale(1,1)"><path fill="none" stroke="#000000" d="M 408 59 L 428 59 L 428 69 L 408 69 L 408 59 Z Z" stroke-miterlimit="10"/></g><g transform="translate(-76,-20) scale(1,1)"><g><path fill="none" stroke="none"/><text fill="#000000" stroke="none" font-family="Arial" font-size="13px" font-style="normal" font-weight="bold" text-decoration="none" x="447.65185546875" y="51.5">Monitoring</text><text fill="#000000" stroke="none" font-family="Arial" font-size="13px" font-style="normal" font-weight="bold" text-decoration="none" x="451.266845703125" y="64.5">controller</text></g></g><g transform="translate(-76,-20) scale(1,1)"><path fill="#C0C0C0" stroke="none" d="M 299.483154296875 74.5 C 299.483154296875 68.1487248 304.631879096875 63 310.983154296875 63 C 317.334429496875 63 322.483154296875 68.1487248 322.483154296875 74.5 C 322.483154296875 80.8512752 317.334429496875 86 310.983154296875 86 C 304.631879096875 86 299.483154296875 80.8512752 299.483154296875 74.5 Z" opacity="0.2"/></g><g transform="translate(-76,-20) scale(1,1)"><path fill="none" stroke="#000000" d="M 303.57428259485476 78.48565189709521 A 11.5 11.5 0 0 1 302.42571740514524 55.51434810290479" stroke-miterlimit="10"/></g><g transform="translate(-76,-20) scale(1,1)"><path fill="#ffffff" stroke="none" d="M 295.483154296875 67.5 C 295.483154296875 62.8055792 299.288733496875 59 303.983154296875 59 C 308.677575096875 59 312.483154296875 62.8055792 312.483154296875 67.5 C 312.483154296875 72.1944208 308.677575096875 76 303.983154296875 76 C 299.288733496875 76 295.483154296875 72.1944208 295.483154296875 67.5 Z"/></g><g transform="translate(-76,-20) scale(1,1)"><path fill="none" stroke="#000000" d="M 295.483154296875 67.5 C 295.483154296875 62.8055792 299.288733496875 59 303.983154296875 59 C 308.677575096875 59 312.483154296875 62.8055792 312.483154296875 67.5 C 312.483154296875 72.1944208 308.677575096875 76 303.983154296875 76 C 299.288733496875 76 295.483154296875 72.1944208 295.483154296875 67.5 Z" stroke-miterlimit="10"/></g><g transform="translate(-76,-20) scale(1,1)"><g><path fill="none" stroke="none"/><text fill="#000000" stroke="none" font-family="Arial" font-size="13px" font-style="normal" font-weight="bold" text-decoration="none" x="261.35546875" y="98.5">Car monitoring</text><text fill="#000000" stroke="none" font-family="Arial" font-size="13px" font-style="normal" font-weight="bold" text-decoration="none" x="279.052734375" y="111.5">interface</text></g></g><g transform="translate(-76,-20) scale(1,1)"><path fill="none" stroke="#000000" d="M 407 66 L 315.483154296875 67.45670076695885" stroke-miterlimit="10"/></g><g transform="translate(-76,-20) scale(1,1)"><rect fill="#C0C0C0" stroke="none" x="103" y="37" width="102" height="50" opacity="0.2"/></g><g transform="translate(-76,-20) scale(1,1)"><rect fill="#ffffff" stroke="none" x="96" y="30" width="102" height="50"/></g><g transform="translate(-76,-20) scale(1,1)"><path fill="none" stroke="#000000" d="M 96 30 L 198 30 L 198 80 L 96 80 L 96 30 Z Z" stroke-miterlimit="10"/></g><g transform="translate(-76,-20) scale(1,1)"><rect fill="#ffffff" stroke="none" x="86" y="37" width="20" height="10"/></g><g transform="translate(-76,-20) scale(1,1)"><path fill="none" stroke="#000000" d="M 86 37 L 106 37 L 106 47 L 86 47 L 86 37 Z Z" stroke-miterlimit="10"/></g><g transform="translate(-76,-20) scale(1,1)"><rect fill="#ffffff" stroke="none" x="86" y="57" width="20" height="10"/></g><g transform="translate(-76,-20) scale(1,1)"><path fill="none" stroke="#000000" d="M 86 57 L 106 57 L 106 67 L 86 67 L 86 57 Z Z" stroke-miterlimit="10"/></g><g transform="translate(-76,-20) scale(1,1)"><g><path fill="none" stroke="none"/><text fill="#000000" stroke="none" font-family="Arial" font-size="13px" font-style="normal" font-weight="bold" text-decoration="none" x="141.5263671875" y="49.5">Car</text><text fill="#000000" stroke="none" font-family="Arial" font-size="13px" font-style="normal" font-weight="bold" text-decoration="none" x="121.65185546875" y="62.5">monitoring</text><text fill="#000000" stroke="none" font-family="Arial" font-size="13px" font-style="normal" font-weight="bold" text-decoration="none" x="131.41455078125" y="75.5">system</text></g></g><g transform="translate(-76,-20) scale(1,1)"><path fill="none" stroke="#000000" d="M 199 66 L 292.483154296875 67.52584228515624" stroke-miterlimit="10"/></g></g></svg>