<svg version="1.1" xmlns="http://www.w3.org/2000/svg" xmlns:xlink="http://www.w3.org/1999/xlink" width="616.44091796875" height="334"><defs/><g><g transform="translate(-6,-22) scale(1,1)"><rect fill="#C0C0C0" stroke="none" x="81" y="175" width="198" height="44" opacity="0.2"/></g><g transform="translate(-6,-22) scale(1,1)"><rect fill="#cccccc" stroke="none" x="74" y="168" width="198" height="44"/></g><g transform="translate(-6,-22) scale(1,1)"><path fill="none" stroke="#000000" d="M 74 168 L 272 168 L 272 212 L 74 212 L 74 168 Z Z" stroke-miterlimit="10"/></g><g transform="translate(-6,-22) scale(1,1)"><rect fill="#cccccc" stroke="none" x="64" y="175" width="20" height="10"/></g><g transform="translate(-6,-22) scale(1,1)"><path fill="none" stroke="#000000" d="M 64 175 L 84 175 L 84 185 L 64 185 L 64 175 Z Z" stroke-miterlimit="10"/></g><g transform="translate(-6,-22) scale(1,1)"><rect fill="#cccccc" stroke="none" x="64" y="195" width="20" height="10"/></g><g transform="translate(-6,-22) scale(1,1)"><path fill="none" stroke="#000000" d="M 64 195 L 84 195 L 84 205 L 64 205 L 64 195 Z Z" stroke-miterlimit="10"/></g><g transform="translate(-6,-22) scale(1,1)"><g><path fill="none" stroke="none"/><text fill="#000000" stroke="none" font-family="Arial" font-size="13px" font-style="normal" font-weight="bold" text-decoration="none" x="114.77734375" y="187.5">Reservation controller</text></g></g><g transform="translate(-6,-22) scale(1,1)"><rect fill="#C0C0C0" stroke="none" x="185" y="303" width="111.47265625" height="44" opacity="0.2"/></g><g transform="translate(-6,-22) scale(1,1)"><rect fill="#ffffff" stroke="none" x="178" y="296" width="111.47265625" height="44"/></g><g transform="translate(-6,-22) scale(1,1)"><path fill="none" stroke="#000000" d="M 178 296 L 289.47265625 296 L 289.47265625 340 L 178 340 L 178 296 Z Z" stroke-miterlimit="10"/></g><g transform="translate(-6,-22) scale(1,1)"><rect fill="#ffffff" stroke="none" x="168" y="303" width="20" height="10"/></g><g transform="translate(-6,-22) scale(1,1)"><path fill="none" stroke="#000000" d="M 168 303 L 188 303 L 188 313 L 168 313 L 168 303 Z Z" stroke-miterlimit="10"/></g><g transform="translate(-6,-22) scale(1,1)"><rect fill="#ffffff" stroke="none" x="168" y="323" width="20" height="10"/></g><g transform="translate(-6,-22) scale(1,1)"><path fill="none" stroke="#000000" d="M 168 323 L 188 323 L 188 333 L 168 333 L 168 323 Z Z" stroke-miterlimit="10"/></g><g transform="translate(-6,-22) scale(1,1)"><g><path fill="none" stroke="none"/><text fill="#000000" stroke="none" font-family="Arial" font-size="13px" font-style="normal" font-weight="bold" text-decoration="none" x="225.0126953125" y="315.5">User</text><text fill="#000000" stroke="none" font-family="Arial" font-size="13px" font-style="normal" font-weight="bold" text-decoration="none" x="212.003173828125" y="328.5">controller</text></g></g><g transform="translate(-6,-22) scale(1,1)"><rect fill="#C0C0C0" stroke="none" x="41" y="39" width="110.736328125" height="44" opacity="0.2"/></g><g transform="translate(-6,-22) scale(1,1)"><rect fill="#ffffff" stroke="none" x="34" y="32" width="110.736328125" height="44"/></g><g transform="translate(-6,-22) scale(1,1)"><path fill="none" stroke="#000000" d="M 34 32 L 144.736328125 32 L 144.736328125 76 L 34 76 L 34 32 Z Z" stroke-miterlimit="10"/></g><g transform="translate(-6,-22) scale(1,1)"><rect fill="#ffffff" stroke="none" x="24" y="39" width="20" height="10"/></g><g transform="translate(-6,-22) scale(1,1)"><path fill="none" stroke="#000000" d="M 24 39 L 44 39 L 44 49 L 24 49 L 24 39 Z Z" stroke-miterlimit="10"/></g><g transform="translate(-6,-22) scale(1,1)"><rect fill="#ffffff" stroke="none" x="24" y="59" width="20" height="10"/></g><g transform="translate(-6,-22) scale(1,1)"><path fill="none" stroke="#000000" d="M 24 59 L 44 59 L 44 69 L 24 69 L 24 59 Z Z" stroke-miterlimit="10"/></g><g transform="translate(-6,-22) scale(1,1)"><g><path fill="none" stroke="none"/><text fill="#000000" stroke="none" font-family="Arial" font-size="13px" font-style="normal" font-weight="bold" text-decoration="none" x="52.4609375" y="51.5">Ride controller</text></g></g><g transform="translate(-6,-22) scale(1,1)"><rect fill="#C0C0C0" stroke="none" x="33" y="303" width="110" height="50" opacity="0.2"/></g><g transform="translate(-6,-22) scale(1,1)"><rect fill="#ffffff" stroke="none" x="26" y="296" width="110" height="50"/></g><g transform="translate(-6,-22) scale(1,1)"><path fill="none" stroke="#000000" d="M 26 296 L 136 296 L 136 346 L 26 346 L 26 296 Z Z" stroke-miterlimit="10"/></g><g transform="translate(-6,-22) scale(1,1)"><rect fill="#ffffff" stroke="none" x="16" y="303" width="20" height="10"/></g><g transform="translate(-6,-22) scale(1,1)"><path fill="none" stroke="#000000" d="M 16 303 L 36 303 L 36 313 L 16 313 L 16 303 Z Z" stroke-miterlimit="10"/></g><g transform="translate(-6,-22) scale(1,1)"><rect fill="#ffffff" stroke="none" x="16" y="323" width="20" height="10"/></g><g transform="translate(-6,-22) scale(1,1)"><path fill="none" stroke="#000000" d="M 16 323 L 36 323 L 36 333 L 16 333 L 16 323 Z Z" stroke-miterlimit="10"/></g><g transform="translate(-6,-22) scale(1,1)"><g><path fill="none" stroke="none"/><text fill="#000000" stroke="none" font-family="Arial" font-size="13px" font-style="normal" font-weight="bold" text-decoration="none" x="47.33642578125" y="315.5">Geographical</text><text fill="#000000" stroke="none" font-family="Arial" font-size="13px" font-style="normal" font-weight="bold" text-decoration="none" x="69.740478515625" y="328.5">areas</text><text fill="#000000" stroke="none" font-family="Arial" font-size="13px" font-style="normal" font-weight="bold" text-decoration="none" x="59.266845703125" y="341.5">controller</text></g></g><g transform="translate(-6,-22) scale(1,1)"><rect fill="#C0C0C0" stroke="none" x="505" y="55" width="102.7890625" height="44" opacity="0.2"/></g><g transform="translate(-6,-22) scale(1,1)"><rect fill="#ffffff" stroke="none" x="498" y="48" width="102.7890625" height="44"/></g><g transform="translate(-6,-22) scale(1,1)"><path fill="none" stroke="#000000" d="M 498 48 L 600.7890625 48 L 600.7890625 92 L 498 92 L 498 48 Z Z" stroke-miterlimit="10"/></g><g transform="translate(-6,-22) scale(1,1)"><rect fill="#ffffff" stroke="none" x="488" y="55" width="20" height="10"/></g><g transform="translate(-6,-22) scale(1,1)"><path fill="none" stroke="#000000" d="M 488 55 L 508 55 L 508 65 L 488 65 L 488 55 Z Z" stroke-miterlimit="10"/></g><g transform="translate(-6,-22) scale(1,1)"><rect fill="#ffffff" stroke="none" x="488" y="75" width="20" height="10"/></g><g transform="translate(-6,-22) scale(1,1)"><path fill="none" stroke="#000000" d="M 488 75 L 508 75 L 508 85 L 488 85 L 488 75 Z Z" stroke-miterlimit="10"/></g><g transform="translate(-6,-22) scale(1,1)"><g><path fill="none" stroke="none"/><text fill="#000000" stroke="none" font-family="Arial" font-size="13px" font-style="normal" font-weight="bold" text-decoration="none" x="517.187744140625" y="67.5">Bill controller</text></g></g><g transform="translate(-6,-22) scale(1,1)"><rect fill="#C0C0C0" stroke="none" x="193" y="39" width="102" height="44" opacity="0.2"/></g><g transform="translate(-6,-22) scale(1,1)"><rect fill="#ffffff" stroke="none" x="186" y="32" width="102" height="44"/></g><g transform="translate(-6,-22) scale(1,1)"><path fill="none" stroke="#000000" d="M 186 32 L 288 32 L 288 76 L 186 76 L 186 32 Z Z" stroke-miterlimit="10"/></g><g transform="translate(-6,-22) scale(1,1)"><rect fill="#ffffff" stroke="none" x="176" y="39" width="20" height="10"/></g><g transform="translate(-6,-22) scale(1,1)"><path fill="none" stroke="#000000" d="M 176 39 L 196 39 L 196 49 L 176 49 L 176 39 Z Z" stroke-miterlimit="10"/></g><g transform="translate(-6,-22) scale(1,1)"><rect fill="#ffffff" stroke="none" x="176" y="59" width="20" height="10"/></g><g transform="translate(-6,-22) scale(1,1)"><path fill="none" stroke="#000000" d="M 176 59 L 196 59 L 196 69 L 176 69 L 176 59 Z Z" stroke-miterlimit="10"/></g><g transform="translate(-6,-22) scale(1,1)"><g><path fill="none" stroke="none"/><text fill="#000000" stroke="none" font-family="Arial" font-size="13px" font-style="normal" font-weight="bold" text-decoration="none" x="231.5263671875" y="51.5">Car</text><text fill="#000000" stroke="none" font-family="Arial" font-size="13px" font-style="normal" font-weight="bold" text-decoration="none" x="215.266845703125" y="64.5">controller</text></g></g><g transform="translate(-6,-22) scale(1,1)"><path fill="#C0C0C0" stroke="none" d="M 399.0126953125 106.5 C 399.0126953125 100.1487248 404.1614201125 95 410.5126953125 95 C 416.8639705125 95 422.0126953125 100.1487248 422.0126953125 106.5 C 422.0126953125 112.8512752 416.8639705125 118 410.5126953125 118 C 404.1614201125 118 399.0126953125 112.8512752 399.0126953125 106.5 Z" opacity="0.2"/></g><g transform="translate(-6,-22) scale(1,1)"><path fill="none" stroke="#000000" d="M 409.17406816022134 108.70210710891924 A 11.5 11.5 0 0 1 396.82593183977866 89.29789289108078" stroke-miterlimit="10"/></g><g transform="translate(-6,-22) scale(1,1)"><path fill="#ffffff" stroke="none" d="M 395.0126953125 99.5 C 395.0126953125 94.8055792 398.8182745125 91 403.5126953125 91 C 408.2071161125 91 412.0126953125 94.8055792 412.0126953125 99.5 C 412.0126953125 104.1944208 408.2071161125 108 403.5126953125 108 C 398.8182745125 108 395.0126953125 104.1944208 395.0126953125 99.5 Z"/></g><g transform="translate(-6,-22) scale(1,1)"><path fill="none" stroke="#000000" d="M 395.0126953125 99.5 C 395.0126953125 94.8055792 398.8182745125 91 403.5126953125 91 C 408.2071161125 91 412.0126953125 94.8055792 412.0126953125 99.5 C 412.0126953125 104.1944208 408.2071161125 108 403.5126953125 108 C 398.8182745125 108 395.0126953125 104.1944208 395.0126953125 99.5 Z" stroke-miterlimit="10"/></g><g transform="translate(-6,-22) scale(1,1)"><g><path fill="none" stroke="none"/><text fill="#000000" stroke="none" font-family="Arial" font-size="13px" font-style="normal" font-weight="bold" text-decoration="none" x="367.385009765625" y="130.5">Bill manager</text></g></g><g transform="translate(-6,-22) scale(1,1)"><path fill="none" stroke="#000000" d="M 487 87 L 415.0126953125 99" stroke-miterlimit="10"/></g><g transform="translate(-6,-22) scale(1,1)"><path fill="none" stroke="#000000" d="M 237 167 L 392.0126953125 105.99192116477273" stroke-miterlimit="10"/></g><g transform="translate(-6,-22) scale(1,1)"><path fill="none" stroke="#000000" d="M 96 212 L 96 296" stroke-miterlimit="10" stroke-dasharray="3"/></g><g transform="translate(-6,-22) scale(1,1)"><path fill="none" stroke="#000000" d="M 91.79048224398402 285.83732514237585 L 96 296 L 100.20951775601598 285.83732514237585" stroke-miterlimit="10"/></g><g transform="translate(-6,-22) scale(1,1)"><path fill="none" stroke="#000000" d="M 208 212 L 208 296" stroke-miterlimit="10" stroke-dasharray="3"/></g><g transform="translate(-6,-22) scale(1,1)"><path fill="none" stroke="#000000" d="M 203.790482243984 285.83732514237585 L 208 296 L 212.209517756016 285.83732514237585" stroke-miterlimit="10"/></g><g transform="translate(-6,-22) scale(1,1)"><path fill="none" stroke="#000000" d="M 208 168 L 208 76" stroke-miterlimit="10" stroke-dasharray="3"/></g><g transform="translate(-6,-22) scale(1,1)"><path fill="none" stroke="#000000" d="M 212.209517756016 86.16267485762415 L 208 76 L 203.790482243984 86.16267485762415" stroke-miterlimit="10"/></g><g transform="translate(-6,-22) scale(1,1)"><rect fill="#C0C0C0" stroke="none" x="521" y="271" width="98.44091796875" height="44" opacity="0.2"/></g><g transform="translate(-6,-22) scale(1,1)"><rect fill="#ffffff" stroke="none" x="514" y="264" width="98.44091796875" height="44"/></g><g transform="translate(-6,-22) scale(1,1)"><path fill="none" stroke="#000000" d="M 514 264 L 612.44091796875 264 L 612.44091796875 308 L 514 308 L 514 264 Z Z" stroke-miterlimit="10"/></g><g transform="translate(-6,-22) scale(1,1)"><rect fill="#ffffff" stroke="none" x="504" y="271" width="20" height="10"/></g><g transform="translate(-6,-22) scale(1,1)"><path fill="none" stroke="#000000" d="M 504 271 L 524 271 L 524 281 L 504 281 L 504 271 Z Z" stroke-miterlimit="10"/></g><g transform="translate(-6,-22) scale(1,1)"><rect fill="#ffffff" stroke="none" x="504" y="291" width="20" height="10"/></g><g transform="translate(-6,-22) scale(1,1)"><path fill="none" stroke="#000000" d="M 504 291 L 524 291 L 524 301 L 504 301 L 504 291 Z Z" stroke-miterlimit="10"/></g><g transform="translate(-6,-22) scale(1,1)"><g><path fill="none" stroke="none"/><text fill="#000000" stroke="none" font-family="Arial" font-size="13px" font-style="normal" font-weight="bold" text-decoration="none" x="549.44091796875" y="283.5">DBMS</text></g></g><g transform="translate(-6,-22) scale(1,1)"><path fill="#C0C0C0" stroke="none" d="M 394.2626953125 250.5 C 394.2626953125 244.1487248 399.4114201125 239 405.7626953125 239 C 412.1139705125 239 417.2626953125 244.1487248 417.2626953125 250.5 C 417.2626953125 256.8512752 412.1139705125 262 405.7626953125 262 C 399.4114201125 262 394.2626953125 256.8512752 394.2626953125 250.5 Z" opacity="0.2"/></g><g transform="translate(-6,-22) scale(1,1)"><path fill="none" stroke="#000000" d="M 398.97519804960586 254.45857708286874 A 11.5 11.5 0 0 1 397.02480195039414 231.54142291713126" stroke-miterlimit="10"/></g><g transform="translate(-6,-22) scale(1,1)"><path fill="#ffffff" stroke="none" d="M 390.2626953125 243.5 C 390.2626953125 238.8055792 394.0682745125 235 398.7626953125 235 C 403.4571161125 235 407.2626953125 238.8055792 407.2626953125 243.5 C 407.2626953125 248.1944208 403.4571161125 252 398.7626953125 252 C 394.0682745125 252 390.2626953125 248.1944208 390.2626953125 243.5 Z"/></g><g transform="translate(-6,-22) scale(1,1)"><path fill="none" stroke="#000000" d="M 390.2626953125 243.5 C 390.2626953125 238.8055792 394.0682745125 235 398.7626953125 235 C 403.4571161125 235 407.2626953125 238.8055792 407.2626953125 243.5 C 407.2626953125 248.1944208 403.4571161125 252 398.7626953125 252 C 394.0682745125 252 390.2626953125 248.1944208 390.2626953125 243.5 Z" stroke-miterlimit="10"/></g><g transform="translate(-6,-22) scale(1,1)"><g><path fill="none" stroke="none"/><text fill="#000000" stroke="none" font-family="Arial" font-size="13px" font-style="normal" font-weight="bold" text-decoration="none" x="385.75634765625" y="274.5">SQL</text><text fill="#000000" stroke="none" font-family="Arial" font-size="13px" font-style="normal" font-weight="bold" text-decoration="none" x="373.832275390625" y="287.5">interface</text></g></g><g transform="translate(-6,-22) scale(1,1)"><path fill="none" stroke="#000000" d="M 503 278 L 410.2626953125 249.5067362882653" stroke-miterlimit="10"/></g><g transform="translate(-6,-22) scale(1,1)"><path fill="none" stroke="#000000" d="M 241 213 L 387.2626953125 243.9138131648936" stroke-miterlimit="10"/></g><g transform="translate(-6,-22) scale(1,1)"><path fill="none" stroke="#000000" d="M 96 168 L 96 76" stroke-miterlimit="10" stroke-dasharray="3"/></g><g transform="translate(-6,-22) scale(1,1)"><path fill="none" stroke="#000000" d="M 100.20951775601598 86.16267485762415 L 96 76 L 91.79048224398402 86.16267485762415" stroke-miterlimit="10"/></g></g></svg>