<svg version="1.1" xmlns="http://www.w3.org/2000/svg" xmlns:xlink="http://www.w3.org/1999/xlink" width="416.44091796875" height="215"><defs/><g><g transform="translate(-22,-38) scale(1,1)"><rect fill="#C0C0C0" stroke="none" x="49" y="130" width="111.47265625" height="44" opacity="0.2"/></g><g transform="translate(-22,-38) scale(1,1)"><rect fill="#cccccc" stroke="none" x="42" y="123" width="111.47265625" height="44"/></g><g transform="translate(-22,-38) scale(1,1)"><path fill="none" stroke="#000000" d="M 42 123 L 153.47265625 123 L 153.47265625 167 L 42 167 L 42 123 Z Z" stroke-miterlimit="10"/></g><g transform="translate(-22,-38) scale(1,1)"><rect fill="#cccccc" stroke="none" x="32" y="130" width="20" height="10"/></g><g transform="translate(-22,-38) scale(1,1)"><path fill="none" stroke="#000000" d="M 32 130 L 52 130 L 52 140 L 32 140 L 32 130 Z Z" stroke-miterlimit="10"/></g><g transform="translate(-22,-38) scale(1,1)"><rect fill="#cccccc" stroke="none" x="32" y="150" width="20" height="10"/></g><g transform="translate(-22,-38) scale(1,1)"><path fill="none" stroke="#000000" d="M 32 150 L 52 150 L 52 160 L 32 160 L 32 150 Z Z" stroke-miterlimit="10"/></g><g transform="translate(-22,-38) scale(1,1)"><g><path fill="none" stroke="none"/><text fill="#000000" stroke="none" font-family="Arial" font-size="13px" font-style="normal" font-weight="bold" text-decoration="none" x="89.0126953125" y="142.5">User</text><text fill="#000000" stroke="none" font-family="Arial" font-size="13px" font-style="normal" font-weight="bold" text-decoration="none" x="76.003173828125" y="155.5">controller</text></g></g><g transform="translate(-22,-38) scale(1,1)"><rect fill="#C0C0C0" stroke="none" x="331" y="186" width="102.7890625" height="44" opacity="0.2"/></g><g transform="translate(-22,-38) scale(1,1)"><rect fill="#ffffff" stroke="none" x="324" y="179" width="102.7890625" height="44"/></g><g transform="translate(-22,-38) scale(1,1)"><path fill="none" stroke="#000000" d="M 324 179 L 426.7890625 179 L 426.7890625 223 L 324 223 L 324 179 Z Z" stroke-miterlimit="10"/></g><g transform="translate(-22,-38) scale(1,1)"><rect fill="#ffffff" stroke="none" x="314" y="186" width="20" height="10"/></g><g transform="translate(-22,-38) scale(1,1)"><path fill="none" stroke="#000000" d="M 314 186 L 334 186 L 334 196 L 314 196 L 314 186 Z Z" stroke-miterlimit="10"/></g><g transform="translate(-22,-38) scale(1,1)"><rect fill="#ffffff" stroke="none" x="314" y="206" width="20" height="10"/></g><g transform="translate(-22,-38) scale(1,1)"><path fill="none" stroke="#000000" d="M 314 206 L 334 206 L 334 216 L 314 216 L 314 206 Z Z" stroke-miterlimit="10"/></g><g transform="translate(-22,-38) scale(1,1)"><g><path fill="none" stroke="none"/><text fill="#000000" stroke="none" font-family="Arial" font-size="13px" font-style="normal" font-weight="bold" text-decoration="none" x="343.187744140625" y="198.5">Bill controller</text></g></g><g transform="translate(-22,-38) scale(1,1)"><path fill="#C0C0C0" stroke="none" d="M 233.0126953125 213.5 C 233.0126953125 207.1487248 238.1614201125 202 244.5126953125 202 C 250.8639705125 202 256.0126953125 207.1487248 256.0126953125 213.5 C 256.0126953125 219.8512752 250.8639705125 225 244.5126953125 225 C 238.1614201125 225 233.0126953125 219.8512752 233.0126953125 213.5 Z" opacity="0.2"/></g><g transform="translate(-22,-38) scale(1,1)"><path fill="none" stroke="#000000" d="M 234.69544328428987 217.2667217212495 A 11.5 11.5 0 0 1 239.30455671571013 194.7332782787505" stroke-miterlimit="10"/></g><g transform="translate(-22,-38) scale(1,1)"><path fill="#ffffff" stroke="none" d="M 229.0126953125 206.5 C 229.0126953125 201.8055792 232.8182745125 198 237.5126953125 198 C 242.2071161125 198 246.0126953125 201.8055792 246.0126953125 206.5 C 246.0126953125 211.1944208 242.2071161125 215 237.5126953125 215 C 232.8182745125 215 229.0126953125 211.1944208 229.0126953125 206.5 Z"/></g><g transform="translate(-22,-38) scale(1,1)"><path fill="none" stroke="#000000" d="M 229.0126953125 206.5 C 229.0126953125 201.8055792 232.8182745125 198 237.5126953125 198 C 242.2071161125 198 246.0126953125 201.8055792 246.0126953125 206.5 C 246.0126953125 211.1944208 242.2071161125 215 237.5126953125 215 C 232.8182745125 215 229.0126953125 211.1944208 229.0126953125 206.5 Z" stroke-miterlimit="10"/></g><g transform="translate(-22,-38) scale(1,1)"><g><path fill="none" stroke="none"/><text fill="#000000" stroke="none" font-family="Arial" font-size="13px" font-style="normal" font-weight="bold" text-decoration="none" x="201.385009765625" y="237.5">Bill manager</text></g></g><g transform="translate(-22,-38) scale(1,1)"><path fill="none" stroke="#000000" d="M 313 209 L 249.0126953125 207.86864149305555" stroke-miterlimit="10"/></g><g transform="translate(-22,-38) scale(1,1)"><path fill="none" stroke="#000000" d="M 137 168 L 226.0126953125 203.7525967684659" stroke-miterlimit="10"/></g><g transform="translate(-22,-38) scale(1,1)"><rect fill="#C0C0C0" stroke="none" x="337" y="55" width="98.44091796875" height="44" opacity="0.2"/></g><g transform="translate(-22,-38) scale(1,1)"><rect fill="#ffffff" stroke="none" x="330" y="48" width="98.44091796875" height="44"/></g><g transform="translate(-22,-38) scale(1,1)"><path fill="none" stroke="#000000" d="M 330 48 L 428.44091796875 48 L 428.44091796875 92 L 330 92 L 330 48 Z Z" stroke-miterlimit="10"/></g><g transform="translate(-22,-38) scale(1,1)"><rect fill="#ffffff" stroke="none" x="320" y="55" width="20" height="10"/></g><g transform="translate(-22,-38) scale(1,1)"><path fill="none" stroke="#000000" d="M 320 55 L 340 55 L 340 65 L 320 65 L 320 55 Z Z" stroke-miterlimit="10"/></g><g transform="translate(-22,-38) scale(1,1)"><rect fill="#ffffff" stroke="none" x="320" y="75" width="20" height="10"/></g><g transform="translate(-22,-38) scale(1,1)"><path fill="none" stroke="#000000" d="M 320 75 L 340 75 L 340 85 L 320 85 L 320 75 Z Z" stroke-miterlimit="10"/></g><g transform="translate(-22,-38) scale(1,1)"><g><path fill="none" stroke="none"/><text fill="#000000" stroke="none" font-family="Arial" font-size="13px" font-style="normal" font-weight="bold" text-decoration="none" x="365.44091796875" y="67.5">DBMS</text></g></g><g transform="translate(-22,-38) scale(1,1)"><path fill="#C0C0C0" stroke="none" d="M 250.2626953125 90.5 C 250.2626953125 84.1487248 255.4114201125 79 261.7626953125 79 C 268.1139705125 79 273.2626953125 84.1487248 273.2626953125 90.5 C 273.2626953125 96.8512752 268.1139705125 102 261.7626953125 102 C 255.4114201125 102 250.2626953125 96.8512752 250.2626953125 90.5 Z" opacity="0.2"/></g><g transform="translate(-22,-38) scale(1,1)"><path fill="none" stroke="#000000" d="M 260.3318395770125 92.5998858103093 A 11.5 11.5 0 1 1 247.66816042298748 73.4001141896907" stroke-miterlimit="10"/></g><g transform="translate(-22,-38) scale(1,1)"><path fill="#ffffff" stroke="none" d="M 246.2626953125 83.5 C 246.2626953125 78.8055792 250.0682745125 75 254.7626953125 75 C 259.4571161125 75 263.2626953125 78.8055792 263.2626953125 83.5 C 263.2626953125 88.1944208 259.4571161125 92 254.7626953125 92 C 250.0682745125 92 246.2626953125 88.1944208 246.2626953125 83.5 Z"/></g><g transform="translate(-22,-38) scale(1,1)"><path fill="none" stroke="#000000" d="M 246.2626953125 83.5 C 246.2626953125 78.8055792 250.0682745125 75 254.7626953125 75 C 259.4571161125 75 263.2626953125 78.8055792 263.2626953125 83.5 C 263.2626953125 88.1944208 259.4571161125 92 254.7626953125 92 C 250.0682745125 92 246.2626953125 88.1944208 246.2626953125 83.5 Z" stroke-miterlimit="10"/></g><g transform="translate(-22,-38) scale(1,1)"><g><path fill="none" stroke="none"/><text fill="#000000" stroke="none" font-family="Arial" font-size="13px" font-style="normal" font-weight="bold" text-decoration="none" x="241.75634765625" y="114.5">SQL</text><text fill="#000000" stroke="none" font-family="Arial" font-size="13px" font-style="normal" font-weight="bold" text-decoration="none" x="229.832275390625" y="127.5">interface</text></g></g><g transform="translate(-22,-38) scale(1,1)"><path fill="none" stroke="#000000" d="M 319 85 L 266.2626953125 84.50155452806122" stroke-miterlimit="10"/></g><g transform="translate(-22,-38) scale(1,1)"><path fill="none" stroke="#000000" d="M 154 128 L 243.2626953125 90.08205202792553" stroke-miterlimit="10"/></g></g></svg>