<svg version="1.1" xmlns="http://www.w3.org/2000/svg" xmlns:xlink="http://www.w3.org/1999/xlink" width="864.7890625" height="497"><defs/><g><g transform="translate(-38,-30) scale(1,1)"><rect fill="#C0C0C0" stroke="none" x="65" y="287" width="98.44091796875" height="44" opacity="0.2"/></g><g transform="translate(-38,-30) scale(1,1)"><rect fill="#cccccc" stroke="none" x="58" y="280" width="98.44091796875" height="44"/></g><g transform="translate(-38,-30) scale(1,1)"><path fill="none" stroke="#000000" d="M 58 280 L 156.44091796875 280 L 156.44091796875 324 L 58 324 L 58 280 Z Z" stroke-miterlimit="10"/></g><g transform="translate(-38,-30) scale(1,1)"><rect fill="#cccccc" stroke="none" x="48" y="287" width="20" height="10"/></g><g transform="translate(-38,-30) scale(1,1)"><path fill="none" stroke="#000000" d="M 48 287 L 68 287 L 68 297 L 48 297 L 48 287 Z Z" stroke-miterlimit="10"/></g><g transform="translate(-38,-30) scale(1,1)"><rect fill="#cccccc" stroke="none" x="48" y="307" width="20" height="10"/></g><g transform="translate(-38,-30) scale(1,1)"><path fill="none" stroke="#000000" d="M 48 307 L 68 307 L 68 317 L 48 317 L 48 307 Z Z" stroke-miterlimit="10"/></g><g transform="translate(-38,-30) scale(1,1)"><g><path fill="none" stroke="none"/><text fill="#000000" stroke="none" font-family="Arial" font-size="13px" font-style="normal" font-weight="bold" text-decoration="none" x="92.7109375" y="299.5">Router</text></g></g><g transform="translate(-38,-30) scale(1,1)"><rect fill="#C0C0C0" stroke="none" x="461" y="47" width="110" height="44" opacity="0.2"/></g><g transform="translate(-38,-30) scale(1,1)"><rect fill="#a3e0ff" stroke="none" x="454" y="40" width="110" height="44"/></g><g transform="translate(-38,-30) scale(1,1)"><path fill="none" stroke="#000000" d="M 454 40 L 564 40 L 564 84 L 454 84 L 454 40 Z Z" stroke-miterlimit="10"/></g><g transform="translate(-38,-30) scale(1,1)"><rect fill="#a3e0ff" stroke="none" x="444" y="47" width="20" height="10"/></g><g transform="translate(-38,-30) scale(1,1)"><path fill="none" stroke="#000000" d="M 444 47 L 464 47 L 464 57 L 444 57 L 444 47 Z Z" stroke-miterlimit="10"/></g><g transform="translate(-38,-30) scale(1,1)"><rect fill="#a3e0ff" stroke="none" x="444" y="67" width="20" height="10"/></g><g transform="translate(-38,-30) scale(1,1)"><path fill="none" stroke="#000000" d="M 444 67 L 464 67 L 464 77 L 444 77 L 444 67 Z Z" stroke-miterlimit="10"/></g><g transform="translate(-38,-30) scale(1,1)"><g><path fill="none" stroke="none"/><text fill="#000000" stroke="none" font-family="Arial" font-size="13px" font-style="normal" font-weight="bold" text-decoration="none" x="483.65185546875" y="59.5">Monitoring</text><text fill="#000000" stroke="none" font-family="Arial" font-size="13px" font-style="normal" font-weight="bold" text-decoration="none" x="487.266845703125" y="72.5">controller</text></g></g><g transform="translate(-38,-30) scale(1,1)"><rect fill="#C0C0C0" stroke="none" x="501" y="135" width="110" height="44" opacity="0.2"/></g><g transform="translate(-38,-30) scale(1,1)"><rect fill="#a3e0ff" stroke="none" x="494" y="128" width="110" height="44"/></g><g transform="translate(-38,-30) scale(1,1)"><path fill="none" stroke="#000000" d="M 494 128 L 604 128 L 604 172 L 494 172 L 494 128 Z Z" stroke-miterlimit="10"/></g><g transform="translate(-38,-30) scale(1,1)"><rect fill="#a3e0ff" stroke="none" x="484" y="135" width="20" height="10"/></g><g transform="translate(-38,-30) scale(1,1)"><path fill="none" stroke="#000000" d="M 484 135 L 504 135 L 504 145 L 484 145 L 484 135 Z Z" stroke-miterlimit="10"/></g><g transform="translate(-38,-30) scale(1,1)"><rect fill="#a3e0ff" stroke="none" x="484" y="155" width="20" height="10"/></g><g transform="translate(-38,-30) scale(1,1)"><path fill="none" stroke="#000000" d="M 484 155 L 504 155 L 504 165 L 484 165 L 484 155 Z Z" stroke-miterlimit="10"/></g><g transform="translate(-38,-30) scale(1,1)"><g><path fill="none" stroke="none"/><text fill="#000000" stroke="none" font-family="Arial" font-size="13px" font-style="normal" font-weight="bold" text-decoration="none" x="519.31640625" y="147.5">Reservation</text><text fill="#000000" stroke="none" font-family="Arial" font-size="13px" font-style="normal" font-weight="bold" text-decoration="none" x="527.266845703125" y="160.5">controller</text></g></g><g transform="translate(-38,-30) scale(1,1)"><rect fill="#C0C0C0" stroke="none" x="461" y="295" width="111.47265625" height="44" opacity="0.2"/></g><g transform="translate(-38,-30) scale(1,1)"><rect fill="#a6eca6" stroke="none" x="454" y="288" width="111.47265625" height="44"/></g><g transform="translate(-38,-30) scale(1,1)"><path fill="none" stroke="#000000" d="M 454 288 L 565.47265625 288 L 565.47265625 332 L 454 332 L 454 288 Z Z" stroke-miterlimit="10"/></g><g transform="translate(-38,-30) scale(1,1)"><rect fill="#a6eca6" stroke="none" x="444" y="295" width="20" height="10"/></g><g transform="translate(-38,-30) scale(1,1)"><path fill="none" stroke="#000000" d="M 444 295 L 464 295 L 464 305 L 444 305 L 444 295 Z Z" stroke-miterlimit="10"/></g><g transform="translate(-38,-30) scale(1,1)"><rect fill="#a6eca6" stroke="none" x="444" y="315" width="20" height="10"/></g><g transform="translate(-38,-30) scale(1,1)"><path fill="none" stroke="#000000" d="M 444 315 L 464 315 L 464 325 L 444 325 L 444 315 Z Z" stroke-miterlimit="10"/></g><g transform="translate(-38,-30) scale(1,1)"><g><path fill="none" stroke="none"/><text fill="#000000" stroke="none" font-family="Arial" font-size="13px" font-style="normal" font-weight="bold" text-decoration="none" x="501.0126953125" y="307.5">User</text><text fill="#000000" stroke="none" font-family="Arial" font-size="13px" font-style="normal" font-weight="bold" text-decoration="none" x="488.003173828125" y="320.5">controller</text></g></g><g transform="translate(-38,-30) scale(1,1)"><rect fill="#C0C0C0" stroke="none" x="409" y="367" width="110.736328125" height="44" opacity="0.2"/></g><g transform="translate(-38,-30) scale(1,1)"><rect fill="#a3e0ff" stroke="none" x="402" y="360" width="110.736328125" height="44"/></g><g transform="translate(-38,-30) scale(1,1)"><path fill="none" stroke="#000000" d="M 402 360 L 512.736328125 360 L 512.736328125 404 L 402 404 L 402 360 Z Z" stroke-miterlimit="10"/></g><g transform="translate(-38,-30) scale(1,1)"><rect fill="#a3e0ff" stroke="none" x="392" y="367" width="20" height="10"/></g><g transform="translate(-38,-30) scale(1,1)"><path fill="none" stroke="#000000" d="M 392 367 L 412 367 L 412 377 L 392 377 L 392 367 Z Z" stroke-miterlimit="10"/></g><g transform="translate(-38,-30) scale(1,1)"><rect fill="#a3e0ff" stroke="none" x="392" y="387" width="20" height="10"/></g><g transform="translate(-38,-30) scale(1,1)"><path fill="none" stroke="#000000" d="M 392 387 L 412 387 L 412 397 L 392 397 L 392 387 Z Z" stroke-miterlimit="10"/></g><g transform="translate(-38,-30) scale(1,1)"><g><path fill="none" stroke="none"/><text fill="#000000" stroke="none" font-family="Arial" font-size="13px" font-style="normal" font-weight="bold" text-decoration="none" x="420.4609375" y="379.5">Ride controller</text></g></g><g transform="translate(-38,-30) scale(1,1)"><rect fill="#C0C0C0" stroke="none" x="421" y="207" width="110" height="50" opacity="0.2"/></g><g transform="translate(-38,-30) scale(1,1)"><rect fill="#ffca2b" stroke="none" x="414" y="200" width="110" height="50"/></g><g transform="translate(-38,-30) scale(1,1)"><path fill="none" stroke="#000000" d="M 414 200 L 524 200 L 524 250 L 414 250 L 414 200 Z Z" stroke-miterlimit="10"/></g><g transform="translate(-38,-30) scale(1,1)"><rect fill="#ffca2b" stroke="none" x="404" y="207" width="20" height="10"/></g><g transform="translate(-38,-30) scale(1,1)"><path fill="none" stroke="#000000" d="M 404 207 L 424 207 L 424 217 L 404 217 L 404 207 Z Z" stroke-miterlimit="10"/></g><g transform="translate(-38,-30) scale(1,1)"><rect fill="#ffca2b" stroke="none" x="404" y="227" width="20" height="10"/></g><g transform="translate(-38,-30) scale(1,1)"><path fill="none" stroke="#000000" d="M 404 227 L 424 227 L 424 237 L 404 237 L 404 227 Z Z" stroke-miterlimit="10"/></g><g transform="translate(-38,-30) scale(1,1)"><g><path fill="none" stroke="none"/><text fill="#000000" stroke="none" font-family="Arial" font-size="13px" font-style="normal" font-weight="bold" text-decoration="none" x="435.33642578125" y="219.5">Geographical</text><text fill="#000000" stroke="none" font-family="Arial" font-size="13px" font-style="normal" font-weight="bold" text-decoration="none" x="457.740478515625" y="232.5">areas</text><text fill="#000000" stroke="none" font-family="Arial" font-size="13px" font-style="normal" font-weight="bold" text-decoration="none" x="447.266845703125" y="245.5">controller</text></g></g><g transform="translate(-38,-30) scale(1,1)"><rect fill="#C0C0C0" stroke="none" x="461" y="447" width="110" height="44" opacity="0.2"/></g><g transform="translate(-38,-30) scale(1,1)"><rect fill="#ffca2b" stroke="none" x="454" y="440" width="110" height="44"/></g><g transform="translate(-38,-30) scale(1,1)"><path fill="none" stroke="#000000" d="M 454 440 L 564 440 L 564 484 L 454 484 L 454 440 Z Z" stroke-miterlimit="10"/></g><g transform="translate(-38,-30) scale(1,1)"><rect fill="#ffca2b" stroke="none" x="444" y="447" width="20" height="10"/></g><g transform="translate(-38,-30) scale(1,1)"><path fill="none" stroke="#000000" d="M 444 447 L 464 447 L 464 457 L 444 457 L 444 447 Z Z" stroke-miterlimit="10"/></g><g transform="translate(-38,-30) scale(1,1)"><rect fill="#ffca2b" stroke="none" x="444" y="467" width="20" height="10"/></g><g transform="translate(-38,-30) scale(1,1)"><path fill="none" stroke="#000000" d="M 444 467 L 464 467 L 464 477 L 444 477 L 444 467 Z Z" stroke-miterlimit="10"/></g><g transform="translate(-38,-30) scale(1,1)"><g><path fill="none" stroke="none"/><text fill="#000000" stroke="none" font-family="Arial" font-size="13px" font-style="normal" font-weight="bold" text-decoration="none" x="482.563232421875" y="459.5">Safe areas</text><text fill="#000000" stroke="none" font-family="Arial" font-size="13px" font-style="normal" font-weight="bold" text-decoration="none" x="487.266845703125" y="472.5">controller</text></g></g><g transform="translate(-38,-30) scale(1,1)"><rect fill="#C0C0C0" stroke="none" x="797" y="351" width="102.7890625" height="44" opacity="0.2"/></g><g transform="translate(-38,-30) scale(1,1)"><rect fill="#a6eca6" stroke="none" x="790" y="344" width="102.7890625" height="44"/></g><g transform="translate(-38,-30) scale(1,1)"><path fill="none" stroke="#000000" d="M 790 344 L 892.7890625 344 L 892.7890625 388 L 790 388 L 790 344 Z Z" stroke-miterlimit="10"/></g><g transform="translate(-38,-30) scale(1,1)"><rect fill="#a6eca6" stroke="none" x="780" y="351" width="20" height="10"/></g><g transform="translate(-38,-30) scale(1,1)"><path fill="none" stroke="#000000" d="M 780 351 L 800 351 L 800 361 L 780 361 L 780 351 Z Z" stroke-miterlimit="10"/></g><g transform="translate(-38,-30) scale(1,1)"><rect fill="#a6eca6" stroke="none" x="780" y="371" width="20" height="10"/></g><g transform="translate(-38,-30) scale(1,1)"><path fill="none" stroke="#000000" d="M 780 371 L 800 371 L 800 381 L 780 381 L 780 371 Z Z" stroke-miterlimit="10"/></g><g transform="translate(-38,-30) scale(1,1)"><g><path fill="none" stroke="none"/><text fill="#000000" stroke="none" font-family="Arial" font-size="13px" font-style="normal" font-weight="bold" text-decoration="none" x="809.187744140625" y="363.5">Bill controller</text></g></g><g transform="translate(-38,-30) scale(1,1)"><rect fill="#C0C0C0" stroke="none" x="669" y="47" width="102" height="44" opacity="0.2"/></g><g transform="translate(-38,-30) scale(1,1)"><rect fill="#a3e0ff" stroke="none" x="662" y="40" width="102" height="44"/></g><g transform="translate(-38,-30) scale(1,1)"><path fill="none" stroke="#000000" d="M 662 40 L 764 40 L 764 84 L 662 84 L 662 40 Z Z" stroke-miterlimit="10"/></g><g transform="translate(-38,-30) scale(1,1)"><rect fill="#a3e0ff" stroke="none" x="652" y="47" width="20" height="10"/></g><g transform="translate(-38,-30) scale(1,1)"><path fill="none" stroke="#000000" d="M 652 47 L 672 47 L 672 57 L 652 57 L 652 47 Z Z" stroke-miterlimit="10"/></g><g transform="translate(-38,-30) scale(1,1)"><rect fill="#a3e0ff" stroke="none" x="652" y="67" width="20" height="10"/></g><g transform="translate(-38,-30) scale(1,1)"><path fill="none" stroke="#000000" d="M 652 67 L 672 67 L 672 77 L 652 77 L 652 67 Z Z" stroke-miterlimit="10"/></g><g transform="translate(-38,-30) scale(1,1)"><g><path fill="none" stroke="none"/><text fill="#000000" stroke="none" font-family="Arial" font-size="13px" font-style="normal" font-weight="bold" text-decoration="none" x="707.5263671875" y="59.5">Car</text><text fill="#000000" stroke="none" font-family="Arial" font-size="13px" font-style="normal" font-weight="bold" text-decoration="none" x="691.266845703125" y="72.5">controller</text></g></g><g transform="translate(-38,-30) scale(1,1)"><path fill="#C0C0C0" stroke="none" d="M 327.5 162.5 C 327.5 156.1487248 332.6487248 151 339 151 C 345.3512752 151 350.5 156.1487248 350.5 162.5 C 350.5 168.8512752 345.3512752 174 339 174 C 332.6487248 174 327.5 168.8512752 327.5 162.5 Z" opacity="0.2"/></g><g transform="translate(-38,-30) scale(1,1)"><path fill="none" stroke="#000000" d="M 339.8710129467878 163.38433987810006 A 11.5 11.5 0 0 1 324.1289870532122 146.61566012189994" stroke-miterlimit="10"/></g><g transform="translate(-38,-30) scale(1,1)"><path fill="#ffffff" stroke="none" d="M 323.5 155.5 C 323.5 150.8055792 327.3055792 147 332 147 C 336.6944208 147 340.5 150.8055792 340.5 155.5 C 340.5 160.1944208 336.6944208 164 332 164 C 327.3055792 164 323.5 160.1944208 323.5 155.5 Z"/></g><g transform="translate(-38,-30) scale(1,1)"><path fill="none" stroke="#000000" d="M 323.5 155.5 C 323.5 150.8055792 327.3055792 147 332 147 C 336.6944208 147 340.5 150.8055792 340.5 155.5 C 340.5 160.1944208 336.6944208 164 332 164 C 327.3055792 164 323.5 160.1944208 323.5 155.5 Z" stroke-miterlimit="10"/></g><g transform="translate(-38,-30) scale(1,1)"><g><path fill="none" stroke="none"/><text fill="#000000" stroke="none" font-family="Arial" font-size="13px" font-style="normal" font-weight="bold" text-decoration="none" x="297.31640625" y="186.5">Reservation</text><text fill="#000000" stroke="none" font-family="Arial" font-size="13px" font-style="normal" font-weight="bold" text-decoration="none" x="306.345947265625" y="199.5">manager</text></g></g><g transform="translate(-38,-30) scale(1,1)"><path fill="none" stroke="#000000" d="M 483 157 L 343.5 158.05102040816325" stroke-miterlimit="10"/></g><g transform="translate(-38,-30) scale(1,1)"><path fill="#C0C0C0" stroke="none" d="M 319.3544921875 322.5 C 319.3544921875 316.1487248 324.5032169875 311 330.8544921875 311 C 337.2057673875 311 342.3544921875 316.1487248 342.3544921875 322.5 C 342.3544921875 328.8512752 337.2057673875 334 330.8544921875 334 C 324.5032169875 334 319.3544921875 328.8512752 319.3544921875 322.5 Z" opacity="0.2"/></g><g transform="translate(-38,-30) scale(1,1)"><path fill="none" stroke="#000000" d="M 325.78915968791785 326.1566387516713 A 11.5 11.5 0 0 1 320.21084031208215 303.8433612483287" stroke-miterlimit="10"/></g><g transform="translate(-38,-30) scale(1,1)"><path fill="#ffffff" stroke="none" d="M 315.3544921875 315.5 C 315.3544921875 310.8055792 319.1600713875 307 323.8544921875 307 C 328.5489129875 307 332.3544921875 310.8055792 332.3544921875 315.5 C 332.3544921875 320.1944208 328.5489129875 324 323.8544921875 324 C 319.1600713875 324 315.3544921875 320.1944208 315.3544921875 315.5 Z"/></g><g transform="translate(-38,-30) scale(1,1)"><path fill="none" stroke="#000000" d="M 315.3544921875 315.5 C 315.3544921875 310.8055792 319.1600713875 307 323.8544921875 307 C 328.5489129875 307 332.3544921875 310.8055792 332.3544921875 315.5 C 332.3544921875 320.1944208 328.5489129875 324 323.8544921875 324 C 319.1600713875 324 315.3544921875 320.1944208 315.3544921875 315.5 Z" stroke-miterlimit="10"/></g><g transform="translate(-38,-30) scale(1,1)"><g><path fill="none" stroke="none"/><text fill="#000000" stroke="none" font-family="Arial" font-size="13px" font-style="normal" font-weight="bold" text-decoration="none" x="310.130859375" y="346.5">User</text><text fill="#000000" stroke="none" font-family="Arial" font-size="13px" font-style="normal" font-weight="bold" text-decoration="none" x="298.200439453125" y="359.5">manager</text></g></g><g transform="translate(-38,-30) scale(1,1)"><path fill="none" stroke="#000000" d="M 443 318 L 335.3544921875 317.965078125" stroke-miterlimit="10"/></g><g transform="translate(-38,-30) scale(1,1)"><path fill="#C0C0C0" stroke="none" d="M 305.2353515625 242.5 C 305.2353515625 236.1487248 310.3840763625 231 316.7353515625 231 C 323.0866267625 231 328.2353515625 236.1487248 328.2353515625 242.5 C 328.2353515625 248.8512752 323.0866267625 254 316.7353515625 254 C 310.3840763625 254 305.2353515625 248.8512752 305.2353515625 242.5 Z" opacity="0.2"/></g><g transform="translate(-38,-30) scale(1,1)"><path fill="none" stroke="#000000" d="M 313.67059235961466 245.50883280913294 A 11.5 11.5 0 0 1 304.32940764038534 224.49116719086706" stroke-miterlimit="10"/></g><g transform="translate(-38,-30) scale(1,1)"><path fill="#ffffff" stroke="none" d="M 301.2353515625 235.5 C 301.2353515625 230.8055792 305.0409307625 227 309.7353515625 227 C 314.4297723625 227 318.2353515625 230.8055792 318.2353515625 235.5 C 318.2353515625 240.1944208 314.4297723625 244 309.7353515625 244 C 305.0409307625 244 301.2353515625 240.1944208 301.2353515625 235.5 Z"/></g><g transform="translate(-38,-30) scale(1,1)"><path fill="none" stroke="#000000" d="M 301.2353515625 235.5 C 301.2353515625 230.8055792 305.0409307625 227 309.7353515625 227 C 314.4297723625 227 318.2353515625 230.8055792 318.2353515625 235.5 C 318.2353515625 240.1944208 314.4297723625 244 309.7353515625 244 C 305.0409307625 244 301.2353515625 240.1944208 301.2353515625 235.5 Z" stroke-miterlimit="10"/></g><g transform="translate(-38,-30) scale(1,1)"><g><path fill="none" stroke="none"/><text fill="#000000" stroke="none" font-family="Arial" font-size="13px" font-style="normal" font-weight="bold" text-decoration="none" x="253.00634765625" y="266.5">Geographical areas</text><text fill="#000000" stroke="none" font-family="Arial" font-size="13px" font-style="normal" font-weight="bold" text-decoration="none" x="284.081298828125" y="279.5">manager</text></g></g><g transform="translate(-38,-30) scale(1,1)"><path fill="none" stroke="#000000" d="M 403 236 L 321.2353515625 235.26890882554946" stroke-miterlimit="10"/></g><g transform="translate(-38,-30) scale(1,1)"><path fill="#C0C0C0" stroke="none" d="M 321.42626953125 474.5 C 321.42626953125 468.1487248 326.57499433125 463 332.92626953125 463 C 339.27754473125 463 344.42626953125 468.1487248 344.42626953125 474.5 C 344.42626953125 480.8512752 339.27754473125 486 332.92626953125 486 C 326.57499433125 486 321.42626953125 480.8512752 321.42626953125 474.5 Z" opacity="0.2"/></g><g transform="translate(-38,-30) scale(1,1)"><path fill="none" stroke="#000000" d="M 321.5369892687234 477.9662006490426 A 11.5 11.5 0 0 1 328.4630107312766 456.0337993509574" stroke-miterlimit="10"/></g><g transform="translate(-38,-30) scale(1,1)"><path fill="#ffffff" stroke="none" d="M 317.42626953125 467.5 C 317.42626953125 462.8055792 321.23184873125 459 325.92626953125 459 C 330.62069033125 459 334.42626953125 462.8055792 334.42626953125 467.5 C 334.42626953125 472.1944208 330.62069033125 476 325.92626953125 476 C 321.23184873125 476 317.42626953125 472.1944208 317.42626953125 467.5 Z"/></g><g transform="translate(-38,-30) scale(1,1)"><path fill="none" stroke="#000000" d="M 317.42626953125 467.5 C 317.42626953125 462.8055792 321.23184873125 459 325.92626953125 459 C 330.62069033125 459 334.42626953125 462.8055792 334.42626953125 467.5 C 334.42626953125 472.1944208 330.62069033125 476 325.92626953125 476 C 321.23184873125 476 317.42626953125 472.1944208 317.42626953125 467.5 Z" stroke-miterlimit="10"/></g><g transform="translate(-38,-30) scale(1,1)"><g><path fill="none" stroke="none"/><text fill="#000000" stroke="none" font-family="Arial" font-size="13px" font-style="normal" font-weight="bold" text-decoration="none" x="294.489501953125" y="498.5">Safe areas</text><text fill="#000000" stroke="none" font-family="Arial" font-size="13px" font-style="normal" font-weight="bold" text-decoration="none" x="300.272216796875" y="511.5">manager</text></g></g><g transform="translate(-38,-30) scale(1,1)"><path fill="none" stroke="#000000" d="M 443 470 L 337.42626953125 469.2781494140625" stroke-miterlimit="10"/></g><g transform="translate(-38,-30) scale(1,1)"><path fill="none" stroke="#000000" d="M 143 279 L 320.5 165.79591836734693" stroke-miterlimit="10"/></g><g transform="translate(-38,-30) scale(1,1)"><path fill="none" stroke="#000000" d="M 157 310 L 312.3544921875 317.661376953125" stroke-miterlimit="10"/></g><g transform="translate(-38,-30) scale(1,1)"><path fill="none" stroke="#000000" d="M 157 289 L 298.2353515625 239.78428819444446" stroke-miterlimit="10"/></g><g transform="translate(-38,-30) scale(1,1)"><path fill="none" stroke="#000000" d="M 130 325 L 314.42626953125 463.66092722039474" stroke-miterlimit="10"/></g><g transform="translate(-38,-30) scale(1,1)"><path fill="#C0C0C0" stroke="none" d="M 699.0126953125 378.5 C 699.0126953125 372.1487248 704.1614201125 367 710.5126953125 367 C 716.8639705125 367 722.0126953125 372.1487248 722.0126953125 378.5 C 722.0126953125 384.8512752 716.8639705125 390 710.5126953125 390 C 704.1614201125 390 699.0126953125 384.8512752 699.0126953125 378.5 Z" opacity="0.2"/></g><g transform="translate(-38,-30) scale(1,1)"><path fill="none" stroke="#000000" d="M 706.2584806217002 382.0287036426773 A 11.5 11.5 0 0 1 699.7415193782998 359.9712963573227" stroke-miterlimit="10"/></g><g transform="translate(-38,-30) scale(1,1)"><path fill="none" stroke="#000000" d="M 696.3681432276154 380.39513042754476 A 11.5 11.5 0 0 1 709.6318567723846 361.60486957245524" stroke-miterlimit="10"/></g><g transform="translate(-38,-30) scale(1,1)"><path fill="none" stroke="#000000" d="M 702.2177252864202 382.4733624658377 A 11.5 11.5 0 1 1 703.7822747135799 359.5266375341623" stroke-miterlimit="10"/></g><g transform="translate(-38,-30) scale(1,1)"><path fill="#ffffff" stroke="none" d="M 695.0126953125 371.5 C 695.0126953125 366.8055792 698.8182745125 363 703.5126953125 363 C 708.2071161125 363 712.0126953125 366.8055792 712.0126953125 371.5 C 712.0126953125 376.1944208 708.2071161125 380 703.5126953125 380 C 698.8182745125 380 695.0126953125 376.1944208 695.0126953125 371.5 Z"/></g><g transform="translate(-38,-30) scale(1,1)"><path fill="none" stroke="#000000" d="M 695.0126953125 371.5 C 695.0126953125 366.8055792 698.8182745125 363 703.5126953125 363 C 708.2071161125 363 712.0126953125 366.8055792 712.0126953125 371.5 C 712.0126953125 376.1944208 708.2071161125 380 703.5126953125 380 C 698.8182745125 380 695.0126953125 376.1944208 695.0126953125 371.5 Z" stroke-miterlimit="10"/></g><g transform="translate(-38,-30) scale(1,1)"><g><path fill="none" stroke="none"/><text fill="#000000" stroke="none" font-family="Arial" font-size="13px" font-style="normal" font-weight="bold" text-decoration="none" x="667.385009765625" y="402.5">Bill manager</text></g></g><g transform="translate(-38,-30) scale(1,1)"><path fill="none" stroke="#000000" d="M 779 374 L 715.0126953125 372.8686414930556" stroke-miterlimit="10"/></g><g transform="translate(-38,-30) scale(1,1)"><path fill="none" stroke="#000000" d="M 514 382 L 692.0126953125 374.24624911221593" stroke-miterlimit="10"/></g><g transform="translate(-38,-30) scale(1,1)"><path fill="none" stroke="#000000" d="M 560 173 L 692.0126953125 363.24425551470586" stroke-miterlimit="10"/></g><g transform="translate(-38,-30) scale(1,1)"><path fill="none" stroke="#000000" d="M 566 333 L 692.0126953125 370.2508655894886" stroke-miterlimit="10"/></g><g transform="translate(-38,-30) scale(1,1)"><path fill="none" stroke="#000000" d="M 508 172 L 508 200" stroke-miterlimit="10" stroke-dasharray="3"/></g><g transform="translate(-38,-30) scale(1,1)"><path fill="none" stroke="#000000" d="M 503.790482243984 189.83732514237585 L 508 200 L 512.209517756016 189.83732514237585" stroke-miterlimit="10"/></g><g transform="translate(-38,-30) scale(1,1)"><path fill="none" stroke="#000000" d="M 476 404 L 476 440" stroke-miterlimit="10" stroke-dasharray="3"/></g><g transform="translate(-38,-30) scale(1,1)"><path fill="none" stroke="#000000" d="M 471.790482243984 429.83732514237585 L 476 440 L 480.209517756016 429.83732514237585" stroke-miterlimit="10"/></g><g transform="translate(-38,-30) scale(1,1)"><path fill="none" stroke="#000000" d="M 540 172 L 540 288" stroke-miterlimit="10" stroke-dasharray="3"/></g><g transform="translate(-38,-30) scale(1,1)"><path fill="none" stroke="#000000" d="M 535.790482243984 277.83732514237585 L 540 288 L 544.209517756016 277.83732514237585" stroke-miterlimit="10"/></g><g transform="translate(-38,-30) scale(1,1)"><path fill="none" stroke="#000000" d="M 476 250 L 476 288" stroke-miterlimit="10" stroke-dasharray="3"/></g><g transform="translate(-38,-30) scale(1,1)"><path fill="none" stroke="#000000" d="M 471.790482243984 277.83732514237585 L 476 288 L 480.209517756016 277.83732514237585" stroke-miterlimit="10"/></g><g transform="translate(-38,-30) scale(1,1)"><path fill="none" stroke="#000000" d="M 532 440 L 532 332" stroke-miterlimit="10" stroke-dasharray="3"/></g><g transform="translate(-38,-30) scale(1,1)"><path fill="none" stroke="#000000" d="M 536.209517756016 342.16267485762415 L 532 332 L 527.790482243984 342.16267485762415" stroke-miterlimit="10"/></g><g transform="translate(-38,-30) scale(1,1)"><path fill="none" stroke="#000000" d="M 476 360 L 476 332" stroke-miterlimit="10" stroke-dasharray="3"/></g><g transform="translate(-38,-30) scale(1,1)"><path fill="none" stroke="#000000" d="M 480.209517756016 342.16267485762415 L 476 332 L 471.790482243984 342.16267485762415" stroke-miterlimit="10"/></g><g transform="translate(-38,-30) scale(1,1)"><path fill="none" stroke="#000000" d="M 652 56 L 564 56" stroke-miterlimit="10" stroke-dasharray="3"/></g><g transform="translate(-38,-30) scale(1,1)"><path fill="none" stroke="#000000" d="M 574.1626748576241 51.790482243984016 L 564 56 L 574.1626748576241 60.209517756015984" stroke-miterlimit="10"/></g><g transform="translate(-38,-30) scale(1,1)"><path fill="none" stroke="#000000" d="M 604 152 L 672 152 L 672 84" stroke-miterlimit="10" stroke-dasharray="3"/></g><g transform="translate(-38,-30) scale(1,1)"><path fill="none" stroke="#000000" d="M 676.209517756016 94.16267485762415 L 672 84 L 667.790482243984 94.16267485762415" stroke-miterlimit="10"/></g><g transform="translate(-38,-30) scale(1,1)"><path fill="none" stroke="#000000" d="M 428 360 L 428 340 L 380 340 L 380 104 L 508 104 L 508 84" stroke-miterlimit="10" stroke-dasharray="3"/></g><g transform="translate(-38,-30) scale(1,1)"><path fill="none" stroke="#000000" d="M 512.209517756016 94.16267485762415 L 508 84 L 503.790482243984 94.16267485762415" stroke-miterlimit="10"/></g><g transform="translate(-38,-30) scale(1,1)"><path fill="none" stroke="#000000" d="M 544 128 L 544 112 L 388 112 L 388 296 L 436 296 L 436 360" stroke-miterlimit="10" stroke-dasharray="3"/></g><g transform="translate(-38,-30) scale(1,1)"><path fill="none" stroke="#000000" d="M 431.790482243984 349.83732514237585 L 436 360 L 440.209517756016 349.83732514237585" stroke-miterlimit="10"/></g><g transform="translate(-38,-30) scale(1,1)"><path fill="none" stroke="#000000" d="M 696 84 L 696 225 L 524 225" stroke-miterlimit="10" stroke-dasharray="3"/></g><g transform="translate(-38,-30) scale(1,1)"><path fill="none" stroke="#000000" d="M 534.1626748576241 220.790482243984 L 524 225 L 534.1626748576241 229.209517756016" stroke-miterlimit="10"/></g><g transform="translate(-38,-30) scale(1,1)"><path fill="none" stroke="#000000" d="M 728 84 L 728 462 L 564 462" stroke-miterlimit="10" stroke-dasharray="3"/></g><g transform="translate(-38,-30) scale(1,1)"><path fill="none" stroke="#000000" d="M 574.1626748576241 457.790482243984 L 564 462 L 574.1626748576241 466.209517756016" stroke-miterlimit="10"/></g></g></svg>