<svg version="1.1" xmlns="http://www.w3.org/2000/svg" xmlns:xlink="http://www.w3.org/1999/xlink" width="868" height="416"><defs/><g><g transform="translate(-70,-14) scale(1,1)"><rect fill="#C0C0C0" stroke="none" x="369" y="167" width="98.44091796875" height="44" opacity="0.2"/></g><g transform="translate(-70,-14) scale(1,1)"><rect fill="#ffffff" stroke="none" x="362" y="160" width="98.44091796875" height="44"/></g><g transform="translate(-70,-14) scale(1,1)"><path fill="none" stroke="#000000" d="M 362 160 L 460.44091796875 160 L 460.44091796875 204 L 362 204 L 362 160 Z Z" stroke-miterlimit="10"/></g><g transform="translate(-70,-14) scale(1,1)"><rect fill="#ffffff" stroke="none" x="352" y="167" width="20" height="10"/></g><g transform="translate(-70,-14) scale(1,1)"><path fill="none" stroke="#000000" d="M 352 167 L 372 167 L 372 177 L 352 177 L 352 167 Z Z" stroke-miterlimit="10"/></g><g transform="translate(-70,-14) scale(1,1)"><rect fill="#ffffff" stroke="none" x="352" y="187" width="20" height="10"/></g><g transform="translate(-70,-14) scale(1,1)"><path fill="none" stroke="#000000" d="M 352 187 L 372 187 L 372 197 L 352 197 L 352 187 Z Z" stroke-miterlimit="10"/></g><g transform="translate(-70,-14) scale(1,1)"><g><path fill="none" stroke="none"/><text fill="#000000" stroke="none" font-family="Arial" font-size="13px" font-style="normal" font-weight="bold" text-decoration="none" x="397.075927734375" y="179.5">Server</text></g></g><g transform="translate(-70,-14) scale(1,1)"><rect fill="#C0C0C0" stroke="none" x="113" y="87" width="87.6181640625" height="44" opacity="0.2"/></g><g transform="translate(-70,-14) scale(1,1)"><rect fill="#ffffff" stroke="none" x="106" y="80" width="87.6181640625" height="44"/></g><g transform="translate(-70,-14) scale(1,1)"><path fill="none" stroke="#000000" d="M 106 80 L 193.6181640625 80 L 193.6181640625 124 L 106 124 L 106 80 Z Z" stroke-miterlimit="10"/></g><g transform="translate(-70,-14) scale(1,1)"><rect fill="#ffffff" stroke="none" x="96" y="87" width="20" height="10"/></g><g transform="translate(-70,-14) scale(1,1)"><path fill="none" stroke="#000000" d="M 96 87 L 116 87 L 116 97 L 96 97 L 96 87 Z Z" stroke-miterlimit="10"/></g><g transform="translate(-70,-14) scale(1,1)"><rect fill="#ffffff" stroke="none" x="96" y="107" width="20" height="10"/></g><g transform="translate(-70,-14) scale(1,1)"><path fill="none" stroke="#000000" d="M 96 107 L 116 107 L 116 117 L 96 117 L 96 107 Z Z" stroke-miterlimit="10"/></g><g transform="translate(-70,-14) scale(1,1)"><g><path fill="none" stroke="none"/><text fill="#000000" stroke="none" font-family="Arial" font-size="13px" font-style="normal" font-weight="bold" text-decoration="none" x="141.08544921875" y="99.5">User</text><text fill="#000000" stroke="none" font-family="Arial" font-size="13px" font-style="normal" font-weight="bold" text-decoration="none" x="123.73095703125" y="112.5">application</text></g></g><g transform="translate(-70,-14) scale(1,1)"><rect fill="#C0C0C0" stroke="none" x="97" y="279" width="102" height="44" opacity="0.2"/></g><g transform="translate(-70,-14) scale(1,1)"><rect fill="#ffffff" stroke="none" x="90" y="272" width="102" height="44"/></g><g transform="translate(-70,-14) scale(1,1)"><path fill="none" stroke="#000000" d="M 90 272 L 192 272 L 192 316 L 90 316 L 90 272 Z Z" stroke-miterlimit="10"/></g><g transform="translate(-70,-14) scale(1,1)"><rect fill="#ffffff" stroke="none" x="80" y="279" width="20" height="10"/></g><g transform="translate(-70,-14) scale(1,1)"><path fill="none" stroke="#000000" d="M 80 279 L 100 279 L 100 289 L 80 289 L 80 279 Z Z" stroke-miterlimit="10"/></g><g transform="translate(-70,-14) scale(1,1)"><rect fill="#ffffff" stroke="none" x="80" y="299" width="20" height="10"/></g><g transform="translate(-70,-14) scale(1,1)"><path fill="none" stroke="#000000" d="M 80 299 L 100 299 L 100 309 L 80 309 L 80 299 Z Z" stroke-miterlimit="10"/></g><g transform="translate(-70,-14) scale(1,1)"><g><path fill="none" stroke="none"/><text fill="#000000" stroke="none" font-family="Arial" font-size="13px" font-style="normal" font-weight="bold" text-decoration="none" x="117.095947265625" y="291.5">Employee</text><text fill="#000000" stroke="none" font-family="Arial" font-size="13px" font-style="normal" font-weight="bold" text-decoration="none" x="114.921875" y="304.5">application</text></g></g><g transform="translate(-70,-14) scale(1,1)"><path fill="none" stroke="#000000" d="M 273.45751410626247 142.234350200057 A 11.5 11.5 0 0 1 268.54248589373753 119.76564979994299" stroke-miterlimit="10"/></g><g transform="translate(-70,-14) scale(1,1)"><path fill="#ffffff" stroke="none" d="M 263.094970703125 131.5 C 263.094970703125 126.8055792 266.900549903125 123 271.594970703125 123 C 276.289391503125 123 280.094970703125 126.8055792 280.094970703125 131.5 C 280.094970703125 136.1944208 276.289391503125 140 271.594970703125 140 C 266.900549903125 140 263.094970703125 136.1944208 263.094970703125 131.5 Z"/></g><g transform="translate(-70,-14) scale(1,1)"><path fill="none" stroke="#000000" d="M 263.094970703125 131.5 C 263.094970703125 126.8055792 266.900549903125 123 271.594970703125 123 C 276.289391503125 123 280.094970703125 126.8055792 280.094970703125 131.5 C 280.094970703125 136.1944208 276.289391503125 140 271.594970703125 140 C 266.900549903125 140 263.094970703125 136.1944208 263.094970703125 131.5 Z" stroke-miterlimit="10"/></g><g transform="translate(-70,-14) scale(1,1)"><g><path fill="none" stroke="none"/><text fill="#000000" stroke="none" font-family="Arial" font-size="13px" font-style="normal" font-weight="bold" text-decoration="none" x="257.871337890625" y="162.5">User</text><text fill="#000000" stroke="none" font-family="Arial" font-size="13px" font-style="normal" font-weight="bold" text-decoration="none" x="246.66455078125" y="175.5">interface</text></g></g><g transform="translate(-70,-14) scale(1,1)"><path fill="none" stroke="#000000" d="M 351 169 L 283.094970703125 140.89588512073863" stroke-miterlimit="10"/></g><g transform="translate(-70,-14) scale(1,1)"><path fill="none" stroke="#000000" d="M 195 121 L 260.094970703125 133.3854751586914" stroke-miterlimit="10"/></g><g transform="translate(-70,-14) scale(1,1)"><path fill="#C0C0C0" stroke="none" d="M 267.607666015625 242.5 C 267.607666015625 236.1487248 272.756390815625 231 279.107666015625 231 C 285.458941215625 231 290.607666015625 236.1487248 290.607666015625 242.5 C 290.607666015625 248.8512752 285.458941215625 254 279.107666015625 254 C 272.756390815625 254 267.607666015625 248.8512752 267.607666015625 242.5 Z" opacity="0.2"/></g><g transform="translate(-70,-14) scale(1,1)"><path fill="none" stroke="#000000" d="M 277.8040107543083 244.92791313236944 A 11.5 11.5 0 0 1 266.1959892456917 225.07208686763056" stroke-miterlimit="10"/></g><g transform="translate(-70,-14) scale(1,1)"><path fill="#ffffff" stroke="none" d="M 263.607666015625 235.5 C 263.607666015625 230.8055792 267.413245215625 227 272.107666015625 227 C 276.802086815625 227 280.607666015625 230.8055792 280.607666015625 235.5 C 280.607666015625 240.1944208 276.802086815625 244 272.107666015625 244 C 267.413245215625 244 263.607666015625 240.1944208 263.607666015625 235.5 Z"/></g><g transform="translate(-70,-14) scale(1,1)"><path fill="none" stroke="#000000" d="M 263.607666015625 235.5 C 263.607666015625 230.8055792 267.413245215625 227 272.107666015625 227 C 276.802086815625 227 280.607666015625 230.8055792 280.607666015625 235.5 C 280.607666015625 240.1944208 276.802086815625 244 272.107666015625 244 C 267.413245215625 244 263.607666015625 240.1944208 263.607666015625 235.5 Z" stroke-miterlimit="10"/></g><g transform="translate(-70,-14) scale(1,1)"><g><path fill="none" stroke="none"/><text fill="#000000" stroke="none" font-family="Arial" font-size="13px" font-style="normal" font-weight="bold" text-decoration="none" x="243.20361328125" y="266.5">Employee</text><text fill="#000000" stroke="none" font-family="Arial" font-size="13px" font-style="normal" font-weight="bold" text-decoration="none" x="247.17724609375" y="279.5">interface</text></g></g><g transform="translate(-70,-14) scale(1,1)"><path fill="none" stroke="#000000" d="M 363 205 L 283.607666015625 232.59841392780172" stroke-miterlimit="10"/></g><g transform="translate(-70,-14) scale(1,1)"><path fill="none" stroke="#000000" d="M 193 277 L 260.607666015625 241.66013371394232" stroke-miterlimit="10"/></g><g transform="translate(-70,-14) scale(1,1)"><path fill="#C0C0C0" stroke="none" d="M 403.483154296875 114.5 C 403.483154296875 108.1487248 408.631879096875 103 414.983154296875 103 C 421.334429496875 103 426.483154296875 108.1487248 426.483154296875 114.5 C 426.483154296875 120.8512752 421.334429496875 126 414.983154296875 126 C 408.631879096875 126 403.483154296875 120.8512752 403.483154296875 114.5 Z" opacity="0.2"/></g><g transform="translate(-70,-14) scale(1,1)"><path fill="none" stroke="#000000" d="M 395.5 107 A 11.5 11.5 0 0 1 418.5 107" stroke-miterlimit="10"/></g><g transform="translate(-70,-14) scale(1,1)"><path fill="#ffffff" stroke="none" d="M 399.483154296875 107.5 C 399.483154296875 102.8055792 403.288733496875 99 407.983154296875 99 C 412.677575096875 99 416.483154296875 102.8055792 416.483154296875 107.5 C 416.483154296875 112.1944208 412.677575096875 116 407.983154296875 116 C 403.288733496875 116 399.483154296875 112.1944208 399.483154296875 107.5 Z"/></g><g transform="translate(-70,-14) scale(1,1)"><path fill="none" stroke="#000000" d="M 399.483154296875 107.5 C 399.483154296875 102.8055792 403.288733496875 99 407.983154296875 99 C 412.677575096875 99 416.483154296875 102.8055792 416.483154296875 107.5 C 416.483154296875 112.1944208 412.677575096875 116 407.983154296875 116 C 403.288733496875 116 399.483154296875 112.1944208 399.483154296875 107.5 Z" stroke-miterlimit="10"/></g><g transform="translate(-70,-14) scale(1,1)"><g><path fill="none" stroke="none"/><text fill="#000000" stroke="none" font-family="Arial" font-size="13px" font-style="normal" font-weight="bold" text-decoration="none" x="365.35546875" y="138.5">Car monitoring</text><text fill="#000000" stroke="none" font-family="Arial" font-size="13px" font-style="normal" font-weight="bold" text-decoration="none" x="383.052734375" y="151.5">interface</text></g></g><g transform="translate(-70,-14) scale(1,1)"><path fill="none" stroke="#000000" d="M 406 159 L 406.7647058823529 119" stroke-miterlimit="10"/></g><g transform="translate(-70,-14) scale(1,1)"><rect fill="#C0C0C0" stroke="none" x="369" y="31" width="102" height="50" opacity="0.2"/></g><g transform="translate(-70,-14) scale(1,1)"><rect fill="#ffffff" stroke="none" x="362" y="24" width="102" height="50"/></g><g transform="translate(-70,-14) scale(1,1)"><path fill="none" stroke="#000000" d="M 362 24 L 464 24 L 464 74 L 362 74 L 362 24 Z Z" stroke-miterlimit="10"/></g><g transform="translate(-70,-14) scale(1,1)"><rect fill="#ffffff" stroke="none" x="352" y="31" width="20" height="10"/></g><g transform="translate(-70,-14) scale(1,1)"><path fill="none" stroke="#000000" d="M 352 31 L 372 31 L 372 41 L 352 41 L 352 31 Z Z" stroke-miterlimit="10"/></g><g transform="translate(-70,-14) scale(1,1)"><rect fill="#ffffff" stroke="none" x="352" y="51" width="20" height="10"/></g><g transform="translate(-70,-14) scale(1,1)"><path fill="none" stroke="#000000" d="M 352 51 L 372 51 L 372 61 L 352 61 L 352 51 Z Z" stroke-miterlimit="10"/></g><g transform="translate(-70,-14) scale(1,1)"><g><path fill="none" stroke="none"/><text fill="#000000" stroke="none" font-family="Arial" font-size="13px" font-style="normal" font-weight="bold" text-decoration="none" x="407.5263671875" y="43.5">Car</text><text fill="#000000" stroke="none" font-family="Arial" font-size="13px" font-style="normal" font-weight="bold" text-decoration="none" x="387.65185546875" y="56.5">monitoring</text><text fill="#000000" stroke="none" font-family="Arial" font-size="13px" font-style="normal" font-weight="bold" text-decoration="none" x="397.41455078125" y="69.5">system</text></g></g><g transform="translate(-70,-14) scale(1,1)"><path fill="none" stroke="#000000" d="M 408 75 L 407 96" stroke-miterlimit="10"/></g><g transform="translate(-70,-14) scale(1,1)"><rect fill="#C0C0C0" stroke="none" x="641" y="31" width="98.44091796875" height="44" opacity="0.2"/></g><g transform="translate(-70,-14) scale(1,1)"><rect fill="#ffffff" stroke="none" x="634" y="24" width="98.44091796875" height="44"/></g><g transform="translate(-70,-14) scale(1,1)"><path fill="none" stroke="#000000" d="M 634 24 L 732.44091796875 24 L 732.44091796875 68 L 634 68 L 634 24 Z Z" stroke-miterlimit="10"/></g><g transform="translate(-70,-14) scale(1,1)"><rect fill="#ffffff" stroke="none" x="624" y="31" width="20" height="10"/></g><g transform="translate(-70,-14) scale(1,1)"><path fill="none" stroke="#000000" d="M 624 31 L 644 31 L 644 41 L 624 41 L 624 31 Z Z" stroke-miterlimit="10"/></g><g transform="translate(-70,-14) scale(1,1)"><rect fill="#ffffff" stroke="none" x="624" y="51" width="20" height="10"/></g><g transform="translate(-70,-14) scale(1,1)"><path fill="none" stroke="#000000" d="M 624 51 L 644 51 L 644 61 L 624 61 L 624 51 Z Z" stroke-miterlimit="10"/></g><g transform="translate(-70,-14) scale(1,1)"><g><path fill="none" stroke="none"/><text fill="#000000" stroke="none" font-family="Arial" font-size="13px" font-style="normal" font-weight="bold" text-decoration="none" x="669.44091796875" y="43.5">DBMS</text></g></g><g transform="translate(-70,-14) scale(1,1)"><path fill="#C0C0C0" stroke="none" d="M 546.2626953125 130.5 C 546.2626953125 124.1487248 551.4114201125 119 557.7626953125 119 C 564.1139705125 119 569.2626953125 124.1487248 569.2626953125 130.5 C 569.2626953125 136.8512752 564.1139705125 142 557.7626953125 142 C 551.4114201125 142 546.2626953125 136.8512752 546.2626953125 130.5 Z" opacity="0.2"/></g><g transform="translate(-70,-14) scale(1,1)"><path fill="none" stroke="#000000" d="M 556.4720962364432 132.50589134727602 A 11.5 11.5 0 1 1 543.5279037635568 113.49410865272398" stroke-miterlimit="10"/></g><g transform="translate(-70,-14) scale(1,1)"><path fill="#ffffff" stroke="none" d="M 542.2626953125 123.5 C 542.2626953125 118.8055792 546.0682745125 115 550.7626953125 115 C 555.4571161125 115 559.2626953125 118.8055792 559.2626953125 123.5 C 559.2626953125 128.1944208 555.4571161125 132 550.7626953125 132 C 546.0682745125 132 542.2626953125 128.1944208 542.2626953125 123.5 Z"/></g><g transform="translate(-70,-14) scale(1,1)"><path fill="none" stroke="#000000" d="M 542.2626953125 123.5 C 542.2626953125 118.8055792 546.0682745125 115 550.7626953125 115 C 555.4571161125 115 559.2626953125 118.8055792 559.2626953125 123.5 C 559.2626953125 128.1944208 555.4571161125 132 550.7626953125 132 C 546.0682745125 132 542.2626953125 128.1944208 542.2626953125 123.5 Z" stroke-miterlimit="10"/></g><g transform="translate(-70,-14) scale(1,1)"><g><path fill="none" stroke="none"/><text fill="#000000" stroke="none" font-family="Arial" font-size="13px" font-style="normal" font-weight="bold" text-decoration="none" x="537.75634765625" y="154.5">SQL</text><text fill="#000000" stroke="none" font-family="Arial" font-size="13px" font-style="normal" font-weight="bold" text-decoration="none" x="525.832275390625" y="167.5">interface</text></g></g><g transform="translate(-70,-14) scale(1,1)"><path fill="none" stroke="#000000" d="M 647 69 L 562.2626953125 119.41091844512195" stroke-miterlimit="10"/></g><g transform="translate(-70,-14) scale(1,1)"><path fill="none" stroke="#000000" d="M 461 167 L 539.2626953125 130.31050531914894" stroke-miterlimit="10"/></g><g transform="translate(-70,-14) scale(1,1)"><rect fill="#C0C0C0" stroke="none" x="713" y="319" width="142" height="44" opacity="0.2"/></g><g transform="translate(-70,-14) scale(1,1)"><rect fill="#fafa83" stroke="none" x="706" y="312" width="142" height="44"/></g><g transform="translate(-70,-14) scale(1,1)"><path fill="none" stroke="#000000" d="M 706 312 L 848 312 L 848 356 L 706 356 L 706 312 Z Z" stroke-miterlimit="10"/></g><g transform="translate(-70,-14) scale(1,1)"><rect fill="#fafa83" stroke="none" x="696" y="319" width="20" height="10"/></g><g transform="translate(-70,-14) scale(1,1)"><path fill="none" stroke="#000000" d="M 696 319 L 716 319 L 716 329 L 696 329 L 696 319 Z Z" stroke-miterlimit="10"/></g><g transform="translate(-70,-14) scale(1,1)"><rect fill="#fafa83" stroke="none" x="696" y="339" width="20" height="10"/></g><g transform="translate(-70,-14) scale(1,1)"><path fill="none" stroke="#000000" d="M 696 339 L 716 339 L 716 349 L 696 349 L 696 339 Z Z" stroke-miterlimit="10"/></g><g transform="translate(-70,-14) scale(1,1)"><g><path fill="none" stroke="none"/><text fill="#000000" stroke="none" font-family="Arial" font-size="13px" font-style="normal" font-weight="bold" text-decoration="none" x="726.372314453125" y="331.5">External system for</text><text fill="#000000" stroke="none" font-family="Arial" font-size="13px" font-style="normal" font-weight="bold" text-decoration="none" x="727.080078125" y="344.5">address translation</text></g></g><g transform="translate(-70,-14) scale(1,1)"><path fill="#C0C0C0" stroke="none" d="M 553.943115234375 298.5 C 553.943115234375 292.1487248 559.091840034375 287 565.443115234375 287 C 571.794390434375 287 576.943115234375 292.1487248 576.943115234375 298.5 C 576.943115234375 304.8512752 571.794390434375 310 565.443115234375 310 C 559.091840034375 310 553.943115234375 304.8512752 553.943115234375 298.5 Z" opacity="0.2"/></g><g transform="translate(-70,-14) scale(1,1)"><path fill="none" stroke="#000000" d="M 554.4521959725695 301.93906241791075 A 11.5 11.5 0 0 1 561.5478040274305 280.06093758208925" stroke-miterlimit="10"/></g><g transform="translate(-70,-14) scale(1,1)"><path fill="#ffffff" stroke="none" d="M 549.943115234375 291.5 C 549.943115234375 286.8055792 553.748694434375 283 558.443115234375 283 C 563.137536034375 283 566.943115234375 286.8055792 566.943115234375 291.5 C 566.943115234375 296.1944208 563.137536034375 300 558.443115234375 300 C 553.748694434375 300 549.943115234375 296.1944208 549.943115234375 291.5 Z"/></g><g transform="translate(-70,-14) scale(1,1)"><path fill="none" stroke="#000000" d="M 549.943115234375 291.5 C 549.943115234375 286.8055792 553.748694434375 283 558.443115234375 283 C 563.137536034375 283 566.943115234375 286.8055792 566.943115234375 291.5 C 566.943115234375 296.1944208 563.137536034375 300 558.443115234375 300 C 553.748694434375 300 549.943115234375 296.1944208 549.943115234375 291.5 Z" stroke-miterlimit="10"/></g><g transform="translate(-70,-14) scale(1,1)"><g><path fill="none" stroke="none"/><text fill="#000000" stroke="none" font-family="Arial" font-size="13px" font-style="normal" font-weight="bold" text-decoration="none" x="502.802734375" y="322.5">Address translation</text><text fill="#000000" stroke="none" font-family="Arial" font-size="13px" font-style="normal" font-weight="bold" text-decoration="none" x="533.5126953125" y="335.5">interface</text></g></g><g transform="translate(-70,-14) scale(1,1)"><path fill="none" stroke="#000000" d="M 695 325 L 569.943115234375 294.7322235107422" stroke-miterlimit="10"/></g><g transform="translate(-70,-14) scale(1,1)"><path fill="none" stroke="#000000" d="M 433 205 L 546.943115234375 287.4139833192568" stroke-miterlimit="10"/></g><g transform="translate(-70,-14) scale(1,1)"><rect fill="#C0C0C0" stroke="none" x="745" y="191" width="190" height="50" opacity="0.2"/></g><g transform="translate(-70,-14) scale(1,1)"><rect fill="#fafa83" stroke="none" x="738" y="184" width="190" height="50"/></g><g transform="translate(-70,-14) scale(1,1)"><path fill="none" stroke="#000000" d="M 738 184 L 928 184 L 928 234 L 738 234 L 738 184 Z Z" stroke-miterlimit="10"/></g><g transform="translate(-70,-14) scale(1,1)"><rect fill="#fafa83" stroke="none" x="728" y="191" width="20" height="10"/></g><g transform="translate(-70,-14) scale(1,1)"><path fill="none" stroke="#000000" d="M 728 191 L 748 191 L 748 201 L 728 201 L 728 191 Z Z" stroke-miterlimit="10"/></g><g transform="translate(-70,-14) scale(1,1)"><rect fill="#fafa83" stroke="none" x="728" y="211" width="20" height="10"/></g><g transform="translate(-70,-14) scale(1,1)"><path fill="none" stroke="#000000" d="M 728 211 L 748 211 L 748 221 L 728 221 L 728 211 Z Z" stroke-miterlimit="10"/></g><g transform="translate(-70,-14) scale(1,1)"><g><path fill="none" stroke="none"/><text fill="#000000" stroke="none" font-family="Arial" font-size="13px" font-style="normal" font-weight="bold" text-decoration="none" x="761.418701171875" y="203.5">External system for driving</text><text fill="#000000" stroke="none" font-family="Arial" font-size="13px" font-style="normal" font-weight="bold" text-decoration="none" x="788.497802734375" y="216.5">licence validation</text></g></g><g transform="translate(-70,-14) scale(1,1)"><path fill="#C0C0C0" stroke="none" d="M 587.284912109375 210.5 C 587.284912109375 204.1487248 592.433636909375 199 598.784912109375 199 C 605.136187309375 199 610.284912109375 204.1487248 610.284912109375 210.5 C 610.284912109375 216.8512752 605.136187309375 222 598.784912109375 222 C 592.433636909375 222 587.284912109375 216.8512752 587.284912109375 210.5 Z" opacity="0.2"/></g><g transform="translate(-70,-14) scale(1,1)"><path fill="none" stroke="#000000" d="M 590.4871179714818 214.4885574388094 A 11.5 11.5 0 0 1 591.5128820285182 191.5114425611906" stroke-miterlimit="10"/></g><g transform="translate(-70,-14) scale(1,1)"><path fill="#ffffff" stroke="none" d="M 583.284912109375 203.5 C 583.284912109375 198.8055792 587.090491309375 195 591.784912109375 195 C 596.479332909375 195 600.284912109375 198.8055792 600.284912109375 203.5 C 600.284912109375 208.1944208 596.479332909375 212 591.784912109375 212 C 587.090491309375 212 583.284912109375 208.1944208 583.284912109375 203.5 Z"/></g><g transform="translate(-70,-14) scale(1,1)"><path fill="none" stroke="#000000" d="M 583.284912109375 203.5 C 583.284912109375 198.8055792 587.090491309375 195 591.784912109375 195 C 596.479332909375 195 600.284912109375 198.8055792 600.284912109375 203.5 C 600.284912109375 208.1944208 596.479332909375 212 591.784912109375 212 C 587.090491309375 212 583.284912109375 208.1944208 583.284912109375 203.5 Z" stroke-miterlimit="10"/></g><g transform="translate(-70,-14) scale(1,1)"><g><path fill="none" stroke="none"/><text fill="#000000" stroke="none" font-family="Arial" font-size="13px" font-style="normal" font-weight="bold" text-decoration="none" x="520.25" y="234.5">Driving licence validation</text><text fill="#000000" stroke="none" font-family="Arial" font-size="13px" font-style="normal" font-weight="bold" text-decoration="none" x="566.8544921875" y="247.5">interface</text></g></g><g transform="translate(-70,-14) scale(1,1)"><path fill="none" stroke="#000000" d="M 727 215 L 603.284912109375 204.40091103001646" stroke-miterlimit="10"/></g><g transform="translate(-70,-14) scale(1,1)"><path fill="none" stroke="#000000" d="M 461 194 L 580.284912109375 202.52164786202567" stroke-miterlimit="10"/></g><g transform="translate(-70,-14) scale(1,1)"><rect fill="#C0C0C0" stroke="none" x="345" y="383" width="150" height="44" opacity="0.2"/></g><g transform="translate(-70,-14) scale(1,1)"><rect fill="#fafa83" stroke="none" x="338" y="376" width="150" height="44"/></g><g transform="translate(-70,-14) scale(1,1)"><path fill="none" stroke="#000000" d="M 338 376 L 488 376 L 488 420 L 338 420 L 338 376 Z Z" stroke-miterlimit="10"/></g><g transform="translate(-70,-14) scale(1,1)"><rect fill="#fafa83" stroke="none" x="328" y="383" width="20" height="10"/></g><g transform="translate(-70,-14) scale(1,1)"><path fill="none" stroke="#000000" d="M 328 383 L 348 383 L 348 393 L 328 393 L 328 383 Z Z" stroke-miterlimit="10"/></g><g transform="translate(-70,-14) scale(1,1)"><rect fill="#fafa83" stroke="none" x="328" y="403" width="20" height="10"/></g><g transform="translate(-70,-14) scale(1,1)"><path fill="none" stroke="#000000" d="M 328 403 L 348 403 L 348 413 L 328 413 L 328 403 Z Z" stroke-miterlimit="10"/></g><g transform="translate(-70,-14) scale(1,1)"><g><path fill="none" stroke="none"/><text fill="#000000" stroke="none" font-family="Arial" font-size="13px" font-style="normal" font-weight="bold" text-decoration="none" x="362.372314453125" y="395.5">External system for</text><text fill="#000000" stroke="none" font-family="Arial" font-size="13px" font-style="normal" font-weight="bold" text-decoration="none" x="359.830078125" y="408.5">payment processing</text></g></g><g transform="translate(-70,-14) scale(1,1)"><path fill="#C0C0C0" stroke="none" d="M 404.47900390625 322.5 C 404.47900390625 316.1487248 409.62772870625 311 415.97900390625 311 C 422.33027910625 311 427.47900390625 316.1487248 427.47900390625 322.5 C 427.47900390625 328.8512752 422.33027910625 334 415.97900390625 334 C 409.62772870625 334 404.47900390625 328.8512752 404.47900390625 322.5 Z" opacity="0.2"/></g><g transform="translate(-70,-14) scale(1,1)"><path fill="none" stroke="#000000" d="M 396.5 315 A 11.5 11.5 0 0 1 419.5 315" stroke-miterlimit="10"/></g><g transform="translate(-70,-14) scale(1,1)"><path fill="#ffffff" stroke="none" d="M 400.47900390625 315.5 C 400.47900390625 310.8055792 404.28458310625 307 408.97900390625 307 C 413.67342470625 307 417.47900390625 310.8055792 417.47900390625 315.5 C 417.47900390625 320.1944208 413.67342470625 324 408.97900390625 324 C 404.28458310625 324 400.47900390625 320.1944208 400.47900390625 315.5 Z"/></g><g transform="translate(-70,-14) scale(1,1)"><path fill="none" stroke="#000000" d="M 400.47900390625 315.5 C 400.47900390625 310.8055792 404.28458310625 307 408.97900390625 307 C 413.67342470625 307 417.47900390625 310.8055792 417.47900390625 315.5 C 417.47900390625 320.1944208 413.67342470625 324 408.97900390625 324 C 404.28458310625 324 400.47900390625 320.1944208 400.47900390625 315.5 Z" stroke-miterlimit="10"/></g><g transform="translate(-70,-14) scale(1,1)"><g><path fill="none" stroke="none"/><text fill="#000000" stroke="none" font-family="Arial" font-size="13px" font-style="normal" font-weight="bold" text-decoration="none" x="323.352294921875" y="346.5">Payment processing interface</text></g></g><g transform="translate(-70,-14) scale(1,1)"><path fill="none" stroke="#000000" d="M 408 375 L 408 327" stroke-miterlimit="10"/></g><g transform="translate(-70,-14) scale(1,1)"><path fill="none" stroke="#000000" d="M 406 205 L 408 304" stroke-miterlimit="10"/></g></g></svg>