<svg version="1.1" xmlns="http://www.w3.org/2000/svg" xmlns:xlink="http://www.w3.org/1999/xlink" width="1044" height="972"><defs/><g><g transform="translate(-38,-22) scale(1,1)"><path fill="none" stroke="#000000" d="M 426 911 L 435.36842105263156 751" stroke-miterlimit="10"/></g><g transform="translate(-38,-22) scale(1,1)"><path fill="#C0C0C0" stroke="none" d="M 519 49 L 780 49 L 780 254 L 519 254" opacity="0.2"/></g><g transform="translate(-38,-22) scale(1,1)"><path fill="#C0C0C0" stroke="none" d="M 519 49 L 529 39 L 790 39 L 780 49" opacity="0.2"/></g><g transform="translate(-38,-22) scale(1,1)"><path fill="#C0C0C0" stroke="none" d="M 790 39 L 780 49 L 780 254 L 790 244" opacity="0.2"/></g><g transform="translate(-38,-22) scale(1,1)"><path fill="#ffffff" stroke="none" d="M 512 42 L 773 42 L 773 247 L 512 247"/></g><g transform="translate(-38,-22) scale(1,1)"><path fill="#ffffff" stroke="none" d="M 512 42 L 522 32 L 783 32 L 773 42"/></g><g transform="translate(-38,-22) scale(1,1)"><path fill="#ffffff" stroke="none" d="M 783 32 L 773 42 L 773 247 L 783 237"/></g><g transform="translate(-38,-22) scale(1,1)"><path fill="none" stroke="#000000" d="M 512 42 L 773 42 L 773 247 L 512 247 L 512 42" stroke-miterlimit="10"/></g><g transform="translate(-38,-22) scale(1,1)"><path fill="none" stroke="#000000" d="M 512 42 L 522 32 L 783 32 L 773 42 L 512 42" stroke-miterlimit="10"/></g><g transform="translate(-38,-22) scale(1,1)"><path fill="none" stroke="#000000" d="M 783 32 L 773 42 L 773 247 L 783 237 L 783 32" stroke-miterlimit="10"/></g><g transform="translate(-38,-22) scale(1,1)"><g><path fill="none" stroke="none"/><text fill="#000000" stroke="none" font-family="Arial" font-size="13px" font-style="normal" font-weight="normal" text-decoration="none" x="616.98095703125" y="59.5">«device»</text></g></g><g transform="translate(-38,-22) scale(1,1)"><g><path fill="none" stroke="none"/><text fill="#000000" stroke="none" font-family="Arial" font-size="13px" font-style="normal" font-weight="bold" text-decoration="none" x="633.970458984375" y="74.5">PC</text></g></g><g transform="translate(-38,-22) scale(1,1)"><path fill="#C0C0C0" stroke="none" d="M 527 105 L 764 105 L 764 238 L 527 238" opacity="0.2"/></g><g transform="translate(-38,-22) scale(1,1)"><path fill="#C0C0C0" stroke="none" d="M 527 105 L 537 95 L 774 95 L 764 105" opacity="0.2"/></g><g transform="translate(-38,-22) scale(1,1)"><path fill="#C0C0C0" stroke="none" d="M 774 95 L 764 105 L 764 238 L 774 228" opacity="0.2"/></g><g transform="translate(-38,-22) scale(1,1)"><path fill="#ffffff" stroke="none" d="M 520 98 L 757 98 L 757 231 L 520 231"/></g><g transform="translate(-38,-22) scale(1,1)"><path fill="#ffffff" stroke="none" d="M 520 98 L 530 88 L 767 88 L 757 98"/></g><g transform="translate(-38,-22) scale(1,1)"><path fill="#ffffff" stroke="none" d="M 767 88 L 757 98 L 757 231 L 767 221"/></g><g transform="translate(-38,-22) scale(1,1)"><path fill="none" stroke="#000000" d="M 520 98 L 757 98 L 757 231 L 520 231 L 520 98" stroke-miterlimit="10"/></g><g transform="translate(-38,-22) scale(1,1)"><path fill="none" stroke="#000000" d="M 520 98 L 530 88 L 767 88 L 757 98 L 520 98" stroke-miterlimit="10"/></g><g transform="translate(-38,-22) scale(1,1)"><path fill="none" stroke="#000000" d="M 767 88 L 757 98 L 757 231 L 767 221 L 767 88" stroke-miterlimit="10"/></g><g transform="translate(-38,-22) scale(1,1)"><g><path fill="none" stroke="none"/><text fill="#000000" stroke="none" font-family="Arial" font-size="13px" font-style="normal" font-weight="normal" text-decoration="none" x="622.378662109375" y="115.5">«OS»</text></g></g><g transform="translate(-38,-22) scale(1,1)"><g><path fill="none" stroke="none"/><text fill="#000000" stroke="none" font-family="Arial" font-size="13px" font-style="normal" font-weight="bold" text-decoration="none" x="603.957763671875" y="130.5">Desktop OS</text></g></g><g transform="translate(-38,-22) scale(1,1)"><rect fill="#C0C0C0" stroke="none" x="545" y="167" width="87.6181640625" height="44" opacity="0.2"/></g><g transform="translate(-38,-22) scale(1,1)"><rect fill="#ffffff" stroke="none" x="538" y="160" width="87.6181640625" height="44"/></g><g transform="translate(-38,-22) scale(1,1)"><path fill="none" stroke="#000000" d="M 538 160 L 625.6181640625 160 L 625.6181640625 204 L 538 204 L 538 160 Z Z" stroke-miterlimit="10"/></g><g transform="translate(-38,-22) scale(1,1)"><rect fill="#ffffff" stroke="none" x="528" y="167" width="20" height="10"/></g><g transform="translate(-38,-22) scale(1,1)"><path fill="none" stroke="#000000" d="M 528 167 L 548 167 L 548 177 L 528 177 L 528 167 Z Z" stroke-miterlimit="10"/></g><g transform="translate(-38,-22) scale(1,1)"><rect fill="#ffffff" stroke="none" x="528" y="187" width="20" height="10"/></g><g transform="translate(-38,-22) scale(1,1)"><path fill="none" stroke="#000000" d="M 528 187 L 548 187 L 548 197 L 528 197 L 528 187 Z Z" stroke-miterlimit="10"/></g><g transform="translate(-38,-22) scale(1,1)"><g><path fill="none" stroke="none"/><text fill="#000000" stroke="none" font-family="Arial" font-size="13px" font-style="normal" font-weight="bold" text-decoration="none" x="573.08544921875" y="179.5">User</text><text fill="#000000" stroke="none" font-family="Arial" font-size="13px" font-style="normal" font-weight="bold" text-decoration="none" x="555.73095703125" y="192.5">application</text></g></g><g transform="translate(-38,-22) scale(1,1)"><rect fill="#C0C0C0" stroke="none" x="657" y="167" width="87.6181640625" height="44" opacity="0.2"/></g><g transform="translate(-38,-22) scale(1,1)"><rect fill="#ffffff" stroke="none" x="650" y="160" width="87.6181640625" height="44"/></g><g transform="translate(-38,-22) scale(1,1)"><path fill="none" stroke="#000000" d="M 650 160 L 737.6181640625 160 L 737.6181640625 204 L 650 204 L 650 160 Z Z" stroke-miterlimit="10"/></g><g transform="translate(-38,-22) scale(1,1)"><rect fill="#ffffff" stroke="none" x="640" y="167" width="20" height="10"/></g><g transform="translate(-38,-22) scale(1,1)"><path fill="none" stroke="#000000" d="M 640 167 L 660 167 L 660 177 L 640 177 L 640 167 Z Z" stroke-miterlimit="10"/></g><g transform="translate(-38,-22) scale(1,1)"><rect fill="#ffffff" stroke="none" x="640" y="187" width="20" height="10"/></g><g transform="translate(-38,-22) scale(1,1)"><path fill="none" stroke="#000000" d="M 640 187 L 660 187 L 660 197 L 640 197 L 640 187 Z Z" stroke-miterlimit="10"/></g><g transform="translate(-38,-22) scale(1,1)"><g><path fill="none" stroke="none"/><text fill="#000000" stroke="none" font-family="Arial" font-size="13px" font-style="normal" font-weight="bold" text-decoration="none" x="669.905029296875" y="179.5">Employee</text><text fill="#000000" stroke="none" font-family="Arial" font-size="13px" font-style="normal" font-weight="bold" text-decoration="none" x="667.73095703125" y="192.5">application</text></g></g><g transform="translate(-38,-22) scale(1,1)"><path fill="#C0C0C0" stroke="none" d="M 63 57 L 412 57 L 412 262 L 63 262" opacity="0.2"/></g><g transform="translate(-38,-22) scale(1,1)"><path fill="#C0C0C0" stroke="none" d="M 63 57 L 73 47 L 422 47 L 412 57" opacity="0.2"/></g><g transform="translate(-38,-22) scale(1,1)"><path fill="#C0C0C0" stroke="none" d="M 422 47 L 412 57 L 412 262 L 422 252" opacity="0.2"/></g><g transform="translate(-38,-22) scale(1,1)"><path fill="#ffffff" stroke="none" d="M 56 50 L 405 50 L 405 255 L 56 255"/></g><g transform="translate(-38,-22) scale(1,1)"><path fill="#ffffff" stroke="none" d="M 56 50 L 66 40 L 415 40 L 405 50"/></g><g transform="translate(-38,-22) scale(1,1)"><path fill="#ffffff" stroke="none" d="M 415 40 L 405 50 L 405 255 L 415 245"/></g><g transform="translate(-38,-22) scale(1,1)"><path fill="none" stroke="#000000" d="M 56 50 L 405 50 L 405 255 L 56 255 L 56 50" stroke-miterlimit="10"/></g><g transform="translate(-38,-22) scale(1,1)"><path fill="none" stroke="#000000" d="M 56 50 L 66 40 L 415 40 L 405 50 L 56 50" stroke-miterlimit="10"/></g><g transform="translate(-38,-22) scale(1,1)"><path fill="none" stroke="#000000" d="M 415 40 L 405 50 L 405 255 L 415 245 L 415 40" stroke-miterlimit="10"/></g><g transform="translate(-38,-22) scale(1,1)"><g><path fill="none" stroke="none"/><text fill="#000000" stroke="none" font-family="Arial" font-size="13px" font-style="normal" font-weight="normal" text-decoration="none" x="204.98095703125" y="67.5">«device»</text></g></g><g transform="translate(-38,-22) scale(1,1)"><g><path fill="none" stroke="none"/><text fill="#000000" stroke="none" font-family="Arial" font-size="13px" font-style="normal" font-weight="bold" text-decoration="none" x="190.17822265625" y="82.5">Mobile Device</text></g></g><g transform="translate(-38,-22) scale(1,1)"><path fill="#C0C0C0" stroke="none" d="M 71 105 L 388 105 L 388 254 L 71 254" opacity="0.2"/></g><g transform="translate(-38,-22) scale(1,1)"><path fill="#C0C0C0" stroke="none" d="M 71 105 L 81 95 L 398 95 L 388 105" opacity="0.2"/></g><g transform="translate(-38,-22) scale(1,1)"><path fill="#C0C0C0" stroke="none" d="M 398 95 L 388 105 L 388 254 L 398 244" opacity="0.2"/></g><g transform="translate(-38,-22) scale(1,1)"><path fill="#ffffff" stroke="none" d="M 64 98 L 381 98 L 381 247 L 64 247"/></g><g transform="translate(-38,-22) scale(1,1)"><path fill="#ffffff" stroke="none" d="M 64 98 L 74 88 L 391 88 L 381 98"/></g><g transform="translate(-38,-22) scale(1,1)"><path fill="#ffffff" stroke="none" d="M 391 88 L 381 98 L 381 247 L 391 237"/></g><g transform="translate(-38,-22) scale(1,1)"><path fill="none" stroke="#000000" d="M 64 98 L 381 98 L 381 247 L 64 247 L 64 98" stroke-miterlimit="10"/></g><g transform="translate(-38,-22) scale(1,1)"><path fill="none" stroke="#000000" d="M 64 98 L 74 88 L 391 88 L 381 98 L 64 98" stroke-miterlimit="10"/></g><g transform="translate(-38,-22) scale(1,1)"><path fill="none" stroke="#000000" d="M 391 88 L 381 98 L 381 247 L 391 237 L 391 88" stroke-miterlimit="10"/></g><g transform="translate(-38,-22) scale(1,1)"><g><path fill="none" stroke="none"/><text fill="#000000" stroke="none" font-family="Arial" font-size="13px" font-style="normal" font-weight="normal" text-decoration="none" x="206.378662109375" y="115.5">«OS»</text></g></g><g transform="translate(-38,-22) scale(1,1)"><g><path fill="none" stroke="none"/><text fill="#000000" stroke="none" font-family="Arial" font-size="13px" font-style="normal" font-weight="bold" text-decoration="none" x="192.655029296875" y="130.5">Mobile OS</text></g></g><g transform="translate(-38,-22) scale(1,1)"><rect fill="#C0C0C0" stroke="none" x="97" y="175" width="89.7763671875" height="44" opacity="0.2"/></g><g transform="translate(-38,-22) scale(1,1)"><rect fill="#ffffff" stroke="none" x="90" y="168" width="89.7763671875" height="44"/></g><g transform="translate(-38,-22) scale(1,1)"><path fill="none" stroke="#000000" d="M 90 168 L 179.7763671875 168 L 179.7763671875 212 L 90 212 L 90 168 Z Z" stroke-miterlimit="10"/></g><g transform="translate(-38,-22) scale(1,1)"><rect fill="#ffffff" stroke="none" x="80" y="175" width="20" height="10"/></g><g transform="translate(-38,-22) scale(1,1)"><path fill="none" stroke="#000000" d="M 80 175 L 100 175 L 100 185 L 80 185 L 80 175 Z Z" stroke-miterlimit="10"/></g><g transform="translate(-38,-22) scale(1,1)"><rect fill="#ffffff" stroke="none" x="80" y="195" width="20" height="10"/></g><g transform="translate(-38,-22) scale(1,1)"><path fill="none" stroke="#000000" d="M 80 195 L 100 195 L 100 205 L 80 205 L 80 195 Z Z" stroke-miterlimit="10"/></g><g transform="translate(-38,-22) scale(1,1)"><g><path fill="none" stroke="none"/><text fill="#000000" stroke="none" font-family="Arial" font-size="13px" font-style="normal" font-weight="bold" text-decoration="none" x="126.16455078125" y="187.5">User</text><text fill="#000000" stroke="none" font-family="Arial" font-size="13px" font-style="normal" font-weight="bold" text-decoration="none" x="108.089599609375" y="200.5">Application</text></g></g><g transform="translate(-38,-22) scale(1,1)"><rect fill="#C0C0C0" stroke="none" x="249" y="175" width="110" height="44" opacity="0.2"/></g><g transform="translate(-38,-22) scale(1,1)"><rect fill="#ffffff" stroke="none" x="242" y="168" width="110" height="44"/></g><g transform="translate(-38,-22) scale(1,1)"><path fill="none" stroke="#000000" d="M 242 168 L 352 168 L 352 212 L 242 212 L 242 168 Z Z" stroke-miterlimit="10"/></g><g transform="translate(-38,-22) scale(1,1)"><rect fill="#ffffff" stroke="none" x="232" y="175" width="20" height="10"/></g><g transform="translate(-38,-22) scale(1,1)"><path fill="none" stroke="#000000" d="M 232 175 L 252 175 L 252 185 L 232 185 L 232 175 Z Z" stroke-miterlimit="10"/></g><g transform="translate(-38,-22) scale(1,1)"><rect fill="#ffffff" stroke="none" x="232" y="195" width="20" height="10"/></g><g transform="translate(-38,-22) scale(1,1)"><path fill="none" stroke="#000000" d="M 232 195 L 252 195 L 252 205 L 232 205 L 232 195 Z Z" stroke-miterlimit="10"/></g><g transform="translate(-38,-22) scale(1,1)"><g><path fill="none" stroke="none"/><text fill="#000000" stroke="none" font-family="Arial" font-size="13px" font-style="normal" font-weight="bold" text-decoration="none" x="273.095947265625" y="187.5">Employee</text><text fill="#000000" stroke="none" font-family="Arial" font-size="13px" font-style="normal" font-weight="bold" text-decoration="none" x="270.201416015625" y="200.5">Application</text></g></g><g transform="translate(-38,-22) scale(1,1)"><path fill="#C0C0C0" stroke="none" d="M 55 409 L 348 409 L 348 614 L 55 614" opacity="0.2"/></g><g transform="translate(-38,-22) scale(1,1)"><path fill="#C0C0C0" stroke="none" d="M 55 409 L 65 399 L 358 399 L 348 409" opacity="0.2"/></g><g transform="translate(-38,-22) scale(1,1)"><path fill="#C0C0C0" stroke="none" d="M 358 399 L 348 409 L 348 614 L 358 604" opacity="0.2"/></g><g transform="translate(-38,-22) scale(1,1)"><path fill="#ffffff" stroke="none" d="M 48 402 L 341 402 L 341 607 L 48 607"/></g><g transform="translate(-38,-22) scale(1,1)"><path fill="#ffffff" stroke="none" d="M 48 402 L 58 392 L 351 392 L 341 402"/></g><g transform="translate(-38,-22) scale(1,1)"><path fill="#ffffff" stroke="none" d="M 351 392 L 341 402 L 341 607 L 351 597"/></g><g transform="translate(-38,-22) scale(1,1)"><path fill="none" stroke="#000000" d="M 48 402 L 341 402 L 341 607 L 48 607 L 48 402" stroke-miterlimit="10"/></g><g transform="translate(-38,-22) scale(1,1)"><path fill="none" stroke="#000000" d="M 48 402 L 58 392 L 351 392 L 341 402 L 48 402" stroke-miterlimit="10"/></g><g transform="translate(-38,-22) scale(1,1)"><path fill="none" stroke="#000000" d="M 351 392 L 341 402 L 341 607 L 351 597 L 351 392" stroke-miterlimit="10"/></g><g transform="translate(-38,-22) scale(1,1)"><g><path fill="none" stroke="none"/><text fill="#000000" stroke="none" font-family="Arial" font-size="13px" font-style="normal" font-weight="normal" text-decoration="none" x="168.98095703125" y="419.5">«device»</text></g></g><g transform="translate(-38,-22) scale(1,1)"><g><path fill="none" stroke="none"/><text fill="#000000" stroke="none" font-family="Arial" font-size="13px" font-style="normal" font-weight="bold" text-decoration="none" x="160.6845703125" y="434.5">Web Server</text></g></g><g transform="translate(-38,-22) scale(1,1)"><path fill="#C0C0C0" stroke="none" d="M 63 465 L 332 465 L 332 598 L 63 598" opacity="0.2"/></g><g transform="translate(-38,-22) scale(1,1)"><path fill="#C0C0C0" stroke="none" d="M 63 465 L 73 455 L 342 455 L 332 465" opacity="0.2"/></g><g transform="translate(-38,-22) scale(1,1)"><path fill="#C0C0C0" stroke="none" d="M 342 455 L 332 465 L 332 598 L 342 588" opacity="0.2"/></g><g transform="translate(-38,-22) scale(1,1)"><path fill="#ffffff" stroke="none" d="M 56 458 L 325 458 L 325 591 L 56 591"/></g><g transform="translate(-38,-22) scale(1,1)"><path fill="#ffffff" stroke="none" d="M 56 458 L 66 448 L 335 448 L 325 458"/></g><g transform="translate(-38,-22) scale(1,1)"><path fill="#ffffff" stroke="none" d="M 335 448 L 325 458 L 325 591 L 335 581"/></g><g transform="translate(-38,-22) scale(1,1)"><path fill="none" stroke="#000000" d="M 56 458 L 325 458 L 325 591 L 56 591 L 56 458" stroke-miterlimit="10"/></g><g transform="translate(-38,-22) scale(1,1)"><path fill="none" stroke="#000000" d="M 56 458 L 66 448 L 335 448 L 325 458 L 56 458" stroke-miterlimit="10"/></g><g transform="translate(-38,-22) scale(1,1)"><path fill="none" stroke="#000000" d="M 335 448 L 325 458 L 325 591 L 335 581 L 335 448" stroke-miterlimit="10"/></g><g transform="translate(-38,-22) scale(1,1)"><g><path fill="none" stroke="none"/><text fill="#000000" stroke="none" font-family="Arial" font-size="13px" font-style="normal" font-weight="normal" text-decoration="none" x="132.826904296875" y="475.5">«application server»</text></g></g><g transform="translate(-38,-22) scale(1,1)"><g><path fill="none" stroke="none"/><text fill="#000000" stroke="none" font-family="Arial" font-size="13px" font-style="normal" font-weight="bold" text-decoration="none" x="164.27001953125" y="490.5">Glassfish</text></g></g><g transform="translate(-38,-22) scale(1,1)"><rect fill="#C0C0C0" stroke="none" x="145" y="527" width="98.44091796875" height="44" opacity="0.2"/></g><g transform="translate(-38,-22) scale(1,1)"><rect fill="#ffffff" stroke="none" x="138" y="520" width="98.44091796875" height="44"/></g><g transform="translate(-38,-22) scale(1,1)"><path fill="none" stroke="#000000" d="M 138 520 L 236.44091796875 520 L 236.44091796875 564 L 138 564 L 138 520 Z Z" stroke-miterlimit="10"/></g><g transform="translate(-38,-22) scale(1,1)"><rect fill="#ffffff" stroke="none" x="128" y="527" width="20" height="10"/></g><g transform="translate(-38,-22) scale(1,1)"><path fill="none" stroke="#000000" d="M 128 527 L 148 527 L 148 537 L 128 537 L 128 527 Z Z" stroke-miterlimit="10"/></g><g transform="translate(-38,-22) scale(1,1)"><rect fill="#ffffff" stroke="none" x="128" y="547" width="20" height="10"/></g><g transform="translate(-38,-22) scale(1,1)"><path fill="none" stroke="#000000" d="M 128 547 L 148 547 L 148 557 L 128 557 L 128 547 Z Z" stroke-miterlimit="10"/></g><g transform="translate(-38,-22) scale(1,1)"><g><path fill="none" stroke="none"/><text fill="#000000" stroke="none" font-family="Arial" font-size="13px" font-style="normal" font-weight="bold" text-decoration="none" x="174.161376953125" y="539.5">server</text></g></g><g transform="translate(-38,-22) scale(1,1)"><path fill="#C0C0C0" stroke="none" d="M 695 417 L 988 417 L 988 622 L 695 622" opacity="0.2"/></g><g transform="translate(-38,-22) scale(1,1)"><path fill="#C0C0C0" stroke="none" d="M 695 417 L 705 407 L 998 407 L 988 417" opacity="0.2"/></g><g transform="translate(-38,-22) scale(1,1)"><path fill="#C0C0C0" stroke="none" d="M 998 407 L 988 417 L 988 622 L 998 612" opacity="0.2"/></g><g transform="translate(-38,-22) scale(1,1)"><path fill="#ffffff" stroke="none" d="M 688 410 L 981 410 L 981 615 L 688 615"/></g><g transform="translate(-38,-22) scale(1,1)"><path fill="#ffffff" stroke="none" d="M 688 410 L 698 400 L 991 400 L 981 410"/></g><g transform="translate(-38,-22) scale(1,1)"><path fill="#ffffff" stroke="none" d="M 991 400 L 981 410 L 981 615 L 991 605"/></g><g transform="translate(-38,-22) scale(1,1)"><path fill="none" stroke="#000000" d="M 688 410 L 981 410 L 981 615 L 688 615 L 688 410" stroke-miterlimit="10"/></g><g transform="translate(-38,-22) scale(1,1)"><path fill="none" stroke="#000000" d="M 688 410 L 698 400 L 991 400 L 981 410 L 688 410" stroke-miterlimit="10"/></g><g transform="translate(-38,-22) scale(1,1)"><path fill="none" stroke="#000000" d="M 991 400 L 981 410 L 981 615 L 991 605 L 991 400" stroke-miterlimit="10"/></g><g transform="translate(-38,-22) scale(1,1)"><g><path fill="none" stroke="none"/><text fill="#000000" stroke="none" font-family="Arial" font-size="13px" font-style="normal" font-weight="normal" text-decoration="none" x="808.98095703125" y="427.5">«device»</text></g></g><g transform="translate(-38,-22) scale(1,1)"><g><path fill="none" stroke="none"/><text fill="#000000" stroke="none" font-family="Arial" font-size="13px" font-style="normal" font-weight="bold" text-decoration="none" x="777.1982421875" y="442.5">Backup Web Server</text></g></g><g transform="translate(-38,-22) scale(1,1)"><path fill="#C0C0C0" stroke="none" d="M 703 473 L 972 473 L 972 614 L 703 614" opacity="0.2"/></g><g transform="translate(-38,-22) scale(1,1)"><path fill="#C0C0C0" stroke="none" d="M 703 473 L 713 463 L 982 463 L 972 473" opacity="0.2"/></g><g transform="translate(-38,-22) scale(1,1)"><path fill="#C0C0C0" stroke="none" d="M 982 463 L 972 473 L 972 614 L 982 604" opacity="0.2"/></g><g transform="translate(-38,-22) scale(1,1)"><path fill="#ffffff" stroke="none" d="M 696 466 L 965 466 L 965 607 L 696 607"/></g><g transform="translate(-38,-22) scale(1,1)"><path fill="#ffffff" stroke="none" d="M 696 466 L 706 456 L 975 456 L 965 466"/></g><g transform="translate(-38,-22) scale(1,1)"><path fill="#ffffff" stroke="none" d="M 975 456 L 965 466 L 965 607 L 975 597"/></g><g transform="translate(-38,-22) scale(1,1)"><path fill="none" stroke="#000000" d="M 696 466 L 965 466 L 965 607 L 696 607 L 696 466" stroke-miterlimit="10"/></g><g transform="translate(-38,-22) scale(1,1)"><path fill="none" stroke="#000000" d="M 696 466 L 706 456 L 975 456 L 965 466 L 696 466" stroke-miterlimit="10"/></g><g transform="translate(-38,-22) scale(1,1)"><path fill="none" stroke="#000000" d="M 975 456 L 965 466 L 965 607 L 975 597 L 975 456" stroke-miterlimit="10"/></g><g transform="translate(-38,-22) scale(1,1)"><g><path fill="none" stroke="none"/><text fill="#000000" stroke="none" font-family="Arial" font-size="13px" font-style="normal" font-weight="normal" text-decoration="none" x="772.826904296875" y="483.5">«application server»</text></g></g><g transform="translate(-38,-22) scale(1,1)"><g><path fill="none" stroke="none"/><text fill="#000000" stroke="none" font-family="Arial" font-size="13px" font-style="normal" font-weight="bold" text-decoration="none" x="804.27001953125" y="498.5">Glassfish</text></g></g><g transform="translate(-38,-22) scale(1,1)"><rect fill="#C0C0C0" stroke="none" x="793" y="535" width="98.44091796875" height="44" opacity="0.2"/></g><g transform="translate(-38,-22) scale(1,1)"><rect fill="#ffffff" stroke="none" x="786" y="528" width="98.44091796875" height="44"/></g><g transform="translate(-38,-22) scale(1,1)"><path fill="none" stroke="#000000" d="M 786 528 L 884.44091796875 528 L 884.44091796875 572 L 786 572 L 786 528 Z Z" stroke-miterlimit="10"/></g><g transform="translate(-38,-22) scale(1,1)"><rect fill="#ffffff" stroke="none" x="776" y="535" width="20" height="10"/></g><g transform="translate(-38,-22) scale(1,1)"><path fill="none" stroke="#000000" d="M 776 535 L 796 535 L 796 545 L 776 545 L 776 535 Z Z" stroke-miterlimit="10"/></g><g transform="translate(-38,-22) scale(1,1)"><rect fill="#ffffff" stroke="none" x="776" y="555" width="20" height="10"/></g><g transform="translate(-38,-22) scale(1,1)"><path fill="none" stroke="#000000" d="M 776 555 L 796 555 L 796 565 L 776 565 L 776 555 Z Z" stroke-miterlimit="10"/></g><g transform="translate(-38,-22) scale(1,1)"><g><path fill="none" stroke="none"/><text fill="#000000" stroke="none" font-family="Arial" font-size="13px" font-style="normal" font-weight="bold" text-decoration="none" x="822.161376953125" y="547.5">server</text></g></g><g transform="translate(-38,-22) scale(1,1)"><path fill="#C0C0C0" stroke="none" d="M 438.7099609375 338.5 C 438.7099609375 332.1487248 443.8586857375 327 450.2099609375 327 C 456.5612361375 327 461.7099609375 332.1487248 461.7099609375 338.5 C 461.7099609375 344.8512752 456.5612361375 350 450.2099609375 350 C 443.8586857375 350 438.7099609375 344.8512752 438.7099609375 338.5 Z" opacity="0.2"/></g><g transform="translate(-38,-22) scale(1,1)"><path fill="none" stroke="#000000" d="M 441.4179637303411 342.3906611415441 A 11.5 11.5 0 0 1 444.5820362696589 319.6093388584558" stroke-miterlimit="10"/></g><g transform="translate(-38,-22) scale(1,1)"><path fill="none" stroke="#000000" d="M 438.0235927227751 341.36751516088515 A 11.5 11.5 0 0 1 447.9764072772249 320.63248483911485" stroke-miterlimit="10"/></g><g transform="translate(-38,-22) scale(1,1)"><path fill="none" stroke="#000000" d="M 437.29440220889643 321.0152038655687 A 11.5 11.5 0 0 1 448.70559779110357 340.9847961344313" stroke-miterlimit="10"/></g><g transform="translate(-38,-22) scale(1,1)"><path fill="none" stroke="#000000" d="M 439.63948684061126 320.0019569329096 A 11.5 11.5 0 0 1 446.36051315938874 341.9980430670904" stroke-miterlimit="10"/></g><g transform="translate(-38,-22) scale(1,1)"><path fill="#ffffff" stroke="none" d="M 434.7099609375 331.5 C 434.7099609375 326.8055792 438.5155401375 323 443.2099609375 323 C 447.9043817375 323 451.7099609375 326.8055792 451.7099609375 331.5 C 451.7099609375 336.1944208 447.9043817375 340 443.2099609375 340 C 438.5155401375 340 434.7099609375 336.1944208 434.7099609375 331.5 Z"/></g><g transform="translate(-38,-22) scale(1,1)"><path fill="none" stroke="#000000" d="M 434.7099609375 331.5 C 434.7099609375 326.8055792 438.5155401375 323 443.2099609375 323 C 447.9043817375 323 451.7099609375 326.8055792 451.7099609375 331.5 C 451.7099609375 336.1944208 447.9043817375 340 443.2099609375 340 C 438.5155401375 340 434.7099609375 336.1944208 434.7099609375 331.5 Z" stroke-miterlimit="10"/></g><g transform="translate(-38,-22) scale(1,1)"><g><path fill="none" stroke="none"/><text fill="#000000" stroke="none" font-family="Arial" font-size="13px" font-style="normal" font-weight="bold" text-decoration="none" x="421.904052734375" y="362.5">HTTPS</text></g></g><g transform="translate(-38,-22) scale(1,1)"><path fill="none" stroke="#000000" d="M 212 519 L 432.57894736842104 343" stroke-miterlimit="10"/></g><g transform="translate(-38,-22) scale(1,1)"><path fill="none" stroke="#000000" d="M 787 527 L 454.7099609375 341.4088541666667" stroke-miterlimit="10"/></g><g transform="translate(-38,-22) scale(1,1)"><path fill="none" stroke="#000000" d="M 176 213 L 431.7099609375 329.43193901909723" stroke-miterlimit="10"/></g><g transform="translate(-38,-22) scale(1,1)"><path fill="none" stroke="#000000" d="M 315 213 L 431.7099609375 325.58078125" stroke-miterlimit="10"/></g><g transform="translate(-38,-22) scale(1,1)"><path fill="none" stroke="#000000" d="M 557 205 L 454.7099609375 324.30859375" stroke-miterlimit="10"/></g><g transform="translate(-38,-22) scale(1,1)"><path fill="none" stroke="#000000" d="M 653 205 L 454.7099609375 327.4219563802083" stroke-miterlimit="10"/></g><g transform="translate(-38,-22) scale(1,1)"><path fill="#C0C0C0" stroke="none" d="M 351 865 L 516 865 L 516 990 L 351 990" opacity="0.2"/></g><g transform="translate(-38,-22) scale(1,1)"><path fill="#C0C0C0" stroke="none" d="M 351 865 L 361 855 L 526 855 L 516 865" opacity="0.2"/></g><g transform="translate(-38,-22) scale(1,1)"><path fill="#C0C0C0" stroke="none" d="M 526 855 L 516 865 L 516 990 L 526 980" opacity="0.2"/></g><g transform="translate(-38,-22) scale(1,1)"><path fill="#ffffff" stroke="none" d="M 344 858 L 509 858 L 509 983 L 344 983"/></g><g transform="translate(-38,-22) scale(1,1)"><path fill="#ffffff" stroke="none" d="M 344 858 L 354 848 L 519 848 L 509 858"/></g><g transform="translate(-38,-22) scale(1,1)"><path fill="#ffffff" stroke="none" d="M 519 848 L 509 858 L 509 983 L 519 973"/></g><g transform="translate(-38,-22) scale(1,1)"><path fill="none" stroke="#000000" d="M 344 858 L 509 858 L 509 983 L 344 983 L 344 858" stroke-miterlimit="10"/></g><g transform="translate(-38,-22) scale(1,1)"><path fill="none" stroke="#000000" d="M 344 858 L 354 848 L 519 848 L 509 858 L 344 858" stroke-miterlimit="10"/></g><g transform="translate(-38,-22) scale(1,1)"><path fill="none" stroke="#000000" d="M 519 848 L 509 858 L 509 983 L 519 973 L 519 848" stroke-miterlimit="10"/></g><g transform="translate(-38,-22) scale(1,1)"><g><path fill="none" stroke="none"/><text fill="#000000" stroke="none" font-family="Arial" font-size="13px" font-style="normal" font-weight="normal" text-decoration="none" x="400.98095703125" y="875.5">«device»</text></g></g><g transform="translate(-38,-22) scale(1,1)"><g><path fill="none" stroke="none"/><text fill="#000000" stroke="none" font-family="Arial" font-size="13px" font-style="normal" font-weight="bold" text-decoration="none" x="377.504150390625" y="890.5">DataBase Server</text></g></g><g transform="translate(-38,-22) scale(1,1)"><rect fill="#C0C0C0" stroke="none" x="385" y="919" width="105.6708984375" height="44" opacity="0.2"/></g><g transform="translate(-38,-22) scale(1,1)"><rect fill="#ffffff" stroke="none" x="378" y="912" width="105.6708984375" height="44"/></g><g transform="translate(-38,-22) scale(1,1)"><path fill="none" stroke="#000000" d="M 378 912 L 483.6708984375 912 L 483.6708984375 956 L 378 956 L 378 912 Z Z" stroke-miterlimit="10"/></g><g transform="translate(-38,-22) scale(1,1)"><rect fill="#ffffff" stroke="none" x="368" y="919" width="20" height="10"/></g><g transform="translate(-38,-22) scale(1,1)"><path fill="none" stroke="#000000" d="M 368 919 L 388 919 L 388 929 L 368 929 L 368 919 Z Z" stroke-miterlimit="10"/></g><g transform="translate(-38,-22) scale(1,1)"><rect fill="#ffffff" stroke="none" x="368" y="939" width="20" height="10"/></g><g transform="translate(-38,-22) scale(1,1)"><path fill="none" stroke="#000000" d="M 368 939 L 388 939 L 388 949 L 368 949 L 368 939 Z Z" stroke-miterlimit="10"/></g><g transform="translate(-38,-22) scale(1,1)"><g><path fill="none" stroke="none"/><text fill="#000000" stroke="none" font-family="Arial" font-size="13px" font-style="normal" font-weight="bold" text-decoration="none" x="393.5791015625" y="931.5">MySQL DBMS</text></g></g><g transform="translate(-38,-22) scale(1,1)"><path fill="#C0C0C0" stroke="none" d="M 431.6181640625 746.5 C 431.6181640625 740.1487248 436.7668888625 735 443.1181640625 735 C 449.4694392625 735 454.6181640625 740.1487248 454.6181640625 746.5 C 454.6181640625 752.8512752 449.4694392625 758 443.1181640625 758 C 436.7668888625 758 431.6181640625 752.8512752 431.6181640625 746.5 Z" opacity="0.2"/></g><g transform="translate(-38,-22) scale(1,1)"><path fill="none" stroke="#000000" d="M 431.7290072219278 749.6774819451805 A 11.5 11.5 0 0 1 440.2709927780722 728.3225180548195" stroke-miterlimit="10"/></g><g transform="translate(-38,-22) scale(1,1)"><path fill="none" stroke="#000000" d="M 433.2645096121385 727.8300809162323 A 11.5 11.5 0 0 1 438.7354903878615 750.1699190837677" stroke-miterlimit="10"/></g><g transform="translate(-38,-22) scale(1,1)"><path fill="#ffffff" stroke="none" d="M 427.6181640625 739.5 C 427.6181640625 734.8055792 431.4237432625 731 436.1181640625 731 C 440.8125848625 731 444.6181640625 734.8055792 444.6181640625 739.5 C 444.6181640625 744.1944208 440.8125848625 748 436.1181640625 748 C 431.4237432625 748 427.6181640625 744.1944208 427.6181640625 739.5 Z"/></g><g transform="translate(-38,-22) scale(1,1)"><path fill="none" stroke="#000000" d="M 427.6181640625 739.5 C 427.6181640625 734.8055792 431.4237432625 731 436.1181640625 731 C 440.8125848625 731 444.6181640625 734.8055792 444.6181640625 739.5 C 444.6181640625 744.1944208 440.8125848625 748 436.1181640625 748 C 431.4237432625 748 427.6181640625 744.1944208 427.6181640625 739.5 Z" stroke-miterlimit="10"/></g><g transform="translate(-38,-22) scale(1,1)"><g><path fill="none" stroke="none"/><text fill="#000000" stroke="none" font-family="Arial" font-size="13px" font-style="normal" font-weight="bold" text-decoration="none" x="384.095947265625" y="770.5">MySQL connector</text></g></g><g transform="translate(-38,-22) scale(1,1)"><path fill="none" stroke="#000000" d="M 210 565 L 424.6181640625 734.447265625" stroke-miterlimit="10"/></g><g transform="translate(-38,-22) scale(1,1)"><path fill="none" stroke="#000000" d="M 785 573 L 447.6181640625 736.1547353316327" stroke-miterlimit="10"/></g><g transform="translate(-38,-22) scale(1,1)"><path fill="#C0C0C0" stroke="none" d="M 831 49 L 1068 49 L 1068 254 L 831 254" opacity="0.2"/></g><g transform="translate(-38,-22) scale(1,1)"><path fill="#C0C0C0" stroke="none" d="M 831 49 L 841 39 L 1078 39 L 1068 49" opacity="0.2"/></g><g transform="translate(-38,-22) scale(1,1)"><path fill="#C0C0C0" stroke="none" d="M 1078 39 L 1068 49 L 1068 254 L 1078 244" opacity="0.2"/></g><g transform="translate(-38,-22) scale(1,1)"><path fill="#ffffff" stroke="none" d="M 824 42 L 1061 42 L 1061 247 L 824 247"/></g><g transform="translate(-38,-22) scale(1,1)"><path fill="#ffffff" stroke="none" d="M 824 42 L 834 32 L 1071 32 L 1061 42"/></g><g transform="translate(-38,-22) scale(1,1)"><path fill="#ffffff" stroke="none" d="M 1071 32 L 1061 42 L 1061 247 L 1071 237"/></g><g transform="translate(-38,-22) scale(1,1)"><path fill="none" stroke="#000000" d="M 824 42 L 1061 42 L 1061 247 L 824 247 L 824 42" stroke-miterlimit="10"/></g><g transform="translate(-38,-22) scale(1,1)"><path fill="none" stroke="#000000" d="M 824 42 L 834 32 L 1071 32 L 1061 42 L 824 42" stroke-miterlimit="10"/></g><g transform="translate(-38,-22) scale(1,1)"><path fill="none" stroke="#000000" d="M 1071 32 L 1061 42 L 1061 247 L 1071 237 L 1071 32" stroke-miterlimit="10"/></g><g transform="translate(-38,-22) scale(1,1)"><g><path fill="none" stroke="none"/><text fill="#000000" stroke="none" font-family="Arial" font-size="13px" font-style="normal" font-weight="normal" text-decoration="none" x="916.98095703125" y="59.5">«device»</text></g></g><g transform="translate(-38,-22) scale(1,1)"><g><path fill="none" stroke="none"/><text fill="#000000" stroke="none" font-family="Arial" font-size="13px" font-style="normal" font-weight="bold" text-decoration="none" x="932.5263671875" y="74.5">Car</text></g></g><g transform="translate(-38,-22) scale(1,1)"><rect fill="#C0C0C0" stroke="none" x="873" y="159" width="134.5654296875" height="44" opacity="0.2"/></g><g transform="translate(-38,-22) scale(1,1)"><rect fill="#ffffff" stroke="none" x="866" y="152" width="134.5654296875" height="44"/></g><g transform="translate(-38,-22) scale(1,1)"><path fill="none" stroke="#000000" d="M 866 152 L 1000.5654296875 152 L 1000.5654296875 196 L 866 196 L 866 152 Z Z" stroke-miterlimit="10"/></g><g transform="translate(-38,-22) scale(1,1)"><rect fill="#ffffff" stroke="none" x="856" y="159" width="20" height="10"/></g><g transform="translate(-38,-22) scale(1,1)"><path fill="none" stroke="#000000" d="M 856 159 L 876 159 L 876 169 L 856 169 L 856 159 Z Z" stroke-miterlimit="10"/></g><g transform="translate(-38,-22) scale(1,1)"><rect fill="#ffffff" stroke="none" x="856" y="179" width="20" height="10"/></g><g transform="translate(-38,-22) scale(1,1)"><path fill="none" stroke="#000000" d="M 856 179 L 876 179 L 876 189 L 856 189 L 856 179 Z Z" stroke-miterlimit="10"/></g><g transform="translate(-38,-22) scale(1,1)"><g><path fill="none" stroke="none"/><text fill="#000000" stroke="none" font-family="Arial" font-size="13px" font-style="normal" font-weight="bold" text-decoration="none" x="907.9345703125" y="171.5">Monitoring</text><text fill="#000000" stroke="none" font-family="Arial" font-size="13px" font-style="normal" font-weight="bold" text-decoration="none" x="917.697265625" y="184.5">system</text></g></g><g transform="translate(-38,-22) scale(1,1)"><path fill="#C0C0C0" stroke="none" d="M 646.7099609375 338.5 C 646.7099609375 332.1487248 651.8586857375 327 658.2099609375 327 C 664.5612361375 327 669.7099609375 332.1487248 669.7099609375 338.5 C 669.7099609375 344.8512752 664.5612361375 350 658.2099609375 350 C 651.8586857375 350 646.7099609375 344.8512752 646.7099609375 338.5 Z" opacity="0.2"/></g><g transform="translate(-38,-22) scale(1,1)"><path fill="none" stroke="#000000" d="M 648.2108403120822 319.8433612483287 A 11.5 11.5 0 0 1 653.7891596879178 342.1566387516713" stroke-miterlimit="10"/></g><g transform="translate(-38,-22) scale(1,1)"><path fill="#ffffff" stroke="none" d="M 642.7099609375 331.5 C 642.7099609375 326.8055792 646.5155401375 323 651.2099609375 323 C 655.9043817375 323 659.7099609375 326.8055792 659.7099609375 331.5 C 659.7099609375 336.1944208 655.9043817375 340 651.2099609375 340 C 646.5155401375 340 642.7099609375 336.1944208 642.7099609375 331.5 Z"/></g><g transform="translate(-38,-22) scale(1,1)"><path fill="none" stroke="#000000" d="M 642.7099609375 331.5 C 642.7099609375 326.8055792 646.5155401375 323 651.2099609375 323 C 655.9043817375 323 659.7099609375 326.8055792 659.7099609375 331.5 C 659.7099609375 336.1944208 655.9043817375 340 651.2099609375 340 C 646.5155401375 340 642.7099609375 336.1944208 642.7099609375 331.5 Z" stroke-miterlimit="10"/></g><g transform="translate(-38,-22) scale(1,1)"><g><path fill="none" stroke="none"/><text fill="#000000" stroke="none" font-family="Arial" font-size="13px" font-style="normal" font-weight="bold" text-decoration="none" x="624.483154296875" y="362.5">TCP TLS</text></g></g><g transform="translate(-38,-22) scale(1,1)"><path fill="none" stroke="#000000" d="M 236 519 L 639.7099609375 339.78114149305554" stroke-miterlimit="10"/></g><g transform="translate(-38,-22) scale(1,1)"><path fill="none" stroke="#000000" d="M 810 527 L 657.9473684210526 343" stroke-miterlimit="10"/></g><g transform="translate(-38,-22) scale(1,1)"><path fill="none" stroke="#000000" d="M 891 197 L 662.7099609375 328.072509765625" stroke-miterlimit="10"/></g></g></svg>