<svg version="1.1" xmlns="http://www.w3.org/2000/svg" xmlns:xlink="http://www.w3.org/1999/xlink" width="1044" height="972"><defs/><g><g transform="translate(-38,-22) scale(1,1)"><path fill="none" stroke="#000000" d="M 426 911 L 435.36842105263156 751" stroke-miterlimit="10"/></g><g transform="translate(-38,-22) scale(1,1)"><path fill="#C0C0C0" stroke="none" d="M 519 49 L 780 49 L 780 254 L 519 254" opacity="0.2"/></g><g transform="translate(-38,-22) scale(1,1)"><path fill="#C0C0C0" stroke="none" d="M 519 49 L 529 39 L 790 39 L 780 49" opacity="0.2"/></g><g transform="translate(-38,-22) scale(1,1)"><path fill="#C0C0C0" stroke="none" d="M 790 39 L 780 49 L 780 254 L 790 244" opacity="0.2"/></g><g transform="translate(-38,-22) scale(1,1)"><path fill="#ffffff" stroke="none" d="M 512 42 L 773 42 L 773 247 L 512 247"/></g><g transform="translate(-38,-22) scale(1,1)"><path fill="#ffffff" stroke="none" d="M 512 42 L 522 32 L 783 32 L 773 42"/></g><g transform="translate(-38,-22) scale(1,1)"><path fill="#ffffff" stroke="none" d="M 783 32 L 773 42 L 773 247 L 783 237"/></g><g transform="translate(-38,-22) scale(1,1)"><path fill="none" stroke="#000000" d="M 512 42 L 773 42 L 773 247 L 512 247 L 512 42" stroke-miterlimit="10"/></g><g transform="translate(-38,-22) scale(1,1)"><path fill="none" stroke="#000000" d="M 512 42 L 522 32 L 783 32 L 773 42 L 512 42" stroke-miterlimit="10"/></g><g transform="translate(-38,-22) scale(1,1)"><path fill="none" stroke="#000000" d="M 783 32 L 773 42 L 773 247 L 783 237 L 783 32" stroke-miterlimit="10"/></g><g transform="translate(-38,-22) scale(1,1)"><g><path fill="none" stroke="none"/><text fill="#000000" stroke="none" font-family="Arial" font-size="13px" font-style="normal" font-weight="normal" text-decoration="none" x="616.98095703125" y="59.5">«device»</text></g></g><g transform="translate(-38,-22) scale(1,1)"><g><path fill="none" stroke="none"/><text fill="#000000" stroke="none" font-family="Arial" font-size="13px" font-style="normal" font-weight="bold" text-decoration="none" x="633.970458984375" y="74.5">PC</text></g></g><g transform="translate(-38,-22) scale(1,1)"><path fill="#C0C0C0" stroke="none" d="M 527 105 L 764 105 L 764 238 L 527 238" opacity="0.2"/></g><g transform="translate(-38,-22) scale(1,1)"><path fill="#C0C0C0" stroke="none" d="M 527 105 L 537 95 L 774 95 L 764 105" opacity="0.2"/></g><g transform="translate(-38,-22) scale(1,1)"><path fill="#C0C0C0" stroke="none" d="M 774 95 L 764 105 L 764 238 L 774 228" opacity="0.2"/></g><g transform="translate(-38,-22) scale(1,1)"><path fill="#ffffff" stroke="none" d="M 520 98 L 757 98 L 757 231 L 520 231"/></g><g transform="translate(-38,-22) scale(1,1)"><path fill="#ffffff" stroke="none" d="M 520 98 L 530 88 L 767 88 L 757 98"/></g><g transform="translate(-38,-22) scale(1,1)"><path fill="#ffffff" stroke="none" d="M 767 88 L 757 98 L 757 231 L 767 221"/></g><g transform="translate(-38,-22) scale(1,1)"><path fill="none" stroke="#000000" d="M 520 98 L 757 98 L 757 231 L 520 231 L 520 98" stroke-miterlimit="10"/></g><g transform="translate(-38,-22) scale(1,1)"><path fill="none" stroke="#000000" d="M 520 98 L 530 88 L 767 88 L 757 98 L 520 98" stroke-miterlimit="10"/></g><g transform="translate(-38,-22) scale(1,1)"><path fill="none" stroke="#000000" d="M 767 88 L 757 98 L 757 231 L 767 221 L 767 88" stroke-miterlimit="10"/></g><g transform="translate(-38,-22) scale(1,1)"><g><path fill="none" stroke="none"/><text fill="#000000" stroke="none" font-family="Arial" font-size="13px" font-style="normal" font-weight="normal" text-decoration="none" x="622.378662109375" y="115.5">«OS»</text></g></g><g transform="translate(-38,-22) scale(1,1)"><g><path fill="none" stroke="none"/><text fill="#000000" stroke="none" font-family="Arial" font-size="13px" font-style="normal" font-weight="bold" text-decoration="none" x="603.957763671875" y="130.5">Desktop OS</text></g></g><g transform="translate(-38,-22) scale(1,1)"><rect fill="#C0C0C0" stroke="none" x="545" y="167" width="87.6181640625" height="44" opacity="0.2"/></g><g transform="translate(-38,-22) scale(1,1)"><rect fill="#ffffff" stroke="none" x="538" y="160" width="87.6181640625" height="44"/></g><g transform="translate(-38,-22) scale(1,1)"><path fill="none" stroke="#000000" d="M 538 160 L 625.6181640625 160 L 625.6181640625 204 L 538 204 L 538 160 Z Z" stroke-miterlimit="10"/></g><g transform="translate(-38,-22) scale(1,1)"><rect fill="#ffffff" stroke="none" x="528" y="167" width="20" height="10"/></g><g transform="translate(-38,-22) scale(1,1)"><path fill="none" stroke="#000000" d="M 528 167 L 548 167 L 548 177 L 528 177 L 528 167 Z Z" stroke-miterlimit="10"/></g><g transform="translate(-38,-22) scale(1,1)"><rect fill="#ffffff" stroke="none" x="528" y="187" width="20" height="10"/></g><g transform="translate(-38,-22) scale(1,1)"><path fill="none" stroke="#000000" d="M 528 187 L 548 187 L 548 197 L 528 197 L 528 187 Z Z" stroke-miterlimit="10"/></g><g transform="translate(-38,-22) scale(1,1)"><g><path fill="none" stroke="none"/><text fill="#000000" stroke="none" font-family="Arial" font-size="13px" font-style="normal" font-weight="bold" text-decoration="none" x="573.08544921875" y="179.5">User</text><text fill="#000000" stroke="none" font-family="Arial" font-size="13px" font-style="normal" font-weight="bold" text-decoration="none" x="555.73095703125" y="192.5">application</text></g></g><g transform="translate(-38,-22) scale(1,1)"><rect fill="#C0C0C0" stroke="none" x="657" y="167" width="87.6181640625" height="44" opacity="0.2"/></g><g transform="translate(-38,-22) scale(1,1)"><rect fill="#ffffff" stroke="none" x="650" y="160" width="87.6181640625" height="44"/></g><g transform="translate(-38,-22) scale(1,1)"><path fill="none" stroke="#000000" d="M 650 160 L 737.6181640625 160 L 737.6181640625 204 L 650 204 L 650 160 Z Z" stroke-miterlimit="10"/></g><g transform="translate(-38,-22) scale(1,1)"><rect fill="#ffffff" stroke="none" x="640" y="167" width="20" height="10"/></g><g transform="translate(-38,-22) scale(1,1)"><path fill="none" stroke="#000000" d="M 640 167 L 660 167 L 660 177 L 640 177 L 640 167 Z Z" stroke-miterlimit="10"/></g><g transform="translate(-38,-22) scale(1,1)"><rect fill="#ffffff" stroke="none" x="640" y="187" width="20" height="10"/></g><g transform="translate(-38,-22) scale(1,1)"><path fill="none" stroke="#000000" d="M 640 187 L 660 187 L 660 197 L 640 197 L 640 187 Z Z" stroke-miterlimit="10"/></g><g transform="translate(-38,-22) scale(1,1)"><g><path fill="none" stroke="none"/><text fill="#000000" stroke="none" font-family="Arial" font-size="13px" font-style="normal" font-weight="bold" text-decoration="none" x="669.905029296875" y="179.5">Employee</text><text fill="#000000" stroke="none" font-family="Arial" font-size="13px" font-style="normal" font-weight="bold" text-decoration="none" x="667.73095703125" y="192.5">application</text></g></g><g transform="translate(-38,-22) scale(1,1)"><path fill="#C0C0C0" stroke="none" d="M 63 57 L 412 57 L 412 262 L 63 262" opacity="0.2"/></g><g transform="translate(-38,-22) scale(1,1)"><path fill="#C0C0C0" stroke="none" d="M 63 57 L 73 47 L 422 47 L 412 57" opacity="0.2"/></g><g transform="translate(-38,-22) scale(1,1)"><path fill="#C0C0C0" stroke="none" d="M 422 47 L 412 57 L 412 262 L 422 252" opacity="0.2"/></g><g transform="translate(-38,-22) scale(1,1)"><path fill="#ffffff" stroke="none" d="M 56 50 L 405 50 L 405 255 L 56 255"/></g><g transform="translate(-38,-22) scale(1,1)"><path fill="#ffffff" stroke="none" d="M 56 50 L 66 40 L 415 40 L 405 50"/></g><g transform="translate(-38,-22) scale(1,1)"><path fill="#ffffff" stroke="none" d="M 415 40 L 405 50 L 405 255 L 415 245"/></g><g transform="translate(-38,-22) scale(1,1)"><path fill="none" stroke="#000000" d="M 56 50 L 405 50 L 405 255 L 56 255 L 56 50" stroke-miterlimit="10"/></g><g transform="translate(-38,-22) scale(1,1)"><path fill="none" stroke="#000000" d="M 56 50 L 66 40 L 415 40 L 405 50 L 56 50" stroke-miterlimit="10"/></g><g transform="translate(-38,-22) scale(1,1)"><path fill="none" stroke="#000000" d="M 415 40 L 405 50 L 405 255 L 415 245 L 415 40" stroke-miterlimit="10"/></g><g transform="translate(-38,-22) scale(1,1)"><g><path fill="none" stroke="none"/><text fill="#000000" stroke="none" font-family="Arial" font-size="13px" font-style="normal" font-weight="normal" text-decoration="none" x="204.98095703125" y="67.5">«device»</text></g></g><g transform="translate(-38,-22) scale(1,1)"><g><path fill="none" stroke="none"/><text fill="#000000" stroke="none" font-family="Arial" font-size="13px" font-style="normal" font-weight="bold" text-decoration="none" x="190.17822265625" y="82.5">Mobile Device</text></g></g><g transform="translate(-38,-22) scale(1,1)"><path fill="#C0C0C0" stroke="none" d="M 71 105 L 388 105 L 388 254 L 71 254" opacity="0.2"/></g><g transform="translate(-38,-22) scale(1,1)"><path fill="#C0C0C0" stroke="none" d="M 71 105 L 81 95 L 398 95 L 388 105" opacity="0.2"/></g><g transform="translate(-38,-22) scale(1,1)"><path fill="#C0C0C0" stroke="none" d="M 398 95 L 388 105 L 388 254 L 398 244" opacity="0.2"/></g><g transform="translate(-38,-22) scale(1,1)"><path fill="#ffffff" stroke="none" d="M 64 98 L 381 98 L 381 247 L 64 247"/></g><g transform="translate(-38,-22) scale(1,1)"><path fill="#ffffff" stroke="none" d="M 64 98 L 74 88 L 391 88 L 381 98"/></g><g transform="translate(-38,-22) scale(1,1)"><path fill="#ffffff" stroke="none" d="M 391 88 L 381 98 L 381 247 L 391 237"/></g><g transform="translate(-38,-22) scale(1,1)"><path fill="none" stroke="#000000" d="M 64 98 L 381 98 L 381 247 L 64 247 L 64 98" stroke-miterlimit="10"/></g><g transform="translate(-38,-22) scale(1,1)"><path fill="none" stroke="#000000" d="M 64 98 L 74 88 L 391 88 L 381 98 L 64 98" stroke-miterlimit="10"/></g><g transform="translate(-38,-22) scale(1,1)"><path fill="none" stroke="#000000" d="M 391 88 L 381 98 L 381 247 L 391 237 L 391 88" stroke-miterlimit="10"/></g><g transform="translate(-38,-22) scale(1,1)"><g><path fill="none" stroke="none"/><text fill="#000000" stroke="none" font-family="Arial" font-size="13px" font-style="normal" font-weight="normal" text-decoration="none" x="206.378662109375" y="115.5">«OS»</text></g></g><g transform="translate(-38,-22) scale(1,1)"><g><path fill="none" stroke="none"/><text fill="#000000" stroke="none" font-family="Arial" font-size="13px" font-style="normal" font-weight="bold" text-decoration="none" x="192.655029296875" y="130.5">Mobile OS</text></g></g><g transform="translate(-38,-22) scale(1,1)"><rect fill="#C0C0C0" stroke="none" x="97" y="175" width="89.7763671875" height="44" opacity="0.2"/></g><g transform="translate(-38,-22) scale(1,1)"><rect fill="#ffffff" stroke="none" x="90" y="168" width="89.7763671875" height="44"/></g><g transform="translate(-38,-22) scale(1,1)"><path fill="none" stroke="#000000" d="M 90 168 L 179.7763671875 168 L 179.7763671875 212 L 90 212 L 90 168 Z Z" stroke-miterlimit="10"/></g><g transform="translate(-38,-22) scale(1,1)"><rect fill="#ffffff" stroke="none" x="80" y="175" width="20" height="10"/></g><g transform="translate(-38,-22) scale(1,1)"><path fill="none" stroke="#000000" d="M 80 175 L 100 175 L 100 185 L 80 185 L 80 175 Z Z" stroke-miterlimit="10"/></g><g transform="translate(-38,-22) scale(1,1)"><rect fill="#ffffff" stroke="none" x="80" y="195" width="20" height="10"/></g><g transform="translate(-38,-22) scale(1,1)"><path fill="none" stroke="#000000" d="M 80 195 L 100 195 L 100 205 L 80 205 L 80 195 Z Z" stroke-miterlimit="10"/></g><g transform="translate(-38,-22) scale(1,1)"><g><path fill="none" stroke="none"/><text fill="#000000" stroke="none" font-family="Arial" font-size="13px" font-style="normal" font-weight="bold" text-decoration="none" x="126.16455078125" y="187.5">User</text><text fill="#000000" stroke="none" font-family="Arial" font-size="13px" font-style="normal" font-weight="bold" text-decoration="none" x="108.089599609375" y="200.5">Application</text></g></g><g transform="translate(-38,-22) scale(1,1)"><rect fill="#C0C0C0" stroke="none" x="249" y="175" width="110" height="44" opacity="0.2"/></g><g transform="translate(-38,-22) scale(1,1)"><rect fill="#ffffff" stroke="none" x="242" y="168" width="110" height="44"/></g><g transform="translate(-38,-22) scale(1,1)"><path fill="none" stroke="#000000" d="M 242 168 L 352 168 L 352 212 L 242 212 L 242 168 Z Z" stroke-miterlimit="10"/></g><g transform="translate(-38,-22) scale(1,1)"><rect fill="#ffffff" stroke="none" x="232" y="175" width="20" height="10"/></g><g transform="translate(-38,-22) scale(1,1)"><path fill="none" stroke="#000000" d="M 232 175 L 252 175 L 252 185 L 232 185 L 232 175 Z Z" stroke-miterlimit="10"/></g><g transform="translate(-38,-22) scale(1,1)"><rect fill="#ffffff" stroke="none" x="232" y="195" width="20" height="10"/></g><g transform="translate(-38,-22) scale(1,1)"><path fill="none" stroke="#000000" d="M 232 195 L 252 195 L 252 205 L 232 205 L 232 195 Z Z" stroke-miterlimit="10"/></g><g transform="translate(-38,-22) scale(1,1)"><g><path fill="none" stroke="none"/><text fill="#000000" stroke="none" font-family="Arial" font-size="13px" font-style="normal" font-weight="bold" text-decoration="none" x="273.095947265625" y="187.5">Employee</text><text fill="#000000" stroke="none" font-family="Arial" font-size="13px" font-style="normal" font-weight="bold" text-decoration="none" x="270.201416015625" y="200.5">Application</text></g></g><g transform="translate(-38,-22) scale(1,1)"><path fill="#C0C0C0" stroke="none" d="M 55 409 L 348 409 L 348 614 L 55 614" opacity="0.2"/></g><g transform="translate(-38,-22) scale(1,1)"><path fill="#C0C0C0" stroke="none" d="M 55 409 L 65 399 L 358 399 L 348 409" opacity="0.2"/></g><g transform="translate(-38,-22) scale(1,1)"><path fill="#C0C0C0" stroke="none" d="M 358 399 L 348 409 L 348 614 L 358 604" opacity="0.2"/></g><g transform="translate(-38,-22) scale(1,1)"><path fill="#ffffff" stroke="none" d="M 48 402 L 341 402 L 341 607 L 48 607"/></g><g transform="translate(-38,-22) scale(1,1)"><path fill="#ffffff" stroke="none" d="M 48 402 L 58 392 L 351 392 L 341 402"/></g><g transform="translate(-38,-22) scale(1,1)"><path fill="#ffffff" stroke="none" d="M 351 392 L 341 402 L 341 607 L 351 597"/></g><g transform="translate(-38,-22) scale(1,1)"><path fill="none" stroke="#000000" d="M 48 402 L 341 402 L 341 607 L 48 607 L 48 402" stroke-miterlimit="10"/></g><g transform="translate(-38,-22) scale(1,1)"><path fill="none" stroke="#000000" d="M 48 402 L 58 392 L 351 392 L 341 402 L 48 402" stroke-miterlimit="10"/></g><g transform="translate(-38,-22) scale(1,1)"><path fill="none" stroke="#000000" d="M 351 392 L 341 402 L 341 607 L 351 597 L 351 392" stroke-miterlimit="10"/></g><g transform="translate(-38,-22) scale(1,1)"><g><path fill="none" stroke="none"/><text fill="#000000" stroke="none" font-family="Arial" font-size="13px" font-style="normal" font-weight="normal" text-decoration="none" x="168.98095703125" y="419.5">«device»</text></g></g><g transform="translate(-38,-22) scale(1,1)"><g><path fill="none" stroke="none"/><text fill="#000000" stroke="none" font-family="Arial" font-size="13px" font-style="normal" font-weight="bold" text-decoration="none" x="160.6845703125" y="434.5">Web Server</text></g></g><g transform="translate(-38,-22) scale(1,1)"><path fill="#C0C0C0" stroke="none" d="M 63 465 L 332 465 L 332 598 L 63 598" opacity="0.2"/></g><g transform="translate(-38,-22) scale(1,1)"><path fill="#C0C0C0" stroke="none" d="M 63 465 L 73 455 L 342 455 L 332 465" opacity="0.2"/></g><g transform="translate(-38,-22) scale(1,1)"><path fill="#C0C0C0" stroke="none" d="M 342 455 L 332 465 L 332 598 L 342 588" opacity="0.2"/></g><g transform="translate(-38,-22) scale(1,1)"><path fill="#ffffff" stroke="none" d="M 56 458 L 325 458 L 325 591 L 56 591"/></g><g transform="translate(-38,-22) scale(1,1)"><path fill="#ffffff" stroke="none" d="M 56 458 L 66 448 L 335 448 L 325 458"/></g><g transform="translate(-38,-22) scale(1,1)"><path fill="#ffffff" stroke="none" d="M 335 448 L 325 458 L 325 591 L 335 581"/></g><g transform="translate(-38,-22) scale(1,1)"><path fill="none" stroke="#000000" d="M 56 458 L 325 458 L 325 591 L 56 591 L 56 458" stroke-miterlimit="10"/></g><g transform="translate(-38,-22) scale(1,1)"><path fill="none" stroke="#000000" d="M 56 458 L 66 448 L 335 448 L 325 458 L 56 458" stroke-miterlimit="10"/></g><g transform="translate(-38,-22) scale(1,1)"><path fill="none" stroke="#000000" d="M 335 448 L 325 458 L 325 591 L 335 581 L 335 448" stroke-miterlimit="10"/></g><g transform="translate(-38,-22) scale(1,1)"><g><path fill="none" stroke="none"/><text fill="#000000" stroke="none" font-family="Arial" font-size="13px" font-style="normal" font-weight="normal" text-decoration="none" x="132.826904296875" y="475.5">«application server»</text></g></g><g transform="translate(-38,-22) scale(1,1)"><g><path fill="none" stroke="none"/><text fill="#000000" stroke="none" font-family="Arial" font-size="13px" font-style="normal" font-weight="bold" text-decoration="none" x="164.27001953125" y="490.5">Glassfish</text></g></g><g transform="translate(-38,-22) scale(1,1)"><rect fill="#C0C0C0" stroke="none" x="145" y="527" width="98.44091796875" height="44" opacity="0.2"/></g><g transform="translate(-38,-22) scale(1,1)"><rect fill="#ffffff" stroke="none" x="138" y="520" width="98.44091796875" height="44"/></g><g transform="translate(-38,-22) scale(1,1)"><path fill="none" stroke="#000000" d="M 138 520 L 236.44091796875 520 L 236.44091796875 564 L 138 564 L 138 520 Z Z" stroke-miterlimit="10"/></g><g transform="translate(-38,-22) scale(1,1)"><rect fill="#ffffff" stroke="none" x="128" y="527" width="20" height="10"/></g><g transform="translate(-38,-22) scale(1,1)"><path fill="none" stroke="#000000" d="M 128 527 L 148 527 L 148 537 L 128 537 L 128 527 Z Z" stroke-miterlimit="10"/></g><g transform="translate(-38,-22) scale(1,1)"><rect fill="#ffffff" stroke="none" x="128" y="547" width="20" height="10"/></g><g transform="translate(-38,-22) scale(1,1)"><path fill="none" stroke="#000000" d="M 128 547 L 148 547 L 148 557 L 128 557 L 128 547 Z Z" stroke-miterlimit="10"/></g><g transform="translate(-38,-22) scale(1,1)"><g><path fill="none" stroke="none"/><text fill="#000000" stroke="none" font-family="Arial" font-size="13px" font-style="normal" font-weight="bold" text-decoration="none" x="174.161376953125" y="539.5">server</text></g></g><g transform="translate(-38,-22) scale(1,1)"><path fill="#C0C0C0" stroke="none" d="M 527 417 L 820 417 L 820 622 L 527 622" opacity="0.2"/></g><g transform="translate(-38,-22) scale(1,1)"><path fill="#C0C0C0" stroke="none" d="M 527 417 L 537 407 L 830 407 L 820 417" opacity="0.2"/></g><g transform="translate(-38,-22) scale(1,1)"><path fill="#C0C0C0" stroke="none" d="M 830 407 L 820 417 L 820 622 L 830 612" opacity="0.2"/></g><g transform="translate(-38,-22) scale(1,1)"><path fill="#ffffff" stroke="none" d="M 520 410 L 813 410 L 813 615 L 520 615"/></g><g transform="translate(-38,-22) scale(1,1)"><path fill="#ffffff" stroke="none" d="M 520 410 L 530 400 L 823 400 L 813 410"/></g><g transform="translate(-38,-22) scale(1,1)"><path fill="#ffffff" stroke="none" d="M 823 400 L 813 410 L 813 615 L 823 605"/></g><g transform="translate(-38,-22) scale(1,1)"><path fill="none" stroke="#000000" d="M 520 410 L 813 410 L 813 615 L 520 615 L 520 410" stroke-miterlimit="10"/></g><g transform="translate(-38,-22) scale(1,1)"><path fill="none" stroke="#000000" d="M 520 410 L 530 400 L 823 400 L 813 410 L 520 410" stroke-miterlimit="10"/></g><g transform="translate(-38,-22) scale(1,1)"><path fill="none" stroke="#000000" d="M 823 400 L 813 410 L 813 615 L 823 605 L 823 400" stroke-miterlimit="10"/></g><g transform="translate(-38,-22) scale(1,1)"><g><path fill="none" stroke="none"/><text fill="#000000" stroke="none" font-family="Arial" font-size="13px" font-style="normal" font-weight="normal" text-decoration="none" x="640.98095703125" y="427.5">«device»</text></g></g><g transform="translate(-38,-22) scale(1,1)"><g><path fill="none" stroke="none"/><text fill="#000000" stroke="none" font-family="Arial" font-size="13px" font-style="normal" font-weight="bold" text-decoration="none" x="609.1982421875" y="442.5">Backup Web Server</text></g></g><g transform="translate(-38,-22) scale(1,1)"><path fill="#C0C0C0" stroke="none" d="M 535 473 L 804 473 L 804 614 L 535 614" opacity="0.2"/></g><g transform="translate(-38,-22) scale(1,1)"><path fill="#C0C0C0" stroke="none" d="M 535 473 L 545 463 L 814 463 L 804 473" opacity="0.2"/></g><g transform="translate(-38,-22) scale(1,1)"><path fill="#C0C0C0" stroke="none" d="M 814 463 L 804 473 L 804 614 L 814 604" opacity="0.2"/></g><g transform="translate(-38,-22) scale(1,1)"><path fill="#ffffff" stroke="none" d="M 528 466 L 797 466 L 797 607 L 528 607"/></g><g transform="translate(-38,-22) scale(1,1)"><path fill="#ffffff" stroke="none" d="M 528 466 L 538 456 L 807 456 L 797 466"/></g><g transform="translate(-38,-22) scale(1,1)"><path fill="#ffffff" stroke="none" d="M 807 456 L 797 466 L 797 607 L 807 597"/></g><g transform="translate(-38,-22) scale(1,1)"><path fill="none" stroke="#000000" d="M 528 466 L 797 466 L 797 607 L 528 607 L 528 466" stroke-miterlimit="10"/></g><g transform="translate(-38,-22) scale(1,1)"><path fill="none" stroke="#000000" d="M 528 466 L 538 456 L 807 456 L 797 466 L 528 466" stroke-miterlimit="10"/></g><g transform="translate(-38,-22) scale(1,1)"><path fill="none" stroke="#000000" d="M 807 456 L 797 466 L 797 607 L 807 597 L 807 456" stroke-miterlimit="10"/></g><g transform="translate(-38,-22) scale(1,1)"><g><path fill="none" stroke="none"/><text fill="#000000" stroke="none" font-family="Arial" font-size="13px" font-style="normal" font-weight="normal" text-decoration="none" x="604.826904296875" y="483.5">«application server»</text></g></g><g transform="translate(-38,-22) scale(1,1)"><g><path fill="none" stroke="none"/><text fill="#000000" stroke="none" font-family="Arial" font-size="13px" font-style="normal" font-weight="bold" text-decoration="none" x="636.27001953125" y="498.5">Glassfish</text></g></g><g transform="translate(-38,-22) scale(1,1)"><rect fill="#C0C0C0" stroke="none" x="625" y="535" width="98.44091796875" height="44" opacity="0.2"/></g><g transform="translate(-38,-22) scale(1,1)"><rect fill="#ffffff" stroke="none" x="618" y="528" width="98.44091796875" height="44"/></g><g transform="translate(-38,-22) scale(1,1)"><path fill="none" stroke="#000000" d="M 618 528 L 716.44091796875 528 L 716.44091796875 572 L 618 572 L 618 528 Z Z" stroke-miterlimit="10"/></g><g transform="translate(-38,-22) scale(1,1)"><rect fill="#ffffff" stroke="none" x="608" y="535" width="20" height="10"/></g><g transform="translate(-38,-22) scale(1,1)"><path fill="none" stroke="#000000" d="M 608 535 L 628 535 L 628 545 L 608 545 L 608 535 Z Z" stroke-miterlimit="10"/></g><g transform="translate(-38,-22) scale(1,1)"><rect fill="#ffffff" stroke="none" x="608" y="555" width="20" height="10"/></g><g transform="translate(-38,-22) scale(1,1)"><path fill="none" stroke="#000000" d="M 608 555 L 628 555 L 628 565 L 608 565 L 608 555 Z Z" stroke-miterlimit="10"/></g><g transform="translate(-38,-22) scale(1,1)"><g><path fill="none" stroke="none"/><text fill="#000000" stroke="none" font-family="Arial" font-size="13px" font-style="normal" font-weight="bold" text-decoration="none" x="654.161376953125" y="547.5">server</text></g></g><g transform="translate(-38,-22) scale(1,1)"><path fill="#C0C0C0" stroke="none" d="M 446.7099609375 386.5 C 446.7099609375 380.1487248 451.8586857375 375 458.2099609375 375 C 464.5612361375 375 469.7099609375 380.1487248 469.7099609375 386.5 C 469.7099609375 392.8512752 464.5612361375 398 458.2099609375 398 C 451.8586857375 398 446.7099609375 392.8512752 446.7099609375 386.5 Z" opacity="0.2"/></g><g transform="translate(-38,-22) scale(1,1)"><path fill="none" stroke="#000000" d="M 447.9220955664599 390.0804559607443 A 11.5 11.5 0 0 1 454.0779044335401 367.9195440392557" stroke-miterlimit="10"/></g><g transform="translate(-38,-22) scale(1,1)"><path fill="none" stroke="#000000" d="M 445.08329881258345 388.86116864569425 A 11.5 11.5 0 1 1 456.91670118741655 369.13883135430575" stroke-miterlimit="10"/></g><g transform="translate(-38,-22) scale(1,1)"><path fill="none" stroke="#000000" d="M 443.81600695312414 370.02000869140517 A 11.5 11.5 0 0 1 458.18399304687586 387.97999130859483" stroke-miterlimit="10"/></g><g transform="translate(-38,-22) scale(1,1)"><path fill="none" stroke="#000000" d="M 446.46992806633955 368.42983215479234 A 11.5 11.5 0 0 1 455.53007193366045 389.57016784520766" stroke-miterlimit="10"/></g><g transform="translate(-38,-22) scale(1,1)"><path fill="none" stroke="#000000" d="M 449.73003745013926 367.5703370512534 A 11.5 11.5 0 0 1 452.26996254986074 390.4296629487466" stroke-miterlimit="10"/></g><g transform="translate(-38,-22) scale(1,1)"><path fill="#ffffff" stroke="none" d="M 442.7099609375 379.5 C 442.7099609375 374.8055792 446.5155401375 371 451.2099609375 371 C 455.9043817375 371 459.7099609375 374.8055792 459.7099609375 379.5 C 459.7099609375 384.1944208 455.9043817375 388 451.2099609375 388 C 446.5155401375 388 442.7099609375 384.1944208 442.7099609375 379.5 Z"/></g><g transform="translate(-38,-22) scale(1,1)"><path fill="none" stroke="#000000" d="M 442.7099609375 379.5 C 442.7099609375 374.8055792 446.5155401375 371 451.2099609375 371 C 455.9043817375 371 459.7099609375 374.8055792 459.7099609375 379.5 C 459.7099609375 384.1944208 455.9043817375 388 451.2099609375 388 C 446.5155401375 388 442.7099609375 384.1944208 442.7099609375 379.5 Z" stroke-miterlimit="10"/></g><g transform="translate(-38,-22) scale(1,1)"><g><path fill="none" stroke="none"/><text fill="#000000" stroke="none" font-family="Arial" font-size="13px" font-style="normal" font-weight="bold" text-decoration="none" x="429.904052734375" y="410.5">HTTPS</text></g></g><g transform="translate(-38,-22) scale(1,1)"><path fill="none" stroke="#000000" d="M 223 519 L 439.7099609375 389.3492024739583" stroke-miterlimit="10"/></g><g transform="translate(-38,-22) scale(1,1)"><path fill="none" stroke="#000000" d="M 631 527 L 461.42105263157896 391" stroke-miterlimit="10"/></g><g transform="translate(-38,-22) scale(1,1)"><path fill="none" stroke="#000000" d="M 166 213 L 439.7099609375 375.86387803819446" stroke-miterlimit="10"/></g><g transform="translate(-38,-22) scale(1,1)"><path fill="none" stroke="#000000" d="M 310 213 L 439.7099609375 372.2259765625" stroke-miterlimit="10"/></g><g transform="translate(-38,-22) scale(1,1)"><path fill="none" stroke="#000000" d="M 562 205 L 462.7099609375 369.63203125" stroke-miterlimit="10"/></g><g transform="translate(-38,-22) scale(1,1)"><path fill="none" stroke="#000000" d="M 662 205 L 462.7099609375 373.9814453125" stroke-miterlimit="10"/></g><g transform="translate(-38,-22) scale(1,1)"><path fill="#C0C0C0" stroke="none" d="M 351 865 L 516 865 L 516 990 L 351 990" opacity="0.2"/></g><g transform="translate(-38,-22) scale(1,1)"><path fill="#C0C0C0" stroke="none" d="M 351 865 L 361 855 L 526 855 L 516 865" opacity="0.2"/></g><g transform="translate(-38,-22) scale(1,1)"><path fill="#C0C0C0" stroke="none" d="M 526 855 L 516 865 L 516 990 L 526 980" opacity="0.2"/></g><g transform="translate(-38,-22) scale(1,1)"><path fill="#ffffff" stroke="none" d="M 344 858 L 509 858 L 509 983 L 344 983"/></g><g transform="translate(-38,-22) scale(1,1)"><path fill="#ffffff" stroke="none" d="M 344 858 L 354 848 L 519 848 L 509 858"/></g><g transform="translate(-38,-22) scale(1,1)"><path fill="#ffffff" stroke="none" d="M 519 848 L 509 858 L 509 983 L 519 973"/></g><g transform="translate(-38,-22) scale(1,1)"><path fill="none" stroke="#000000" d="M 344 858 L 509 858 L 509 983 L 344 983 L 344 858" stroke-miterlimit="10"/></g><g transform="translate(-38,-22) scale(1,1)"><path fill="none" stroke="#000000" d="M 344 858 L 354 848 L 519 848 L 509 858 L 344 858" stroke-miterlimit="10"/></g><g transform="translate(-38,-22) scale(1,1)"><path fill="none" stroke="#000000" d="M 519 848 L 509 858 L 509 983 L 519 973 L 519 848" stroke-miterlimit="10"/></g><g transform="translate(-38,-22) scale(1,1)"><g><path fill="none" stroke="none"/><text fill="#000000" stroke="none" font-family="Arial" font-size="13px" font-style="normal" font-weight="normal" text-decoration="none" x="400.98095703125" y="875.5">«device»</text></g></g><g transform="translate(-38,-22) scale(1,1)"><g><path fill="none" stroke="none"/><text fill="#000000" stroke="none" font-family="Arial" font-size="13px" font-style="normal" font-weight="bold" text-decoration="none" x="377.504150390625" y="890.5">DataBase Server</text></g></g><g transform="translate(-38,-22) scale(1,1)"><rect fill="#C0C0C0" stroke="none" x="385" y="919" width="105.6708984375" height="44" opacity="0.2"/></g><g transform="translate(-38,-22) scale(1,1)"><rect fill="#ffffff" stroke="none" x="378" y="912" width="105.6708984375" height="44"/></g><g transform="translate(-38,-22) scale(1,1)"><path fill="none" stroke="#000000" d="M 378 912 L 483.6708984375 912 L 483.6708984375 956 L 378 956 L 378 912 Z Z" stroke-miterlimit="10"/></g><g transform="translate(-38,-22) scale(1,1)"><rect fill="#ffffff" stroke="none" x="368" y="919" width="20" height="10"/></g><g transform="translate(-38,-22) scale(1,1)"><path fill="none" stroke="#000000" d="M 368 919 L 388 919 L 388 929 L 368 929 L 368 919 Z Z" stroke-miterlimit="10"/></g><g transform="translate(-38,-22) scale(1,1)"><rect fill="#ffffff" stroke="none" x="368" y="939" width="20" height="10"/></g><g transform="translate(-38,-22) scale(1,1)"><path fill="none" stroke="#000000" d="M 368 939 L 388 939 L 388 949 L 368 949 L 368 939 Z Z" stroke-miterlimit="10"/></g><g transform="translate(-38,-22) scale(1,1)"><g><path fill="none" stroke="none"/><text fill="#000000" stroke="none" font-family="Arial" font-size="13px" font-style="normal" font-weight="bold" text-decoration="none" x="393.5791015625" y="931.5">MySQL DBMS</text></g></g><g transform="translate(-38,-22) scale(1,1)"><path fill="#C0C0C0" stroke="none" d="M 431.6181640625 746.5 C 431.6181640625 740.1487248 436.7668888625 735 443.1181640625 735 C 449.4694392625 735 454.6181640625 740.1487248 454.6181640625 746.5 C 454.6181640625 752.8512752 449.4694392625 758 443.1181640625 758 C 436.7668888625 758 431.6181640625 752.8512752 431.6181640625 746.5 Z" opacity="0.2"/></g><g transform="translate(-38,-22) scale(1,1)"><path fill="none" stroke="#000000" d="M 431.7290072219278 749.6774819451805 A 11.5 11.5 0 0 1 440.2709927780722 728.3225180548195" stroke-miterlimit="10"/></g><g transform="translate(-38,-22) scale(1,1)"><path fill="none" stroke="#000000" d="M 431.46992806633955 728.4298321547924 A 11.5 11.5 0 0 1 440.53007193366045 749.5701678452076" stroke-miterlimit="10"/></g><g transform="translate(-38,-22) scale(1,1)"><path fill="#ffffff" stroke="none" d="M 427.6181640625 739.5 C 427.6181640625 734.8055792 431.4237432625 731 436.1181640625 731 C 440.8125848625 731 444.6181640625 734.8055792 444.6181640625 739.5 C 444.6181640625 744.1944208 440.8125848625 748 436.1181640625 748 C 431.4237432625 748 427.6181640625 744.1944208 427.6181640625 739.5 Z"/></g><g transform="translate(-38,-22) scale(1,1)"><path fill="none" stroke="#000000" d="M 427.6181640625 739.5 C 427.6181640625 734.8055792 431.4237432625 731 436.1181640625 731 C 440.8125848625 731 444.6181640625 734.8055792 444.6181640625 739.5 C 444.6181640625 744.1944208 440.8125848625 748 436.1181640625 748 C 431.4237432625 748 427.6181640625 744.1944208 427.6181640625 739.5 Z" stroke-miterlimit="10"/></g><g transform="translate(-38,-22) scale(1,1)"><g><path fill="none" stroke="none"/><text fill="#000000" stroke="none" font-family="Arial" font-size="13px" font-style="normal" font-weight="bold" text-decoration="none" x="384.095947265625" y="770.5">MySQL connector</text></g></g><g transform="translate(-38,-22) scale(1,1)"><path fill="none" stroke="#000000" d="M 210 565 L 424.6181640625 734.447265625" stroke-miterlimit="10"/></g><g transform="translate(-38,-22) scale(1,1)"><path fill="none" stroke="#000000" d="M 636 573 L 447.6181640625 734.0207868303571" stroke-miterlimit="10"/></g><g transform="translate(-38,-22) scale(1,1)"><path fill="#C0C0C0" stroke="none" d="M 831 49 L 1068 49 L 1068 254 L 831 254" opacity="0.2"/></g><g transform="translate(-38,-22) scale(1,1)"><path fill="#C0C0C0" stroke="none" d="M 831 49 L 841 39 L 1078 39 L 1068 49" opacity="0.2"/></g><g transform="translate(-38,-22) scale(1,1)"><path fill="#C0C0C0" stroke="none" d="M 1078 39 L 1068 49 L 1068 254 L 1078 244" opacity="0.2"/></g><g transform="translate(-38,-22) scale(1,1)"><path fill="#ffffff" stroke="none" d="M 824 42 L 1061 42 L 1061 247 L 824 247"/></g><g transform="translate(-38,-22) scale(1,1)"><path fill="#ffffff" stroke="none" d="M 824 42 L 834 32 L 1071 32 L 1061 42"/></g><g transform="translate(-38,-22) scale(1,1)"><path fill="#ffffff" stroke="none" d="M 1071 32 L 1061 42 L 1061 247 L 1071 237"/></g><g transform="translate(-38,-22) scale(1,1)"><path fill="none" stroke="#000000" d="M 824 42 L 1061 42 L 1061 247 L 824 247 L 824 42" stroke-miterlimit="10"/></g><g transform="translate(-38,-22) scale(1,1)"><path fill="none" stroke="#000000" d="M 824 42 L 834 32 L 1071 32 L 1061 42 L 824 42" stroke-miterlimit="10"/></g><g transform="translate(-38,-22) scale(1,1)"><path fill="none" stroke="#000000" d="M 1071 32 L 1061 42 L 1061 247 L 1071 237 L 1071 32" stroke-miterlimit="10"/></g><g transform="translate(-38,-22) scale(1,1)"><g><path fill="none" stroke="none"/><text fill="#000000" stroke="none" font-family="Arial" font-size="13px" font-style="normal" font-weight="normal" text-decoration="none" x="916.98095703125" y="59.5">«device»</text></g></g><g transform="translate(-38,-22) scale(1,1)"><g><path fill="none" stroke="none"/><text fill="#000000" stroke="none" font-family="Arial" font-size="13px" font-style="normal" font-weight="bold" text-decoration="none" x="932.5263671875" y="74.5">Car</text></g></g><g transform="translate(-38,-22) scale(1,1)"><rect fill="#C0C0C0" stroke="none" x="873" y="159" width="134.5654296875" height="44" opacity="0.2"/></g><g transform="translate(-38,-22) scale(1,1)"><rect fill="#ffffff" stroke="none" x="866" y="152" width="134.5654296875" height="44"/></g><g transform="translate(-38,-22) scale(1,1)"><path fill="none" stroke="#000000" d="M 866 152 L 1000.5654296875 152 L 1000.5654296875 196 L 866 196 L 866 152 Z Z" stroke-miterlimit="10"/></g><g transform="translate(-38,-22) scale(1,1)"><rect fill="#ffffff" stroke="none" x="856" y="159" width="20" height="10"/></g><g transform="translate(-38,-22) scale(1,1)"><path fill="none" stroke="#000000" d="M 856 159 L 876 159 L 876 169 L 856 169 L 856 159 Z Z" stroke-miterlimit="10"/></g><g transform="translate(-38,-22) scale(1,1)"><rect fill="#ffffff" stroke="none" x="856" y="179" width="20" height="10"/></g><g transform="translate(-38,-22) scale(1,1)"><path fill="none" stroke="#000000" d="M 856 179 L 876 179 L 876 189 L 856 189 L 856 179 Z Z" stroke-miterlimit="10"/></g><g transform="translate(-38,-22) scale(1,1)"><g><path fill="none" stroke="none"/><text fill="#000000" stroke="none" font-family="Arial" font-size="13px" font-style="normal" font-weight="bold" text-decoration="none" x="907.9345703125" y="171.5">Monitoring</text><text fill="#000000" stroke="none" font-family="Arial" font-size="13px" font-style="normal" font-weight="bold" text-decoration="none" x="917.697265625" y="184.5">system</text></g></g><g transform="translate(-38,-22) scale(1,1)"><path fill="none" stroke="#000000" d="M 878 197 L 462.7099609375 377.6988932291667" stroke-miterlimit="10"/></g></g></svg>