<svg version="1.1" xmlns="http://www.w3.org/2000/svg" xmlns:xlink="http://www.w3.org/1999/xlink" width="1608.44091796875" height="864"><defs/><g><g transform="translate(-62,-190) scale(1,1)"><path fill="none" stroke="#000000" d="M 272 360 L 1440 360 L 1440 936 L 272 936 L 272 360" stroke-miterlimit="10"/></g><g transform="translate(-62,-190) scale(1,1)"><path fill="#ffffff" stroke="none" d="M 272 360 L 272 382 L 410.12890625 382 L 421.12890625 371 L 421.12890625 360 L 272 360"/></g><g transform="translate(-62,-190) scale(1,1)"><path fill="none" stroke="#000000" d="M 272 360 L 272 382 L 410.12890625 382 L 421.12890625 371 L 421.12890625 360 L 272 360 L 272 360" stroke-miterlimit="10"/></g><g transform="translate(-62,-190) scale(1,1)"><g><path fill="none" stroke="none"/><text fill="#000000" stroke="none" font-family="Arial" font-size="13px" font-style="normal" font-weight="normal" text-decoration="none" x="332.14990234375" y="377.5">PowerEnJoy</text></g></g><g transform="translate(-62,-190) scale(1,1)"><g><path fill="none" stroke="none"/><text fill="#000000" stroke="none" font-family="Arial" font-size="13px" font-style="normal" font-weight="bold" text-decoration="none" x="277" y="377.5">package</text></g></g><g transform="translate(-62,-190) scale(1,1)"><rect fill="#C0C0C0" stroke="none" x="409" y="695" width="98.44091796875" height="44" opacity="0.2"/></g><g transform="translate(-62,-190) scale(1,1)"><rect fill="#ffffff" stroke="none" x="402" y="688" width="98.44091796875" height="44"/></g><g transform="translate(-62,-190) scale(1,1)"><path fill="none" stroke="#000000" d="M 402 688 L 500.44091796875 688 L 500.44091796875 732 L 402 732 L 402 688 Z Z" stroke-miterlimit="10"/></g><g transform="translate(-62,-190) scale(1,1)"><rect fill="#ffffff" stroke="none" x="392" y="695" width="20" height="10"/></g><g transform="translate(-62,-190) scale(1,1)"><path fill="none" stroke="#000000" d="M 392 695 L 412 695 L 412 705 L 392 705 L 392 695 Z Z" stroke-miterlimit="10"/></g><g transform="translate(-62,-190) scale(1,1)"><rect fill="#ffffff" stroke="none" x="392" y="715" width="20" height="10"/></g><g transform="translate(-62,-190) scale(1,1)"><path fill="none" stroke="#000000" d="M 392 715 L 412 715 L 412 725 L 392 725 L 392 715 Z Z" stroke-miterlimit="10"/></g><g transform="translate(-62,-190) scale(1,1)"><g><path fill="none" stroke="none"/><text fill="#000000" stroke="none" font-family="Arial" font-size="13px" font-style="normal" font-weight="bold" text-decoration="none" x="436.7109375" y="707.5">Router</text></g></g><g transform="translate(-62,-190) scale(1,1)"><rect fill="#C0C0C0" stroke="none" x="865" y="447" width="110" height="44" opacity="0.2"/></g><g transform="translate(-62,-190) scale(1,1)"><rect fill="#ffffff" stroke="none" x="858" y="440" width="110" height="44"/></g><g transform="translate(-62,-190) scale(1,1)"><path fill="none" stroke="#000000" d="M 858 440 L 968 440 L 968 484 L 858 484 L 858 440 Z Z" stroke-miterlimit="10"/></g><g transform="translate(-62,-190) scale(1,1)"><rect fill="#ffffff" stroke="none" x="848" y="447" width="20" height="10"/></g><g transform="translate(-62,-190) scale(1,1)"><path fill="none" stroke="#000000" d="M 848 447 L 868 447 L 868 457 L 848 457 L 848 447 Z Z" stroke-miterlimit="10"/></g><g transform="translate(-62,-190) scale(1,1)"><rect fill="#ffffff" stroke="none" x="848" y="467" width="20" height="10"/></g><g transform="translate(-62,-190) scale(1,1)"><path fill="none" stroke="#000000" d="M 848 467 L 868 467 L 868 477 L 848 477 L 848 467 Z Z" stroke-miterlimit="10"/></g><g transform="translate(-62,-190) scale(1,1)"><g><path fill="none" stroke="none"/><text fill="#000000" stroke="none" font-family="Arial" font-size="13px" font-style="normal" font-weight="bold" text-decoration="none" x="887.65185546875" y="459.5">Monitoring</text><text fill="#000000" stroke="none" font-family="Arial" font-size="13px" font-style="normal" font-weight="bold" text-decoration="none" x="891.266845703125" y="472.5">controller</text></g></g><g transform="translate(-62,-190) scale(1,1)"><rect fill="#C0C0C0" stroke="none" x="905" y="535" width="110" height="44" opacity="0.2"/></g><g transform="translate(-62,-190) scale(1,1)"><rect fill="#ffffff" stroke="none" x="898" y="528" width="110" height="44"/></g><g transform="translate(-62,-190) scale(1,1)"><path fill="none" stroke="#000000" d="M 898 528 L 1008 528 L 1008 572 L 898 572 L 898 528 Z Z" stroke-miterlimit="10"/></g><g transform="translate(-62,-190) scale(1,1)"><rect fill="#ffffff" stroke="none" x="888" y="535" width="20" height="10"/></g><g transform="translate(-62,-190) scale(1,1)"><path fill="none" stroke="#000000" d="M 888 535 L 908 535 L 908 545 L 888 545 L 888 535 Z Z" stroke-miterlimit="10"/></g><g transform="translate(-62,-190) scale(1,1)"><rect fill="#ffffff" stroke="none" x="888" y="555" width="20" height="10"/></g><g transform="translate(-62,-190) scale(1,1)"><path fill="none" stroke="#000000" d="M 888 555 L 908 555 L 908 565 L 888 565 L 888 555 Z Z" stroke-miterlimit="10"/></g><g transform="translate(-62,-190) scale(1,1)"><g><path fill="none" stroke="none"/><text fill="#000000" stroke="none" font-family="Arial" font-size="13px" font-style="normal" font-weight="bold" text-decoration="none" x="923.31640625" y="547.5">Reservation</text><text fill="#000000" stroke="none" font-family="Arial" font-size="13px" font-style="normal" font-weight="bold" text-decoration="none" x="931.266845703125" y="560.5">controller</text></g></g><g transform="translate(-62,-190) scale(1,1)"><rect fill="#C0C0C0" stroke="none" x="865" y="695" width="111.47265625" height="44" opacity="0.2"/></g><g transform="translate(-62,-190) scale(1,1)"><rect fill="#ffffff" stroke="none" x="858" y="688" width="111.47265625" height="44"/></g><g transform="translate(-62,-190) scale(1,1)"><path fill="none" stroke="#000000" d="M 858 688 L 969.47265625 688 L 969.47265625 732 L 858 732 L 858 688 Z Z" stroke-miterlimit="10"/></g><g transform="translate(-62,-190) scale(1,1)"><rect fill="#ffffff" stroke="none" x="848" y="695" width="20" height="10"/></g><g transform="translate(-62,-190) scale(1,1)"><path fill="none" stroke="#000000" d="M 848 695 L 868 695 L 868 705 L 848 705 L 848 695 Z Z" stroke-miterlimit="10"/></g><g transform="translate(-62,-190) scale(1,1)"><rect fill="#ffffff" stroke="none" x="848" y="715" width="20" height="10"/></g><g transform="translate(-62,-190) scale(1,1)"><path fill="none" stroke="#000000" d="M 848 715 L 868 715 L 868 725 L 848 725 L 848 715 Z Z" stroke-miterlimit="10"/></g><g transform="translate(-62,-190) scale(1,1)"><g><path fill="none" stroke="none"/><text fill="#000000" stroke="none" font-family="Arial" font-size="13px" font-style="normal" font-weight="bold" text-decoration="none" x="905.0126953125" y="707.5">User</text><text fill="#000000" stroke="none" font-family="Arial" font-size="13px" font-style="normal" font-weight="bold" text-decoration="none" x="892.003173828125" y="720.5">controller</text></g></g><g transform="translate(-62,-190) scale(1,1)"><rect fill="#C0C0C0" stroke="none" x="817" y="767" width="110.736328125" height="44" opacity="0.2"/></g><g transform="translate(-62,-190) scale(1,1)"><rect fill="#ffffff" stroke="none" x="810" y="760" width="110.736328125" height="44"/></g><g transform="translate(-62,-190) scale(1,1)"><path fill="none" stroke="#000000" d="M 810 760 L 920.736328125 760 L 920.736328125 804 L 810 804 L 810 760 Z Z" stroke-miterlimit="10"/></g><g transform="translate(-62,-190) scale(1,1)"><rect fill="#ffffff" stroke="none" x="800" y="767" width="20" height="10"/></g><g transform="translate(-62,-190) scale(1,1)"><path fill="none" stroke="#000000" d="M 800 767 L 820 767 L 820 777 L 800 777 L 800 767 Z Z" stroke-miterlimit="10"/></g><g transform="translate(-62,-190) scale(1,1)"><rect fill="#ffffff" stroke="none" x="800" y="787" width="20" height="10"/></g><g transform="translate(-62,-190) scale(1,1)"><path fill="none" stroke="#000000" d="M 800 787 L 820 787 L 820 797 L 800 797 L 800 787 Z Z" stroke-miterlimit="10"/></g><g transform="translate(-62,-190) scale(1,1)"><g><path fill="none" stroke="none"/><text fill="#000000" stroke="none" font-family="Arial" font-size="13px" font-style="normal" font-weight="bold" text-decoration="none" x="828.4609375" y="779.5">Ride controller</text></g></g><g transform="translate(-62,-190) scale(1,1)"><rect fill="#C0C0C0" stroke="none" x="825" y="607" width="110" height="50" opacity="0.2"/></g><g transform="translate(-62,-190) scale(1,1)"><rect fill="#ffffff" stroke="none" x="818" y="600" width="110" height="50"/></g><g transform="translate(-62,-190) scale(1,1)"><path fill="none" stroke="#000000" d="M 818 600 L 928 600 L 928 650 L 818 650 L 818 600 Z Z" stroke-miterlimit="10"/></g><g transform="translate(-62,-190) scale(1,1)"><rect fill="#ffffff" stroke="none" x="808" y="607" width="20" height="10"/></g><g transform="translate(-62,-190) scale(1,1)"><path fill="none" stroke="#000000" d="M 808 607 L 828 607 L 828 617 L 808 617 L 808 607 Z Z" stroke-miterlimit="10"/></g><g transform="translate(-62,-190) scale(1,1)"><rect fill="#ffffff" stroke="none" x="808" y="627" width="20" height="10"/></g><g transform="translate(-62,-190) scale(1,1)"><path fill="none" stroke="#000000" d="M 808 627 L 828 627 L 828 637 L 808 637 L 808 627 Z Z" stroke-miterlimit="10"/></g><g transform="translate(-62,-190) scale(1,1)"><g><path fill="none" stroke="none"/><text fill="#000000" stroke="none" font-family="Arial" font-size="13px" font-style="normal" font-weight="bold" text-decoration="none" x="839.33642578125" y="619.5">Geographical</text><text fill="#000000" stroke="none" font-family="Arial" font-size="13px" font-style="normal" font-weight="bold" text-decoration="none" x="861.740478515625" y="632.5">areas</text><text fill="#000000" stroke="none" font-family="Arial" font-size="13px" font-style="normal" font-weight="bold" text-decoration="none" x="851.266845703125" y="645.5">controller</text></g></g><g transform="translate(-62,-190) scale(1,1)"><rect fill="#C0C0C0" stroke="none" x="865" y="847" width="110" height="44" opacity="0.2"/></g><g transform="translate(-62,-190) scale(1,1)"><rect fill="#ffffff" stroke="none" x="858" y="840" width="110" height="44"/></g><g transform="translate(-62,-190) scale(1,1)"><path fill="none" stroke="#000000" d="M 858 840 L 968 840 L 968 884 L 858 884 L 858 840 Z Z" stroke-miterlimit="10"/></g><g transform="translate(-62,-190) scale(1,1)"><rect fill="#ffffff" stroke="none" x="848" y="847" width="20" height="10"/></g><g transform="translate(-62,-190) scale(1,1)"><path fill="none" stroke="#000000" d="M 848 847 L 868 847 L 868 857 L 848 857 L 848 847 Z Z" stroke-miterlimit="10"/></g><g transform="translate(-62,-190) scale(1,1)"><rect fill="#ffffff" stroke="none" x="848" y="867" width="20" height="10"/></g><g transform="translate(-62,-190) scale(1,1)"><path fill="none" stroke="#000000" d="M 848 867 L 868 867 L 868 877 L 848 877 L 848 867 Z Z" stroke-miterlimit="10"/></g><g transform="translate(-62,-190) scale(1,1)"><g><path fill="none" stroke="none"/><text fill="#000000" stroke="none" font-family="Arial" font-size="13px" font-style="normal" font-weight="bold" text-decoration="none" x="886.563232421875" y="859.5">Safe areas</text><text fill="#000000" stroke="none" font-family="Arial" font-size="13px" font-style="normal" font-weight="bold" text-decoration="none" x="891.266845703125" y="872.5">controller</text></g></g><g transform="translate(-62,-190) scale(1,1)"><rect fill="#C0C0C0" stroke="none" x="1201" y="751" width="102.7890625" height="44" opacity="0.2"/></g><g transform="translate(-62,-190) scale(1,1)"><rect fill="#ffffff" stroke="none" x="1194" y="744" width="102.7890625" height="44"/></g><g transform="translate(-62,-190) scale(1,1)"><path fill="none" stroke="#000000" d="M 1194 744 L 1296.7890625 744 L 1296.7890625 788 L 1194 788 L 1194 744 Z Z" stroke-miterlimit="10"/></g><g transform="translate(-62,-190) scale(1,1)"><rect fill="#ffffff" stroke="none" x="1184" y="751" width="20" height="10"/></g><g transform="translate(-62,-190) scale(1,1)"><path fill="none" stroke="#000000" d="M 1184 751 L 1204 751 L 1204 761 L 1184 761 L 1184 751 Z Z" stroke-miterlimit="10"/></g><g transform="translate(-62,-190) scale(1,1)"><rect fill="#ffffff" stroke="none" x="1184" y="771" width="20" height="10"/></g><g transform="translate(-62,-190) scale(1,1)"><path fill="none" stroke="#000000" d="M 1184 771 L 1204 771 L 1204 781 L 1184 781 L 1184 771 Z Z" stroke-miterlimit="10"/></g><g transform="translate(-62,-190) scale(1,1)"><g><path fill="none" stroke="none"/><text fill="#000000" stroke="none" font-family="Arial" font-size="13px" font-style="normal" font-weight="bold" text-decoration="none" x="1213.187744140625" y="763.5">Bill controller</text></g></g><g transform="translate(-62,-190) scale(1,1)"><rect fill="#C0C0C0" stroke="none" x="1073" y="447" width="102" height="44" opacity="0.2"/></g><g transform="translate(-62,-190) scale(1,1)"><rect fill="#ffffff" stroke="none" x="1066" y="440" width="102" height="44"/></g><g transform="translate(-62,-190) scale(1,1)"><path fill="none" stroke="#000000" d="M 1066 440 L 1168 440 L 1168 484 L 1066 484 L 1066 440 Z Z" stroke-miterlimit="10"/></g><g transform="translate(-62,-190) scale(1,1)"><rect fill="#ffffff" stroke="none" x="1056" y="447" width="20" height="10"/></g><g transform="translate(-62,-190) scale(1,1)"><path fill="none" stroke="#000000" d="M 1056 447 L 1076 447 L 1076 457 L 1056 457 L 1056 447 Z Z" stroke-miterlimit="10"/></g><g transform="translate(-62,-190) scale(1,1)"><rect fill="#ffffff" stroke="none" x="1056" y="467" width="20" height="10"/></g><g transform="translate(-62,-190) scale(1,1)"><path fill="none" stroke="#000000" d="M 1056 467 L 1076 467 L 1076 477 L 1056 477 L 1056 467 Z Z" stroke-miterlimit="10"/></g><g transform="translate(-62,-190) scale(1,1)"><g><path fill="none" stroke="none"/><text fill="#000000" stroke="none" font-family="Arial" font-size="13px" font-style="normal" font-weight="bold" text-decoration="none" x="1111.5263671875" y="459.5">Car</text><text fill="#000000" stroke="none" font-family="Arial" font-size="13px" font-style="normal" font-weight="bold" text-decoration="none" x="1095.266845703125" y="472.5">controller</text></g></g><g transform="translate(-62,-190) scale(1,1)"><path fill="#C0C0C0" stroke="none" d="M 731.5 562.5 C 731.5 556.1487248 736.6487248 551 743 551 C 749.3512752 551 754.5 556.1487248 754.5 562.5 C 754.5 568.8512752 749.3512752 574 743 574 C 736.6487248 574 731.5 568.8512752 731.5 562.5 Z" opacity="0.2"/></g><g transform="translate(-62,-190) scale(1,1)"><path fill="none" stroke="#000000" d="M 743.4841007947437 563.7314509272009 A 11.5 11.5 0 0 1 728.5158992052563 546.2685490727991" stroke-miterlimit="10"/></g><g transform="translate(-62,-190) scale(1,1)"><path fill="#ffffff" stroke="none" d="M 727.5 555.5 C 727.5 550.8055792 731.3055792 547 736 547 C 740.6944208 547 744.5 550.8055792 744.5 555.5 C 744.5 560.1944208 740.6944208 564 736 564 C 731.3055792 564 727.5 560.1944208 727.5 555.5 Z"/></g><g transform="translate(-62,-190) scale(1,1)"><path fill="none" stroke="#000000" d="M 727.5 555.5 C 727.5 550.8055792 731.3055792 547 736 547 C 740.6944208 547 744.5 550.8055792 744.5 555.5 C 744.5 560.1944208 740.6944208 564 736 564 C 731.3055792 564 727.5 560.1944208 727.5 555.5 Z" stroke-miterlimit="10"/></g><g transform="translate(-62,-190) scale(1,1)"><g><path fill="none" stroke="none"/><text fill="#000000" stroke="none" font-family="Arial" font-size="13px" font-style="normal" font-weight="bold" text-decoration="none" x="701.31640625" y="586.5">Reservation</text><text fill="#000000" stroke="none" font-family="Arial" font-size="13px" font-style="normal" font-weight="bold" text-decoration="none" x="710.345947265625" y="599.5">manager</text></g></g><g transform="translate(-62,-190) scale(1,1)"><path fill="none" stroke="#000000" d="M 887 557 L 747.5 558.0510204081633" stroke-miterlimit="10"/></g><g transform="translate(-62,-190) scale(1,1)"><path fill="#C0C0C0" stroke="none" d="M 723.3544921875 722.5 C 723.3544921875 716.1487248 728.5032169875 711 734.8544921875 711 C 741.2057673875 711 746.3544921875 716.1487248 746.3544921875 722.5 C 746.3544921875 728.8512752 741.2057673875 734 734.8544921875 734 C 728.5032169875 734 723.3544921875 728.8512752 723.3544921875 722.5 Z" opacity="0.2"/></g><g transform="translate(-62,-190) scale(1,1)"><path fill="none" stroke="#000000" d="M 730.4301624210634 725.9765197474028 A 11.5 11.5 0 1 1 723.5698375789366 704.0234802525972" stroke-miterlimit="10"/></g><g transform="translate(-62,-190) scale(1,1)"><path fill="#ffffff" stroke="none" d="M 719.3544921875 715.5 C 719.3544921875 710.8055792 723.1600713875 707 727.8544921875 707 C 732.5489129875 707 736.3544921875 710.8055792 736.3544921875 715.5 C 736.3544921875 720.1944208 732.5489129875 724 727.8544921875 724 C 723.1600713875 724 719.3544921875 720.1944208 719.3544921875 715.5 Z"/></g><g transform="translate(-62,-190) scale(1,1)"><path fill="none" stroke="#000000" d="M 719.3544921875 715.5 C 719.3544921875 710.8055792 723.1600713875 707 727.8544921875 707 C 732.5489129875 707 736.3544921875 710.8055792 736.3544921875 715.5 C 736.3544921875 720.1944208 732.5489129875 724 727.8544921875 724 C 723.1600713875 724 719.3544921875 720.1944208 719.3544921875 715.5 Z" stroke-miterlimit="10"/></g><g transform="translate(-62,-190) scale(1,1)"><g><path fill="none" stroke="none"/><text fill="#000000" stroke="none" font-family="Arial" font-size="13px" font-style="normal" font-weight="bold" text-decoration="none" x="714.130859375" y="746.5">User</text><text fill="#000000" stroke="none" font-family="Arial" font-size="13px" font-style="normal" font-weight="bold" text-decoration="none" x="702.200439453125" y="759.5">manager</text></g></g><g transform="translate(-62,-190) scale(1,1)"><path fill="none" stroke="#000000" d="M 847 718 L 739.3544921875 717.965078125" stroke-miterlimit="10"/></g><g transform="translate(-62,-190) scale(1,1)"><path fill="#C0C0C0" stroke="none" d="M 709.2353515625 642.5 C 709.2353515625 636.1487248 714.3840763625 631 720.7353515625 631 C 727.0866267625 631 732.2353515625 636.1487248 732.2353515625 642.5 C 732.2353515625 648.8512752 727.0866267625 654 720.7353515625 654 C 714.3840763625 654 709.2353515625 648.8512752 709.2353515625 642.5 Z" opacity="0.2"/></g><g transform="translate(-62,-190) scale(1,1)"><path fill="none" stroke="#000000" d="M 717.4731784259642 645.5943699562309 A 11.5 11.5 0 0 1 708.5268215740358 624.4056300437691" stroke-miterlimit="10"/></g><g transform="translate(-62,-190) scale(1,1)"><path fill="#ffffff" stroke="none" d="M 705.2353515625 635.5 C 705.2353515625 630.8055792 709.0409307625 627 713.7353515625 627 C 718.4297723625 627 722.2353515625 630.8055792 722.2353515625 635.5 C 722.2353515625 640.1944208 718.4297723625 644 713.7353515625 644 C 709.0409307625 644 705.2353515625 640.1944208 705.2353515625 635.5 Z"/></g><g transform="translate(-62,-190) scale(1,1)"><path fill="none" stroke="#000000" d="M 705.2353515625 635.5 C 705.2353515625 630.8055792 709.0409307625 627 713.7353515625 627 C 718.4297723625 627 722.2353515625 630.8055792 722.2353515625 635.5 C 722.2353515625 640.1944208 718.4297723625 644 713.7353515625 644 C 709.0409307625 644 705.2353515625 640.1944208 705.2353515625 635.5 Z" stroke-miterlimit="10"/></g><g transform="translate(-62,-190) scale(1,1)"><g><path fill="none" stroke="none"/><text fill="#000000" stroke="none" font-family="Arial" font-size="13px" font-style="normal" font-weight="bold" text-decoration="none" x="657.00634765625" y="666.5">Geographical areas</text><text fill="#000000" stroke="none" font-family="Arial" font-size="13px" font-style="normal" font-weight="bold" text-decoration="none" x="688.081298828125" y="679.5">manager</text></g></g><g transform="translate(-62,-190) scale(1,1)"><path fill="none" stroke="#000000" d="M 807 636 L 725.2353515625 635.2689088255495" stroke-miterlimit="10"/></g><g transform="translate(-62,-190) scale(1,1)"><path fill="#C0C0C0" stroke="none" d="M 725.42626953125 874.5 C 725.42626953125 868.1487248 730.57499433125 863 736.92626953125 863 C 743.27754473125 863 748.42626953125 868.1487248 748.42626953125 874.5 C 748.42626953125 880.8512752 743.27754473125 886 736.92626953125 886 C 730.57499433125 886 725.42626953125 880.8512752 725.42626953125 874.5 Z" opacity="0.2"/></g><g transform="translate(-62,-190) scale(1,1)"><path fill="none" stroke="#000000" d="M 726.3162110465338 878.182453972776 A 11.5 11.5 0 0 1 731.6837889534662 855.817546027224" stroke-miterlimit="10"/></g><g transform="translate(-62,-190) scale(1,1)"><path fill="#ffffff" stroke="none" d="M 721.42626953125 867.5 C 721.42626953125 862.8055792 725.23184873125 859 729.92626953125 859 C 734.62069033125 859 738.42626953125 862.8055792 738.42626953125 867.5 C 738.42626953125 872.1944208 734.62069033125 876 729.92626953125 876 C 725.23184873125 876 721.42626953125 872.1944208 721.42626953125 867.5 Z"/></g><g transform="translate(-62,-190) scale(1,1)"><path fill="none" stroke="#000000" d="M 721.42626953125 867.5 C 721.42626953125 862.8055792 725.23184873125 859 729.92626953125 859 C 734.62069033125 859 738.42626953125 862.8055792 738.42626953125 867.5 C 738.42626953125 872.1944208 734.62069033125 876 729.92626953125 876 C 725.23184873125 876 721.42626953125 872.1944208 721.42626953125 867.5 Z" stroke-miterlimit="10"/></g><g transform="translate(-62,-190) scale(1,1)"><g><path fill="none" stroke="none"/><text fill="#000000" stroke="none" font-family="Arial" font-size="13px" font-style="normal" font-weight="bold" text-decoration="none" x="698.489501953125" y="898.5">Safe areas</text><text fill="#000000" stroke="none" font-family="Arial" font-size="13px" font-style="normal" font-weight="bold" text-decoration="none" x="704.272216796875" y="911.5">manager</text></g></g><g transform="translate(-62,-190) scale(1,1)"><path fill="none" stroke="#000000" d="M 847 870 L 741.42626953125 869.2781494140625" stroke-miterlimit="10"/></g><g transform="translate(-62,-190) scale(1,1)"><path fill="none" stroke="#000000" d="M 495 687 L 724.5 564.8571428571429" stroke-miterlimit="10"/></g><g transform="translate(-62,-190) scale(1,1)"><path fill="none" stroke="#000000" d="M 501 715 L 716.3544921875 718.3267211914062" stroke-miterlimit="10"/></g><g transform="translate(-62,-190) scale(1,1)"><path fill="none" stroke="#000000" d="M 501 698 L 702.2353515625 639.5450737847223" stroke-miterlimit="10"/></g><g transform="translate(-62,-190) scale(1,1)"><path fill="none" stroke="#000000" d="M 483 733 L 718.42626953125 864.4623046875" stroke-miterlimit="10"/></g><g transform="translate(-62,-190) scale(1,1)"><path fill="#C0C0C0" stroke="none" d="M 1103.0126953125 778.5 C 1103.0126953125 772.1487248 1108.1614201125 767 1114.5126953125 767 C 1120.8639705125 767 1126.0126953125 772.1487248 1126.0126953125 778.5 C 1126.0126953125 784.8512752 1120.8639705125 790 1114.5126953125 790 C 1108.1614201125 790 1103.0126953125 784.8512752 1103.0126953125 778.5 Z" opacity="0.2"/></g><g transform="translate(-62,-190) scale(1,1)"><path fill="none" stroke="#000000" d="M 1110.2584806217 782.0287036426773 A 11.5 11.5 0 0 1 1103.7415193783 759.9712963573227" stroke-miterlimit="10"/></g><g transform="translate(-62,-190) scale(1,1)"><path fill="none" stroke="#000000" d="M 1100.3681432276155 780.3951304275447 A 11.5 11.5 0 0 1 1113.6318567723845 761.6048695724553" stroke-miterlimit="10"/></g><g transform="translate(-62,-190) scale(1,1)"><path fill="none" stroke="#000000" d="M 1106.21772528642 782.4733624658377 A 11.5 11.5 0 1 1 1107.78227471358 759.5266375341623" stroke-miterlimit="10"/></g><g transform="translate(-62,-190) scale(1,1)"><path fill="#ffffff" stroke="none" d="M 1099.0126953125 771.5 C 1099.0126953125 766.8055792 1102.8182745125 763 1107.5126953125 763 C 1112.2071161125 763 1116.0126953125 766.8055792 1116.0126953125 771.5 C 1116.0126953125 776.1944208 1112.2071161125 780 1107.5126953125 780 C 1102.8182745125 780 1099.0126953125 776.1944208 1099.0126953125 771.5 Z"/></g><g transform="translate(-62,-190) scale(1,1)"><path fill="none" stroke="#000000" d="M 1099.0126953125 771.5 C 1099.0126953125 766.8055792 1102.8182745125 763 1107.5126953125 763 C 1112.2071161125 763 1116.0126953125 766.8055792 1116.0126953125 771.5 C 1116.0126953125 776.1944208 1112.2071161125 780 1107.5126953125 780 C 1102.8182745125 780 1099.0126953125 776.1944208 1099.0126953125 771.5 Z" stroke-miterlimit="10"/></g><g transform="translate(-62,-190) scale(1,1)"><g><path fill="none" stroke="none"/><text fill="#000000" stroke="none" font-family="Arial" font-size="13px" font-style="normal" font-weight="bold" text-decoration="none" x="1071.385009765625" y="802.5">Bill manager</text></g></g><g transform="translate(-62,-190) scale(1,1)"><path fill="none" stroke="#000000" d="M 1183 774 L 1119.0126953125 772.8686414930555" stroke-miterlimit="10"/></g><g transform="translate(-62,-190) scale(1,1)"><path fill="none" stroke="#000000" d="M 922 782 L 1096.0126953125 774.2462491122159" stroke-miterlimit="10"/></g><g transform="translate(-62,-190) scale(1,1)"><path fill="none" stroke="#000000" d="M 964 573 L 1096.0126953125 763.2442555147059" stroke-miterlimit="10"/></g><g transform="translate(-62,-190) scale(1,1)"><path fill="none" stroke="#000000" d="M 970 733 L 1096.0126953125 770.2508655894886" stroke-miterlimit="10"/></g><g transform="translate(-62,-190) scale(1,1)"><path fill="none" stroke="#000000" d="M 912 572 L 912 600" stroke-miterlimit="10" stroke-dasharray="3"/></g><g transform="translate(-62,-190) scale(1,1)"><path fill="none" stroke="#000000" d="M 907.790482243984 589.8373251423759 L 912 600 L 916.209517756016 589.8373251423759" stroke-miterlimit="10"/></g><g transform="translate(-62,-190) scale(1,1)"><path fill="none" stroke="#000000" d="M 880 804 L 880 840" stroke-miterlimit="10" stroke-dasharray="3"/></g><g transform="translate(-62,-190) scale(1,1)"><path fill="none" stroke="#000000" d="M 875.790482243984 829.8373251423759 L 880 840 L 884.209517756016 829.8373251423759" stroke-miterlimit="10"/></g><g transform="translate(-62,-190) scale(1,1)"><path fill="none" stroke="#000000" d="M 944 572 L 944 688" stroke-miterlimit="10" stroke-dasharray="3"/></g><g transform="translate(-62,-190) scale(1,1)"><path fill="none" stroke="#000000" d="M 939.790482243984 677.8373251423759 L 944 688 L 948.209517756016 677.8373251423759" stroke-miterlimit="10"/></g><g transform="translate(-62,-190) scale(1,1)"><path fill="none" stroke="#000000" d="M 880 650 L 880 688" stroke-miterlimit="10" stroke-dasharray="3"/></g><g transform="translate(-62,-190) scale(1,1)"><path fill="none" stroke="#000000" d="M 875.790482243984 677.8373251423759 L 880 688 L 884.209517756016 677.8373251423759" stroke-miterlimit="10"/></g><g transform="translate(-62,-190) scale(1,1)"><path fill="none" stroke="#000000" d="M 936 840 L 936 732" stroke-miterlimit="10" stroke-dasharray="3"/></g><g transform="translate(-62,-190) scale(1,1)"><path fill="none" stroke="#000000" d="M 940.209517756016 742.1626748576241 L 936 732 L 931.790482243984 742.1626748576241" stroke-miterlimit="10"/></g><g transform="translate(-62,-190) scale(1,1)"><path fill="none" stroke="#000000" d="M 880 760 L 880 732" stroke-miterlimit="10" stroke-dasharray="3"/></g><g transform="translate(-62,-190) scale(1,1)"><path fill="none" stroke="#000000" d="M 884.209517756016 742.1626748576241 L 880 732 L 875.790482243984 742.1626748576241" stroke-miterlimit="10"/></g><g transform="translate(-62,-190) scale(1,1)"><path fill="none" stroke="#000000" d="M 1056 456 L 968 456" stroke-miterlimit="10" stroke-dasharray="3"/></g><g transform="translate(-62,-190) scale(1,1)"><path fill="none" stroke="#000000" d="M 978.1626748576241 451.790482243984 L 968 456 L 978.1626748576241 460.209517756016" stroke-miterlimit="10"/></g><g transform="translate(-62,-190) scale(1,1)"><path fill="none" stroke="#000000" d="M 1008 552 L 1080 552 L 1080 484" stroke-miterlimit="10" stroke-dasharray="3"/></g><g transform="translate(-62,-190) scale(1,1)"><path fill="none" stroke="#000000" d="M 1084.2095177560159 494.16267485762415 L 1080 484 L 1075.7904822439841 494.16267485762415" stroke-miterlimit="10"/></g><g transform="translate(-62,-190) scale(1,1)"><path fill="none" stroke="#000000" d="M 832 760 L 832 740 L 784 740 L 784 504 L 912 504 L 912 484" stroke-miterlimit="10" stroke-dasharray="3"/></g><g transform="translate(-62,-190) scale(1,1)"><path fill="none" stroke="#000000" d="M 916.209517756016 494.16267485762415 L 912 484 L 907.790482243984 494.16267485762415" stroke-miterlimit="10"/></g><g transform="translate(-62,-190) scale(1,1)"><rect fill="#C0C0C0" stroke="none" x="97" y="823" width="87.6181640625" height="44" opacity="0.2"/></g><g transform="translate(-62,-190) scale(1,1)"><rect fill="#ffffff" stroke="none" x="90" y="816" width="87.6181640625" height="44"/></g><g transform="translate(-62,-190) scale(1,1)"><path fill="none" stroke="#000000" d="M 90 816 L 177.6181640625 816 L 177.6181640625 860 L 90 860 L 90 816 Z Z" stroke-miterlimit="10"/></g><g transform="translate(-62,-190) scale(1,1)"><rect fill="#ffffff" stroke="none" x="80" y="823" width="20" height="10"/></g><g transform="translate(-62,-190) scale(1,1)"><path fill="none" stroke="#000000" d="M 80 823 L 100 823 L 100 833 L 80 833 L 80 823 Z Z" stroke-miterlimit="10"/></g><g transform="translate(-62,-190) scale(1,1)"><rect fill="#ffffff" stroke="none" x="80" y="843" width="20" height="10"/></g><g transform="translate(-62,-190) scale(1,1)"><path fill="none" stroke="#000000" d="M 80 843 L 100 843 L 100 853 L 80 853 L 80 843 Z Z" stroke-miterlimit="10"/></g><g transform="translate(-62,-190) scale(1,1)"><g><path fill="none" stroke="none"/><text fill="#000000" stroke="none" font-family="Arial" font-size="13px" font-style="normal" font-weight="bold" text-decoration="none" x="125.08544921875" y="835.5">User</text><text fill="#000000" stroke="none" font-family="Arial" font-size="13px" font-style="normal" font-weight="bold" text-decoration="none" x="107.73095703125" y="848.5">application</text></g></g><g transform="translate(-62,-190) scale(1,1)"><path fill="none" stroke="#000000" d="M 278.57280299048796 787.6546319891291 A 11.5 11.5 0 0 1 263.42719700951204 770.3453680108709" stroke-miterlimit="10"/></g><g transform="translate(-62,-190) scale(1,1)"><path fill="#ffffff" stroke="none" d="M 263.094970703125 779.5 C 263.094970703125 774.8055792 266.900549903125 771 271.594970703125 771 C 276.289391503125 771 280.094970703125 774.8055792 280.094970703125 779.5 C 280.094970703125 784.1944208 276.289391503125 788 271.594970703125 788 C 266.900549903125 788 263.094970703125 784.1944208 263.094970703125 779.5 Z"/></g><g transform="translate(-62,-190) scale(1,1)"><path fill="none" stroke="#000000" d="M 263.094970703125 779.5 C 263.094970703125 774.8055792 266.900549903125 771 271.594970703125 771 C 276.289391503125 771 280.094970703125 774.8055792 280.094970703125 779.5 C 280.094970703125 784.1944208 276.289391503125 788 271.594970703125 788 C 266.900549903125 788 263.094970703125 784.1944208 263.094970703125 779.5 Z" stroke-miterlimit="10"/></g><g transform="translate(-62,-190) scale(1,1)"><g><path fill="none" stroke="none"/><text fill="#000000" stroke="none" font-family="Arial" font-size="13px" font-style="normal" font-weight="bold" text-decoration="none" x="257.871337890625" y="810.5">User</text><text fill="#000000" stroke="none" font-family="Arial" font-size="13px" font-style="normal" font-weight="bold" text-decoration="none" x="246.66455078125" y="823.5">interface</text></g></g><g transform="translate(-62,-190) scale(1,1)"><path fill="none" stroke="#000000" d="M 400 733 L 283.094970703125 779.7330285274621" stroke-miterlimit="10"/></g><g transform="translate(-62,-190) scale(1,1)"><path fill="none" stroke="#000000" d="M 179 824 L 260.094970703125 788.5419006347656" stroke-miterlimit="10"/></g><g transform="translate(-62,-190) scale(1,1)"><rect fill="#C0C0C0" stroke="none" x="89" y="623" width="102" height="44" opacity="0.2"/></g><g transform="translate(-62,-190) scale(1,1)"><rect fill="#ffffff" stroke="none" x="82" y="616" width="102" height="44"/></g><g transform="translate(-62,-190) scale(1,1)"><path fill="none" stroke="#000000" d="M 82 616 L 184 616 L 184 660 L 82 660 L 82 616 Z Z" stroke-miterlimit="10"/></g><g transform="translate(-62,-190) scale(1,1)"><rect fill="#ffffff" stroke="none" x="72" y="623" width="20" height="10"/></g><g transform="translate(-62,-190) scale(1,1)"><path fill="none" stroke="#000000" d="M 72 623 L 92 623 L 92 633 L 72 633 L 72 623 Z Z" stroke-miterlimit="10"/></g><g transform="translate(-62,-190) scale(1,1)"><rect fill="#ffffff" stroke="none" x="72" y="643" width="20" height="10"/></g><g transform="translate(-62,-190) scale(1,1)"><path fill="none" stroke="#000000" d="M 72 643 L 92 643 L 92 653 L 72 653 L 72 643 Z Z" stroke-miterlimit="10"/></g><g transform="translate(-62,-190) scale(1,1)"><g><path fill="none" stroke="none"/><text fill="#000000" stroke="none" font-family="Arial" font-size="13px" font-style="normal" font-weight="bold" text-decoration="none" x="109.095947265625" y="635.5">Employee</text><text fill="#000000" stroke="none" font-family="Arial" font-size="13px" font-style="normal" font-weight="bold" text-decoration="none" x="106.921875" y="648.5">application</text></g></g><g transform="translate(-62,-190) scale(1,1)"><path fill="#C0C0C0" stroke="none" d="M 267.607666015625 682.5 C 267.607666015625 676.1487248 272.756390815625 671 279.107666015625 671 C 285.458941215625 671 290.607666015625 676.1487248 290.607666015625 682.5 C 290.607666015625 688.8512752 285.458941215625 694 279.107666015625 694 C 272.756390815625 694 267.607666015625 688.8512752 267.607666015625 682.5 Z" opacity="0.2"/></g><g transform="translate(-62,-190) scale(1,1)"><path fill="none" stroke="#000000" d="M 270.942955371504 686.4513168087067 A 11.5 11.5 0 0 1 273.057044628496 663.5486831912933" stroke-miterlimit="10"/></g><g transform="translate(-62,-190) scale(1,1)"><path fill="#ffffff" stroke="none" d="M 263.607666015625 675.5 C 263.607666015625 670.8055792 267.413245215625 667 272.107666015625 667 C 276.802086815625 667 280.607666015625 670.8055792 280.607666015625 675.5 C 280.607666015625 680.1944208 276.802086815625 684 272.107666015625 684 C 267.413245215625 684 263.607666015625 680.1944208 263.607666015625 675.5 Z"/></g><g transform="translate(-62,-190) scale(1,1)"><path fill="none" stroke="#000000" d="M 263.607666015625 675.5 C 263.607666015625 670.8055792 267.413245215625 667 272.107666015625 667 C 276.802086815625 667 280.607666015625 670.8055792 280.607666015625 675.5 C 280.607666015625 680.1944208 276.802086815625 684 272.107666015625 684 C 267.413245215625 684 263.607666015625 680.1944208 263.607666015625 675.5 Z" stroke-miterlimit="10"/></g><g transform="translate(-62,-190) scale(1,1)"><g><path fill="none" stroke="none"/><text fill="#000000" stroke="none" font-family="Arial" font-size="13px" font-style="normal" font-weight="bold" text-decoration="none" x="243.20361328125" y="706.5">Employee</text><text fill="#000000" stroke="none" font-family="Arial" font-size="13px" font-style="normal" font-weight="bold" text-decoration="none" x="247.17724609375" y="719.5">interface</text></g></g><g transform="translate(-62,-190) scale(1,1)"><path fill="none" stroke="#000000" d="M 391 705 L 283.607666015625 679.4644869290865" stroke-miterlimit="10"/></g><g transform="translate(-62,-190) scale(1,1)"><path fill="none" stroke="#000000" d="M 185 660 L 260.607666015625 673.9483999399039" stroke-miterlimit="10"/></g><g transform="translate(-62,-190) scale(1,1)"><path fill="#C0C0C0" stroke="none" d="M 899.483154296875 362.5 C 899.483154296875 356.1487248 904.631879096875 351 910.983154296875 351 C 917.334429496875 351 922.483154296875 356.1487248 922.483154296875 362.5 C 922.483154296875 368.8512752 917.334429496875 374 910.983154296875 374 C 904.631879096875 374 899.483154296875 368.8512752 899.483154296875 362.5 Z" opacity="0.2"/></g><g transform="translate(-62,-190) scale(1,1)"><path fill="none" stroke="#000000" d="M 891.6564698759304 353.10941164598836 A 11.5 11.5 0 0 1 914.3435301240696 356.89058835401164" stroke-miterlimit="10"/></g><g transform="translate(-62,-190) scale(1,1)"><path fill="#ffffff" stroke="none" d="M 895.483154296875 355.5 C 895.483154296875 350.8055792 899.288733496875 347 903.983154296875 347 C 908.677575096875 347 912.483154296875 350.8055792 912.483154296875 355.5 C 912.483154296875 360.1944208 908.677575096875 364 903.983154296875 364 C 899.288733496875 364 895.483154296875 360.1944208 895.483154296875 355.5 Z"/></g><g transform="translate(-62,-190) scale(1,1)"><path fill="none" stroke="#000000" d="M 895.483154296875 355.5 C 895.483154296875 350.8055792 899.288733496875 347 903.983154296875 347 C 908.677575096875 347 912.483154296875 350.8055792 912.483154296875 355.5 C 912.483154296875 360.1944208 908.677575096875 364 903.983154296875 364 C 899.288733496875 364 895.483154296875 360.1944208 895.483154296875 355.5 Z" stroke-miterlimit="10"/></g><g transform="translate(-62,-190) scale(1,1)"><g><path fill="none" stroke="none"/><text fill="#000000" stroke="none" font-family="Arial" font-size="13px" font-style="normal" font-weight="bold" text-decoration="none" x="861.35546875" y="386.5">Car monitoring</text><text fill="#000000" stroke="none" font-family="Arial" font-size="13px" font-style="normal" font-weight="bold" text-decoration="none" x="879.052734375" y="399.5">interface</text></g></g><g transform="translate(-62,-190) scale(1,1)"><path fill="none" stroke="#000000" d="M 907 439 L 903.4705882352941 367" stroke-miterlimit="10"/></g><g transform="translate(-62,-190) scale(1,1)"><rect fill="#C0C0C0" stroke="none" x="873" y="207" width="102" height="50" opacity="0.2"/></g><g transform="translate(-62,-190) scale(1,1)"><rect fill="#ffffff" stroke="none" x="866" y="200" width="102" height="50"/></g><g transform="translate(-62,-190) scale(1,1)"><path fill="none" stroke="#000000" d="M 866 200 L 968 200 L 968 250 L 866 250 L 866 200 Z Z" stroke-miterlimit="10"/></g><g transform="translate(-62,-190) scale(1,1)"><rect fill="#ffffff" stroke="none" x="856" y="207" width="20" height="10"/></g><g transform="translate(-62,-190) scale(1,1)"><path fill="none" stroke="#000000" d="M 856 207 L 876 207 L 876 217 L 856 217 L 856 207 Z Z" stroke-miterlimit="10"/></g><g transform="translate(-62,-190) scale(1,1)"><rect fill="#ffffff" stroke="none" x="856" y="227" width="20" height="10"/></g><g transform="translate(-62,-190) scale(1,1)"><path fill="none" stroke="#000000" d="M 856 227 L 876 227 L 876 237 L 856 237 L 856 227 Z Z" stroke-miterlimit="10"/></g><g transform="translate(-62,-190) scale(1,1)"><g><path fill="none" stroke="none"/><text fill="#000000" stroke="none" font-family="Arial" font-size="13px" font-style="normal" font-weight="bold" text-decoration="none" x="911.5263671875" y="219.5">Car</text><text fill="#000000" stroke="none" font-family="Arial" font-size="13px" font-style="normal" font-weight="bold" text-decoration="none" x="891.65185546875" y="232.5">monitoring</text><text fill="#000000" stroke="none" font-family="Arial" font-size="13px" font-style="normal" font-weight="bold" text-decoration="none" x="901.41455078125" y="245.5">system</text></g></g><g transform="translate(-62,-190) scale(1,1)"><path fill="none" stroke="#000000" d="M 910 251 L 904.8333333333334 344" stroke-miterlimit="10"/></g><g transform="translate(-62,-190) scale(1,1)"><rect fill="#C0C0C0" stroke="none" x="1569" y="679" width="98.44091796875" height="44" opacity="0.2"/></g><g transform="translate(-62,-190) scale(1,1)"><rect fill="#ffffff" stroke="none" x="1562" y="672" width="98.44091796875" height="44"/></g><g transform="translate(-62,-190) scale(1,1)"><path fill="none" stroke="#000000" d="M 1562 672 L 1660.44091796875 672 L 1660.44091796875 716 L 1562 716 L 1562 672 Z Z" stroke-miterlimit="10"/></g><g transform="translate(-62,-190) scale(1,1)"><rect fill="#ffffff" stroke="none" x="1552" y="679" width="20" height="10"/></g><g transform="translate(-62,-190) scale(1,1)"><path fill="none" stroke="#000000" d="M 1552 679 L 1572 679 L 1572 689 L 1552 689 L 1552 679 Z Z" stroke-miterlimit="10"/></g><g transform="translate(-62,-190) scale(1,1)"><rect fill="#ffffff" stroke="none" x="1552" y="699" width="20" height="10"/></g><g transform="translate(-62,-190) scale(1,1)"><path fill="none" stroke="#000000" d="M 1552 699 L 1572 699 L 1572 709 L 1552 709 L 1552 699 Z Z" stroke-miterlimit="10"/></g><g transform="translate(-62,-190) scale(1,1)"><g><path fill="none" stroke="none"/><text fill="#000000" stroke="none" font-family="Arial" font-size="13px" font-style="normal" font-weight="bold" text-decoration="none" x="1597.44091796875" y="691.5">DBMS</text></g></g><g transform="translate(-62,-190) scale(1,1)"><path fill="#C0C0C0" stroke="none" d="M 1434.2626953125 706.5 C 1434.2626953125 700.1487248 1439.4114201125 695 1445.7626953125 695 C 1452.1139705125 695 1457.2626953125 700.1487248 1457.2626953125 706.5 C 1457.2626953125 712.8512752 1452.1139705125 718 1445.7626953125 718 C 1439.4114201125 718 1434.2626953125 712.8512752 1434.2626953125 706.5 Z" opacity="0.2"/></g><g transform="translate(-62,-190) scale(1,1)"><path fill="none" stroke="#000000" d="M 1444.1874077086015 708.6936054101423 A 11.5 11.5 0 0 1 1431.8125922913985 689.3063945898577" stroke-miterlimit="10"/></g><g transform="translate(-62,-190) scale(1,1)"><path fill="none" stroke="#000000" d="M 1434.6180127383686 709.9914586003024 A 11.5 11.5 0 0 1 1441.3819872616314 688.0085413996976" stroke-miterlimit="10"/></g><g transform="translate(-62,-190) scale(1,1)"><path fill="none" stroke="#000000" d="M 1438.7325517735915 710.4766444529317 A 11.5 11.5 0 0 1 1437.2674482264085 687.5233555470683" stroke-miterlimit="10"/></g><g transform="translate(-62,-190) scale(1,1)"><path fill="none" stroke="#000000" d="M 1440.6206713748456 710.1974140561589 A 11.5 11.5 0 0 1 1435.3793286251544 687.8025859438411" stroke-miterlimit="10"/></g><g transform="translate(-62,-190) scale(1,1)"><path fill="none" stroke="#000000" d="M 1442.112943565981 709.7393526445059 A 11.5 11.5 0 0 1 1433.887056434019 688.2606473554941" stroke-miterlimit="10"/></g><g transform="translate(-62,-190) scale(1,1)"><path fill="none" stroke="#000000" d="M 1447.6550568072498 705.2473896988087 A 11.5 11.5 0 0 1 1428.3449431927502 692.7526103011913" stroke-miterlimit="10"/></g><g transform="translate(-62,-190) scale(1,1)"><path fill="none" stroke="#000000" d="M 1446.299338107053 706.9605896128877 A 11.5 11.5 0 0 1 1429.700661892947 691.0394103871123" stroke-miterlimit="10"/></g><g transform="translate(-62,-190) scale(1,1)"><path fill="#ffffff" stroke="none" d="M 1430.2626953125 699.5 C 1430.2626953125 694.8055792 1434.0682745125 691 1438.7626953125 691 C 1443.4571161125 691 1447.2626953125 694.8055792 1447.2626953125 699.5 C 1447.2626953125 704.1944208 1443.4571161125 708 1438.7626953125 708 C 1434.0682745125 708 1430.2626953125 704.1944208 1430.2626953125 699.5 Z"/></g><g transform="translate(-62,-190) scale(1,1)"><path fill="none" stroke="#000000" d="M 1430.2626953125 699.5 C 1430.2626953125 694.8055792 1434.0682745125 691 1438.7626953125 691 C 1443.4571161125 691 1447.2626953125 694.8055792 1447.2626953125 699.5 C 1447.2626953125 704.1944208 1443.4571161125 708 1438.7626953125 708 C 1434.0682745125 708 1430.2626953125 704.1944208 1430.2626953125 699.5 Z" stroke-miterlimit="10"/></g><g transform="translate(-62,-190) scale(1,1)"><g><path fill="none" stroke="none"/><text fill="#000000" stroke="none" font-family="Arial" font-size="13px" font-style="normal" font-weight="bold" text-decoration="none" x="1425.75634765625" y="730.5">SQL</text><text fill="#000000" stroke="none" font-family="Arial" font-size="13px" font-style="normal" font-weight="bold" text-decoration="none" x="1413.832275390625" y="743.5">interface</text></g></g><g transform="translate(-62,-190) scale(1,1)"><path fill="none" stroke="#000000" d="M 1551 702 L 1450.2626953125 702.0031090561224" stroke-miterlimit="10"/></g><g transform="translate(-62,-190) scale(1,1)"><path fill="none" stroke="#000000" d="M 1298 752 L 1427.2626953125 705.8535987367021" stroke-miterlimit="10"/></g><g transform="translate(-62,-190) scale(1,1)"><path fill="none" stroke="#000000" d="M 1141 485 L 1427.2626953125 695.6962139423077" stroke-miterlimit="10"/></g><g transform="translate(-62,-190) scale(1,1)"><path fill="none" stroke="#000000" d="M 1009 571 L 1427.2626953125 699.6853598736702" stroke-miterlimit="10"/></g><g transform="translate(-62,-190) scale(1,1)"><path fill="none" stroke="#000000" d="M 929 635 L 1427.2626953125 701.5129862034574" stroke-miterlimit="10"/></g><g transform="translate(-62,-190) scale(1,1)"><path fill="none" stroke="#000000" d="M 970 711 L 1427.2626953125 703.1121592420212" stroke-miterlimit="10"/></g><g transform="translate(-62,-190) scale(1,1)"><path fill="none" stroke="#000000" d="M 969 862 L 1288 864 L 1430.235294117647 711" stroke-miterlimit="10"/></g><g transform="translate(-62,-190) scale(1,1)"><path fill="none" stroke="#000000" d="M 922 798 L 1024 824 L 1272 824 L 1427.2626953125 710.1942112699468" stroke-miterlimit="10"/></g><g transform="translate(-62,-190) scale(1,1)"><path fill="none" stroke="#000000" d="M 948 528 L 948 512 L 792 512 L 792 696 L 840 696 L 840 760" stroke-miterlimit="10" stroke-dasharray="3"/></g><g transform="translate(-62,-190) scale(1,1)"><path fill="none" stroke="#000000" d="M 835.790482243984 749.8373251423759 L 840 760 L 844.209517756016 749.8373251423759" stroke-miterlimit="10"/></g><g transform="translate(-62,-190) scale(1,1)"><path fill="none" stroke="#000000" d="M 1104 484 L 1104 625 L 928 625" stroke-miterlimit="10" stroke-dasharray="3"/></g><g transform="translate(-62,-190) scale(1,1)"><path fill="none" stroke="#000000" d="M 938.1626748576241 620.790482243984 L 928 625 L 938.1626748576241 629.209517756016" stroke-miterlimit="10"/></g><g transform="translate(-62,-190) scale(1,1)"><path fill="none" stroke="#000000" d="M 1128 484 L 1128 848 L 968 848" stroke-miterlimit="10" stroke-dasharray="3"/></g><g transform="translate(-62,-190) scale(1,1)"><path fill="none" stroke="#000000" d="M 978.1626748576241 843.790482243984 L 968 848 L 978.1626748576241 852.209517756016" stroke-miterlimit="10"/></g><g transform="translate(-62,-190) scale(1,1)"><rect fill="#C0C0C0" stroke="none" x="1033" y="215" width="142" height="44" opacity="0.2"/></g><g transform="translate(-62,-190) scale(1,1)"><rect fill="#fafa83" stroke="none" x="1026" y="208" width="142" height="44"/></g><g transform="translate(-62,-190) scale(1,1)"><path fill="none" stroke="#000000" d="M 1026 208 L 1168 208 L 1168 252 L 1026 252 L 1026 208 Z Z" stroke-miterlimit="10"/></g><g transform="translate(-62,-190) scale(1,1)"><rect fill="#fafa83" stroke="none" x="1016" y="215" width="20" height="10"/></g><g transform="translate(-62,-190) scale(1,1)"><path fill="none" stroke="#000000" d="M 1016 215 L 1036 215 L 1036 225 L 1016 225 L 1016 215 Z Z" stroke-miterlimit="10"/></g><g transform="translate(-62,-190) scale(1,1)"><rect fill="#fafa83" stroke="none" x="1016" y="235" width="20" height="10"/></g><g transform="translate(-62,-190) scale(1,1)"><path fill="none" stroke="#000000" d="M 1016 235 L 1036 235 L 1036 245 L 1016 245 L 1016 235 Z Z" stroke-miterlimit="10"/></g><g transform="translate(-62,-190) scale(1,1)"><g><path fill="none" stroke="none"/><text fill="#000000" stroke="none" font-family="Arial" font-size="13px" font-style="normal" font-weight="bold" text-decoration="none" x="1046.372314453125" y="227.5">External system for</text><text fill="#000000" stroke="none" font-family="Arial" font-size="13px" font-style="normal" font-weight="bold" text-decoration="none" x="1047.080078125" y="240.5">address translation</text></g></g><g transform="translate(-62,-190) scale(1,1)"><path fill="#C0C0C0" stroke="none" d="M 1081.943115234375 362.5 C 1081.943115234375 356.1487248 1087.091840034375 351 1093.443115234375 351 C 1099.794390434375 351 1104.943115234375 356.1487248 1104.943115234375 362.5 C 1104.943115234375 368.8512752 1099.794390434375 374 1093.443115234375 374 C 1087.091840034375 374 1081.943115234375 368.8512752 1081.943115234375 362.5 Z" opacity="0.2"/></g><g transform="translate(-62,-190) scale(1,1)"><path fill="none" stroke="#000000" d="M 1096.3260883113603 360.0618079957649 A 11.5 11.5 0 0 1 1075.6739116886397 349.9381920042351" stroke-miterlimit="10"/></g><g transform="translate(-62,-190) scale(1,1)"><path fill="#ffffff" stroke="none" d="M 1077.943115234375 355.5 C 1077.943115234375 350.8055792 1081.748694434375 347 1086.443115234375 347 C 1091.137536034375 347 1094.943115234375 350.8055792 1094.943115234375 355.5 C 1094.943115234375 360.1944208 1091.137536034375 364 1086.443115234375 364 C 1081.748694434375 364 1077.943115234375 360.1944208 1077.943115234375 355.5 Z"/></g><g transform="translate(-62,-190) scale(1,1)"><path fill="none" stroke="#000000" d="M 1077.943115234375 355.5 C 1077.943115234375 350.8055792 1081.748694434375 347 1086.443115234375 347 C 1091.137536034375 347 1094.943115234375 350.8055792 1094.943115234375 355.5 C 1094.943115234375 360.1944208 1091.137536034375 364 1086.443115234375 364 C 1081.748694434375 364 1077.943115234375 360.1944208 1077.943115234375 355.5 Z" stroke-miterlimit="10"/></g><g transform="translate(-62,-190) scale(1,1)"><g><path fill="none" stroke="none"/><text fill="#000000" stroke="none" font-family="Arial" font-size="13px" font-style="normal" font-weight="bold" text-decoration="none" x="1030.802734375" y="386.5">Address translation</text><text fill="#000000" stroke="none" font-family="Arial" font-size="13px" font-style="normal" font-weight="bold" text-decoration="none" x="1061.5126953125" y="399.5">interface</text></g></g><g transform="translate(-62,-190) scale(1,1)"><path fill="none" stroke="#000000" d="M 1091 253 L 1086.9166666666667 344" stroke-miterlimit="10"/></g><g transform="translate(-62,-190) scale(1,1)"><path fill="none" stroke="#000000" d="M 966 527 L 1080.1176470588234 367" stroke-miterlimit="10"/></g><g transform="translate(-62,-190) scale(1,1)"><rect fill="#C0C0C0" stroke="none" x="1233" y="207" width="190" height="50" opacity="0.2"/></g><g transform="translate(-62,-190) scale(1,1)"><rect fill="#fafa83" stroke="none" x="1226" y="200" width="190" height="50"/></g><g transform="translate(-62,-190) scale(1,1)"><path fill="none" stroke="#000000" d="M 1226 200 L 1416 200 L 1416 250 L 1226 250 L 1226 200 Z Z" stroke-miterlimit="10"/></g><g transform="translate(-62,-190) scale(1,1)"><rect fill="#fafa83" stroke="none" x="1216" y="207" width="20" height="10"/></g><g transform="translate(-62,-190) scale(1,1)"><path fill="none" stroke="#000000" d="M 1216 207 L 1236 207 L 1236 217 L 1216 217 L 1216 207 Z Z" stroke-miterlimit="10"/></g><g transform="translate(-62,-190) scale(1,1)"><rect fill="#fafa83" stroke="none" x="1216" y="227" width="20" height="10"/></g><g transform="translate(-62,-190) scale(1,1)"><path fill="none" stroke="#000000" d="M 1216 227 L 1236 227 L 1236 237 L 1216 237 L 1216 227 Z Z" stroke-miterlimit="10"/></g><g transform="translate(-62,-190) scale(1,1)"><g><path fill="none" stroke="none"/><text fill="#000000" stroke="none" font-family="Arial" font-size="13px" font-style="normal" font-weight="bold" text-decoration="none" x="1249.418701171875" y="219.5">External system for driving</text><text fill="#000000" stroke="none" font-family="Arial" font-size="13px" font-style="normal" font-weight="bold" text-decoration="none" x="1276.497802734375" y="232.5">licence validation</text></g></g><g transform="translate(-62,-190) scale(1,1)"><path fill="#C0C0C0" stroke="none" d="M 1243.284912109375 362.5 C 1243.284912109375 356.1487248 1248.433636909375 351 1254.784912109375 351 C 1261.136187309375 351 1266.284912109375 356.1487248 1266.284912109375 362.5 C 1266.284912109375 368.8512752 1261.136187309375 374 1254.784912109375 374 C 1248.433636909375 374 1243.284912109375 368.8512752 1243.284912109375 362.5 Z" opacity="0.2"/></g><g transform="translate(-62,-190) scale(1,1)"><path fill="none" stroke="#000000" d="M 1258.4911674334128 355.4506340169966 A 11.5 11.5 0 0 1 1235.5088325665872 354.5493659830034" stroke-miterlimit="10"/></g><g transform="translate(-62,-190) scale(1,1)"><path fill="#ffffff" stroke="none" d="M 1239.284912109375 355.5 C 1239.284912109375 350.8055792 1243.090491309375 347 1247.784912109375 347 C 1252.479332909375 347 1256.284912109375 350.8055792 1256.284912109375 355.5 C 1256.284912109375 360.1944208 1252.479332909375 364 1247.784912109375 364 C 1243.090491309375 364 1239.284912109375 360.1944208 1239.284912109375 355.5 Z"/></g><g transform="translate(-62,-190) scale(1,1)"><path fill="none" stroke="#000000" d="M 1239.284912109375 355.5 C 1239.284912109375 350.8055792 1243.090491309375 347 1247.784912109375 347 C 1252.479332909375 347 1256.284912109375 350.8055792 1256.284912109375 355.5 C 1256.284912109375 360.1944208 1252.479332909375 364 1247.784912109375 364 C 1243.090491309375 364 1239.284912109375 360.1944208 1239.284912109375 355.5 Z" stroke-miterlimit="10"/></g><g transform="translate(-62,-190) scale(1,1)"><g><path fill="none" stroke="none"/><text fill="#000000" stroke="none" font-family="Arial" font-size="13px" font-style="normal" font-weight="bold" text-decoration="none" x="1176.25" y="386.5">Driving licence validation</text><text fill="#000000" stroke="none" font-family="Arial" font-size="13px" font-style="normal" font-weight="bold" text-decoration="none" x="1222.8544921875" y="399.5">interface</text></g></g><g transform="translate(-62,-190) scale(1,1)"><path fill="none" stroke="#000000" d="M 1304 251 L 1259.284912109375 344.47007533482144" stroke-miterlimit="10"/></g><g transform="translate(-62,-190) scale(1,1)"><path fill="none" stroke="#000000" d="M 970 697 L 1200 648 L 1240 504 L 1246.5294117647059 367" stroke-miterlimit="10"/></g><g transform="translate(-62,-190) scale(1,1)"><rect fill="#C0C0C0" stroke="none" x="1169" y="1007" width="150" height="44" opacity="0.2"/></g><g transform="translate(-62,-190) scale(1,1)"><rect fill="#fafa83" stroke="none" x="1162" y="1000" width="150" height="44"/></g><g transform="translate(-62,-190) scale(1,1)"><path fill="none" stroke="#000000" d="M 1162 1000 L 1312 1000 L 1312 1044 L 1162 1044 L 1162 1000 Z Z" stroke-miterlimit="10"/></g><g transform="translate(-62,-190) scale(1,1)"><rect fill="#fafa83" stroke="none" x="1152" y="1007" width="20" height="10"/></g><g transform="translate(-62,-190) scale(1,1)"><path fill="none" stroke="#000000" d="M 1152 1007 L 1172 1007 L 1172 1017 L 1152 1017 L 1152 1007 Z Z" stroke-miterlimit="10"/></g><g transform="translate(-62,-190) scale(1,1)"><rect fill="#fafa83" stroke="none" x="1152" y="1027" width="20" height="10"/></g><g transform="translate(-62,-190) scale(1,1)"><path fill="none" stroke="#000000" d="M 1152 1027 L 1172 1027 L 1172 1037 L 1152 1037 L 1152 1027 Z Z" stroke-miterlimit="10"/></g><g transform="translate(-62,-190) scale(1,1)"><g><path fill="none" stroke="none"/><text fill="#000000" stroke="none" font-family="Arial" font-size="13px" font-style="normal" font-weight="bold" text-decoration="none" x="1186.372314453125" y="1019.5">External system for</text><text fill="#000000" stroke="none" font-family="Arial" font-size="13px" font-style="normal" font-weight="bold" text-decoration="none" x="1183.830078125" y="1032.5">payment processing</text></g></g><g transform="translate(-62,-190) scale(1,1)"><path fill="#C0C0C0" stroke="none" d="M 1228.47900390625 946.5 C 1228.47900390625 940.1487248 1233.62772870625 935 1239.97900390625 935 C 1246.33027910625 935 1251.47900390625 940.1487248 1251.47900390625 946.5 C 1251.47900390625 952.8512752 1246.33027910625 958 1239.97900390625 958 C 1233.62772870625 958 1228.47900390625 952.8512752 1228.47900390625 946.5 Z" opacity="0.2"/></g><g transform="translate(-62,-190) scale(1,1)"><path fill="none" stroke="#000000" d="M 1220.539723780184 938.0449769816819 A 11.5 11.5 0 0 1 1243.460276219816 939.9550230183181" stroke-miterlimit="10"/></g><g transform="translate(-62,-190) scale(1,1)"><path fill="#ffffff" stroke="none" d="M 1224.47900390625 939.5 C 1224.47900390625 934.8055792 1228.28458310625 931 1232.97900390625 931 C 1237.67342470625 931 1241.47900390625 934.8055792 1241.47900390625 939.5 C 1241.47900390625 944.1944208 1237.67342470625 948 1232.97900390625 948 C 1228.28458310625 948 1224.47900390625 944.1944208 1224.47900390625 939.5 Z"/></g><g transform="translate(-62,-190) scale(1,1)"><path fill="none" stroke="#000000" d="M 1224.47900390625 939.5 C 1224.47900390625 934.8055792 1228.28458310625 931 1232.97900390625 931 C 1237.67342470625 931 1241.47900390625 934.8055792 1241.47900390625 939.5 C 1241.47900390625 944.1944208 1237.67342470625 948 1232.97900390625 948 C 1228.28458310625 948 1224.47900390625 944.1944208 1224.47900390625 939.5 Z" stroke-miterlimit="10"/></g><g transform="translate(-62,-190) scale(1,1)"><g><path fill="none" stroke="none"/><text fill="#000000" stroke="none" font-family="Arial" font-size="13px" font-style="normal" font-weight="bold" text-decoration="none" x="1147.352294921875" y="970.5">Payment processing interface</text></g></g><g transform="translate(-62,-190) scale(1,1)"><path fill="none" stroke="#000000" d="M 1232 999 L 1232 951" stroke-miterlimit="10"/></g><g transform="translate(-62,-190) scale(1,1)"><path fill="none" stroke="#000000" d="M 1239 789 L 1232.9166666666667 928" stroke-miterlimit="10"/></g></g></svg>